<svg width="60" height="60" viewBox="0 0 60 60" fill="none" xmlns="http://www.w3.org/2000/svg">
<g clip-path="url(#clip0_2311_41810)">
<path d="M27.0259 59.4265L37.462 53.3613C37.3485 53.5228 37.2021 53.6585 37.0325 53.7594L26.5964 59.822C26.7671 59.7236 26.9138 59.5885 27.0259 59.4265Z" fill="#4D7A85"/>
<path d="M29.8021 55.5218L40.2381 49.4592L37.4622 53.3613L27.0261 59.4265L29.8021 55.5218Z" fill="#2B99B2"/>
<path d="M52.447 24.4363C52.4457 24.4162 52.4457 24.3961 52.447 24.376V24.2503C52.447 24.2032 52.447 24.1534 52.447 24.1037C52.447 24.0539 52.447 24.0277 52.447 23.9911C52.447 23.9544 52.447 23.902 52.447 23.8575C52.447 23.813 52.447 23.7999 52.447 23.7711C52.447 23.7423 52.4313 23.6454 52.4261 23.5825C52.4209 23.5197 52.4261 23.5092 52.4261 23.4725C52.4261 23.4359 52.4261 23.449 52.4261 23.4359C52.413 23.3207 52.3973 23.2054 52.379 23.0928V23.0404C52.3632 22.9462 52.3475 22.8493 52.3292 22.7524C52.3292 22.7367 52.3292 22.7183 52.3292 22.7026C52.3292 22.6869 52.3109 22.6083 52.3004 22.5638C52.2899 22.5193 52.2794 22.4512 52.2663 22.3962C52.2533 22.3412 52.2533 22.3334 52.2454 22.3019C52.2375 22.2705 52.2218 22.2024 52.2087 22.1527C52.1956 22.1029 52.193 22.0767 52.1825 22.0374C52.1721 21.9981 52.159 21.9458 52.1459 21.8986L52.1066 21.7467C52.1066 21.7232 52.1066 21.6996 52.0883 21.6734C52.0699 21.6079 52.049 21.5425 52.0307 21.477L51.9914 21.3487C51.9925 21.3365 51.9925 21.3242 51.9914 21.312C51.9573 21.1942 51.918 21.0763 51.8788 20.9585C51.8788 20.9585 51.8788 20.9375 51.8788 20.9244C51.8447 20.8223 51.8081 20.7175 51.7714 20.6154C51.7714 20.5971 51.7583 20.5814 51.7531 20.5656C51.7478 20.5499 51.7216 20.4871 51.7085 20.4478L51.6457 20.2776C51.63 20.2435 51.6169 20.2069 51.6012 20.1728C51.5855 20.1388 51.5671 20.0838 51.5488 20.0419L51.5095 19.945L51.4309 19.7564L51.3864 19.6543L51.3707 19.6202L51.1167 19.285V19.2693L51.0695 19.1724C51.0303 19.0886 50.991 19.0048 50.9491 18.9105L50.9281 18.8686C50.8941 18.8006 50.8574 18.7325 50.8208 18.6644C50.7841 18.5963 50.7658 18.5518 50.7369 18.4994L50.7186 18.468C50.6243 18.2899 50.5248 18.1144 50.4227 17.9442L50.3991 17.8997L50.3677 17.8499C50.221 17.6064 50.0718 17.3654 49.9146 17.1297L49.8911 17.0905C49.8754 17.0669 49.8596 17.0486 49.8465 17.025C49.7182 16.8391 49.5847 16.6531 49.4563 16.4724C49.3621 16.3441 49.2652 16.2105 49.1683 16.0953L49.1552 16.077C49.0845 15.9853 49.0111 15.8963 48.9352 15.8151C48.9227 15.7965 48.9087 15.779 48.8933 15.7627C48.8069 15.658 48.7178 15.5532 48.6314 15.4511H48.6183L48.5345 15.3568C48.4795 15.2939 48.4219 15.2311 48.3643 15.1709L48.3329 15.1342L48.215 15.0111L48.0841 14.8749L48.0369 14.8278L47.906 14.6995L47.7829 14.5711L47.7201 14.5135L47.5786 14.3826L47.4817 14.2936L47.4058 14.2255L47.2644 14.1024L47.178 14.0264L47.0837 13.9505L46.9449 13.8353L46.8716 13.7776C46.8349 13.7462 46.793 13.7174 46.7537 13.6886L46.6254 13.5891L46.573 13.5472L46.4133 13.4346L46.3033 13.356L46.2745 13.3377C46.1776 13.2696 46.0807 13.2067 45.9838 13.1439L45.9602 13.1282L45.6983 12.9658L45.6302 12.9265L24.8734 0.953234L24.656 0.830149L24.5722 0.788248L24.4753 0.71754L24.3889 0.673019L24.2501 0.607549L24.1506 0.56041L24.1113 0.542078L23.8494 0.42423C23.7578 0.387567 23.6635 0.353522 23.5718 0.322096L23.5378 0.309002L23.4383 0.277576L23.2995 0.230437L23.2288 0.212105L23.0821 0.167585H22.9905L22.904 0.130922L22.7836 0.104733H22.7181L22.6081 0.0864015L22.4693 0.0628322H22.4196H22.3069L22.1577 0.0471191H22.1158H22.0163H21.8408H21.7177H21.503H21.4375H21.3904C21.283 0.0471191 21.1756 0.0733075 21.0709 0.0942581H21.0368L20.974 0.109971C20.9094 0.122192 20.8439 0.137905 20.7775 0.15711L20.6859 0.185917C20.6466 0.199011 20.6047 0.209487 20.5654 0.2252H20.534L20.3533 0.298527L20.2669 0.337809C20.1805 0.377092 20.094 0.421612 20.005 0.468751L9.56372 6.5261C9.64752 6.47896 9.73394 6.43444 9.8256 6.39254L9.91202 6.35588C9.97226 6.32969 10.0325 6.3035 10.0953 6.28255L10.2472 6.23018L10.3337 6.19089L10.5248 6.14375L10.5955 6.13852H10.6296C10.7343 6.12018 10.8417 6.10447 10.9517 6.094H11.0617C11.135 6.094 11.2057 6.094 11.2791 6.094H11.4021H11.575H11.719L11.8657 6.10971L12.028 6.13066L12.1668 6.15161L12.3423 6.18565L12.4628 6.21184L12.6539 6.25898L12.7744 6.29303L12.9813 6.35588L13.0808 6.38992C13.2886 6.45976 13.4981 6.54705 13.7093 6.65181L13.8088 6.69633L14.0314 6.80632L14.1441 6.86393L14.4426 7.02892L35.1942 19.0101C35.3068 19.0755 35.4168 19.141 35.5268 19.2117H35.5477C35.6577 19.2798 35.7651 19.3531 35.8699 19.4265L35.9798 19.505L36.192 19.6569L36.3229 19.7564L36.5141 19.9057L36.6503 20.0183L36.831 20.1702L36.9724 20.2933L37.1478 20.4504L37.2866 20.5814C37.3469 20.6364 37.4045 20.694 37.4621 20.7516L37.5904 20.8773L37.7711 21.0632C37.8078 21.1051 37.8471 21.1444 37.8864 21.1863L38.0906 21.4089L38.1718 21.5006C38.2687 21.6079 38.363 21.7179 38.4546 21.8279L38.4939 21.8777L38.7218 22.1658C38.8187 22.2888 38.9156 22.4276 39.0098 22.5429C39.1434 22.7262 39.2717 22.9095 39.3974 23.0981L39.4681 23.2002C39.6253 23.4359 39.7745 23.6768 39.9186 23.9204C39.9395 23.9518 39.9579 23.9832 39.9762 24.0146C40.0783 24.1901 40.1752 24.3656 40.2721 24.5384L40.3742 24.7322L40.479 24.9391C40.5288 25.036 40.5759 25.1329 40.623 25.2298C40.623 25.2612 40.6545 25.2926 40.6702 25.3267C40.7278 25.4524 40.7854 25.5886 40.8404 25.7064L40.8849 25.8085C40.9268 25.9028 40.9661 25.9971 41.0054 26.0914C41.0211 26.1359 41.0394 26.1804 41.0578 26.2223C41.0944 26.314 41.1285 26.4056 41.1625 26.4973C41.1782 26.5366 41.1939 26.5759 41.207 26.6151C41.2516 26.7356 41.2935 26.8561 41.3354 26.9765V27.0106C41.3807 27.1415 41.4226 27.2725 41.4611 27.4034C41.4742 27.4479 41.4872 27.4898 41.4977 27.5317L41.5763 27.7936L41.6156 27.9455L41.6784 28.2074C41.6915 28.2598 41.702 28.3095 41.7125 28.3593C41.7229 28.409 41.7517 28.5321 41.7701 28.6212C41.7701 28.6683 41.7884 28.7154 41.7963 28.76C41.8198 28.8752 41.8382 28.9878 41.8565 29.1004C41.8577 29.117 41.8577 29.1336 41.8565 29.1502C41.8775 29.2811 41.8932 29.4121 41.9115 29.5378C41.9115 29.5744 41.9115 29.6111 41.9115 29.6477C41.9115 29.7394 41.9324 29.8337 41.9403 29.9253C41.9403 29.9699 41.9403 30.0144 41.9403 30.0563L41.956 30.3182C41.956 30.3601 41.956 30.402 41.956 30.4439C41.956 30.567 41.956 30.69 41.956 30.8105L41.8879 54.6549C41.8879 54.7833 41.8879 54.9168 41.8879 55.0321C41.8879 55.0661 41.8879 55.1002 41.8879 55.1342C41.8879 55.2206 41.8879 55.3044 41.8696 55.3961C41.8513 55.4877 41.8696 55.4904 41.8565 55.5375C41.8434 55.5846 41.8408 55.6763 41.8303 55.7444C41.8198 55.8125 41.8172 55.8439 41.8094 55.8937C41.8015 55.9434 41.7884 56.0194 41.7753 56.0796L41.7439 56.2446L41.7046 56.4096C41.6915 56.4724 41.6732 56.5353 41.6575 56.5955C41.6418 56.6557 41.6287 56.6924 41.6156 56.7395C41.6025 56.7867 41.5684 56.8862 41.5422 56.9569L41.503 57.0721C41.4558 57.1926 41.4087 57.3078 41.3563 57.4204L41.338 57.4545C41.2687 57.5995 41.1909 57.7403 41.1049 57.8761C41.1049 57.8761 41.1049 57.8997 41.0866 57.9075C41.0159 58.0175 40.9399 58.1197 40.864 58.2192L40.8064 58.2899C40.7304 58.3789 40.6518 58.468 40.5707 58.5518L40.5523 58.5701C40.4633 58.6539 40.3716 58.7325 40.2773 58.8084L40.2066 58.8608C40.1097 58.9315 40.0102 58.9996 39.9055 59.0624L50.3415 52.9972C50.4448 52.9358 50.5445 52.8685 50.6401 52.7956L50.7108 52.7432C50.8073 52.6695 50.8991 52.5899 50.9857 52.5049C50.9925 52.4995 50.9986 52.4933 51.0041 52.4866C51.0874 52.4037 51.1661 52.3163 51.2398 52.2247L51.2974 52.154C51.3772 52.0551 51.4515 51.952 51.52 51.8449V51.8214C51.6054 51.6852 51.6832 51.5445 51.7531 51.3997C51.7539 51.3919 51.7539 51.384 51.7531 51.3762C51.7531 51.3762 51.7531 51.3762 51.7531 51.3631C51.8054 51.2531 51.8552 51.1352 51.8997 51.0148C51.9051 51.0057 51.9095 50.996 51.9128 50.986C51.9128 50.9572 51.9311 50.9284 51.9416 50.8995C51.9652 50.8288 51.9914 50.7581 52.0123 50.6822C52.0123 50.6639 52.0123 50.6455 52.0333 50.6246C52.0542 50.6036 52.0464 50.567 52.0542 50.5408C52.0621 50.5146 52.0883 50.4151 52.104 50.3522C52.1197 50.2894 52.1171 50.3025 52.1223 50.2763C52.1276 50.2501 52.1354 50.2187 52.1406 50.1898C52.1459 50.161 52.1642 50.0799 52.1747 50.0249L52.1904 49.9411L52.2061 49.8389L52.2297 49.6897C52.2297 49.6635 52.2297 49.6399 52.2297 49.6137C52.2297 49.5875 52.2297 49.5247 52.2297 49.4828L52.2454 49.3387C52.2441 49.3204 52.2441 49.302 52.2454 49.2837C52.2454 49.2209 52.2454 49.1554 52.2454 49.0899V48.9852C52.2442 48.9765 52.2442 48.9677 52.2454 48.959C52.2454 48.8516 52.2454 48.7416 52.2454 48.629V48.6081L52.3109 24.7767C52.4497 24.6432 52.4497 24.5384 52.447 24.4363Z" fill="url(#paint0_linear_2311_41810)"/>
<path d="M35.1889 18.9838C38.9705 21.1679 42.0215 26.4605 42.0215 30.8078L41.9534 54.6522C41.9403 58.9995 38.8658 60.7515 35.0816 58.5674L29.8072 55.5217L27.0313 59.4263C26.5075 60.1596 25.5962 60.1518 24.6743 59.6254C23.6022 58.9431 22.7841 57.9272 22.3462 56.7342L19.6017 49.6319L14.3273 46.5888C10.5431 44.4047 7.48695 39.1095 7.50004 34.7622L7.56551 10.9309C7.56551 6.5836 10.6557 4.82899 14.4373 7.00262L35.1889 18.9838Z" fill="url(#paint1_linear_2311_41810)"/>
<path d="M22.7468 27.3119L24.4255 26.3376L24.9545 27.2569L23.2784 28.2311L22.7468 27.3119Z" fill="#0E7C8E"/>
<path d="M14.8301 22.742L16.5087 21.7678C17.606 21.1445 19.0412 21.3462 20.4737 22.1737C21.9062 23.0013 23.336 24.4547 24.4228 26.3377L22.7468 27.3119C21.66 25.4289 20.2275 23.9755 18.795 23.1479C17.3625 22.3204 15.9274 22.1187 14.8301 22.742Z" fill="#0E7C8E"/>
<path d="M14.8301 22.742L16.5087 21.7678C16.6493 21.6879 16.7965 21.6204 16.9487 21.5662L15.2727 22.5404C15.1196 22.5946 14.9715 22.6621 14.8301 22.742Z" fill="#0E7C8E"/>
<path d="M15.2727 22.5404L16.9488 21.5662C17.0761 21.5218 17.2065 21.4868 17.339 21.4614L15.6603 22.4278C15.529 22.4543 15.3995 22.4893 15.2727 22.5325" fill="#0E7C8E"/>
<path d="M15.6602 22.4279L17.3388 21.4537C17.447 21.4342 17.5564 21.422 17.6662 21.417L15.9901 22.3912C15.8829 22.4005 15.7763 22.4154 15.6706 22.4357" fill="#0E7C8E"/>
<path d="M15.9797 22.391L17.6663 21.4168C17.7613 21.4115 17.8566 21.4115 17.9517 21.4168L16.2757 22.391C16.1788 22.391 16.0819 22.391 15.9902 22.391" fill="#0E7C8E"/>
<path d="M16.2653 22.378L17.9414 21.4038H18.2032L16.5246 22.378H16.2627" fill="#0E7C8E"/>
<path d="M16.5271 22.3858L18.2058 21.4116C18.287 21.4116 18.3708 21.4273 18.4677 21.4378L16.7916 22.412C16.7078 22.412 16.624 22.3911 16.5297 22.3858" fill="#0E7C8E"/>
<path d="M16.7785 22.4119L18.4519 21.4377C18.5331 21.4377 18.6143 21.4613 18.6929 21.477L17.0168 22.4512L16.7759 22.4119" fill="#0E7C8E"/>
<path d="M17.0195 22.4513L18.6956 21.4771L18.9313 21.5294L17.2552 22.5036L17.0195 22.4513Z" fill="#0E7C8E"/>
<path d="M17.2551 22.5037L18.9312 21.5295L19.1616 21.5924L17.4856 22.5692L17.2551 22.5037Z" fill="#0E7C8E"/>
<path d="M17.4856 22.5691L19.1616 21.5923L19.3895 21.6682L17.7134 22.6424C17.6375 22.6162 17.5615 22.5901 17.4856 22.5691Z" fill="#0E7C8E"/>
<path d="M17.7134 22.6424L19.3894 21.6682L19.6172 21.752L17.9281 22.7288C17.8522 22.6974 17.7788 22.6686 17.7029 22.6424" fill="#0E7C8E"/>
<path d="M17.9282 22.729L19.6069 21.7522L19.8321 21.8491L18.1639 22.8233C18.0906 22.7893 18.0146 22.7578 17.9387 22.729" fill="#0E7C8E"/>
<path d="M18.1638 22.8233L19.8425 21.8491C19.9184 21.8832 19.9918 21.9172 20.0677 21.9565L18.3917 22.9307L18.1638 22.8233Z" fill="#0E7C8E"/>
<path d="M18.3916 22.9305L20.0677 21.9563C20.1427 21.993 20.2187 22.0322 20.2955 22.0741L18.6194 23.0484C18.5426 23.0065 18.4667 22.9672 18.3916 22.9305Z" fill="#0E7C8E"/>
<path d="M18.6196 23.0484L20.2852 22.0742L20.4633 22.1737C20.4818 22.1823 20.4994 22.1928 20.5156 22.2052L18.8396 23.1794L18.7846 23.1479L18.6091 23.0484" fill="#0E7C8E"/>
<path d="M18.8501 23.1793L20.5261 22.2051C20.6047 22.2487 20.6833 22.2959 20.7618 22.3465L19.0832 23.3207C19.0046 23.2736 18.9287 23.2238 18.8501 23.1793Z" fill="#0E7C8E"/>
<path d="M19.083 23.3209L20.7617 22.3467L21 22.5038L19.3213 23.4754L19.083 23.3183" fill="#0E7C8E"/>
<path d="M19.3213 23.4754L21 22.5012L21.2409 22.6741L19.5648 23.6483L19.3213 23.4754Z" fill="#0E7C8E"/>
<path d="M19.5649 23.6508L21.2409 22.6897L21.4897 22.8783L19.8136 23.8551L19.5518 23.6639" fill="#0E7C8E"/>
<path d="M19.8137 23.8421L21.4898 22.8652L21.7517 23.0721L20.0756 24.0463C19.9918 23.9747 19.9045 23.9067 19.8137 23.8421Z" fill="#0E7C8E"/>
<path d="M20.0652 24.0462L21.7412 23.072L22.0031 23.292L20.3166 24.261C20.2328 24.1859 20.1455 24.1126 20.0547 24.041" fill="#0E7C8E"/>
<path d="M20.3164 24.2611L21.9925 23.2869C22.0763 23.3602 22.1574 23.4361 22.2543 23.5147L20.5757 24.4915C20.4945 24.413 20.4107 24.3344 20.3295 24.2611" fill="#0E7C8E"/>
<path d="M20.5627 24.4966L22.2414 23.5198L22.4797 23.7555L20.8089 24.7323C20.7303 24.6511 20.6518 24.5725 20.5706 24.4966" fill="#0E7C8E"/>
<path d="M20.8088 24.7324L22.4875 23.7556L22.7153 23.9939L21.0367 24.9708C20.9607 24.8896 20.8848 24.8084 20.8088 24.7324Z" fill="#0E7C8E"/>
<path d="M21.0288 24.9706L22.7075 23.999L22.9222 24.24L21.2462 25.2142C21.1755 25.133 21.1021 25.0544 21.0288 24.9758" fill="#0E7C8E"/>
<path d="M21.2461 25.2091L22.9221 24.2349C22.9955 24.316 23.0662 24.3998 23.1343 24.4837L21.4582 25.4579L21.2461 25.2091Z" fill="#0E7C8E"/>
<path d="M21.4583 25.4578L23.1343 24.4836C23.2076 24.5701 23.2783 24.6591 23.349 24.7455L21.673 25.7197L21.4583 25.4578Z" fill="#0E7C8E"/>
<path d="M21.6731 25.7223L23.3491 24.748C23.4277 24.8476 23.5063 24.9497 23.5822 25.0544L21.9062 26.0287C21.8276 25.9239 21.7517 25.8218 21.6731 25.7223Z" fill="#0E7C8E"/>
<path d="M21.9062 26.0286L23.5823 25.0544C23.6897 25.1959 23.7944 25.3451 23.8966 25.4944L22.2179 26.4686C22.1158 26.3193 22.011 26.1727 21.9062 26.0286Z" fill="#0E7C8E"/>
<path d="M22.2178 26.4686L23.8964 25.4944C24.0667 25.7563 24.2317 26.0182 24.3888 26.28L22.7127 27.2542C22.553 26.9924 22.388 26.7305 22.2178 26.4686Z" fill="#0E7C8E"/>
<path d="M22.7126 27.2515L24.3887 26.2773L24.4227 26.3376L22.7467 27.3118L22.7126 27.2515Z" fill="#0E7C8E"/>
<path d="M23.2786 28.2311L24.9546 27.2569L25.4889 26.9531L23.8102 27.9273L23.2786 28.2311Z" fill="#4B7781"/>
<path d="M23.8101 27.9273L25.4887 26.953C26.586 26.3298 28.0185 26.5288 29.451 27.3563L27.775 28.3306C26.3425 27.503 24.9073 27.304 23.8101 27.9273Z" fill="#0E7C8E"/>
<path d="M23.8101 27.9273L25.4887 26.9531C25.6287 26.8722 25.776 26.8046 25.9287 26.7515L24.2526 27.7257C24.0996 27.7799 23.9515 27.8474 23.8101 27.9273Z" fill="#0E7C8E"/>
<path d="M24.2527 27.7257L25.9287 26.7515C26.0562 26.7074 26.1866 26.6724 26.3189 26.6467L24.6403 27.6209C24.5088 27.6466 24.3792 27.6816 24.2527 27.7257Z" fill="#0E7C8E"/>
<path d="M24.6401 27.621L26.3188 26.6467C26.4236 26.6257 26.5293 26.61 26.6357 26.5996L24.9596 27.5738C24.8523 27.5738 24.7449 27.6 24.6401 27.621Z" fill="#0E7C8E"/>
<path d="M24.9597 27.5737L26.6358 26.5995C26.73 26.5995 26.8269 26.5864 26.9212 26.5864L25.2452 27.5606C25.1483 27.5606 25.054 27.5606 24.9597 27.5737Z" fill="#0E7C8E"/>
<path d="M25.2453 27.5606L26.9213 26.5864C27.0104 26.5864 27.0968 26.5864 27.1832 26.5864L25.5046 27.5606C25.4181 27.5606 25.3291 27.5606 25.2427 27.5606" fill="#0E7C8E"/>
<path d="M25.5071 27.5711L27.1857 26.5969L27.4476 26.6205L25.7716 27.5973C25.6878 27.5973 25.604 27.5764 25.5097 27.5711" fill="#0E7C8E"/>
<path d="M25.7585 27.5972L27.4346 26.6204L27.6781 26.6623L25.9995 27.6365L25.7585 27.5972Z" fill="#0E7C8E"/>
<path d="M25.9995 27.6366L27.6782 26.6624C27.7541 26.6624 27.8327 26.6938 27.9113 26.7147L26.2352 27.6889C26.1566 27.668 26.0781 27.6523 25.9995 27.6366Z" fill="#0E7C8E"/>
<path d="M26.2351 27.689L27.9112 26.7148C27.9871 26.7332 28.0657 26.7541 28.1416 26.7777L26.4656 27.7519L26.2351 27.689Z" fill="#0E7C8E"/>
<path d="M26.4656 27.7518L28.1416 26.7776L28.3695 26.8509L26.6934 27.8277C26.6149 27.7989 26.5415 27.7754 26.4656 27.7518Z" fill="#0E7C8E"/>
<path d="M26.6934 27.8277L28.3694 26.8508L28.5946 26.9373L26.9186 27.9115L26.6934 27.8277Z" fill="#0E7C8E"/>
<path d="M26.9187 27.9115L28.5948 26.9373C28.6707 26.9661 28.7466 27.0001 28.82 27.0315L27.1439 28.0084L26.9187 27.9115Z" fill="#0E7C8E"/>
<path d="M27.1438 28.0086L28.8198 27.0317L29.0477 27.1391L27.369 28.1133C27.2931 28.0767 27.2197 28.04 27.1438 28.0086Z" fill="#0E7C8E"/>
<path d="M27.3691 28.1131L29.0478 27.1389C29.1246 27.1756 29.2006 27.2149 29.2756 27.2568L27.597 28.231L27.3691 28.1131Z" fill="#0E7C8E"/>
<path d="M27.5969 28.231L29.2756 27.2568L29.4511 27.3564L27.775 28.3306L27.5969 28.231Z" fill="#0E7C8E"/>
<path d="M27.7749 28.3307L29.451 27.3564C30.8835 28.184 32.3133 29.6374 33.4028 31.523C35.579 35.2967 35.5685 39.3795 33.3792 40.6182L31.7005 41.595C33.8899 40.3406 33.903 36.2709 31.7267 32.4972C30.6373 30.6116 29.2048 29.1582 27.7749 28.3307Z" fill="#0E7C8E"/>
<path d="M27.7749 28.3307L29.451 27.3564L29.5059 27.3879L27.8273 28.3621L27.7749 28.3307Z" fill="#0E7C8E"/>
<path d="M27.8274 28.3621L29.5061 27.3879L29.7391 27.5294L28.0605 28.5062C27.9845 28.4564 27.906 28.4093 27.8274 28.3621Z" fill="#0E7C8E"/>
<path d="M28.0603 28.5061L29.739 27.5293L29.9773 27.6864L28.2986 28.6632C28.2201 28.6083 28.1415 28.5559 28.0603 28.5061Z" fill="#0E7C8E"/>
<path d="M28.2986 28.6633L29.9773 27.6865L30.2208 27.8594L28.5421 28.8362C28.4601 28.7768 28.3789 28.7192 28.2986 28.6633Z" fill="#0E7C8E"/>
<path d="M28.5421 28.8362L30.2208 27.8594L30.467 28.0506L28.7909 29.0248C28.7071 28.9593 28.6259 28.8964 28.5291 28.8362" fill="#0E7C8E"/>
<path d="M28.791 29.0247L30.4671 28.0505C30.5509 28.1169 30.6382 28.185 30.7289 28.2548L29.0529 29.229C28.9691 29.1574 28.8818 29.0893 28.791 29.0247Z" fill="#0E7C8E"/>
<path d="M29.0425 29.2367L30.7185 28.2625L30.9804 28.4824L29.3044 29.4566C29.2206 29.3798 29.1333 29.3065 29.0425 29.2367Z" fill="#0E7C8E"/>
<path d="M29.2939 29.4488L30.97 28.4746C31.0538 28.5479 31.1376 28.6265 31.2188 28.7051L29.5401 29.6793L29.2939 29.4488Z" fill="#0E7C8E"/>
<path d="M29.54 29.6793L31.2187 28.7051C31.2973 28.781 31.3785 28.8596 31.457 28.9408L29.7784 29.915C29.6998 29.8338 29.6212 29.7552 29.54 29.6793Z" fill="#0E7C8E"/>
<path d="M29.7783 29.9151L31.457 28.9409L31.6848 29.1792L30.0062 30.1534C29.9328 30.0723 29.8569 29.9937 29.7783 29.9151Z" fill="#0E7C8E"/>
<path d="M30.0061 30.1534L31.6848 29.1792C31.7581 29.2578 31.8314 29.3389 31.9021 29.4201L30.2261 30.3943L30.0061 30.1534Z" fill="#0E7C8E"/>
<path d="M30.2366 30.3944L31.9126 29.4202L32.1247 29.682L30.4461 30.6563C30.378 30.5725 30.3073 30.4886 30.2366 30.3944Z" fill="#0E7C8E"/>
<path d="M30.4355 30.6432L32.1142 29.6689C32.1849 29.7554 32.2583 29.8418 32.329 29.9308L30.6503 30.905C30.5796 30.816 30.5089 30.727 30.4355 30.6432Z" fill="#0E7C8E"/>
<path d="M30.6504 30.9076L32.3291 29.9333C32.4076 30.0329 32.4862 30.1376 32.5648 30.2424L30.8861 31.2166C30.8101 31.1118 30.7316 31.0097 30.6504 30.9076Z" fill="#0E7C8E"/>
<path d="M30.886 31.2166L32.5647 30.2424C32.672 30.3865 32.7768 30.5357 32.8789 30.6876L31.2029 31.6618C31.0981 31.5099 30.9934 31.3607 30.886 31.2166Z" fill="#0E7C8E"/>
<path d="M31.2029 31.6617L32.8789 30.6875C33.0492 30.9337 33.2115 31.1929 33.366 31.4574L31.69 32.4316C31.5329 32.1698 31.3705 31.9079 31.2029 31.6617Z" fill="#0E7C8E"/>
<path d="M31.6899 32.4317L33.366 31.4575L33.4027 31.523C33.4786 31.6513 33.5493 31.7849 33.6174 31.908L31.9413 32.8822C31.8706 32.7538 31.7999 32.6203 31.7266 32.4972C31.7128 32.4763 31.7006 32.4544 31.6899 32.4317Z" fill="#0E7C8E"/>
<path d="M31.9414 32.8822L33.6175 31.908C33.6803 32.0232 33.7379 32.1384 33.7955 32.2536L32.1195 33.2279C32.0619 33.1126 32.0016 32.9974 31.9414 32.8822Z" fill="#0E7C8E"/>
<path d="M32.1196 33.2279L33.7957 32.2537C33.8428 32.3479 33.89 32.4448 33.9345 32.5417L32.2584 33.5159C32.2139 33.419 32.1668 33.3221 32.1196 33.2279Z" fill="#0E7C8E"/>
<path d="M32.2583 33.516L33.9343 32.5417C33.9789 32.6334 34.0208 32.7251 34.0601 32.8036L32.384 33.7805L32.2583 33.5186" fill="#0E7C8E"/>
<path d="M32.384 33.7908L34.0601 32.814C34.0994 32.903 34.1386 32.992 34.1753 33.0758L32.4966 34.0501C32.46 33.961 32.4233 33.872 32.384 33.7882" fill="#0E7C8E"/>
<path d="M32.4966 34.0555L34.1752 33.0813C34.2119 33.1703 34.2486 33.2594 34.2826 33.3432L32.6066 34.3174L32.4966 34.0555Z" fill="#0E7C8E"/>
<path d="M32.6067 34.325L34.2827 33.3508C34.3194 33.4434 34.3534 33.5307 34.3849 33.6127L32.7088 34.5869L32.6067 34.325Z" fill="#0E7C8E"/>
<path d="M32.7087 34.6002L34.3848 33.626C34.4188 33.7203 34.4529 33.8119 34.4843 33.9062L32.8056 34.8804C32.7742 34.7887 32.7428 34.6945 32.7087 34.6002Z" fill="#0E7C8E"/>
<path d="M32.8057 34.8805L34.4843 33.9062L34.5786 34.1996L32.8999 35.1738C32.8711 35.0769 32.8397 34.98 32.8057 34.8805Z" fill="#0E7C8E"/>
<path d="M32.8999 35.1737L34.5786 34.1995C34.6074 34.2964 34.6362 34.3959 34.6624 34.4928L32.9863 35.467C32.9601 35.3701 32.9313 35.2706 32.8999 35.1737Z" fill="#0E7C8E"/>
<path d="M32.9863 35.4669L34.6624 34.4927C34.6903 34.5922 34.7165 34.6917 34.7409 34.7912L33.0649 35.7654C33.0422 35.6659 33.016 35.5664 32.9863 35.4669Z" fill="#0E7C8E"/>
<path d="M33.0649 35.7655L34.741 34.7913C34.7672 34.8908 34.7881 34.9877 34.8117 35.0872L33.133 36.0614C33.1121 35.9645 33.0885 35.865 33.0649 35.7655Z" fill="#0E7C8E"/>
<path d="M33.1331 36.0614L34.8117 35.0872C34.8327 35.1841 34.851 35.2836 34.8693 35.3805L33.1933 36.3547C33.175 36.2578 33.154 36.1609 33.1331 36.0614Z" fill="#0E7C8E"/>
<path d="M33.1934 36.3548L34.8694 35.3806C34.8877 35.4749 34.9061 35.5718 34.9192 35.6661L33.2431 36.6403C33.2274 36.546 33.2117 36.4491 33.1934 36.3548Z" fill="#0E7C8E"/>
<path d="M33.2429 36.6402L34.919 35.666C34.9347 35.7603 34.9478 35.8546 34.9609 35.9488L33.2822 36.9231C33.2822 36.8288 33.256 36.7345 33.2429 36.6402Z" fill="#0E7C8E"/>
<path d="M33.2822 36.9229L34.9609 35.9487C34.9609 36.0404 34.9818 36.132 34.9897 36.2237L33.3137 37.1979C33.3137 37.1089 33.2953 37.0146 33.2822 36.9229Z" fill="#0E7C8E"/>
<path d="M33.3137 37.1981L34.9898 36.2239C34.9898 36.3155 35.0055 36.4072 35.0133 36.4858L33.3347 37.46C33.3347 37.3709 33.3216 37.2793 33.3137 37.1981Z" fill="#0E7C8E"/>
<path d="M33.3347 37.4703L35.0134 36.4961C35.0134 36.5878 35.0134 36.6768 35.0134 36.758L33.3373 37.7322C33.3373 37.6431 33.3373 37.5541 33.3373 37.4703" fill="#0E7C8E"/>
<path d="M33.3478 37.7401L35.0239 36.7659C35.0239 36.8549 35.0239 36.9439 35.0239 37.0278L33.3452 38.002C33.3452 37.9129 33.3452 37.8265 33.3452 37.7401" fill="#0E7C8E"/>
<path d="M33.3503 38.0072L35.029 37.033C35.029 37.122 35.029 37.211 35.029 37.2948L33.353 38.269C33.353 38.18 33.353 38.091 33.353 38.0072" fill="#0E7C8E"/>
<path d="M33.3451 38.2743L35.0211 37.3C35.0211 37.3891 35.0211 37.4755 35.0054 37.5619L33.3293 38.5361L33.3451 38.2743Z" fill="#0E7C8E"/>
<path d="M33.3293 38.5389L35.0054 37.5647C35.0054 37.6537 34.9897 37.7428 34.9766 37.8266L33.3005 38.8008C33.3005 38.7144 33.3215 38.6253 33.3293 38.5389Z" fill="#0E7C8E"/>
<path d="M33.3005 38.806L34.9766 37.8318C34.9766 37.9234 34.953 38.0151 34.9373 38.0937L33.2612 39.0679C33.2612 38.9788 33.29 38.8872 33.3005 38.806Z" fill="#0E7C8E"/>
<path d="M33.2613 39.0782L34.9373 38.104C34.9216 38.1957 34.9033 38.2873 34.8824 38.3659L33.2063 39.3401L33.2613 39.0782Z" fill="#0E7C8E"/>
<path d="M33.2063 39.3507L34.8824 38.3765C34.8614 38.4734 34.8352 38.5703 34.8064 38.6645L33.1304 39.6387C33.1566 39.5445 33.1827 39.4476 33.2063 39.3507Z" fill="#0E7C8E"/>
<path d="M33.1305 39.6388L34.8066 38.6646C34.7778 38.7667 34.7437 38.8688 34.7071 38.9657L33.031 39.9399C33.0677 39.843 33.0991 39.7435 33.1305 39.6388Z" fill="#0E7C8E"/>
<path d="M33.031 39.94L34.707 38.9658C34.6651 39.0758 34.6206 39.1858 34.5708 39.2879L32.8948 40.2648C32.9445 40.16 32.9891 40.0526 33.031 39.94Z" fill="#0E7C8E"/>
<path d="M32.8947 40.2647L34.5708 39.2878C34.509 39.42 34.4381 39.5478 34.3587 39.6702L32.6826 40.6444C32.7601 40.5217 32.8309 40.3949 32.8947 40.2647Z" fill="#0E7C8E"/>
<path d="M32.6825 40.6444L34.3586 39.6702C34.1143 40.0614 33.7781 40.3868 33.3791 40.6182L31.7004 41.595C32.1003 41.3628 32.4374 41.0364 32.6825 40.6444Z" fill="#0E7C8E"/>
<path d="M27.775 28.3305C29.2049 29.1581 30.6374 30.6115 31.7268 32.4971C33.903 36.2708 33.8899 40.3536 31.7006 41.5949L31.1768 41.8987L23.2287 45.1539L15.3355 32.7563L14.8118 31.8397C12.6355 28.0634 12.6486 23.9963 14.838 22.7419C15.9353 22.1186 17.3704 22.3203 18.8029 23.1478C20.2354 23.9754 21.6679 25.4288 22.7547 27.3118L23.2785 28.231L23.8022 27.9272C24.9074 27.3039 26.3425 27.503 27.775 28.3305Z" fill="#23B6D8"/>
</g>
<defs>
<linearGradient id="paint0_linear_2311_41810" x1="31.0565" y1="14.1417" x2="49.0871" y2="46.4397" gradientUnits="userSpaceOnUse">
<stop stop-color="#2B99B2"/>
<stop offset="0.23" stop-color="#2692AC"/>
<stop offset="0.56" stop-color="#197F9D"/>
<stop offset="0.95" stop-color="#046183"/>
<stop offset="1" stop-color="#015C7F"/>
</linearGradient>
<linearGradient id="paint1_linear_2311_41810" x1="37.1321" y1="20.411" x2="11.1952" y2="46.3479" gradientUnits="userSpaceOnUse">
<stop stop-color="white"/>
<stop offset="0.16" stop-color="#F8FEFF"/>
<stop offset="0.39" stop-color="#E5FAFF"/>
<stop offset="0.65" stop-color="#C7F4FF"/>
<stop offset="0.95" stop-color="#9CECFF"/>
<stop offset="1" stop-color="#94EBFF"/>
</linearGradient>
<clipPath id="clip0_2311_41810">
<rect width="44.9522" height="60" fill="white" transform="translate(7.5)"/>
</clipPath>
</defs>
</svg>
