<svg width="99" height="24" viewBox="0 0 99 24" fill="none" xmlns="http://www.w3.org/2000/svg">
<rect width="99" height="24" fill="white"/>
<path d="M7.61593 5.376V13.216C7.61593 14.304 7.30126 15.152 6.67193 15.76C6.04259 16.3573 5.19993 16.656 4.14393 16.656C3.07726 16.656 2.21326 16.3467 1.55193 15.728C0.901261 15.1093 0.575928 14.2453 0.575928 13.136H2.81593C2.82659 13.616 2.93859 13.9893 3.15193 14.256C3.37593 14.5227 3.69593 14.656 4.11193 14.656C4.51726 14.656 4.82659 14.528 5.03993 14.272C5.25326 14.016 5.35993 13.664 5.35993 13.216V5.376H7.61593Z" fill="#404040"/>
<path d="M14.1649 16.688C13.3116 16.688 12.5436 16.5013 11.8609 16.128C11.1783 15.744 10.6396 15.2053 10.2449 14.512C9.86093 13.8187 9.66893 13.0187 9.66893 12.112C9.66893 11.2053 9.86626 10.4053 10.2609 9.712C10.6663 9.01867 11.2156 8.48533 11.9089 8.112C12.6023 7.728 13.3756 7.536 14.2289 7.536C15.0823 7.536 15.8556 7.728 16.5489 8.112C17.2423 8.48533 17.7863 9.01867 18.1809 9.712C18.5863 10.4053 18.7889 11.2053 18.7889 12.112C18.7889 13.0187 18.5809 13.8187 18.1649 14.512C17.7596 15.2053 17.2049 15.744 16.5009 16.128C15.8076 16.5013 15.0289 16.688 14.1649 16.688ZM14.1649 14.736C14.5703 14.736 14.9489 14.64 15.3009 14.448C15.6636 14.2453 15.9516 13.9467 16.1649 13.552C16.3783 13.1573 16.4849 12.6773 16.4849 12.112C16.4849 11.2693 16.2609 10.624 15.8129 10.176C15.3756 9.71733 14.8369 9.488 14.1969 9.488C13.5569 9.488 13.0183 9.71733 12.5809 10.176C12.1543 10.624 11.9409 11.2693 11.9409 12.112C11.9409 12.9547 12.1489 13.6053 12.5649 14.064C12.9916 14.512 13.5249 14.736 14.1649 14.736Z" fill="#404040"/>
<path d="M28.8001 7.68V16.544H26.5441V15.424C26.2561 15.808 25.8774 16.112 25.4081 16.336C24.9494 16.5493 24.4481 16.656 23.9041 16.656C23.2107 16.656 22.5974 16.512 22.0641 16.224C21.5307 15.9253 21.1094 15.4933 20.8001 14.928C20.5014 14.352 20.3521 13.6693 20.3521 12.88V7.68H22.5921V12.56C22.5921 13.264 22.7681 13.808 23.1201 14.192C23.4721 14.5653 23.9521 14.752 24.5601 14.752C25.1787 14.752 25.6641 14.5653 26.0161 14.192C26.3681 13.808 26.5441 13.264 26.5441 12.56V7.68H28.8001Z" fill="#404040"/>
<path d="M33.2502 9.056C33.5382 8.58667 33.9115 8.21867 34.3702 7.952C34.8395 7.68533 35.3728 7.552 35.9702 7.552V9.904H35.3782C34.6742 9.904 34.1408 10.0693 33.7782 10.4C33.4262 10.7307 33.2502 11.3067 33.2502 12.128V16.544H31.0102V7.68H33.2502V9.056Z" fill="#404040"/>
<path d="M42.3909 7.552C43.4469 7.552 44.3003 7.888 44.9509 8.56C45.6016 9.22133 45.9269 10.1493 45.9269 11.344V16.544H43.6869V11.648C43.6869 10.944 43.5109 10.4053 43.1589 10.032C42.8069 9.648 42.3269 9.456 41.7189 9.456C41.1003 9.456 40.6096 9.648 40.2469 10.032C39.8949 10.4053 39.7189 10.944 39.7189 11.648V16.544H37.4789V7.68H39.7189V8.784C40.0176 8.4 40.3963 8.10133 40.8549 7.888C41.3243 7.664 41.8363 7.552 42.3909 7.552Z" fill="#404040"/>
<path d="M56.2971 11.92C56.2971 12.24 56.2757 12.528 56.2331 12.784H49.7531C49.8064 13.424 50.0304 13.9253 50.4251 14.288C50.8197 14.6507 51.3051 14.832 51.8811 14.832C52.7131 14.832 53.3051 14.4747 53.6571 13.76H56.0731C55.8171 14.6133 55.3264 15.3173 54.6011 15.872C53.8757 16.416 52.9851 16.688 51.9291 16.688C51.0757 16.688 50.3077 16.5013 49.6251 16.128C48.9531 15.744 48.4251 15.2053 48.0411 14.512C47.6677 13.8187 47.4811 13.0187 47.4811 12.112C47.4811 11.1947 47.6677 10.3893 48.0411 9.696C48.4144 9.00267 48.9371 8.46933 49.6091 8.096C50.2811 7.72267 51.0544 7.536 51.9291 7.536C52.7717 7.536 53.5237 7.71733 54.1851 8.08C54.8571 8.44267 55.3744 8.96 55.7371 9.632C56.1104 10.2933 56.2971 11.056 56.2971 11.92ZM53.9771 11.28C53.9664 10.704 53.7584 10.2453 53.3531 9.904C52.9477 9.552 52.4517 9.376 51.8651 9.376C51.3104 9.376 50.8411 9.54667 50.4571 9.888C50.0837 10.2187 49.8544 10.6827 49.7691 11.28H53.9771Z" fill="#404040"/>
<path d="M66.4121 7.68L60.9241 20.736H58.5401L60.4601 16.32L56.9081 7.68H59.4201L61.7081 13.872L64.028 7.68H66.4121Z" fill="#404040"/>
<path d="M73.6721 8.96C73.9601 8.55467 74.3547 8.21867 74.8561 7.952C75.3681 7.67467 75.9494 7.536 76.6001 7.536C77.3574 7.536 78.0401 7.72267 78.6481 8.096C79.2667 8.46933 79.7521 9.00267 80.1041 9.696C80.4667 10.3787 80.6481 11.1733 80.6481 12.08C80.6481 12.9867 80.4667 13.792 80.1041 14.496C79.7521 15.1893 79.2667 15.728 78.6481 16.112C78.0401 16.496 77.3574 16.688 76.6001 16.688C75.9494 16.688 75.3734 16.5547 74.8721 16.288C74.3814 16.0213 73.9814 15.6853 73.6721 15.28V20.768H71.4321V7.68H73.6721V8.96ZM78.3601 12.08C78.3601 11.5467 78.2481 11.088 78.0241 10.704C77.8107 10.3093 77.5227 10.0107 77.1601 9.808C76.8081 9.60533 76.4241 9.504 76.0081 9.504C75.6027 9.504 75.2187 9.61067 74.8561 9.824C74.5041 10.0267 74.2161 10.3253 73.9921 10.72C73.7787 11.1147 73.6721 11.5787 73.6721 12.112C73.6721 12.6453 73.7787 13.1093 73.9921 13.504C74.2161 13.8987 74.5041 14.2027 74.8561 14.416C75.2187 14.6187 75.6027 14.72 76.0081 14.72C76.4241 14.72 76.8081 14.6133 77.1601 14.4C77.5227 14.1867 77.8107 13.8827 78.0241 13.488C78.2481 13.0933 78.3601 12.624 78.3601 12.08Z" fill="#404040"/>
<path d="M83.4118 6.624C83.0171 6.624 82.6865 6.50133 82.4198 6.256C82.1638 6 82.0358 5.68533 82.0358 5.312C82.0358 4.93867 82.1638 4.62933 82.4198 4.384C82.6865 4.128 83.0171 4 83.4118 4C83.8065 4 84.1318 4.128 84.3878 4.384C84.6545 4.62933 84.7878 4.93867 84.7878 5.312C84.7878 5.68533 84.6545 6 84.3878 6.256C84.1318 6.50133 83.8065 6.624 83.4118 6.624ZM84.5158 7.68V16.544H82.2758V7.68H84.5158Z" fill="#404040"/>
<path d="M91.9769 16.544L88.9689 12.768V16.544H86.7289V4.704H88.9689V11.44L91.9449 7.68H94.8569L90.9529 12.128L94.8889 16.544H91.9769Z" fill="#404040"/>
<path d="M97.2087 6.624C96.814 6.624 96.4833 6.50133 96.2167 6.256C95.9607 6 95.8327 5.68533 95.8327 5.312C95.8327 4.93867 95.9607 4.62933 96.2167 4.384C96.4833 4.128 96.814 4 97.2087 4C97.6033 4 97.9287 4.128 98.1847 4.384C98.4514 4.62933 98.5847 4.93867 98.5847 5.312C98.5847 5.68533 98.4514 6 98.1847 6.256C97.9287 6.50133 97.6033 6.624 97.2087 6.624ZM98.3127 7.68V16.544H96.0727V7.68H98.3127Z" fill="#404040"/>
</svg>
