<svg width="60" height="60" viewBox="0 0 60 60" fill="none" xmlns="http://www.w3.org/2000/svg">
<g clip-path="url(#clip0_2311_41779)">
<path d="M28.7861 44.4104C28.7861 42.9045 28.7861 41.3987 28.7861 39.8928C29.249 39.8513 29.7146 39.8291 30.1719 39.8291C30.1719 41.3368 30.1719 42.8436 30.1719 44.3494C29.7201 44.3494 29.2462 44.3688 28.7861 44.4104Z" fill="#B13B5D"/>
<path d="M30.5847 39.8346L30.5709 44.3521C30.2605 44.3521 29.9501 44.3521 29.6396 44.3521L29.6535 39.8346C29.9639 39.8346 30.2743 39.8346 30.5847 39.8346Z" fill="#B13B5D"/>
<path d="M29.6535 39.8401L29.6397 44.3576C29.3016 44.3576 28.9634 44.3909 28.6309 44.4241V39.9066C28.9662 39.8733 29.3043 39.8512 29.6425 39.8401" fill="#B13B5D"/>
<path d="M28.786 44.4104L28.4424 44.4436C28.4424 42.9378 28.4424 41.4319 28.4424 39.9261L28.786 39.8928C28.7916 41.3987 28.7916 42.9045 28.786 44.4104Z" fill="#B13B5D"/>
<path d="M29.6535 39.8402L29.6397 44.3577C29.3016 44.3577 28.9634 44.391 28.6309 44.4243V39.9067C28.9662 39.8735 29.3043 39.8513 29.6425 39.8402" fill="#B13B5D"/>
<path d="M28.642 39.9067V44.4243C28.2512 44.4631 27.8632 44.5185 27.4807 44.5878L27.4946 40.0675C27.8743 39.9982 28.2623 39.9455 28.6531 39.9067" fill="#B13B5D"/>
<path d="M36.6182 45.8903C34.8361 44.8621 32.5053 44.3494 30.1772 44.3494C30.1772 42.8417 30.1772 41.3349 30.1772 39.8291C32.5053 39.8291 34.8361 40.3446 36.6182 41.3728C38.4003 42.401 39.3065 43.7674 39.3038 45.1254V49.643C39.3065 48.2849 38.4113 46.9269 36.6182 45.8903Z" fill="#B13B5D"/>
<path d="M39.3178 45.1254V49.6429C39.3178 48.2849 38.4254 46.9268 36.6322 45.8903C36.211 45.6492 35.7729 45.4389 35.3213 45.2612V40.7437C35.7738 40.9214 36.2128 41.1317 36.635 41.3728C38.4281 42.4093 39.3233 43.7673 39.3205 45.1254" fill="#B13B5D"/>
<path d="M35.3183 40.7437V45.2612C34.9608 45.1226 34.5922 44.9979 34.2097 44.8898L34.2236 40.3723C34.5992 40.4771 34.9692 40.6011 35.3322 40.7437" fill="#B13B5D"/>
<path d="M34.2154 40.3722L34.2015 44.8897C33.8911 44.8011 33.5752 44.7235 33.2537 44.6569L33.2675 40.1394C33.589 40.2059 33.905 40.2835 34.2154 40.3722Z" fill="#B13B5D"/>
<path d="M33.2676 40.1394L33.2538 44.6569C32.9572 44.596 32.6551 44.5433 32.353 44.499V39.9814C32.6579 40.0258 32.96 40.0757 33.2565 40.1394" fill="#B13B5D"/>
<path d="M32.3639 39.9815V44.499C32.0701 44.4574 31.7764 44.427 31.4771 44.402V39.8817C31.7736 39.9067 32.0702 39.9399 32.3612 39.9815" fill="#B13B5D"/>
<path d="M31.4799 39.8817V44.402C31.1834 44.3771 30.884 44.3604 30.5847 44.3521L30.5986 39.8346C30.8979 39.8346 31.1972 39.8595 31.4938 39.8817" fill="#B13B5D"/>
<path d="M30.5847 39.8346L30.5709 44.3521C30.2605 44.3521 29.9501 44.3521 29.6396 44.3521L29.6535 39.8346C29.9639 39.8346 30.2743 39.8346 30.5847 39.8346Z" fill="#B13B5D"/>
<path d="M23.7531 45.8932C21.9932 46.9158 21.1119 48.2517 21.1091 49.5931V45.0728C21.1091 43.7342 21.9932 42.3955 23.7504 41.3729C25.1993 40.5778 26.7947 40.0856 28.4397 39.9261C28.4397 41.4338 28.4397 42.9397 28.4397 44.4437C26.795 44.6019 25.2 45.0952 23.7531 45.8932Z" fill="#B13B5D"/>
<path d="M28.6422 39.9067V44.4243C28.2514 44.4631 27.8634 44.5185 27.481 44.5878L27.4948 40.0675C27.8745 39.9982 28.2625 39.9455 28.6533 39.9067" fill="#B13B5D"/>
<path d="M27.4836 40.0675L27.4697 44.5878C26.8862 44.6914 26.3103 44.834 25.7458 45.0146V40.4971C26.3101 40.3153 26.8861 40.1717 27.4697 40.0675" fill="#B13B5D"/>
<path d="M25.7598 40.4971V45.0146C25.0662 45.2356 24.3981 45.5301 23.7671 45.8932L23.6562 45.9569V41.4394L23.7671 41.3729C24.3998 41.0119 25.0686 40.7183 25.7626 40.4971" fill="#B13B5D"/>
<path d="M23.6534 41.4393V45.9569C23.2415 46.202 22.8552 46.488 22.5005 46.8105V42.293C22.8535 41.9696 23.239 41.6836 23.6507 41.4393" fill="#B13B5D"/>
<path d="M22.5143 42.293V46.8105C22.3137 46.9978 22.1284 47.2008 21.96 47.4175V42.8999C22.1285 42.6833 22.3138 42.4804 22.5143 42.293Z" fill="#B13B5D"/>
<path d="M21.9379 42.8999V47.4174C21.8012 47.5926 21.6779 47.7779 21.5693 47.9717V43.4542C21.6773 43.2605 21.7995 43.0753 21.9352 42.8999" fill="#B13B5D"/>
<path d="M21.5719 43.4431V47.9606C21.4798 48.1277 21.3992 48.3008 21.3308 48.4789V43.9586C21.3969 43.7804 21.4775 43.608 21.5719 43.4431Z" fill="#B13B5D"/>
<path d="M21.331 43.9586V48.4789C21.2676 48.6454 21.2185 48.8169 21.1841 48.9916V44.4713C21.2189 44.2967 21.268 44.1252 21.331 43.9586Z" fill="#B13B5D"/>
<path d="M21.184 44.4714V48.9917C21.1485 49.1633 21.1281 49.3377 21.123 49.5128V44.9952C21.1283 44.8192 21.1487 44.644 21.184 44.4714Z" fill="#B13B5D"/>
<path d="M39.3179 45.1254V49.6429C39.3179 50.9843 38.4338 52.3202 36.6739 53.3428C33.1319 55.4021 27.3728 55.4021 23.8086 53.3428C22.0155 52.3063 21.1203 50.9455 21.1231 49.5902V45.0699C21.1231 46.428 22.0127 47.7888 23.8059 48.8225C27.37 50.8818 33.1319 50.8818 36.6711 48.8225C38.431 47.7971 39.3123 46.464 39.3179 45.1254Z" fill="#B13B5D"/>
<path d="M39.3151 45.2057V49.7232C39.31 49.8983 39.2896 50.0727 39.2542 50.2443V45.7267C39.2871 45.5548 39.3065 45.3806 39.3124 45.2057" fill="#B13B5D"/>
<path d="M39.2568 45.7268V50.2443C39.2223 50.4191 39.1732 50.5906 39.1099 50.7571V46.2395C39.1719 46.0727 39.221 45.9012 39.2568 45.7268Z" fill="#B13B5D"/>
<path d="M39.1099 46.2395V50.757C39.0417 50.9357 38.9602 51.1089 38.866 51.2753L38.8798 46.755C38.9745 46.5898 39.0561 46.4175 39.1237 46.2395" fill="#B13B5D"/>
<path d="M38.8661 46.755V51.2753C38.7595 51.4698 38.6371 51.6551 38.5002 51.8296L38.5141 47.3121C38.6509 47.1375 38.7733 46.9522 38.8799 46.7578" fill="#B13B5D"/>
<path d="M38.5003 47.301L38.4864 51.8186C38.3173 52.0346 38.132 52.2375 37.9321 52.4255V47.908C38.1319 47.7199 38.3172 47.517 38.4864 47.301" fill="#B13B5D"/>
<path d="M37.9349 47.908V52.4255C37.5804 52.7482 37.1941 53.0342 36.782 53.2791V48.7588C37.1949 48.5162 37.5813 48.231 37.9349 47.908Z" fill="#B13B5D"/>
<path d="M36.782 48.7588V53.2791L36.6712 53.3428C36.0399 53.7054 35.3719 53.9999 34.6785 54.2214V49.7011C35.372 49.481 36.04 49.1874 36.6712 48.8253L36.782 48.7588Z" fill="#B13B5D"/>
<path d="M34.6785 49.701V54.2214C34.114 54.4019 33.5381 54.5445 32.9546 54.6482L32.9684 50.1306C33.5512 50.0264 34.1262 49.8829 34.6895 49.701" fill="#B13B5D"/>
<path d="M32.9573 50.1306L32.9435 54.6481C32.5638 54.7174 32.1758 54.7729 31.7822 54.8117L31.7961 50.2914C32.1869 50.2526 32.5749 50.1999 32.9573 50.1306Z" fill="#B13B5D"/>
<path d="M31.7961 50.2914L31.7823 54.8117C31.4497 54.8449 31.1116 54.8671 30.7734 54.8782V50.3607C31.1116 50.3468 31.4469 50.3246 31.7823 50.2914" fill="#B13B5D"/>
<path d="M30.7872 50.3607V54.8782C30.4768 54.8782 30.1664 54.8782 29.856 54.8782V50.3579C30.1664 50.3579 30.4768 50.3579 30.7872 50.3579" fill="#B13B5D"/>
<path d="M29.8559 50.3635V54.8838C29.5566 54.8838 29.2572 54.8589 28.9607 54.8339V50.3164C29.26 50.3413 29.5593 50.358 29.8587 50.3635" fill="#B13B5D"/>
<path d="M28.9581 50.3163V54.8339C28.6615 54.8089 28.365 54.7784 28.074 54.7369V50.2166C28.3678 50.2581 28.6615 50.2914 28.9581 50.3163Z" fill="#B13B5D"/>
<path d="M28.0739 50.2166L28.0573 54.7258C27.7525 54.6815 27.4504 54.6288 27.1538 54.5678V50.0503C27.4504 50.1113 27.7525 50.1639 28.0545 50.2055" fill="#B13B5D"/>
<path d="M27.1732 50.0614V54.5789C26.8517 54.5124 26.5357 54.4348 26.2253 54.3461V49.8286C26.5357 49.9173 26.8545 49.9949 27.176 50.0614" fill="#B13B5D"/>
<path d="M26.2226 49.8286V54.3462C25.842 54.239 25.4725 54.1143 25.114 53.972L25.1279 49.4545C25.4826 49.5958 25.854 49.7316 26.2365 49.8286" fill="#B13B5D"/>
<path d="M25.1195 49.46L25.1056 53.9775C24.6538 53.8013 24.2157 53.5919 23.7947 53.3511C22.0016 52.3146 21.1064 50.9538 21.1091 49.5985V45.0782C21.1091 46.4363 21.9988 47.7971 23.7919 48.8308C24.2183 49.0732 24.662 49.2834 25.1195 49.46Z" fill="#B13B5D"/>
<path d="M36.6321 41.3728C40.1963 43.4293 40.2129 46.7662 36.6709 48.8254C33.129 50.8846 27.3698 50.8846 23.8057 48.8254C20.2415 46.7662 20.2249 43.4321 23.7641 41.3728C27.3033 39.3136 33.068 39.3164 36.6321 41.3728Z" fill="#B13B5D"/>
<path d="M48.1394 45.1503V49.6706C48.1394 52.3091 46.3961 54.9364 42.9317 56.9596C35.9559 61.0116 24.6094 61.0116 17.5865 56.9596C14.0528 54.9198 12.2874 52.2481 12.2957 49.5681V45.0505C12.2957 47.725 14.0528 50.4023 17.5865 52.4421C24.6066 56.4968 35.9531 56.4968 42.929 52.4421C46.3989 50.4272 48.1338 47.7971 48.1394 45.1503Z" fill="#B13B5D"/>
<path d="M48.1394 45.1504V49.6707C48.1394 49.7233 48.1394 49.7732 48.1394 49.8259L48.1533 45.3084V45.1504" fill="#B13B5D"/>
<path d="M48.1392 45.3028L48.1254 49.8203C48.1149 50.1647 48.0769 50.5076 48.0117 50.8458V46.3283C48.0802 45.9895 48.1201 45.6455 48.1309 45.3" fill="#B13B5D"/>
<path d="M48.0117 46.3365V50.8541C47.9412 51.1974 47.8439 51.5347 47.7207 51.8629L47.7346 47.3454C47.8543 47.0172 47.947 46.6798 48.0117 46.3365Z" fill="#B13B5D"/>
<path d="M47.7347 47.3455L47.7208 51.863C47.5888 52.2149 47.4294 52.5559 47.2441 52.8829L47.258 48.3654C47.4422 48.0378 47.6015 47.6969 47.7347 47.3455Z" fill="#B13B5D"/>
<path d="M47.2552 48.3654L47.2413 52.8829C47.0285 53.2572 46.7877 53.6148 46.5208 53.9527V49.4352C46.7895 49.098 47.0313 48.7403 47.2441 48.3654" fill="#B13B5D"/>
<path d="M46.5319 49.4352V53.9527C46.1938 54.3797 45.8231 54.78 45.4233 55.15V50.6297C45.8245 50.2621 46.1952 49.8626 46.5319 49.4352Z" fill="#B13B5D"/>
<path d="M45.4205 50.6296V55.1499C44.7227 55.7852 43.9621 56.3479 43.1506 56.8295V52.3119C43.9622 51.8294 44.7228 51.2658 45.4205 50.6296Z" fill="#B13B5D"/>
<path d="M43.1505 52.3119V56.8294L42.9316 56.9597C41.6866 57.6712 40.3703 58.2499 39.0044 58.6863V54.166C40.3714 53.7325 41.688 53.1537 42.9316 52.4394L43.1505 52.3119Z" fill="#B13B5D"/>
<path d="M39.0044 54.1716V58.6919C37.8935 59.0447 36.7602 59.3224 35.6121 59.5234L35.6259 55.0058C36.7694 54.8035 37.8981 54.5248 39.0044 54.1716Z" fill="#B13B5D"/>
<path d="M35.615 55.0031L35.6012 59.5206C34.8501 59.6564 34.0852 59.7617 33.3147 59.8393L33.3286 55.3218C34.099 55.2442 34.864 55.1389 35.615 55.0031Z" fill="#B13B5D"/>
<path d="M33.3228 55.3301L33.3089 59.8476C32.6521 59.9141 31.9869 59.9585 31.3218 59.9806V55.4631C31.9869 55.4382 32.6493 55.3966 33.3089 55.3301" fill="#B13B5D"/>
<path d="M31.3413 55.4631V59.9807C30.7316 60.0028 30.12 60.0028 29.5066 59.9807V55.4631C30.1163 55.4779 30.7279 55.4779 31.3413 55.4631Z" fill="#B13B5D"/>
<path d="M29.5067 55.4714V59.989C28.9163 59.9751 28.3288 59.9418 27.7412 59.8947V55.3772C28.326 55.4243 28.9163 55.4548 29.5067 55.4714Z" fill="#B13B5D"/>
<path d="M27.7411 55.3772V59.8947C27.1563 59.8476 26.5743 59.7811 25.9978 59.7007V55.1804C26.5743 55.2636 27.1563 55.3273 27.7411 55.3772Z" fill="#B13B5D"/>
<path d="M25.998 55.1804V59.7007C25.3993 59.6139 24.8071 59.5104 24.2214 59.3903V54.8728C24.8053 54.9947 25.3975 55.0973 25.998 55.1804Z" fill="#B13B5D"/>
<path d="M24.2213 54.8728V59.3904C23.5857 59.2592 22.963 59.1067 22.3533 58.9331V54.4155C22.9667 54.5874 23.5903 54.7398 24.224 54.8728" fill="#B13B5D"/>
<path d="M22.3505 54.4154V58.933C21.6022 58.7196 20.8733 58.4757 20.1721 58.1985V53.6782C20.8733 53.9554 21.6022 54.202 22.3477 54.4154" fill="#B13B5D"/>
<path d="M20.1749 53.6783V58.1986C19.2837 57.8486 18.4195 57.4337 17.5891 56.9569C14.0555 54.9171 12.2901 52.2454 12.2984 49.5654V45.0479C12.2984 47.7223 14.0555 50.3996 17.5891 52.4394C18.4187 52.9168 19.2831 53.331 20.1749 53.6783Z" fill="#B13B5D"/>
<path d="M42.8487 37.7588C49.8717 41.8135 49.9105 48.3847 42.9319 52.4477C35.9533 56.5107 24.6095 56.5024 17.5894 52.4477C10.5692 48.393 10.5304 41.8218 17.5034 37.7588C24.4765 33.6958 35.8175 33.7069 42.8487 37.7588ZM23.8086 48.8254C27.37 50.8846 33.1319 50.8846 36.6711 48.8254C40.2103 46.7661 40.1964 43.4293 36.6323 41.3728C33.0681 39.3164 27.309 39.3164 23.7642 41.3728C20.2195 43.4293 20.2444 46.7689 23.8086 48.8254Z" fill="#B13B5D"/>
<path d="M44.2151 39.3968V41.6556C44.2151 39.5298 42.8155 37.3986 40.0052 35.7745C39.3451 35.3958 38.6577 35.0669 37.9487 34.7906V32.5291C38.6568 32.8086 39.344 33.1383 40.0052 33.5157C42.8155 35.1398 44.2178 37.2683 44.2123 39.3968" fill="#658085"/>
<path d="M37.9516 32.529V34.7906C37.3853 34.5667 36.8081 34.3715 36.2222 34.2058V31.947C36.8153 32.1161 37.3945 32.3101 37.9543 32.529" fill="#69858A"/>
<path d="M36.2192 31.947V34.2058C35.7315 34.0672 35.2354 33.9453 34.731 33.8399V31.5812C35.2354 31.6865 35.7342 31.8084 36.2192 31.947Z" fill="#6D8A8F"/>
<path d="M34.7311 31.5811V33.8399C34.2655 33.7429 33.7943 33.6625 33.3176 33.5932V31.3345C33.7943 31.4038 34.2655 31.4841 34.7311 31.5811Z" fill="#718F94"/>
<path d="M33.323 31.3345V33.5933C32.8657 33.5295 32.4029 33.4769 31.9373 33.4409V31.1793C32.4029 31.2181 32.8657 31.2708 33.323 31.3345Z" fill="#749499"/>
<path d="M31.9374 31.1682V33.4298C31.4718 33.3909 31.0034 33.366 30.5322 33.3521V31.0934C31.0006 31.0934 31.469 31.1322 31.9346 31.1682" fill="#78999E"/>
<path d="M30.5294 31.1045V33.3632C30.0444 33.3632 29.5566 33.3632 29.0688 33.3632V31.1045C29.5539 31.0878 30.0416 31.0851 30.5294 31.1045Z" fill="#7C9DA3"/>
<path d="M29.0688 31.1128V33.3716C28.5422 33.3882 28.0128 33.4242 27.489 33.4769V31.2181C28.0128 31.1654 28.5422 31.1294 29.0715 31.1128" fill="#80A2A8"/>
<path d="M27.4863 31.2181V33.4769C26.8729 33.5379 26.2669 33.6219 25.6682 33.7291V31.4703C26.2641 31.3623 26.871 31.2791 27.4835 31.2181" fill="#84A7AD"/>
<path d="M25.671 31.4703V33.7291C24.7579 33.8924 23.857 34.1174 22.9744 34.4026V32.141C23.8583 31.8577 24.7601 31.6337 25.6738 31.4703" fill="#88ACB3"/>
<path d="M22.9717 32.141V34.4025C21.8845 34.7528 20.8375 35.2173 19.8482 35.7883L19.6736 35.8908V33.6321L19.8454 33.5295C20.8347 32.9586 21.8817 32.4941 22.9689 32.1438" fill="#8CB1B8"/>
<path d="M19.6763 33.6182V35.8769C19.0312 36.26 18.4267 36.7076 17.8721 37.2128V34.954C18.4277 34.4488 19.0331 34.0012 19.6791 33.6182" fill="#88ACB3"/>
<path d="M17.8694 34.9541V37.2129C17.5461 37.5062 17.2459 37.824 16.9714 38.1635V35.9047C17.2415 35.5658 17.5371 35.248 17.8555 34.9541" fill="#84A7AD"/>
<path d="M16.9851 35.9047V38.1634C16.7751 38.4336 16.5852 38.7189 16.417 39.0171V36.7555C16.587 36.4581 16.7787 36.1737 16.9907 35.9047" fill="#80A2A8"/>
<path d="M16.417 36.7555V39.017C16.2703 39.2768 16.1434 39.5474 16.0374 39.8263V37.5675C16.1433 37.2877 16.2703 37.0163 16.417 36.7555Z" fill="#7C9DA3"/>
<path d="M16.0318 37.5676V39.8264C15.9331 40.0875 15.8562 40.3563 15.8018 40.6301V38.3714C15.8571 38.0978 15.934 37.829 16.0318 37.5676Z" fill="#78999E"/>
<path d="M15.8017 38.3741V40.6329C15.7462 40.9068 15.7147 41.185 15.7075 41.4644V39.2056C15.7145 38.9309 15.7451 38.6574 15.799 38.388" fill="#749499"/>
<path d="M44.2151 39.3967V41.6554C44.2151 39.5297 42.8155 37.3984 40.0052 35.7743C39.3451 35.3957 38.6577 35.0668 37.9487 34.7905V32.5289C38.6568 32.8085 39.344 33.1382 40.0052 33.5156C42.8155 35.1397 44.2178 37.2682 44.2123 39.3967" fill="#658085"/>
<path d="M44.2121 39.5215V41.7802C44.205 42.0596 44.1735 42.3378 44.1179 42.6117V40.3529C44.1726 40.079 44.2032 39.8008 44.2094 39.5215" fill="#084A55"/>
<path d="M44.1319 40.339V42.5978C44.0775 42.8715 44.0005 43.1404 43.9019 43.4015V41.1427C43.9993 40.8812 44.0762 40.6125 44.1319 40.339Z" fill="#094D58"/>
<path d="M43.8907 41.1455V43.4043C43.7858 43.6837 43.6589 43.9543 43.511 44.2135V41.9548C43.6577 41.695 43.7847 41.4244 43.8907 41.1455Z" fill="#094F5B"/>
<path d="M43.511 41.952V44.2108C43.3436 44.5098 43.1517 44.7944 42.9373 45.0616V42.8029C43.1498 42.5343 43.3416 42.2498 43.511 41.952Z" fill="#09525E"/>
<path d="M42.9375 42.8085V45.0672C42.6699 45.4074 42.3752 45.7253 42.0562 46.0179V43.7591C42.3746 43.4652 42.6702 43.1474 42.9403 42.8085" fill="#0A5461"/>
<path d="M42.0534 43.7535V46.0123C41.4977 46.5175 40.8923 46.9651 40.2463 47.3482V45.0894C40.891 44.7056 41.4954 44.2581 42.0506 43.7535" fill="#0A5763"/>
<path d="M40.2518 45.0894V47.3481C40.1964 47.3842 40.1382 47.4174 40.08 47.4507C39.0913 48.0227 38.0442 48.4873 36.9565 48.8364V46.5776C38.0442 46.2285 39.0913 45.7639 40.08 45.1919L40.2546 45.0894" fill="#0A5966"/>
<path d="M36.9509 46.5665V48.8253C36.0673 49.1096 35.1654 49.3337 34.2515 49.496V47.2372C35.1654 47.0749 36.0673 46.8508 36.9509 46.5665Z" fill="#0A5763"/>
<path d="M34.2515 47.2428V49.5016C33.6528 49.6106 33.0468 49.6956 32.4333 49.7565V47.4978C33.0458 47.4368 33.6556 47.3509 34.2515 47.2428Z" fill="#0A5461"/>
<path d="M32.4333 47.4923V49.7511C31.9095 49.8037 31.3802 49.837 30.8508 49.8564V47.5976C31.3793 47.5792 31.9058 47.544 32.4306 47.4923" fill="#09525E"/>
<path d="M30.8536 47.5975V49.8563C30.3686 49.8729 29.8808 49.8757 29.3931 49.8563V47.5975C29.8781 47.5975 30.3659 47.5975 30.8536 47.5975Z" fill="#094F5B"/>
<path d="M29.3931 47.6032V49.8619C28.9247 49.8619 28.4563 49.8259 27.9907 49.7871V47.5283C28.4563 47.5671 28.9247 47.5921 29.3959 47.6032" fill="#094D58"/>
<path d="M27.988 47.5199V49.7787C27.5224 49.7399 27.0596 49.69 26.6023 49.6235V47.3647C27.0596 47.4285 27.5224 47.4811 27.988 47.5199Z" fill="#084A55"/>
<path d="M26.6022 47.3731V49.6319C26.1255 49.5654 25.6516 49.4822 25.1887 49.3852V47.1265C25.6543 47.2235 26.1255 47.3066 26.6022 47.3731Z" fill="#084852"/>
<path d="M25.1887 47.1265V49.3853C24.6843 49.2827 24.1855 49.1608 23.7004 49.0222V46.7634C24.1882 46.902 24.6843 47.023 25.1887 47.1265Z" fill="#084550"/>
<path d="M23.7005 46.7634V49.0221C23.1108 48.8568 22.5299 48.6616 21.96 48.4374V46.1786C22.5143 46.3975 23.0963 46.5943 23.6894 46.7634" fill="#08434D"/>
<path d="M21.96 46.1786V48.4373C21.2509 48.1601 20.5635 47.8303 19.9035 47.4507C17.0932 45.8294 15.6881 43.6981 15.6936 41.5724V39.3136C15.6936 41.4393 17.0794 43.5706 19.9007 45.1919C20.5619 45.5711 21.2502 45.9009 21.96 46.1786Z" fill="#07404A"/>
<path d="M40.0078 33.5156C45.5924 36.7416 45.6229 41.9686 40.0744 45.1919C34.5258 48.4151 25.4991 48.4179 19.9145 45.1919C14.33 41.9659 14.2995 36.7388 19.848 33.5156C25.3965 30.2923 34.4316 30.2923 40.0078 33.5156Z" fill="#EF597D"/>
<path d="M58.0419 39.4355V41.6943C58.0419 45.8294 55.3148 49.9589 49.8854 53.1156C38.9547 59.4679 21.1728 59.4651 10.1728 53.1156C4.62977 49.9173 1.85828 45.7213 1.88322 41.5335V39.2748C1.88322 43.4625 4.63809 47.6585 10.1728 50.8568C21.17 57.2202 38.9519 57.2202 49.8827 50.8458C55.312 47.7001 58.0281 43.5706 58.0419 39.4355Z" fill="#E54C78"/>
<path d="M58.0364 39.6821V41.9409C58.0194 42.4826 57.9582 43.0221 57.8535 43.5539V41.2924C57.961 40.7619 58.0222 40.2232 58.0364 39.6821Z" fill="#E54C78"/>
<path d="M57.8535 41.2924V43.5539C57.7439 44.0917 57.5919 44.6199 57.3989 45.1336V42.8749C57.5935 42.3607 57.7455 41.8314 57.8535 41.2924Z" fill="#E54C78"/>
<path d="M57.3989 42.8749V45.1336C57.1906 45.6841 56.9405 46.2178 56.6506 46.73V44.4713C56.9405 43.959 57.1906 43.4253 57.3989 42.8749Z" fill="#E54C78"/>
<path d="M56.6505 44.4713V46.73C56.3162 47.3121 55.9382 47.868 55.5198 48.3929V46.1342C55.9379 45.6047 56.315 45.0442 56.6478 44.4574" fill="#E54C78"/>
<path d="M55.5227 46.1481V48.4068C54.9927 49.0761 54.4107 49.7026 53.7822 50.2804V48.0216C54.4116 47.4438 54.9945 46.8174 55.5255 46.1481" fill="#E54C78"/>
<path d="M53.7795 48.0216V50.2804C52.6865 51.2763 51.4951 52.1585 50.2236 52.9133V50.6518C51.4942 49.8979 52.6847 49.0166 53.7767 48.0216" fill="#E54C78"/>
<path d="M50.2291 50.6517V52.9133L49.8882 53.1156C47.9348 54.2377 45.8677 55.1491 43.7217 55.8344V53.5757C45.8628 52.8937 47.9253 51.986 49.8744 50.8679L50.2181 50.6656" fill="#E54C78"/>
<path d="M43.73 53.5618V55.8205C41.9899 56.3804 40.214 56.822 38.4143 57.1425V54.8838C40.2138 54.5626 41.9897 54.121 43.73 53.5618Z" fill="#E54C78"/>
<path d="M38.4143 54.8838V57.1426C37.2391 57.356 36.0419 57.5222 34.8335 57.6414V55.3827C36.0419 55.2635 37.2392 55.1055 38.417 54.8838" fill="#E54C78"/>
<path d="M34.8307 55.3827V57.6415C33.7997 57.7468 32.7577 57.8133 31.7156 57.8493V55.5906C32.7614 55.5554 33.7997 55.4862 34.8307 55.3827Z" fill="#E54C78"/>
<path d="M31.7154 55.5906V57.8493C30.7593 57.8826 29.7976 57.8881 28.8386 57.8493V55.5906C29.7976 55.6164 30.7556 55.6164 31.7127 55.5906" fill="#E54C78"/>
<path d="M28.8416 55.6044V57.8632C27.9177 57.841 26.9939 57.792 26.0701 57.7163V55.4575C26.9939 55.5333 27.9177 55.5822 28.8416 55.6044Z" fill="#E54C78"/>
<path d="M26.0756 55.4575V57.7163C25.161 57.6415 24.2492 57.5389 23.3457 57.4114V55.1499C24.2492 55.2802 25.161 55.3799 26.0784 55.4575" fill="#E54C78"/>
<path d="M23.3457 55.1498V57.4114C22.4062 57.2783 21.4777 57.1148 20.5742 56.9264V54.6676C21.4888 54.8561 22.42 55.0168 23.3457 55.1498Z" fill="#E54C78"/>
<path d="M20.5742 54.6676V56.9264C19.5784 56.7213 18.6019 56.4821 17.6448 56.2086V53.9498C18.6019 54.2214 19.5784 54.4607 20.5742 54.6676Z" fill="#E54C78"/>
<path d="M17.6309 53.9498V56.2086C16.4577 55.8723 15.3204 55.488 14.2192 55.0556V52.7969C15.3278 53.232 16.4558 53.6283 17.6282 53.9498" fill="#E54C78"/>
<path d="M14.2219 52.7858V55.0445C12.8263 54.4983 11.4729 53.8498 10.1728 53.1045C4.62977 49.9062 1.85828 45.7102 1.88322 41.5224V39.2637C1.88322 43.4514 4.63809 47.6474 10.1728 50.8457C11.4736 51.5916 12.828 52.2401 14.2247 52.7858" fill="#E54C78"/>
<path d="M49.7525 27.8423C60.7526 34.1946 60.8135 44.4934 49.8828 50.8457C38.952 57.198 21.1701 57.2201 10.1701 50.8457C-0.829955 44.4713 -0.890928 34.2168 10.0426 27.8423C20.9761 21.4679 38.7497 21.5012 49.7525 27.8423ZM19.9147 45.1919C25.4992 48.4179 34.5259 48.4179 40.0745 45.1919C45.623 41.9659 45.5925 36.7416 40.008 33.5156C34.4234 30.2896 25.3967 30.2923 19.8481 33.5156C14.2996 36.7388 14.3301 41.9686 19.9147 45.1919Z" fill="#94EBFF"/>
<path d="M49.7525 27.8423C60.7526 34.1946 60.8135 44.4934 49.8828 50.8457C38.952 57.198 21.1701 57.2201 10.1701 50.8457C-0.829955 44.4713 -0.890928 34.2168 10.0426 27.8423C20.9761 21.4679 38.7497 21.5012 49.7525 27.8423ZM19.9147 45.1919C25.4992 48.4179 34.5259 48.4179 40.0745 45.1919C45.623 41.9659 45.5925 36.7416 40.008 33.5156C34.4234 30.2896 25.3967 30.2923 19.8481 33.5156C14.2996 36.7388 14.3301 41.9686 19.9147 45.1919Z" fill="#FFCADC"/>
<path opacity="0.9" d="M40.0078 33.5156C45.5924 36.7416 45.6229 41.9686 40.0744 45.1919C34.5258 48.4151 25.4991 48.4179 19.9145 45.1919C14.33 41.9659 14.2995 36.7388 19.848 33.5156C25.3965 30.2923 34.4316 30.2923 40.0078 33.5156Z" fill="#E54C78"/>
<path d="M43.3531 7.38324C50.8832 11.7317 50.9248 18.7796 43.4445 23.1281C35.9643 27.4765 23.7919 27.4765 16.259 23.1281C8.72608 18.7796 8.69005 11.7317 16.1731 7.38324C23.6561 3.03477 35.8174 3.03754 43.3531 7.38324Z" fill="#FFB6D2"/>
<path d="M42.0726 8.12602C48.9043 11.9202 48.9403 18.0701 42.153 21.8643C35.3656 25.6585 24.3267 25.6585 17.4867 21.8643C10.6467 18.0701 10.6273 11.9202 17.4146 8.12602C24.202 4.33185 35.2409 4.33185 42.0726 8.12602Z" fill="#EF597D"/>
<path d="M48.8435 28.0309C48.8435 27.981 48.8713 27.9311 48.8796 27.8785C48.8879 27.8258 48.8796 27.8119 48.8962 27.7759C48.9156 27.6817 48.9295 27.5847 48.9405 27.4988C48.9516 27.4128 48.9655 27.3325 48.9738 27.2466C48.9821 27.1606 48.9904 27.0553 48.9932 26.9694C48.996 26.8835 48.9932 26.8558 48.9932 26.7976C48.9932 26.7394 48.9932 26.6867 48.9932 26.6285L49.0237 15.3347C49.0237 15.4456 49.0237 15.5592 49.0237 15.6728C49.0237 15.7864 49.0237 15.8668 49.0043 15.95L48.971 16.1994C48.971 16.2964 48.9433 16.3934 48.9267 16.4904C48.9101 16.5874 48.8907 16.6595 48.874 16.7426C48.8574 16.8258 48.8297 16.9311 48.8047 17.0198C48.7798 17.1084 48.7576 17.1888 48.7299 17.2747C48.7022 17.3607 48.6717 17.4604 48.6385 17.5519C48.6052 17.6433 48.5775 17.7182 48.5442 17.8013C48.511 17.8845 48.4638 17.9953 48.4223 18.0785C48.3807 18.1616 48.3474 18.2392 48.3086 18.3224C48.2698 18.4055 48.2116 18.5136 48.159 18.5995C48.1063 18.6854 48.0758 18.7547 48.0287 18.8323C47.9816 18.9099 47.8929 19.0596 47.8181 19.1704C47.7737 19.2397 47.7322 19.309 47.6851 19.3783C47.5991 19.503 47.5077 19.6277 47.4079 19.7497C47.3636 19.8079 47.3248 19.8661 47.2777 19.9243L47.2139 20.0019C47.1114 20.1266 47.0088 20.2485 46.9007 20.3705L46.812 20.4703C46.6818 20.6116 46.5349 20.7474 46.4102 20.8888L46.3326 20.9608C46.2273 21.0634 46.1164 21.1659 46.0028 21.2685L45.7256 21.5096C45.6397 21.5844 45.551 21.6565 45.4485 21.7285C45.3459 21.8006 45.2517 21.8865 45.1491 21.9669L44.872 22.1803C44.7667 22.2579 44.6558 22.3327 44.545 22.4075L44.2401 22.6154L43.8909 22.8371C43.744 22.9286 43.5999 23.02 43.4474 23.1143C43.1703 23.2806 42.8627 23.4385 42.5606 23.5937L42.3001 23.724C42.0645 23.8404 41.8289 23.9513 41.5878 24.0593L41.3439 24.1702C41.0307 24.306 40.7092 24.4474 40.385 24.561L40.2104 24.6247C39.9351 24.7245 39.6579 24.8169 39.3789 24.9019L39.0297 25.0155L38.5613 25.1569L38.1622 25.2705L37.6828 25.398L37.2809 25.5005L36.7903 25.6142L36.3829 25.7028C36.2166 25.7389 36.0476 25.7694 35.8785 25.8026L35.4933 25.8747C35.133 25.9384 34.7699 25.9966 34.4069 26.0493L34.2489 26.0687C33.9329 26.1102 33.6142 26.149 33.2927 26.1823L32.9269 26.2183C32.7218 26.2377 32.5139 26.2544 32.3088 26.2682L31.918 26.2959C31.7046 26.2959 31.4885 26.3209 31.2723 26.3292H30.9065H30.3522H29.9586H29.36H29.0024L28.4481 26.307H28.0629C27.8661 26.307 27.6694 26.2793 27.4754 26.2654L27.1317 26.2433C26.8961 26.2239 26.6605 26.1989 26.425 26.174L26.206 26.1518C25.8984 26.1186 25.5935 26.0798 25.2886 26.0354L25.1473 26.0132C24.884 25.9744 24.6207 25.9356 24.3574 25.8885C24.2493 25.8719 24.144 25.8497 24.0359 25.8303L23.4401 25.7167L23.1352 25.6502C22.9163 25.6031 22.7001 25.5559 22.4867 25.5033L22.1291 25.4146L21.5471 25.2594L21.2173 25.1652C20.9125 25.0765 20.6104 24.9841 20.3111 24.888L20.1503 24.8381C19.8066 24.7217 19.4685 24.597 19.1332 24.4668L18.7285 24.3032L18.4098 24.1702C18.2601 24.1065 18.1105 24.0372 17.9636 23.9707L17.6865 23.8376C17.5229 23.76 17.365 23.6797 17.207 23.5993C17.1266 23.5605 17.0462 23.5217 16.9686 23.4801C16.7358 23.3582 16.503 23.2307 16.2758 23.1004C12.4705 20.9414 10.5803 18.0702 10.597 15.2017L10.5637 26.4983C10.5643 26.8905 10.5995 27.2818 10.669 27.6678H10.5693C11.6779 37.26 19.6376 44.6321 29.0773 44.9896C38.8911 45.3638 47.6324 38.0609 49.0126 28.1057H48.8158C48.8214 28.078 48.8241 28.0558 48.8435 28.0309Z" fill="url(#paint0_linear_2311_41779)"/>
<path d="M44.0931 36.9633L48.012 34.6935C47.4161 35.0399 46.5874 34.9928 45.6756 34.4662L41.7678 36.736C42.6658 37.2654 43.4945 37.3097 44.0931 36.9633Z" fill="#952142"/>
<path d="M44.0931 36.9633L48.012 34.6935H47.9954L44.0737 36.9883H44.0931" fill="#952142"/>
<path d="M44.0738 36.9882L47.9816 34.7184C47.9289 34.7461 47.8735 34.7738 47.8153 34.7988L43.9075 37.0686C43.9645 37.0452 44.02 37.0183 44.0738 36.9882Z" fill="#952142"/>
<path d="M43.9074 37.0548L47.8152 34.7849C47.7582 34.8086 47.6999 34.8289 47.6406 34.8459L43.7356 37.1157C43.7939 37.0983 43.8512 37.078 43.9074 37.0548Z" fill="#952142"/>
<path d="M43.7355 37.1157L47.6405 34.8458C47.5823 34.8625 47.5186 34.8763 47.4576 34.8874L43.5498 37.1572C43.6135 37.1572 43.6745 37.1323 43.7355 37.1157Z" fill="#952142"/>
<path d="M43.5499 37.1573L47.4577 34.8875C47.3912 34.8985 47.3247 34.9069 47.2581 34.9124L43.3503 37.1822C43.4206 37.1822 43.4871 37.1739 43.5499 37.1573Z" fill="#952142"/>
<path d="M43.3502 37.1822L47.258 34.9124C47.1851 34.9165 47.112 34.9165 47.0391 34.9124L43.134 37.1822C43.206 37.1864 43.2782 37.1864 43.3502 37.1822Z" fill="#952142"/>
<path d="M43.1341 37.1822L47.0391 34.9124C46.9574 34.9094 46.8759 34.9011 46.7953 34.8875L42.8875 37.1601C42.9706 37.1601 43.0537 37.1795 43.1341 37.1822Z" fill="#952142"/>
<path d="M42.8875 37.1601L46.7953 34.8875C46.7017 34.8731 46.6091 34.8528 46.5182 34.8265L42.6104 37.0964C42.7016 37.1223 42.7941 37.1435 42.8875 37.1601Z" fill="#952142"/>
<path d="M42.5991 37.0964L46.5069 34.8265C46.3746 34.7913 46.245 34.7468 46.1189 34.6935L42.2139 36.9633C42.339 37.0167 42.4677 37.0611 42.5991 37.0964Z" fill="#952142"/>
<path d="M42.214 36.9633L46.119 34.6935C45.9617 34.6278 45.809 34.5519 45.6617 34.4662L41.7539 36.736C41.9021 36.8218 42.0558 36.8977 42.214 36.9633Z" fill="#952142"/>
<path d="M45.7644 39.8374L49.675 37.5675C50.6921 36.9772 51.3212 35.7245 51.3379 33.948C51.3371 33.5773 51.3131 33.207 51.2658 32.8394L47.358 35.1092C47.4066 35.4767 47.4307 35.8471 47.4301 36.2178C47.4301 37.9943 46.7954 39.247 45.7672 39.8374" fill="#EF597D"/>
<path d="M47.3413 35.1148L51.2491 32.8449C51.2158 32.5872 51.1687 32.3266 51.1133 32.0634L47.2083 34.336C47.2637 34.5965 47.308 34.857 47.3413 35.1148Z" fill="#EF597D"/>
<path d="M47.2084 34.336L51.1134 32.0634C51.069 31.85 51.0164 31.6338 50.9554 31.4176L47.0476 33.6875C47.1086 33.9036 47.1612 34.1198 47.2084 34.336Z" fill="#EF597D"/>
<path d="M47.0474 33.6874L50.9552 31.4175C50.9025 31.2235 50.8444 31.0323 50.7806 30.8411L46.8728 33.1081C46.9365 33.2994 46.9947 33.4934 47.0474 33.6846" fill="#EF597D"/>
<path d="M46.8729 33.1082L50.7807 30.8384C50.7197 30.661 50.656 30.4808 50.5867 30.3035L46.6816 32.5733C46.7482 32.7507 46.8119 32.9308 46.8729 33.1082Z" fill="#EF597D"/>
<path d="M46.6817 32.5761L50.5868 30.3063C50.523 30.1372 50.4537 29.9681 50.3817 29.7991L46.4739 32.0689C46.5459 32.2389 46.6152 32.408 46.6817 32.5761Z" fill="#EF597D"/>
<path d="M46.4738 32.0689L50.3816 29.799C50.3095 29.6355 50.2347 29.472 50.1543 29.3085L46.2493 31.5783C46.3269 31.7428 46.4017 31.9063 46.4738 32.0689Z" fill="#EF597D"/>
<path d="M46.2493 31.5783L50.1543 29.3084C50.0767 29.1449 49.9963 28.9841 49.9104 28.8262L46.0054 31.096C46.0885 31.2568 46.1717 31.4175 46.2493 31.5783Z" fill="#EF597D"/>
<path d="M46.0053 31.096L49.9104 28.8262C49.8244 28.6654 49.7357 28.5075 49.6332 28.3495L45.7393 30.6138C45.8307 30.7718 45.9194 30.9297 46.0164 31.0905" fill="#EF597D"/>
<path d="M45.7394 30.6138L49.6444 28.344C49.5502 28.1832 49.4532 28.0225 49.3673 27.8645L45.4595 30.1344C45.562 30.2923 45.659 30.4531 45.7533 30.6138" fill="#EF597D"/>
<path d="M45.4454 30.14L49.3532 27.8701C49.2479 27.7038 49.1371 27.5403 49.0262 27.3823L45.1184 29.6522C45.232 29.8129 45.3401 29.9737 45.4454 30.14Z" fill="#EF597D"/>
<path d="M45.1186 29.6521L49.0264 27.3822C48.9045 27.2076 48.777 27.0358 48.6495 26.8695L44.7417 29.1394C44.872 29.3056 44.9967 29.4775 45.1186 29.6521Z" fill="#EF597D"/>
<path d="M44.7416 29.1395L48.6494 26.8696C48.4997 26.6784 48.3473 26.4927 48.1893 26.3153L44.2815 28.5879C44.4395 28.7681 44.5919 28.9538 44.7416 29.1422" fill="#EF597D"/>
<path d="M44.2815 28.5823L48.1893 26.3097C47.9898 26.0824 47.7847 25.8635 47.5713 25.6528L43.6663 27.9227C43.8769 28.1333 44.082 28.3523 44.2815 28.5823Z" fill="#EF597D"/>
<path d="M43.6663 27.9227L47.5713 25.6529C47.0077 25.0899 46.3754 24.6001 45.6895 24.1951L41.7844 26.4566C42.4699 26.8624 43.1021 27.3521 43.6663 27.9144" fill="#EF597D"/>
<path d="M41.7844 26.4567V29.17C43.5969 30.2176 45.0658 32.7729 45.0603 34.846C45.0547 36.919 43.5775 37.7754 41.7622 36.7278V39.4383C44.8774 41.237 47.4188 39.7875 47.4299 36.2095C47.441 32.6315 44.8968 28.2637 41.7844 26.4567Z" fill="#FFB6D2"/>
<path d="M45.6341 19.1787C43.0539 17.2719 40.5651 16.4987 39.0047 15.9554C37.594 15.4677 26.4693 13.2006 16.9492 18.0119C16.0453 18.4709 15.1722 18.9884 14.3357 19.5611C15.5163 20.7423 16.8953 21.7066 18.4098 22.4102C21.1064 24.1175 25.9981 24.6995 29.529 24.7937C31.785 24.8658 37.8435 24.5166 42.7213 21.6564C44.4091 20.6642 44.7694 20.3427 45.6341 19.1787Z" fill="#952142"/>
<path d="M31.951 18.3416L30.011 19.4779C30.0674 19.4425 30.1163 19.3963 30.1551 19.3421L32.109 18.2058C32.0668 18.262 32.0129 18.3083 31.951 18.3416Z" fill="#B13B5D"/>
<path d="M30.144 19.3421L32.0979 18.2058C32.0589 18.2608 32.0089 18.307 31.951 18.3416L30.011 19.4779C30.0674 19.4425 30.1163 19.3963 30.1551 19.3421" fill="#B13B5D"/>
<path d="M31.0919 18.0118L33.0458 16.8755L32.0979 18.2058L30.144 19.3421L31.0919 18.0118Z" fill="#2B99B2"/>
<path d="M37.2031 8.33658C37.2031 8.30055 37.2031 8.26175 37.2031 8.22295C37.2045 8.20635 37.2045 8.18967 37.2031 8.17307V8.16475C37.2017 8.15093 37.2017 8.137 37.2031 8.12318C37.2031 8.08438 37.2031 8.04835 37.2031 8.00955L37.1865 7.89037C37.1865 7.85157 37.1726 7.81554 37.1671 7.77951L37.1421 7.65757C37.1421 7.64371 37.1421 7.62985 37.1421 7.61322V7.58828C37.1421 7.57165 37.1421 7.55225 37.1283 7.53562C37.1144 7.51899 37.1089 7.45248 37.0978 7.41091C37.0867 7.36933 37.0784 7.34993 37.0701 7.31945V7.30282V7.28619C37.0562 7.24739 37.0451 7.20582 37.0313 7.16702L36.9897 7.04784V7.02567V7.00904C36.9897 6.9841 36.9731 6.95638 36.962 6.93144L36.9176 6.82058L36.8816 6.73743V6.72358V6.70695L36.8317 6.59332C36.8123 6.55452 36.7929 6.51294 36.7707 6.47137V6.45197V6.4298C36.7549 6.39659 36.7373 6.36421 36.7181 6.3328C36.6987 6.29122 36.6737 6.25242 36.6516 6.21085L36.6183 6.14988L36.6045 6.12771L36.5379 6.02239L36.4465 5.8755L36.4299 5.85056C36.3827 5.7785 36.3328 5.70921 36.283 5.63992C36.2331 5.57064 36.2137 5.54846 36.1776 5.50412L36.0917 5.39603L36.0003 5.28794L35.9116 5.18817L35.895 5.17154L35.8783 5.15491L35.8146 5.0884C35.7813 5.05514 35.7508 5.02188 35.7176 4.99139L35.6843 4.96091L35.6621 4.94151L35.6123 4.89439C35.579 4.86391 35.5457 4.83342 35.5097 4.80571L35.4626 4.7669L35.4404 4.7475L35.4044 4.71979L35.3019 4.64219L35.227 4.58676H35.2132C35.1799 4.56181 35.1467 4.54241 35.1134 4.52024L35.0136 4.45927H34.9914L27.8022 0.318662L27.7274 0.27709L27.6331 0.227203L27.5722 0.199488H27.5555H27.5389L27.4447 0.160687L27.3504 0.124657H27.3338L27.2701 0.102485C27.2368 0.102485 27.2063 0.0830849 27.1731 0.0775419H27.1287H27.1066H27.0788L26.9763 0.0609131H26.9153H26.6382C26.5925 0.0644603 26.5472 0.0709404 26.5024 0.0803134H26.4747L26.3416 0.116343C26.2791 0.138373 26.2188 0.166209 26.1615 0.199488L24.2214 1.33303C24.2788 1.29975 24.3391 1.27191 24.4016 1.24988C24.4478 1.23403 24.4951 1.22107 24.5429 1.21108C24.5531 1.20983 24.5633 1.20983 24.5734 1.21108C24.6307 1.1979 24.6892 1.19047 24.748 1.18891H24.784C24.8422 1.18891 24.9005 1.18891 24.9614 1.18891H24.9836C25.0488 1.19524 25.1136 1.20542 25.1776 1.2194H25.197L25.4021 1.2776C25.4769 1.30254 25.549 1.33303 25.6266 1.36628C25.7014 1.39954 25.779 1.44112 25.8566 1.48546L32.9378 5.57341C33.0154 5.61775 33.0957 5.66764 33.1706 5.7203H33.1844C33.2565 5.77018 33.3286 5.82284 33.3978 5.88104C33.4064 5.88598 33.414 5.89257 33.42 5.90044C33.4897 5.95392 33.5563 6.01129 33.6196 6.07228L33.6445 6.09445C33.7082 6.15542 33.7748 6.22194 33.8385 6.28845V6.30508C33.9078 6.37714 33.9715 6.45197 34.0353 6.52957C34.1628 6.68139 34.2812 6.84056 34.39 7.00627C34.4233 7.05616 34.4538 7.10604 34.4843 7.15593C34.5148 7.20582 34.5369 7.23907 34.5619 7.28342L34.5951 7.34439C34.6367 7.41645 34.6755 7.48851 34.7143 7.56057V7.58551C34.7586 7.6742 34.803 7.76566 34.8418 7.86266V7.87652C34.8778 7.9652 34.9166 8.05666 34.9499 8.15367V8.17029C34.9831 8.26453 35.0136 8.35598 35.0441 8.44744V8.4419C35.0718 8.53059 35.0968 8.62205 35.1162 8.71905V8.74399C35.1383 8.83545 35.1577 8.92968 35.1716 9.02114C35.1864 9.11353 35.1975 9.20591 35.2048 9.29829V9.32046C35.2048 9.41192 35.2048 9.50338 35.2048 9.59761L35.1799 17.7319C35.1799 17.8206 35.1799 17.9065 35.1799 17.9897C35.1799 17.9897 35.1799 18.0035 35.1799 18.0119C35.1799 18.0867 35.1605 18.1587 35.1494 18.228C35.1484 18.2372 35.1484 18.2465 35.1494 18.2557C35.1328 18.325 35.1162 18.3888 35.0968 18.4498C35.0983 18.4617 35.0983 18.4738 35.0968 18.4858C35.0774 18.544 35.0552 18.5994 35.033 18.6521V18.6715C35.006 18.7293 34.9745 18.7849 34.9388 18.8378C34.8921 18.9104 34.8383 18.9782 34.778 19.0401L34.7337 19.0817C34.6737 19.1384 34.6077 19.1886 34.5369 19.2313L36.4908 18.0978C36.5623 18.055 36.6284 18.0039 36.6876 17.9453L36.7319 17.9038C36.7921 17.8429 36.846 17.776 36.8927 17.7042C36.9255 17.6525 36.9551 17.5988 36.9814 17.5435V17.5241C36.9952 17.4908 37.0119 17.4548 37.0257 17.416C37.0334 17.397 37.0399 17.3776 37.0451 17.3578V17.3245C37.0451 17.3245 37.0451 17.3051 37.0451 17.294C37.0451 17.283 37.0673 17.2137 37.0756 17.1749V17.1305C37.0767 17.1213 37.0767 17.112 37.0756 17.1028V17.0585C37.0841 17.022 37.0896 16.9849 37.0922 16.9476V16.8839C37.0909 16.8765 37.0909 16.869 37.0922 16.8617C37.091 16.8525 37.091 16.8432 37.0922 16.834C37.0922 16.7979 37.0922 16.7619 37.0922 16.7259C37.0922 16.6899 37.0922 16.6511 37.0922 16.6123L37.2031 8.4419V8.33658Z" fill="url(#paint1_linear_2311_41779)"/>
<path d="M32.9295 5.54294C34.221 6.28847 35.2631 8.09271 35.2603 9.57823L35.2354 17.7125C35.2354 19.1953 34.1822 19.7939 32.8907 19.0484L31.1058 18.0091L30.158 19.3422C29.9806 19.5916 29.6674 19.5889 29.357 19.4087C28.9852 19.1775 28.7006 18.8295 28.5478 18.4193L27.611 15.9998L25.8123 14.9605C24.5208 14.2177 23.4759 12.4079 23.4815 10.9252L23.5036 2.79085C23.5036 1.3081 24.5596 0.709457 25.8483 1.45499L32.9295 5.54294Z" fill="#C2F6FF"/>
<path d="M28.6311 8.00688L29.2187 7.66876L29.4043 7.56067L28.8196 7.90156L28.6311 8.00688Z" fill="#23B6D8"/>
<path d="M29.0328 7.34724V7.32507L28.9967 7.26686C28.9579 7.20312 28.9191 7.13938 28.8776 7.07563L28.8609 7.05069L28.7529 6.89826C28.7521 6.89274 28.7521 6.88714 28.7529 6.88163C28.7307 6.85668 28.7113 6.82897 28.6891 6.80126L28.6143 6.7098V6.6904V6.67377L28.5699 6.62388C28.545 6.59339 28.5173 6.56568 28.4923 6.53796L28.4563 6.50193L28.4397 6.48253L28.4147 6.45482L28.3316 6.37167L28.2789 6.32733L28.2623 6.3107C28.2565 6.30356 28.25 6.29705 28.2429 6.2913L28.157 6.21647L28.096 6.16658H28.0822L27.9962 6.10007L27.9186 6.04464L27.8355 5.99198L27.7551 5.93932H27.7357L27.672 5.90606L27.5944 5.86449L27.5556 5.84786H27.5389H27.514C27.4892 5.83446 27.4632 5.82333 27.4364 5.8146L27.3643 5.78689L27.2867 5.75917L27.2036 5.737H27.1786H27.1232L27.0373 5.72314H26.9514H26.8599H26.6715H26.5966H26.5606C26.5145 5.73187 26.4691 5.74391 26.4248 5.75917C26.3717 5.77561 26.3206 5.79792 26.2724 5.82569L25.6848 6.16658C25.7337 6.13955 25.7847 6.11638 25.8372 6.0973C25.8864 6.08177 25.9364 6.06882 25.9869 6.0585H26.0119C26.0562 6.05577 26.1006 6.05577 26.1449 6.0585H26.1698C26.2206 6.05434 26.2715 6.05434 26.3223 6.0585H26.3444C26.3984 6.06504 26.4521 6.07429 26.5052 6.08621H26.519C26.5772 6.08621 26.6382 6.11947 26.6964 6.13887C26.7571 6.15877 26.8164 6.18285 26.8738 6.21093H26.8904C26.9486 6.23864 27.0096 6.26913 27.0678 6.30239C27.126 6.33564 27.1925 6.37999 27.2562 6.42156C27.3145 6.46313 27.3754 6.50748 27.4336 6.55459C27.4915 6.5987 27.5471 6.64588 27.5999 6.69594L27.6193 6.71257C27.672 6.76245 27.7274 6.81511 27.7801 6.87054L27.7967 6.88994C27.8493 6.94537 27.902 7.0008 27.9519 7.06178V7.0784C28.0046 7.13938 28.0544 7.20312 28.1043 7.26964V7.28627C28.1514 7.34724 28.1958 7.41098 28.2401 7.47473C28.2845 7.53847 28.3205 7.59944 28.3593 7.66596L28.4064 7.74356L28.5921 8.06505L29.1797 7.72416L29.0328 7.34724Z" fill="#0E7C8E"/>
<path d="M32.7384 11.0721C32.7384 11.0444 32.7384 11.0167 32.7384 10.989C32.7384 10.9613 32.7384 10.928 32.7384 10.8948C32.7369 10.8847 32.7369 10.8744 32.7384 10.8643V10.8449C32.7384 10.831 32.7384 10.8144 32.7384 10.8005C32.7384 10.7867 32.7384 10.7368 32.7384 10.7035C32.7397 10.6814 32.7397 10.6592 32.7384 10.637V10.6038C32.7384 10.5733 32.7384 10.5372 32.7218 10.504C32.7052 10.4707 32.7079 10.4375 32.6996 10.4014V10.382C32.6996 10.3543 32.6996 10.3238 32.6774 10.2961L32.6525 10.1936C32.6517 10.1816 32.6517 10.1695 32.6525 10.1575V10.1354C32.6466 10.1201 32.642 10.1043 32.6386 10.0883L32.6054 9.98849L32.5777 9.90534V9.88871C32.5638 9.85823 32.5527 9.82497 32.5416 9.79448C32.5305 9.764 32.5167 9.73074 32.5028 9.70025L32.4862 9.66145V9.64482L32.4723 9.60602C32.4559 9.57447 32.4411 9.54209 32.428 9.50902L32.3781 9.40924L32.3227 9.30116L32.2479 9.16535L32.234 9.14318C32.234 9.12101 32.2063 9.10161 32.1952 9.07944L32.0788 8.89929V8.87435L31.9679 8.71914L31.9541 8.69974C31.9347 8.6748 31.9153 8.64708 31.8931 8.62214L31.8183 8.52791L31.8016 8.51128L31.7878 8.49465L31.7462 8.44199L31.6686 8.35885L31.6326 8.32005L31.616 8.30065L31.5882 8.27571L31.5051 8.19256L31.4552 8.14544L31.4386 8.12882L31.4192 8.11219C31.3915 8.08447 31.361 8.05953 31.3305 8.03458L31.2723 7.9847H31.2557L31.167 7.92095L31.0894 7.86275L31.0062 7.80732L30.9231 7.75744H30.9065L30.8427 7.72141L30.7651 7.68261L30.7263 7.6632H30.7097H30.6847L30.6071 7.62995L30.5351 7.60223L30.4547 7.57729L30.3743 7.55512H30.3494H30.294L30.208 7.54126H30.1665H30.1221H29.9309H29.8561H29.8311C29.7851 7.55125 29.7397 7.56421 29.6953 7.58006C29.6426 7.59863 29.5916 7.62181 29.5429 7.64935L28.9553 7.99024C29.0042 7.96321 29.0552 7.94004 29.1078 7.92095C29.1566 7.90415 29.2066 7.89117 29.2574 7.88215H29.2824C29.3267 7.87941 29.3711 7.87941 29.4154 7.88215H29.4403C29.4911 7.87939 29.542 7.87939 29.5928 7.88215H29.6149C29.6676 7.88215 29.7203 7.89878 29.7757 7.91264C29.8358 7.92674 29.895 7.94432 29.9531 7.9653L30.1304 8.03736H30.1471C30.2079 8.0655 30.2671 8.09696 30.3244 8.13159C30.3854 8.16762 30.4492 8.20642 30.5101 8.24799C30.5683 8.28956 30.6293 8.33391 30.6875 8.38102H30.7014L30.8677 8.52514L30.8871 8.54177L31.045 8.69697L31.0644 8.71637C31.1171 8.7718 31.167 8.83 31.2196 8.89098L31.3721 9.08221V9.09884L31.5079 9.29007C31.5467 9.35104 31.5855 9.41202 31.6215 9.47299C31.6575 9.53396 31.6575 9.52842 31.6742 9.5589C31.7213 9.63928 31.7656 9.71965 31.8044 9.8028C31.8432 9.88317 31.882 9.96354 31.9153 10.0411V10.0605C31.9485 10.1381 31.979 10.2185 32.0067 10.2961C32.0344 10.3737 32.0594 10.4486 32.0816 10.5262V10.5456C32.1037 10.6232 32.1231 10.698 32.1398 10.77C32.1564 10.8476 32.1703 10.9225 32.1813 10.9973V11.0139C32.1924 11.0841 32.2007 11.1534 32.2063 11.2218V11.2135C32.2063 11.2855 32.2063 11.3548 32.2063 11.4213C32.2063 11.4906 32.2063 11.5599 32.2063 11.6237V11.6403C32.2063 11.7013 32.2063 11.7622 32.1813 11.8204C32.1813 11.8204 32.1813 11.8204 32.1813 11.8398C32.1708 11.896 32.1569 11.9516 32.1398 12.0061C32.1389 12.0126 32.1389 12.0191 32.1398 12.0255C32.1231 12.0736 32.1065 12.1179 32.0899 12.1586C32.0845 12.1703 32.0799 12.1823 32.076 12.1946L32.0178 12.2999L31.9956 12.3415L31.979 12.3637C31.9439 12.4162 31.904 12.4654 31.8598 12.5105L31.8183 12.5493C31.7681 12.6003 31.7112 12.6441 31.6492 12.6796L32.2368 12.3387C32.2972 12.3018 32.3538 12.2591 32.4058 12.2112L32.4446 12.1696C32.4897 12.1245 32.5305 12.0754 32.5666 12.0228V12.0061L32.5887 11.9646C32.6061 11.9368 32.6218 11.9082 32.6359 11.8786V11.8592V11.826L32.6608 11.765L32.6857 11.693C32.687 11.6856 32.687 11.6781 32.6857 11.6708L32.7107 11.5682C32.7123 11.5498 32.7123 11.5312 32.7107 11.5128C32.7107 11.5128 32.7107 11.4989 32.7107 11.4934C32.7107 11.4879 32.7107 11.4795 32.7107 11.474C32.7107 11.4685 32.7107 11.4103 32.7107 11.3798V11.3133V11.2966C32.7107 11.2966 32.7107 11.2357 32.7107 11.2024C32.7107 11.1691 32.7107 11.1414 32.7107 11.1109L32.7384 11.0721Z" fill="#0E7C8E"/>
<path d="M30.2024 8.04291C30.7822 8.40014 31.2596 8.90142 31.5882 9.49794C32.3503 10.8172 32.3448 12.2389 31.5882 12.6768L31.4025 12.7822L28.631 13.9212L25.8595 9.5894L25.671 9.27345C24.9117 7.95422 24.9144 6.53244 25.671 6.09455C26.0563 5.87837 26.5579 5.94766 27.0568 6.23589C27.6354 6.59459 28.1125 7.09552 28.4425 7.69093L28.6282 8.01242L28.8139 7.9071C29.2019 7.68261 29.7036 7.75467 30.2024 8.04291Z" fill="#23B6D8"/>
</g>
<defs>
<linearGradient id="paint0_linear_2311_41779" x1="29.7923" y1="15.2017" x2="29.7923" y2="45.0035" gradientUnits="userSpaceOnUse">
<stop stop-color="#FEF2F5"/>
<stop offset="0.4" stop-color="#FEF0F4"/>
<stop offset="0.59" stop-color="#FEE8F1"/>
<stop offset="0.74" stop-color="#FEDBEB"/>
<stop offset="0.87" stop-color="#FFC8E3"/>
<stop offset="0.98" stop-color="#FFB1D8"/>
<stop offset="1" stop-color="#FFABD6"/>
</linearGradient>
<linearGradient id="paint1_linear_2311_41779" x1="24.1854" y1="9.60593" x2="37.2114" y2="9.60593" gradientUnits="userSpaceOnUse">
<stop stop-color="#2B99B2"/>
<stop offset="0.25" stop-color="#2693AB"/>
<stop offset="0.61" stop-color="#178398"/>
<stop offset="1" stop-color="#016A7C"/>
</linearGradient>
<clipPath id="clip0_2311_41779">
<rect width="56.167" height="60" fill="white" transform="translate(1.875)"/>
</clipPath>
</defs>
</svg>
