<svg width="60" height="60" viewBox="0 0 60 60" fill="none" xmlns="http://www.w3.org/2000/svg">
<g clip-path="url(#clip0_2557_65539)">
<path d="M56.1005 40.6566L30.1429 55.7421L4.01294 40.6566L29.9705 25.571L56.1005 40.6566Z" fill="#F9BBD3"/>
<path d="M56.1005 40.6566L56.0875 44.9145L30.1299 60.0001L30.1429 55.7422L56.1005 40.6566Z" fill="#E54C78"/>
<path d="M30.1431 55.7422L30.13 60.0001L4 44.9145L4.01306 40.6566L30.1431 55.7422Z" fill="#F9CFE1"/>
<path d="M56.1085 38.9455L52.8197 40.8577L26.7498 25.8061L30.0385 23.8939L56.1085 38.9455Z" fill="#F9BBD3"/>
<path d="M56.1085 38.9456L56.1032 40.6487L52.8145 42.5609L52.8197 40.8577L56.1085 38.9456Z" fill="#E54C78"/>
<path d="M52.8198 40.8576L52.8145 42.5608L26.7446 27.5092L26.7499 25.806L52.8198 40.8576Z" fill="#F9CFE1"/>
<g opacity="0.5">
<path d="M30.7465 31.2134L11.7609 42.2448L9.71558 41.064L28.7012 30.03L30.7465 31.2134Z" fill="white"/>
</g>
<g opacity="0.5">
<path d="M47.9583 41.5917L29.5161 52.307L27.4707 51.1262L45.9103 40.4083L47.9583 41.5917Z" fill="white"/>
</g>
<path d="M45.0093 38.5015L43.1468 39.5829L38.8601 37.1092L40.7226 36.0277L45.0093 38.5015Z" fill="#E54C78"/>
<path d="M45.0091 38.5015L45.0039 39.993L43.1414 41.0745L43.1466 39.5829L45.0091 38.5015Z" fill="#952142"/>
<path d="M43.1467 39.5829L43.1415 41.0745L38.8574 38.6007L38.86 37.1091L43.1467 39.5829Z" fill="#FFE6F0"/>
<path d="M35.6495 28.4548L33.7897 29.5363L29.5056 27.0625L31.3655 25.9811L35.6495 28.4548Z" fill="#80CBDC"/>
<path d="M35.6495 28.4548L35.6443 29.9464L33.7844 31.0279L33.7896 29.5363L35.6495 28.4548Z" fill="#72B5C5"/>
<path d="M33.7897 29.5363L33.7845 31.0278L29.5005 28.5541L29.5057 27.0625L33.7897 29.5363Z" fill="#4F7E89"/>
<path d="M27.1939 42.6183L34.179 38.559C34.0975 38.6763 33.9914 38.7743 33.8681 38.8463L26.8831 42.9057C27.0064 42.8337 27.1125 42.7356 27.1939 42.6183Z" fill="#4D7A85"/>
<path d="M29.2 39.7997L36.1851 35.7404L34.1789 38.5589L27.1938 42.6183L29.2 39.7997Z" fill="#2B99B2"/>
<path d="M45.0066 17.6586C45.0066 17.5803 45.0066 17.4993 45.0066 17.4209V17.3112C45.0066 17.2955 45.0066 17.2799 45.0066 17.2642V17.1806C45.0066 17.0996 44.9909 17.0186 44.9805 16.9377C44.97 16.8567 44.957 16.7705 44.9439 16.6764V16.6712L44.9047 16.4387C44.8865 16.3525 44.8708 16.2663 44.8525 16.1775L44.829 16.0861C44.829 16.0678 44.829 16.0495 44.829 16.0312C44.829 16.0129 44.8107 15.9555 44.8003 15.9163C44.7794 15.8301 44.7558 15.7413 44.7323 15.6551L44.6775 15.4644C44.6763 15.4522 44.6763 15.44 44.6775 15.4278C44.6763 15.4165 44.6763 15.4051 44.6775 15.3938C44.6514 15.3076 44.6226 15.2214 44.5939 15.1326L44.5077 14.8714C44.5077 14.8557 44.5077 14.8401 44.4894 14.827C44.4839 14.8143 44.4795 14.8012 44.4763 14.7878C44.4554 14.7356 44.4372 14.6833 44.4163 14.6285C44.3954 14.5736 44.351 14.4691 44.3196 14.3881C44.2883 14.3072 44.27 14.2758 44.2465 14.2183L44.2308 14.187C44.2323 14.1757 44.2323 14.1643 44.2308 14.153L44.1211 13.9127L43.9957 13.6515L43.9748 13.6123L43.9487 13.5627L43.8416 13.3563C43.7972 13.2701 43.7475 13.1865 43.7005 13.0951L43.6274 12.9645L43.5986 12.9122C43.5542 12.8391 43.5072 12.7686 43.4602 12.6954C43.4132 12.6223 43.3322 12.4812 43.2643 12.3793L43.2303 12.3271C43.131 12.1782 43.0266 12.0319 42.9221 11.8856C42.8515 11.789 42.7784 11.6923 42.7026 11.5983C42.6269 11.5043 42.5799 11.4442 42.5198 11.371C42.4571 11.2953 42.3944 11.2221 42.3291 11.149C42.2638 11.0758 42.2011 11.0053 42.1358 10.9348L42.1044 10.9008L42.0705 10.8669C42.0261 10.8172 41.9791 10.7702 41.9346 10.7232L41.7257 10.5168L41.6604 10.4568L41.6107 10.4097L41.5062 10.3131C41.4357 10.2478 41.3626 10.1851 41.2868 10.1224L41.1902 10.044L41.1405 10.0022L41.0674 9.94215C40.9942 9.88468 40.9237 9.82982 40.8506 9.77758L40.6912 9.66525L40.6625 9.64435L40.6364 9.62346L40.4248 9.48501C40.3569 9.4406 40.2863 9.39881 40.2158 9.35701L40.1662 9.32828L25.0859 0.679227L24.9291 0.593024C24.8612 0.55384 24.7933 0.519882 24.728 0.485923L24.5974 0.425842L24.566 0.410169L24.5268 0.391883L24.3283 0.308292L24.1298 0.232538H24.0958H24.0645L23.9313 0.190742C23.8633 0.169845 23.7954 0.148947 23.7275 0.133273L23.6282 0.112376H23.5864L23.5237 0.0993149C23.4506 0.0836416 23.3801 0.0731926 23.3069 0.0627437L23.1763 0.0496826H23.1319H23.0875H22.855H22.7558H22.6774H22.599C22.4998 0.0496826 22.4057 0.0731925 22.3143 0.091478L22.2568 0.107151C22.1614 0.126853 22.0672 0.152148 21.9747 0.182906L21.9434 0.195967L21.8989 0.214252C21.7871 0.25713 21.6788 0.30866 21.575 0.368373L14.5769 4.3938C14.6799 4.33421 14.7873 4.28268 14.8982 4.23968L14.9426 4.22139C15.0451 4.18498 15.1498 4.15531 15.2561 4.13258L15.3188 4.11429C15.4387 4.09155 15.56 4.07671 15.6819 4.06988H15.7602C15.8855 4.06211 16.0111 4.06211 16.1364 4.06988H16.1808C16.3203 4.08311 16.459 4.10404 16.5961 4.13258H16.6406C16.7872 4.16478 16.9319 4.20489 17.0742 4.25274H17.1055C17.2654 4.30728 17.4223 4.37006 17.5757 4.44082L17.6071 4.45649C17.769 4.52963 17.931 4.61584 18.0982 4.71771L33.0923 13.3746C33.2664 13.4704 33.431 13.5749 33.586 13.6881L33.6147 13.7116C33.7662 13.8161 33.9178 13.9284 34.064 14.0486L34.1137 14.0877C34.2573 14.2053 34.3958 14.3281 34.5342 14.4561L34.5839 14.5031C34.7223 14.6337 34.8608 14.7643 34.994 14.9132L35.0279 14.9472C35.1716 15.1013 35.3101 15.258 35.4459 15.4226C35.5844 15.5898 35.7071 15.7622 35.8508 15.945C35.9683 16.107 36.0807 16.2715 36.193 16.4387C36.2609 16.5406 36.3262 16.6477 36.3915 16.7548C36.4568 16.8619 36.5039 16.9324 36.5561 17.016C36.5822 17.0578 36.6057 17.1022 36.6292 17.1466C36.7154 17.2981 36.799 17.4523 36.8774 17.6064C36.8871 17.6224 36.8958 17.639 36.9035 17.656C37.0002 17.8467 37.089 18.0374 37.1647 18.2307C37.168 18.2416 37.1723 18.2521 37.1778 18.2621C37.2588 18.4501 37.3345 18.6408 37.4077 18.8315C37.4062 18.8437 37.4062 18.8559 37.4077 18.8681C37.4808 19.064 37.5461 19.2625 37.6062 19.4585C37.605 19.4706 37.605 19.4829 37.6062 19.495C37.6611 19.6831 37.7133 19.8738 37.7577 20.0619C37.7608 20.0804 37.7652 20.0988 37.7708 20.1167C37.8152 20.31 37.8518 20.5059 37.8831 20.6993C37.9144 20.8952 37.938 21.0885 37.9536 21.2818C37.9536 21.2975 37.9536 21.3131 37.9536 21.3288C37.9693 21.5195 37.9771 21.7128 37.9771 21.9009L37.9275 39.1258C37.9275 39.3165 37.9275 39.4968 37.9014 39.6692C37.9028 39.6848 37.9028 39.7006 37.9014 39.7162C37.8857 39.8781 37.8648 40.0323 37.8361 40.1786C37.8361 40.1995 37.8361 40.2177 37.823 40.2386C37.7951 40.3772 37.7593 40.5142 37.7159 40.6488C37.7097 40.6736 37.7018 40.698 37.6924 40.7219C37.6526 40.8427 37.6064 40.9613 37.554 41.0772L37.5383 41.1137C37.4805 41.2383 37.4142 41.3588 37.3398 41.4742L37.3084 41.5186C37.2495 41.609 37.1859 41.6962 37.1177 41.7798L37.042 41.8634C36.9819 41.9261 36.9192 41.9862 36.8565 42.0437C36.7938 42.1011 36.8016 42.0907 36.7755 42.1116C36.6852 42.1854 36.5892 42.2518 36.4882 42.3101L43.4732 38.2533C43.5737 38.1932 43.6697 38.126 43.7606 38.0522L43.839 37.9843C43.9051 37.9268 43.9678 37.8667 44.027 37.804C44.0505 37.7753 44.0767 37.7492 44.1028 37.7205C44.1709 37.6368 44.2346 37.5496 44.2935 37.4592L44.3248 37.4148C44.3942 37.3055 44.457 37.1921 44.5129 37.0752C44.5129 37.0752 44.5129 37.0752 44.5129 37.0622L44.5286 37.0256C44.5625 36.9499 44.5965 36.8741 44.6252 36.7931C44.6409 36.7539 44.654 36.7121 44.667 36.6703L44.6905 36.5998L44.714 36.5345C44.7376 36.4509 44.7585 36.3673 44.7794 36.2733C44.7794 36.2419 44.7794 36.2106 44.7976 36.1792C44.8159 36.1479 44.7976 36.1401 44.8107 36.1192L44.8264 36.0304C44.842 35.952 44.8525 35.8736 44.8629 35.7926C44.8734 35.7117 44.8629 35.7038 44.876 35.6594C44.8773 35.6438 44.8773 35.628 44.876 35.6124C44.8772 35.5933 44.8772 35.5741 44.876 35.5549C44.876 35.4792 44.8891 35.4008 44.8917 35.3224C44.8943 35.2441 44.8917 35.1631 44.8917 35.0821L44.9413 17.8545C45.0092 17.8101 45.0092 17.7344 45.0066 17.6586Z" fill="url(#paint0_linear_2557_65539)"/>
<path d="M33.0922 13.3955C35.8246 14.9628 38.0319 18.8001 38.0241 21.9426L37.9744 39.1676C37.9744 42.3022 35.7436 43.5796 33.0112 42.0018L29.2026 39.7997L27.1964 42.6183C26.8176 43.1408 26.1515 43.1408 25.5011 42.762C24.724 42.2701 24.1308 41.5355 23.8136 40.6722L21.8283 35.5523L18.0197 33.3528C15.2847 31.7855 13.0774 27.9481 13.0852 24.8056L13.1349 7.57805C13.1349 4.44339 15.3683 3.16863 18.0981 4.74641L33.0922 13.3955Z" fill="url(#paint1_linear_2557_65539)"/>
<path d="M22.902 28.1649L25.522 26.642L25.5064 31.5582L22.8889 33.0811L22.902 28.1649Z" fill="#086877"/>
<path d="M22.9124 24.8109L25.5298 23.288L26.9848 24.1265L24.3647 25.6494L22.9124 24.8109Z" fill="#086877"/>
<path d="M28.6774 24.419L26.0652 25.9393C25.6838 26.1613 25.1091 26.0777 24.3699 25.6519L26.9821 24.129C27.7213 24.5548 28.296 24.6384 28.6774 24.419Z" fill="#086877"/>
<path d="M24.3647 25.6519L26.977 24.129L27.0893 24.1917L24.4771 25.7146L24.3647 25.6519Z" fill="#086877"/>
<path d="M24.4771 25.7147L27.0893 24.1918L27.2303 24.2649L24.6181 25.7878L24.4771 25.7147Z" fill="#086877"/>
<path d="M24.6182 25.7878L27.2304 24.2649L27.361 24.3276L24.7488 25.8479L24.6182 25.7878Z" fill="#086877"/>
<path d="M24.7488 25.8478L27.361 24.3275L27.4812 24.3771L24.8689 25.9001L24.7488 25.8478Z" fill="#086877"/>
<path d="M24.8688 25.9001L27.481 24.3772L27.5934 24.4216L24.9811 25.9419L24.8662 25.9001" fill="#086877"/>
<path d="M24.9839 25.9419L27.5961 24.4216L27.7058 24.4556L25.0936 25.9785L24.9865 25.9419" fill="#086877"/>
<path d="M25.0856 25.9785L27.6978 24.4556L27.7997 24.4843L25.1875 26.0072L25.083 25.9785" fill="#086877"/>
<path d="M25.1953 26.0072L27.8075 24.4843L27.9094 24.5078L25.2972 26.0281L25.1979 26.0072" fill="#086877"/>
<path d="M25.2946 26.0281L27.9068 24.5078L28.0035 24.5235L25.3913 26.0464L25.292 26.0281" fill="#086877"/>
<path d="M25.394 26.0464L28.0063 24.5234H28.1029L25.4907 26.0437C25.4567 26.0437 25.4254 26.0437 25.394 26.0437" fill="#086877"/>
<path d="M25.4907 26.0542L28.1029 24.5339H28.2205L25.6083 26.0569H25.5116" fill="#086877"/>
<path d="M25.5873 26.0594L28.1995 24.5365H28.2988L25.6866 26.0594H25.5847" fill="#086877"/>
<path d="M25.6892 26.0542L28.3014 24.5313C28.3375 24.5288 28.3733 24.5236 28.4085 24.5156L25.7963 26.0385L25.6892 26.0542Z" fill="#086877"/>
<path d="M25.7961 26.0386L28.4084 24.5156C28.4509 24.5074 28.4928 24.4961 28.5337 24.4817L25.9215 26.0046C25.8804 26.0184 25.8386 26.0297 25.7961 26.0386Z" fill="#086877"/>
<path d="M25.9216 26.0046L28.5338 24.4816C28.5816 24.4644 28.6279 24.4435 28.6723 24.4189L26.0601 25.9393C26.0158 25.9647 25.9695 25.9865 25.9216 26.0046Z" fill="#086877"/>
<path d="M22.9254 20.1794L25.5429 18.6565L25.5298 23.288L22.9124 24.8109L22.9254 20.1794Z" fill="#086877"/>
<path d="M25.2555 18.0713C28.432 19.8999 30.5087 23.4055 30.4982 26.8562C30.4878 30.307 28.3432 31.297 25.091 29.4293L22.9019 28.1649V33.0811L19.156 30.9208L19.19 14.5814L25.2555 18.0713ZM24.3648 25.6468C25.7754 26.4592 26.5904 26.0255 26.593 24.6019C26.5956 23.1782 25.7884 21.8355 24.3778 21.0205L22.9254 20.182V24.8109L24.3778 25.652" fill="#23B6D8"/>
<path d="M33.1157 25.0564C33.1157 24.9571 33.1157 24.8605 33.1 24.7612C33.1 24.7429 33.1 24.7246 33.1 24.7063C33.1 24.6881 33.1 24.675 33.1 24.6567C33.1 24.6384 33.1 24.5392 33.0869 24.4791L33.0556 24.1996C33.0556 24.1578 33.0556 24.1134 33.0373 24.0716V24.0167C33.0373 23.9854 33.0373 23.9566 33.0373 23.9253C33.0242 23.8365 33.0086 23.745 32.9903 23.6641C32.972 23.5831 32.9589 23.4995 32.9407 23.4159V23.395C32.9224 23.3062 32.9015 23.2174 32.8806 23.1338C32.8597 23.0502 32.8362 22.9588 32.81 22.8726C32.8046 22.8469 32.7977 22.8216 32.7891 22.7968C32.7836 22.7815 32.7792 22.7658 32.7761 22.7498L32.7369 22.6192C32.7125 22.5373 32.6864 22.4564 32.6585 22.3762C32.635 22.3005 32.6089 22.2247 32.5802 22.1516C32.554 22.0785 32.5253 22.0027 32.4966 21.9269C32.4678 21.8512 32.4391 21.7807 32.4078 21.7101C32.3764 21.6396 32.366 21.6083 32.3425 21.5586C32.3435 21.5499 32.3435 21.5412 32.3425 21.5325L32.3268 21.4959C32.2954 21.4254 32.2641 21.3549 32.2301 21.2843C32.1962 21.2138 32.1544 21.125 32.1152 21.0466L32.0734 20.9657C32.0663 20.9483 32.0575 20.9317 32.0473 20.916L31.9924 20.8063C31.9228 20.6722 31.8496 20.5416 31.773 20.4145L31.7547 20.3857C31.6946 20.2839 31.6293 20.1872 31.5666 20.0879L31.4125 19.8424L31.389 19.8111L31.3289 19.7248C31.2662 19.6334 31.2035 19.542 31.1356 19.4636C31.0677 19.3853 31.0442 19.3409 30.9972 19.2782L30.9684 19.2442L30.9475 19.2129C30.8848 19.1345 30.8195 19.0535 30.7542 18.9778C30.6889 18.902 30.6315 18.8289 30.5661 18.7583V18.7427L30.5479 18.7218L30.3101 18.4997C30.2422 18.4266 30.1717 18.3508 30.0986 18.2803L30.0489 18.2385L30.0019 18.1889C29.9575 18.1471 29.9183 18.1053 29.8739 18.0661C29.7955 17.9877 29.7146 17.912 29.631 17.8388L29.5604 17.7761L29.4977 17.7213L29.3697 17.6116C29.2809 17.5358 29.1921 17.4627 29.1085 17.3921L29.0406 17.3399L28.9753 17.2903L28.829 17.1779C28.735 17.11 28.6409 17.0421 28.5443 16.9768L28.4816 16.9324L28.4163 16.888L28.2465 16.7757L27.9461 16.5928L27.8756 16.551L21.8074 13.0454L19.1899 14.5814L25.2555 18.0844C25.441 18.1889 25.6212 18.3038 25.7989 18.4214L25.8615 18.4631C26.0313 18.5781 26.1933 18.6956 26.3553 18.8184L26.4206 18.868C26.5773 18.9908 26.7314 19.1293 26.8829 19.2494L26.9456 19.3043C27.0971 19.4375 27.2434 19.5655 27.3871 19.717L27.4367 19.7666C27.5856 19.9155 27.7293 20.0697 27.8677 20.2264C27.8745 20.2318 27.8806 20.2379 27.886 20.2447C28.0297 20.4092 28.1681 20.5764 28.304 20.7488L28.3301 20.7828C28.445 20.9317 28.5547 21.0832 28.6618 21.2373L28.7245 21.3261C28.7846 21.415 28.8421 21.509 28.8995 21.603C28.957 21.6971 29.0275 21.7989 29.0876 21.9008C29.1921 22.0732 29.2888 22.2509 29.3828 22.4233L29.4063 22.4703C29.503 22.6584 29.5918 22.8464 29.6675 23.0398C29.6724 23.0482 29.6768 23.0569 29.6806 23.0659C29.7668 23.2618 29.8452 23.4629 29.9183 23.6641C29.9888 23.8626 30.0541 24.0611 30.1116 24.2623C30.1131 24.2788 30.1131 24.2954 30.1116 24.3119C30.1691 24.513 30.2213 24.7168 30.2657 24.9205V24.9336C30.3101 25.1347 30.3467 25.3359 30.3755 25.5396V25.5971C30.4042 25.7904 30.4251 25.9863 30.4381 26.1822C30.4394 26.1988 30.4394 26.2154 30.4381 26.2319C30.4538 26.4409 30.459 26.6498 30.459 26.8588C30.459 27.0678 30.459 27.2559 30.4355 27.4439C30.4199 27.6294 30.399 27.807 30.3702 27.9664C30.3582 28.1206 30.3382 28.274 30.3101 28.4261C30.3101 28.4261 30.3101 28.4549 30.3101 28.4679C30.2742 28.5938 30.2315 28.7176 30.1821 28.8389C30.1821 28.8702 30.156 28.899 30.1456 28.9277C30.1064 29.0139 30.0646 29.0949 30.0228 29.1732C29.981 29.2516 29.981 29.2516 29.9575 29.2882C29.9001 29.3873 29.8337 29.4809 29.759 29.5677C29.7464 29.5846 29.7325 29.6003 29.7172 29.6147C29.6572 29.686 29.5917 29.7523 29.5213 29.8132C29.4998 29.8338 29.4771 29.853 29.4533 29.8707C29.3714 29.9411 29.2841 30.0048 29.1921 30.0614L31.8043 28.5385C31.896 28.4825 31.9834 28.4196 32.0656 28.3504L32.1335 28.2903C32.2039 28.2294 32.2694 28.163 32.3294 28.0918L32.3712 28.0474C32.4347 27.9712 32.4932 27.8909 32.5462 27.807C32.5462 27.807 32.5619 27.7783 32.5697 27.7679L32.6324 27.6503C32.6611 27.6007 32.6899 27.5537 32.716 27.4988C32.7421 27.4439 32.7421 27.4361 32.7552 27.4074L32.7944 27.3159C32.7944 27.2872 32.8179 27.2611 32.8309 27.2324C32.8597 27.1488 32.8884 27.06 32.9171 26.9711C32.9171 26.9711 32.9171 26.9529 32.9171 26.945C32.9183 26.9311 32.9183 26.9171 32.9171 26.9032C32.9354 26.8405 32.9537 26.7778 32.9668 26.7099C32.9798 26.642 33.0033 26.5427 33.019 26.4487C33.0321 26.3651 33.0451 26.2815 33.0556 26.1875C33.066 26.0934 33.0765 26.0098 33.0843 25.9262C33.0843 25.8374 33.0974 25.746 33.1 25.665C33.1026 25.584 33.1 25.4717 33.1 25.3698V25.3542C33.1183 25.2418 33.1183 25.1478 33.1157 25.0564Z" fill="url(#paint2_linear_2557_65539)"/>
</g>
<defs>
<linearGradient id="paint0_linear_2557_65539" x1="14.5769" y1="21.1721" x2="45.0092" y2="21.1721" gradientUnits="userSpaceOnUse">
<stop stop-color="#2B99B2"/>
<stop offset="0.23" stop-color="#2692AC"/>
<stop offset="0.56" stop-color="#197F9D"/>
<stop offset="0.95" stop-color="#046183"/>
<stop offset="1" stop-color="#015C7F"/>
</linearGradient>
<linearGradient id="paint1_linear_2557_65539" x1="31.7573" y1="12.6249" x2="17.142" y2="37.9372" gradientUnits="userSpaceOnUse">
<stop stop-color="white"/>
<stop offset="0.06" stop-color="#F5FDFF"/>
<stop offset="0.35" stop-color="#CBF5FF"/>
<stop offset="0.62" stop-color="#ADF0FF"/>
<stop offset="0.84" stop-color="#9BECFF"/>
<stop offset="1" stop-color="#94EBFF"/>
</linearGradient>
<linearGradient id="paint2_linear_2557_65539" x1="19.1899" y1="21.556" x2="33.1183" y2="21.556" gradientUnits="userSpaceOnUse">
<stop stop-color="#2B99B2"/>
<stop offset="0.23" stop-color="#2692AC"/>
<stop offset="0.56" stop-color="#197F9D"/>
<stop offset="0.95" stop-color="#046183"/>
<stop offset="1" stop-color="#015C7F"/>
</linearGradient>
<clipPath id="clip0_2557_65539">
<rect width="52.1085" height="60" fill="white" transform="translate(4)"/>
</clipPath>
</defs>
</svg>
