<svg width="64" height="64" viewBox="0 0 64 64" fill="none" xmlns="http://www.w3.org/2000/svg">
<g clip-path="url(#clip0_1608_29447)">
<path d="M58.5032 40.6042L31.8487 56.0931L5.02316 40.6042L31.6752 25.1152L58.5032 40.6042Z" fill="#FFCADC"/>
<path d="M58.5033 40.6045L58.4804 48.511L31.8284 64L31.8488 56.0934L58.5033 40.6045Z" fill="#EF597D"/>
<path d="M31.8485 56.0934L31.8281 64L5 48.511L5.02297 40.6045L31.8485 56.0934Z" fill="#FFE0EC"/>
<path d="M36.5755 3.96064L32.344 6.4209L28.0845 3.96064L32.316 1.50293L36.5755 3.96064Z" fill="#FFCADC"/>
<path d="M36.5754 3.96045L36.5039 29.7575L32.2725 32.2177L32.3439 6.42071L36.5754 3.96045Z" fill="#EF597D"/>
<path d="M32.3438 6.42071L32.2723 32.2177L28.0128 29.7575L28.0842 3.96045L32.3438 6.42071Z" fill="#F9BBD3"/>
<path d="M16.6122 15.2742L12.3807 17.7319L8.12119 15.2742L12.3526 12.814L16.6122 15.2742Z" fill="#FFCADC"/>
<path d="M16.6124 15.2744L16.5384 41.0714L12.3069 43.5292L12.3809 17.7321L16.6124 15.2744Z" fill="#EF597D"/>
<path d="M12.3808 17.7321L12.3068 43.5292L8.04724 41.0714L8.12125 15.2744L12.3808 17.7321Z" fill="#F9BBD3"/>
<path d="M26.92 9.5373L22.686 11.9976L18.4265 9.5373L22.6579 7.07959L26.92 9.5373Z" fill="#FFCADC"/>
<path d="M26.9199 9.53711L26.8459 35.3341L22.6144 37.7944L22.6859 11.9974L26.9199 9.53711Z" fill="#EF597D"/>
<path d="M22.6863 11.9974L22.6148 37.7944L18.3553 35.3341L18.4268 9.53711L22.6863 11.9974Z" fill="#F9BBD3"/>
<path d="M56.0731 14.9909L51.8416 17.4512L47.5821 14.9909L51.8136 12.5332L56.0731 14.9909Z" fill="#FFCADC"/>
<path d="M56.0733 14.9907L55.9993 40.7877L51.7678 43.248L51.8418 17.451L56.0733 14.9907Z" fill="#EF597D"/>
<path d="M51.8417 17.451L51.7677 43.248L47.5081 40.7877L47.5822 14.9907L51.8417 17.451Z" fill="#F9BBD3"/>
<path d="M36.1104 26.305L31.8764 28.7627L27.6195 26.305L31.8509 23.8447L36.1104 26.305Z" fill="#FFCADC"/>
<path d="M36.1101 26.3052L36.0361 52.1022L31.8046 54.5599L31.8761 28.7629L36.1101 26.3052Z" fill="#EF597D"/>
<path d="M31.8765 28.7629L31.805 54.5599L27.5455 52.1022L27.6195 26.3052L31.8765 28.7629Z" fill="#F9BBD3"/>
<path d="M46.4163 20.5672L42.1848 23.0275L37.9253 20.5672L42.1567 18.1069L46.4163 20.5672Z" fill="#FFCADC"/>
<path d="M46.4159 20.5674L46.3419 46.3644L42.1105 48.8247L42.1845 23.0276L46.4159 20.5674Z" fill="#EF597D"/>
<path d="M42.1849 23.0276L42.1109 48.8247L37.8513 46.3644L37.9254 20.5674L42.1849 23.0276Z" fill="#F9BBD3"/>
<path d="M31.864 37.9833V29.4541L36.1108 30.1508V39.0348L31.8615 41.5742L31.864 37.9833Z" fill="#C12B56"/>
<path d="M42.1414 32.5673V24.0381L46.3881 24.7348V33.6188L42.1414 36.1582V32.5673Z" fill="#C12B56"/>
<path d="M51.7988 27.8588V19.3296L56.0456 20.0263V28.9103L51.7988 31.4497V27.8588Z" fill="#C12B56"/>
<path d="M12.3808 27.1445V18.6152L16.6275 19.3094V28.196L12.3808 30.7353V27.1445Z" fill="#C12B56"/>
<path d="M22.6584 21.729V13.1997L26.9052 13.8964V22.7804L22.6584 25.3198V21.729Z" fill="#C12B56"/>
<path d="M32.3153 17.02V8.49072L36.5621 9.1849V18.0715L32.3153 20.6108V17.02Z" fill="#C12B56"/>
<path d="M58.5825 15.609L31.9305 31.098L5.10242 15.609L31.7544 0.120117L58.5825 15.609Z" fill="#58C6E9"/>
<path d="M58.5823 15.6089L58.567 20.6009L31.915 36.0898L31.9303 31.0978L58.5823 15.6089Z" fill="#0A8EAC"/>
<path d="M31.9306 31.0978L31.9152 36.0898L5.08716 20.6009L5.10247 15.6089L31.9306 31.0978Z" fill="#99E9FC"/>
<path d="M48.744 9.764L31.9432 19.5259L15.0327 9.764L31.8335 -0.000488281L48.744 9.764Z" fill="#C2F6FF"/>
<path d="M48.7442 9.76416L48.7238 16.4201L31.9256 26.1846L31.9435 19.5261L48.7442 9.76416Z" fill="#0A8EAC"/>
<path d="M31.9433 19.5261L31.9254 26.1846L15.0124 16.4201L15.0328 9.76416L31.9433 19.5261Z" fill="#94EBFF"/>
<path d="M15.2649 21.729L16.7017 20.8919C17.3117 20.5372 18.1539 20.5882 19.0854 21.1242L17.646 21.9612C16.717 21.4227 15.8723 21.3743 15.2649 21.729Z" fill="#2B99B2"/>
<path d="M15.265 21.7293L16.7019 20.8921C16.7886 20.8417 16.8801 20.7998 16.9749 20.7671L15.5355 21.6016C15.4417 21.6359 15.3511 21.6786 15.265 21.7293Z" fill="#2B99B2"/>
<path d="M15.5357 21.6015L16.9751 20.7669C17.0506 20.7391 17.1283 20.7178 17.2074 20.7031L15.7629 21.5504C15.6843 21.5675 15.6068 21.5888 15.5306 21.6142" fill="#2B99B2"/>
<path d="M15.7626 21.5506L17.202 20.7161C17.266 20.7028 17.3308 20.6934 17.396 20.688L15.9566 21.5225C15.8902 21.5225 15.8264 21.5379 15.7626 21.5506Z" fill="#2B99B2"/>
<path d="M15.9615 21.5098L17.4009 20.6753C17.4587 20.6714 17.5167 20.6714 17.5745 20.6753L16.135 21.5124C16.0763 21.5124 16.0177 21.5124 15.9615 21.5124" fill="#2B99B2"/>
<path d="M16.1352 21.5021L17.5746 20.665H17.7329L16.2935 21.5021H16.1352Z" fill="#2B99B2"/>
<path d="M16.2932 21.507L17.7327 20.6699L17.8807 20.6852L16.4413 21.5223L16.2932 21.507Z" fill="#2B99B2"/>
<path d="M16.4417 21.5227L17.8811 20.6855L18.0266 20.7111L16.5897 21.5456L16.4417 21.5227Z" fill="#2B99B2"/>
<path d="M16.5897 21.5504L18.0265 20.7158C18.073 20.7236 18.119 20.7338 18.1643 20.7464L16.7249 21.581L16.5897 21.5504Z" fill="#2B99B2"/>
<path d="M16.7247 21.5762L18.1641 20.7417L18.3019 20.78L16.865 21.6145L16.7247 21.5762Z" fill="#2B99B2"/>
<path d="M16.8653 21.6146L18.315 20.7852L18.4502 20.8285L17.0108 21.6656L16.8781 21.6197" fill="#2B99B2"/>
<path d="M16.9981 21.6608L18.4375 20.8237L18.5728 20.8748L17.1334 21.7093L16.9981 21.6608Z" fill="#2B99B2"/>
<path d="M17.1332 21.7091L18.5726 20.8745L18.7053 20.9307L17.2684 21.7678L17.1332 21.7091Z" fill="#2B99B2"/>
<path d="M17.2682 21.7678L18.7051 20.9307L18.8429 20.9945L17.4035 21.8316L17.2682 21.7678Z" fill="#2B99B2"/>
<path d="M17.4038 21.8317L18.8432 20.9946L18.9785 21.0661L17.539 21.9032L17.4038 21.8317Z" fill="#2B99B2"/>
<path d="M17.549 21.903L18.9884 21.0659L19.0956 21.1246L17.6562 21.9617L17.549 21.903Z" fill="#2B99B2"/>
<path d="M19.981 29.9002C21.2793 29.1454 21.2754 26.7166 19.9723 24.4753C18.6692 22.234 16.5604 21.0289 15.2621 21.7837C13.9639 22.5385 13.9678 24.9673 15.2709 27.2086C16.574 29.45 18.6828 30.655 19.981 29.9002Z" fill="#D5F9FF"/>
<path d="M21.4459 29.0535L20.0065 29.8906C20.6088 29.541 20.9814 28.7983 20.9839 27.7417C20.9839 25.6158 19.4961 23.0279 17.6458 21.9611L19.0852 21.124C20.9355 22.1934 22.4285 24.7812 22.4233 26.9046C22.4208 27.9612 22.0482 28.6962 21.4459 29.0535Z" fill="#2B99B2"/>
<path d="M17.6458 21.9611L19.0852 21.124L19.1183 21.1444L17.6789 21.979L17.6458 21.9611Z" fill="#2B99B2"/>
<path d="M17.6795 21.9796L19.1189 21.145L19.2593 21.2318L17.8224 22.0664L17.6795 21.9796Z" fill="#2B99B2"/>
<path d="M17.8224 22.0606L19.2593 21.2261C19.3078 21.2567 19.3563 21.2873 19.4022 21.3205L17.9628 22.1551L17.8224 22.0606Z" fill="#2B99B2"/>
<path d="M17.9625 22.1607L19.4019 21.3262L19.5474 21.4283L18.108 22.2654C18.062 22.2296 18.011 22.1939 17.9625 22.1607Z" fill="#2B99B2"/>
<path d="M18.1082 22.2648L19.5476 21.4277C19.5986 21.4635 19.6471 21.5017 19.6956 21.54L18.2562 22.3771C18.2077 22.3388 18.1592 22.3006 18.1082 22.2648Z" fill="#2B99B2"/>
<path d="M18.2561 22.3771L19.6955 21.54L19.8435 21.6625L18.4041 22.4971C18.3556 22.4563 18.3071 22.4154 18.2561 22.3771Z" fill="#2B99B2"/>
<path d="M18.4041 22.4972L19.8435 21.6626C19.8945 21.7034 19.943 21.7468 19.994 21.7928L18.5546 22.6273L18.4041 22.4972Z" fill="#2B99B2"/>
<path d="M18.5548 22.627L19.9942 21.7925L20.1397 21.9277L18.7003 22.7648L18.5548 22.627Z" fill="#2B99B2"/>
<path d="M18.6999 22.7653L20.1393 21.9282L20.2822 22.0686L18.8428 22.9057L18.6999 22.7653Z" fill="#2B99B2"/>
<path d="M18.8434 22.9055L20.2828 22.0684C20.3287 22.1143 20.3746 22.1628 20.418 22.2113L18.9786 23.0484C18.9352 22.9999 18.8893 22.9514 18.8434 22.9055Z" fill="#2B99B2"/>
<path d="M18.9784 23.0485L20.4178 22.2114L20.548 22.3569L19.1086 23.1914C19.0677 23.1429 19.0243 23.097 18.9784 23.0485Z" fill="#2B99B2"/>
<path d="M19.1084 23.1915L20.5478 22.3569L20.678 22.5075L19.2386 23.3446C19.1952 23.2936 19.1543 23.2425 19.1084 23.1915Z" fill="#2B99B2"/>
<path d="M19.2384 23.3371L20.6778 22.5L20.8079 22.6608L19.3685 23.4953L19.2384 23.3371Z" fill="#2B99B2"/>
<path d="M19.369 23.503L20.8084 22.6685C20.8569 22.7323 20.9079 22.7961 20.9564 22.8624L19.517 23.6995L19.369 23.503Z" fill="#2B99B2"/>
<path d="M19.5169 23.6994L20.9563 22.8623C21.0277 22.9618 21.0992 23.0614 21.1681 23.166L19.7287 24.0005C19.6598 23.8985 19.5909 23.7989 19.5169 23.6994Z" fill="#2B99B2"/>
<path d="M19.7287 24.0006L21.1681 23.166C21.2549 23.2936 21.3365 23.4212 21.4233 23.5616L19.9839 24.3961C19.9048 24.2634 19.8231 24.1409 19.7287 24.0006Z" fill="#2B99B2"/>
<path d="M19.9763 24.3961L21.4158 23.5615C21.4745 23.6585 21.5281 23.7555 21.5817 23.855L20.1422 24.6921C20.0886 24.5926 20.035 24.4931 19.9763 24.3961Z" fill="#2B99B2"/>
<path d="M20.1422 24.6926L21.5816 23.8555L21.6862 24.0571L20.2468 24.8916C20.2136 24.8253 20.1779 24.7589 20.1422 24.6926Z" fill="#2B99B2"/>
<path d="M20.247 24.8912L21.6864 24.0566L21.7706 24.2327L20.3312 25.0698L20.247 24.8912Z" fill="#2B99B2"/>
<path d="M20.3311 25.07L21.7705 24.2329C21.796 24.2865 21.8215 24.3401 21.8445 24.3937L20.405 25.2308C20.3821 25.1772 20.3566 25.1236 20.3311 25.07Z" fill="#2B99B2"/>
<path d="M20.405 25.2306L21.8444 24.3936L21.9133 24.5543L20.4739 25.3889L20.405 25.2306Z" fill="#2B99B2"/>
<path d="M20.4739 25.3785L21.9133 24.5439L21.9772 24.7047L20.5377 25.5418C20.5173 25.4882 20.4969 25.4346 20.4739 25.3785Z" fill="#2B99B2"/>
<path d="M20.5378 25.5519L21.9772 24.7148C22.0002 24.771 22.0206 24.8246 22.0385 24.8807L20.6016 25.7153C20.5812 25.6617 20.5608 25.6081 20.5378 25.5519Z" fill="#2B99B2"/>
<path d="M20.6118 25.7154L22.0486 24.8809C22.0716 24.937 22.0895 24.9931 22.1099 25.0518L20.6705 25.8864C20.6501 25.8303 20.6322 25.7741 20.6118 25.7154Z" fill="#2B99B2"/>
<path d="M20.66 25.8888L22.0994 25.0542L22.1556 25.2252L20.7161 26.0623C20.6983 26.0036 20.6778 25.9475 20.66 25.8888Z" fill="#2B99B2"/>
<path d="M20.7166 26.0602L22.156 25.2231C22.1738 25.2818 22.1891 25.3431 22.207 25.4018L20.7676 26.2363C20.7523 26.1776 20.7344 26.1189 20.7166 26.0602Z" fill="#2B99B2"/>
<path d="M20.7675 26.2364L22.207 25.4019L22.2529 25.578L20.8135 26.415L20.7675 26.2364Z" fill="#2B99B2"/>
<path d="M20.8135 26.4147L22.2529 25.5776C22.2682 25.6363 22.281 25.695 22.2937 25.7537L20.8543 26.5908C20.8543 26.5321 20.8288 26.4734 20.8135 26.4147Z" fill="#2B99B2"/>
<path d="M20.8667 26.591L22.3061 25.7539C22.3189 25.8126 22.3317 25.8713 22.3419 25.9275L20.9025 26.7646C20.9025 26.7059 20.8795 26.6497 20.8667 26.591Z" fill="#2B99B2"/>
<path d="M20.8897 26.7643L22.3291 25.9272C22.3291 25.9859 22.3495 26.0421 22.3572 26.0982L20.9203 26.9328L20.8897 26.7643Z" fill="#2B99B2"/>
<path d="M20.9205 26.9327L22.3574 26.0981C22.3574 26.1543 22.3752 26.2104 22.3829 26.2666L20.9435 27.1011L20.9205 26.9327Z" fill="#2B99B2"/>
<path d="M20.9435 27.1016L22.3829 26.2671C22.3829 26.3207 22.3829 26.3768 22.4007 26.4304L20.9613 27.2675C20.9613 27.2114 20.9613 27.1578 20.9435 27.1016Z" fill="#2B99B2"/>
<path d="M20.9613 27.2673L22.4007 26.4302C22.4007 26.4838 22.4007 26.5399 22.4007 26.5935L20.9613 27.4281C20.9613 27.3745 20.9613 27.3209 20.9485 27.2673" fill="#2B99B2"/>
<path d="M20.9743 27.4205L22.4137 26.5859V26.7467L20.9743 27.5838C20.9743 27.5302 20.9743 27.4766 20.9743 27.4205Z" fill="#2B99B2"/>
<path d="M20.9816 27.5915L22.421 26.7544C22.421 26.8054 22.421 26.8565 22.421 26.905L20.9816 27.7421C20.9816 27.691 20.9816 27.6425 20.9816 27.5915Z" fill="#2B99B2"/>
<path d="M20.9844 27.7526L22.4238 26.9155C22.4238 26.9717 22.4238 27.0253 22.4238 27.0789L20.9844 27.9134C20.9844 27.8624 20.9844 27.8062 20.9844 27.7526Z" fill="#2B99B2"/>
<path d="M20.9793 27.9127L22.4188 27.0781C22.4188 27.1317 22.4188 27.1828 22.4188 27.2364L20.9819 28.0709C20.9819 28.0199 20.9819 27.9663 20.9819 27.9127" fill="#2B99B2"/>
<path d="M20.9715 28.0714L22.4083 27.2368C22.4083 27.2913 22.4032 27.3448 22.393 27.3976L20.9536 28.2321C20.9536 28.1811 20.9664 28.1275 20.9715 28.0714Z" fill="#2B99B2"/>
<path d="M20.9536 28.2315L22.393 27.397L22.37 27.5552L20.9306 28.3923C20.9306 28.3413 20.9383 28.2877 20.9536 28.2315Z" fill="#2B99B2"/>
<path d="M20.9307 28.3928L22.3701 27.5557C22.3701 27.6118 22.3472 27.6679 22.337 27.7215L20.8976 28.5561C20.9103 28.5025 20.9205 28.4489 20.9307 28.3928Z" fill="#2B99B2"/>
<path d="M20.8975 28.5562L22.337 27.7217C22.3216 27.7804 22.3089 27.8365 22.291 27.8927L20.8516 28.7272C20.8699 28.6711 20.8853 28.614 20.8975 28.5562Z" fill="#2B99B2"/>
<path d="M20.8514 28.7271L22.2909 27.8926C22.273 27.9513 22.2551 28.01 22.2322 28.0687L20.7928 28.9032C20.8154 28.8456 20.8349 28.7868 20.8514 28.7271Z" fill="#2B99B2"/>
<path d="M20.7928 28.9029L22.2323 28.0684C22.2093 28.1347 22.1812 28.196 22.1532 28.2572L20.7137 29.0943C20.7418 29.0331 20.7699 28.9693 20.7928 28.9029Z" fill="#2B99B2"/>
<path d="M20.7136 29.0944L22.153 28.2573C22.1156 28.3366 22.073 28.4134 22.0254 28.487L20.586 29.3241C20.6336 29.2505 20.6762 29.1737 20.7136 29.0944Z" fill="#2B99B2"/>
<path d="M20.586 29.3239L22.0254 28.4868C21.8813 28.7201 21.6824 28.9146 21.446 29.0534L20.0066 29.8905C20.243 29.7517 20.4419 29.5572 20.586 29.3239Z" fill="#2B99B2"/>
</g>
<defs>
<clipPath id="clip0_1608_29447">
<rect width="53.5822" height="64" fill="white" transform="translate(5)"/>
</clipPath>
</defs>
</svg>
