<svg width="107" height="100" viewBox="0 0 107 100" fill="none" xmlns="http://www.w3.org/2000/svg">
<rect width="100" height="100" transform="translate(2)" fill="white"/>
<circle cx="52" cy="50" r="50" fill="#58C6E9" fill-opacity="0.08"/>
<g filter="url(#filter0_d_2390_58928)">
<path d="M32 18L66 26.5V81L32 73.5V18Z" fill="#F6F6F6"/>
<path d="M96.5 18L66 26.5V81L96.5 73.5V45.75V18Z" fill="url(#paint0_linear_2390_58928)"/>
<path d="M32.5 18L2 26.5V81L32.5 73.5V45.75V18Z" fill="url(#paint1_linear_2390_58928)"/>
</g>
<g filter="url(#filter1_d_2390_58928)">
<path d="M32 18L66 26.5V81L32 73.5V18Z" fill="#F6F6F6"/>
<path d="M96.5 18L66 26.5V81L96.5 73.5V45.75V18Z" fill="url(#paint2_linear_2390_58928)"/>
<path d="M32.5 18L2 26.5V81L32.5 73.5V45.75V18Z" fill="url(#paint3_linear_2390_58928)"/>
</g>
<circle cx="71.8335" cy="37.2581" r="4.70661" transform="rotate(15 71.8335 37.2581)" stroke="#3F3F3F" stroke-width="3.6"/>
<g filter="url(#filter2_d_2390_58928)">
<path fill-rule="evenodd" clip-rule="evenodd" d="M70.1723 37.8617C69.1054 37.5758 68.0087 38.2089 67.7229 39.2759L66.9839 42.0338C55.8684 40.778 45.2061 47.8026 42.2231 58.9355C38.9366 71.2006 46.2153 83.8076 58.4804 87.094C70.7455 90.3804 83.3525 83.1018 86.6389 70.8367C89.6219 59.7038 83.9004 48.2892 73.6463 43.819L74.3852 41.061C74.6711 39.9941 74.038 38.8974 72.971 38.6116L70.1723 37.8617Z" fill="url(#paint4_linear_2390_58928)"/>
</g>
<g filter="url(#filter3_d_2390_58928)">
<circle cx="64.4306" cy="64.8873" r="14.9444" transform="rotate(15 64.4306 64.8873)" fill="white"/>
</g>
<g filter="url(#filter4_d_2390_58928)">
<path d="M62.8206 74.7092C62.5098 75.2244 61.7185 75.0124 61.707 74.4108L61.5087 64.1036L68.1459 65.8821L62.8206 74.7092Z" fill="#EF597D"/>
<path d="M66.8328 55.2761C67.1437 54.7608 67.9349 54.9729 67.9465 55.5745L68.1448 65.8816L61.5076 64.1032L66.8328 55.2761Z" fill="#59B4EC"/>
</g>
<rect x="17.25" y="31.7109" width="17.3281" height="17.3281" rx="4.58825" fill="#3F3F3F"/>
<circle cx="25.7671" cy="40.172" r="3.04839" fill="white"/>
<path d="M26.9091 51.3857C26.4676 52.1504 25.3638 52.1504 24.9223 51.3857L23.3461 48.6556L28.4854 48.6556L26.9091 51.3857Z" fill="#3F3F3F"/>
<g filter="url(#filter5_f_2390_58928)">
<ellipse cx="25.9145" cy="51.8201" rx="6.89686" ry="0.773803" fill="#3F3F3F" fill-opacity="0.8"/>
</g>
<defs>
<filter id="filter0_d_2390_58928" x="0" y="16" width="106.5" height="75" filterUnits="userSpaceOnUse" color-interpolation-filters="sRGB">
<feFlood flood-opacity="0" result="BackgroundImageFix"/>
<feColorMatrix in="SourceAlpha" type="matrix" values="0 0 0 0 0 0 0 0 0 0 0 0 0 0 0 0 0 0 127 0" result="hardAlpha"/>
<feOffset dx="4" dy="4"/>
<feGaussianBlur stdDeviation="3"/>
<feComposite in2="hardAlpha" operator="out"/>
<feColorMatrix type="matrix" values="0 0 0 0 0.156863 0 0 0 0 0.52549 0 0 0 0 0.866667 0 0 0 0.24 0"/>
<feBlend mode="normal" in2="BackgroundImageFix" result="effect1_dropShadow_2390_58928"/>
<feBlend mode="normal" in="SourceGraphic" in2="effect1_dropShadow_2390_58928" result="shape"/>
</filter>
<filter id="filter1_d_2390_58928" x="0" y="8" width="106.5" height="75" filterUnits="userSpaceOnUse" color-interpolation-filters="sRGB">
<feFlood flood-opacity="0" result="BackgroundImageFix"/>
<feColorMatrix in="SourceAlpha" type="matrix" values="0 0 0 0 0 0 0 0 0 0 0 0 0 0 0 0 0 0 127 0" result="hardAlpha"/>
<feOffset dx="4" dy="-4"/>
<feGaussianBlur stdDeviation="3"/>
<feComposite in2="hardAlpha" operator="out"/>
<feColorMatrix type="matrix" values="0 0 0 0 0.156863 0 0 0 0 0.52549 0 0 0 0 0.866667 0 0 0 0.08 0"/>
<feBlend mode="normal" in2="BackgroundImageFix" result="effect1_dropShadow_2390_58928"/>
<feBlend mode="normal" in="SourceGraphic" in2="effect1_dropShadow_2390_58928" result="shape"/>
</filter>
<filter id="filter2_d_2390_58928" x="39.434" y="35.793" width="57.994" height="62.0901" filterUnits="userSpaceOnUse" color-interpolation-filters="sRGB">
<feFlood flood-opacity="0" result="BackgroundImageFix"/>
<feColorMatrix in="SourceAlpha" type="matrix" values="0 0 0 0 0 0 0 0 0 0 0 0 0 0 0 0 0 0 127 0" result="hardAlpha"/>
<feOffset dx="4" dy="4"/>
<feGaussianBlur stdDeviation="3"/>
<feComposite in2="hardAlpha" operator="out"/>
<feColorMatrix type="matrix" values="0 0 0 0 0.156863 0 0 0 0 0.52549 0 0 0 0 0.866667 0 0 0 0.24 0"/>
<feBlend mode="normal" in2="BackgroundImageFix" result="effect1_dropShadow_2390_58928"/>
<feBlend mode="normal" in="SourceGraphic" in2="effect1_dropShadow_2390_58928" result="shape"/>
</filter>
<filter id="filter3_d_2390_58928" x="47.4825" y="47.9392" width="37.8961" height="37.8961" filterUnits="userSpaceOnUse" color-interpolation-filters="sRGB">
<feFlood flood-opacity="0" result="BackgroundImageFix"/>
<feColorMatrix in="SourceAlpha" type="matrix" values="0 0 0 0 0 0 0 0 0 0 0 0 0 0 0 0 0 0 127 0" result="hardAlpha"/>
<feOffset dx="2" dy="2"/>
<feGaussianBlur stdDeviation="2"/>
<feComposite in2="hardAlpha" operator="out"/>
<feColorMatrix type="matrix" values="0 0 0 0 0 0 0 0 0 0 0 0 0 0 0 0 0 0 0.32 0"/>
<feBlend mode="normal" in2="BackgroundImageFix" result="effect1_dropShadow_2390_58928"/>
<feBlend mode="normal" in="SourceGraphic" in2="effect1_dropShadow_2390_58928" result="shape"/>
</filter>
<filter id="filter4_d_2390_58928" x="59.5076" y="52.985" width="14.6383" height="28.0151" filterUnits="userSpaceOnUse" color-interpolation-filters="sRGB">
<feFlood flood-opacity="0" result="BackgroundImageFix"/>
<feColorMatrix in="SourceAlpha" type="matrix" values="0 0 0 0 0 0 0 0 0 0 0 0 0 0 0 0 0 0 127 0" result="hardAlpha"/>
<feOffset dx="2" dy="2"/>
<feGaussianBlur stdDeviation="2"/>
<feComposite in2="hardAlpha" operator="out"/>
<feColorMatrix type="matrix" values="0 0 0 0 0 0 0 0 0 0 0 0 0 0 0 0 0 0 0.1 0"/>
<feBlend mode="normal" in2="BackgroundImageFix" result="effect1_dropShadow_2390_58928"/>
<feBlend mode="normal" in="SourceGraphic" in2="effect1_dropShadow_2390_58928" result="shape"/>
</filter>
<filter id="filter5_f_2390_58928" x="14.4294" y="46.4581" width="22.9702" height="10.7241" filterUnits="userSpaceOnUse" color-interpolation-filters="sRGB">
<feFlood flood-opacity="0" result="BackgroundImageFix"/>
<feBlend mode="normal" in="SourceGraphic" in2="BackgroundImageFix" result="shape"/>
<feGaussianBlur stdDeviation="2.29412" result="effect1_foregroundBlur_2390_58928"/>
</filter>
<linearGradient id="paint0_linear_2390_58928" x1="100" y1="47.5" x2="68.5" y2="52" gradientUnits="userSpaceOnUse">
<stop stop-color="white"/>
<stop offset="1" stop-color="white"/>
</linearGradient>
<linearGradient id="paint1_linear_2390_58928" x1="36" y1="47.5" x2="4.5" y2="52" gradientUnits="userSpaceOnUse">
<stop stop-color="white"/>
<stop offset="1" stop-color="white"/>
</linearGradient>
<linearGradient id="paint2_linear_2390_58928" x1="100" y1="47.5" x2="68.5" y2="52" gradientUnits="userSpaceOnUse">
<stop stop-color="white"/>
<stop offset="1" stop-color="white"/>
</linearGradient>
<linearGradient id="paint3_linear_2390_58928" x1="36" y1="47.5" x2="4.5" y2="52" gradientUnits="userSpaceOnUse">
<stop stop-color="white"/>
<stop offset="1" stop-color="white"/>
</linearGradient>
<linearGradient id="paint4_linear_2390_58928" x1="42.8181" y1="56.7147" x2="87.2608" y2="68.6231" gradientUnits="userSpaceOnUse">
<stop stop-color="#67CDED"/>
<stop offset="0.3" stop-color="#7FDDF0"/>
<stop offset="0.62" stop-color="#6FD9F0"/>
<stop offset="1" stop-color="#53ABEA"/>
</linearGradient>
</defs>
</svg>
