<svg width="60" height="60" viewBox="0 0 60 60" fill="none" xmlns="http://www.w3.org/2000/svg">
<g clip-path="url(#clip0_2311_41769)">
<path opacity="0.5" d="M54.53 27.3515L55.007 27.0793V55.483L54.6086 55.6934L54.53 27.3515Z" fill="#126068"/>
<path d="M45.7346 32.5222L58.7384 24.9668L58.6598 52.4446L45.656 60L45.7346 32.5222Z" fill="#0E7C8E"/>
<path d="M7.09058 10.2095L20.0944 2.65405L58.7384 24.9668L45.7346 32.5222L7.09058 10.2095Z" fill="#58C6E9"/>
<path d="M18.8964 17.027L18.9076 12.7008L9.9999 7.55542L9.98868 11.8844L7.09052 10.2095L7.01196 37.6901L45.6559 60L45.7345 32.5222L18.8964 17.027Z" fill="url(#paint0_linear_2311_41769)"/>
<path d="M18.9077 12.7008L31.9115 5.14258L31.9003 9.49402L18.8965 17.0494L18.9077 12.7008Z" fill="#2B99B2"/>
<path d="M10 7.55541L23.0038 0L31.9115 5.14262L18.9077 12.7008L10 7.55541Z" fill="#58C6E9"/>
<path d="M18.8628 30.4657L22.6868 28.2437C23.896 27.5423 25.5681 27.6405 27.4142 28.7066L23.5902 30.9286C21.7441 29.8625 20.0692 29.7643 18.8628 30.4657Z" fill="#2B99B2"/>
<path d="M18.8628 30.4657L22.6868 28.2437C22.8581 28.1445 23.0385 28.0618 23.2255 27.9968L19.4015 30.2188C19.215 30.285 19.0347 30.3677 18.8628 30.4657Z" fill="#2B99B2"/>
<path d="M19.4014 30.2189L23.2254 27.9969C23.3761 27.942 23.5309 27.8989 23.6883 27.8678L19.8643 30.0898C19.7072 30.1222 19.5525 30.1653 19.4014 30.2189Z" fill="#2B99B2"/>
<path d="M19.8645 30.0898L23.6885 27.8678C23.8148 27.8425 23.941 27.8257 24.0729 27.8116L20.2489 30.0337C20.117 30.0337 19.9908 30.0645 19.8645 30.0898Z" fill="#2B99B2"/>
<path d="M20.2488 30.0336L24.0728 27.8116C24.185 27.8116 24.3 27.7976 24.4151 27.7948L20.5911 30.0196C20.476 30.0196 20.361 30.0196 20.2488 30.0336Z" fill="#2B99B2"/>
<path d="M20.5911 30.0196L24.4151 27.7948C24.5189 27.7948 24.6227 27.7948 24.7293 27.7948L20.9053 30.028C20.7987 30.028 20.6949 30.028 20.5911 30.028" fill="#2B99B2"/>
<path d="M20.9053 30.028L24.7293 27.806C24.8247 27.806 24.9257 27.8229 25.0098 27.8369L21.1858 30.0589C21.0848 30.0589 20.9866 30.0365 20.9053 30.028Z" fill="#2B99B2"/>
<path d="M21.2 30.0589L25.0239 27.8369C25.1193 27.8369 25.2175 27.865 25.3045 27.8846L21.4805 30.1066C21.3823 30.087 21.2841 30.073 21.2 30.0589Z" fill="#2B99B2"/>
<path d="M21.4917 30.1065L25.3157 27.8845C25.4055 27.9014 25.4953 27.921 25.5963 27.9462L21.7723 30.1683C21.6797 30.1458 21.5899 30.1234 21.4917 30.1065Z" fill="#2B99B2"/>
<path d="M21.7638 30.1683L25.5878 27.9463L25.8683 28.022L22.0415 30.2441C21.9518 30.216 21.8592 30.1907 21.761 30.1683" fill="#2B99B2"/>
<path d="M22.036 30.2441L25.8628 28.0193C25.9498 28.0445 26.0396 28.0726 26.1265 28.1063L22.3025 30.3283C22.2128 30.2974 22.1258 30.2666 22.022 30.2413" fill="#2B99B2"/>
<path d="M22.3025 30.331L26.1265 28.109L26.407 28.2072L22.5718 30.432C22.482 30.3965 22.3885 30.3628 22.2913 30.331" fill="#2B99B2"/>
<path d="M22.5716 30.4321L26.3956 28.2073C26.4826 28.2437 26.5724 28.2802 26.6762 28.3223L22.8382 30.5443C22.7484 30.505 22.6586 30.4658 22.5576 30.4321" fill="#2B99B2"/>
<path d="M22.8382 30.5443L26.6622 28.3223L26.9428 28.4485L23.0935 30.6705L22.813 30.5443" fill="#2B99B2"/>
<path d="M23.0935 30.6705L26.9203 28.4485L27.2009 28.5888L23.3741 30.8248C23.2843 30.7771 23.1945 30.7294 23.0935 30.6845" fill="#2B99B2"/>
<path d="M23.3743 30.8248L27.2039 28.5803L27.4143 28.6982L23.5903 30.9202L23.3743 30.8248Z" fill="#2B99B2"/>
<path d="M32.0966 44.4374L28.2726 46.6594C29.465 45.9664 30.2056 44.4935 30.2112 42.3977C30.2112 38.1894 27.257 33.0468 23.5901 30.9286L27.4141 28.7065C31.0838 30.8248 34.0352 35.959 34.0352 40.1757C34.0352 42.2715 33.289 43.7444 32.0966 44.4374Z" fill="#1D7A89"/>
<path d="M23.5901 30.9286L27.4141 28.7065L27.4786 28.7458L23.6546 30.9678L23.5901 30.9286Z" fill="#1D7A89"/>
<path d="M23.6545 30.9679L27.4785 28.7458L27.7591 28.917L23.9351 31.139L23.6545 30.9679Z" fill="#1D7A89"/>
<path d="M23.9351 31.139L27.7591 28.917C27.8544 28.9787 27.9498 29.0404 28.0396 29.105L24.2156 31.327L23.9351 31.139Z" fill="#1D7A89"/>
<path d="M24.2158 31.327L28.0398 29.105C28.1352 29.1695 28.2334 29.2396 28.3204 29.3098L24.4964 31.5318C24.401 31.4617 24.3028 31.3915 24.2158 31.327Z" fill="#1D7A89"/>
<path d="M24.4963 31.5317L28.3203 29.3097L28.6009 29.5313L24.7769 31.7533L24.4963 31.5317Z" fill="#1D7A89"/>
<path d="M24.7993 31.7534L28.6233 29.5314L28.9179 29.7727L25.0939 31.9947L24.8133 31.7534" fill="#1D7A89"/>
<path d="M25.0939 31.9947L28.9179 29.7727C29.0189 29.8569 29.1171 29.9438 29.1984 30.0308L25.3744 32.2528C25.279 32.1659 25.178 32.0789 25.0798 31.9947" fill="#1D7A89"/>
<path d="M25.3884 32.2528L29.2124 30.0308C29.3106 30.1177 29.4088 30.2103 29.493 30.3113L25.669 32.5333C25.5736 32.4407 25.4754 32.351 25.3884 32.2528Z" fill="#1D7A89"/>
<path d="M25.6802 32.5249L29.5042 30.3029C29.5996 30.3926 29.6921 30.4852 29.7847 30.5834L25.9607 32.8082C25.8681 32.7128 25.7756 32.6203 25.6802 32.5277" fill="#1D7A89"/>
<path d="M25.9607 32.8027L29.7847 30.5779L30.0652 30.8584L26.2413 33.0805C26.1515 32.9851 26.0617 32.8897 25.9607 32.7999" fill="#1D7A89"/>
<path d="M26.2329 33.086L30.0569 30.864C30.1439 30.9566 30.2309 31.052 30.315 31.1446L26.491 33.3666L26.2329 33.086Z" fill="#1D7A89"/>
<path d="M26.4911 33.3722L30.3151 31.1501C30.4021 31.2483 30.489 31.3493 30.5732 31.4503L26.7408 33.6724C26.6566 33.5714 26.5696 33.4704 26.4827 33.3722" fill="#1D7A89"/>
<path d="M26.7407 33.6725L30.5647 31.4504C30.6517 31.5542 30.7359 31.6609 30.82 31.7675L26.996 33.9895C26.9119 33.8829 26.8277 33.7763 26.7407 33.6725Z" fill="#1D7A89"/>
<path d="M27.0044 33.9895L30.8284 31.7675C30.9294 31.8928 31.0276 32.0218 31.123 32.1546L27.3018 34.3766C27.2064 34.2476 27.1082 34.1157 27.0212 33.9895" fill="#1D7A89"/>
<path d="M27.3018 34.3766L31.1258 32.1545C31.2716 32.3509 31.4063 32.5501 31.5466 32.7549L27.7226 34.9769C27.5879 34.7721 27.442 34.5729 27.3018 34.3766Z" fill="#1D7A89"/>
<path d="M27.72 34.977L31.544 32.755C31.7151 33.0103 31.8806 33.2712 32.0378 33.5378L28.2138 35.7626C28.0566 35.4961 27.8911 35.2323 27.72 34.977Z" fill="#1D7A89"/>
<path d="M28.2136 35.7625L32.0376 33.5377C32.1498 33.7313 32.2593 33.9249 32.3659 34.1241L28.5391 36.3461C28.4353 36.1497 28.3258 35.9533 28.2136 35.7625Z" fill="#1D7A89"/>
<path d="M28.5391 36.3462L32.3659 34.1241C32.436 34.256 32.5033 34.3879 32.5707 34.5225L28.7467 36.7446C28.6793 36.6099 28.612 36.478 28.5391 36.3462Z" fill="#1D7A89"/>
<path d="M28.7468 36.7445L32.5708 34.5225C32.6297 34.6375 32.6859 34.7553 32.7392 34.8732L28.9152 37.0952C28.8619 36.9773 28.8057 36.8595 28.7468 36.7445Z" fill="#1D7A89"/>
<path d="M28.915 37.0952L32.739 34.8732C32.7895 34.9798 32.84 35.0864 32.8877 35.193L29.0609 37.415C29.0132 37.3084 28.9655 37.2018 28.915 37.0952Z" fill="#1D7A89"/>
<path d="M29.061 37.415L32.8878 35.193L33.0225 35.51L29.1985 37.732C29.1536 37.6254 29.1087 37.5216 29.061 37.415Z" fill="#1D7A89"/>
<path d="M29.1985 37.732L33.0225 35.51C33.0674 35.6166 33.1095 35.7232 33.1515 35.8327L29.3275 38.0547C29.2855 37.9481 29.2434 37.8386 29.1985 37.732Z" fill="#1D7A89"/>
<path d="M29.3274 38.0548L33.1514 35.8328C33.1935 35.9394 33.2356 36.0488 33.2748 36.1582L29.4508 38.3802C29.4116 38.2708 29.3695 38.1642 29.3274 38.0548Z" fill="#1D7A89"/>
<path d="M29.4509 38.3802L33.2749 36.1554L33.3928 36.4921L29.5688 38.7169L29.4509 38.3774" fill="#1D7A89"/>
<path d="M29.5688 38.7197L33.3928 36.4949C33.4293 36.6099 33.4686 36.7249 33.5023 36.84L29.6783 39.062L29.5688 38.7197Z" fill="#1D7A89"/>
<path d="M29.6782 39.0619L33.5022 36.8398C33.5387 36.9577 33.5724 37.0727 33.606 37.1905L29.7792 39.4126C29.7484 39.2947 29.7147 39.1797 29.6782 39.0619Z" fill="#1D7A89"/>
<path d="M29.7793 39.4126L33.6061 37.1906L33.6987 37.5441L29.8719 39.7661C29.8438 39.6482 29.813 39.5304 29.7793 39.4126Z" fill="#1D7A89"/>
<path d="M29.8718 39.7661L33.6986 37.5581C33.7267 37.6731 33.7519 37.7882 33.7772 37.906L29.9532 40.128C29.9279 40.0102 29.9027 39.8951 29.8718 39.7801" fill="#1D7A89"/>
<path d="M29.9531 40.114L33.7771 37.892C33.8024 38.007 33.8276 38.122 33.8501 38.2371L30.0233 40.4591C30.0036 40.344 29.9784 40.229 29.9531 40.114Z" fill="#1D7A89"/>
<path d="M30.0232 40.4591L33.85 38.2371C33.8696 38.3493 33.8893 38.4615 33.9061 38.5737L30.0821 40.7957C30.0653 40.6835 30.0456 40.5713 30.0232 40.4591Z" fill="#1D7A89"/>
<path d="M30.0823 40.7957L33.9063 38.5737C33.9231 38.6831 33.9399 38.7954 33.954 38.9076L30.13 41.1296C30.13 41.0174 30.0991 40.908 30.0823 40.7957Z" fill="#1D7A89"/>
<path d="M30.1299 41.1296L33.9539 38.9076C33.9539 39.0142 33.9791 39.1236 33.9904 39.233L30.1664 41.4551C30.1664 41.3456 30.1439 41.239 30.1299 41.1296Z" fill="#1D7A89"/>
<path d="M30.1663 41.4551L33.9903 39.2415C33.9903 39.3481 34.0099 39.4575 34.0155 39.5641L30.1915 41.7665C30.1915 41.6599 30.1915 41.5504 30.1663 41.4438" fill="#1D7A89"/>
<path d="M30.1917 41.7664L34.0156 39.5444C34.0156 39.651 34.0156 39.7577 34.0325 39.8643L30.2057 42.0863C30.2057 41.9797 30.2057 41.8731 30.2057 41.7664" fill="#1D7A89"/>
<path d="M30.2056 42.0975L34.0352 39.8755C34.0352 39.9765 34.0352 40.0775 34.0352 40.1757V40.1953L30.2112 42.4173V42.3977C30.2112 42.2995 30.2112 42.1985 30.2112 42.0975" fill="#1D7A89"/>
<path d="M30.2112 42.4173L34.0352 40.1953C34.0352 40.3038 34.0352 40.4104 34.0352 40.5151L30.2112 42.74C30.2112 42.6334 30.2112 42.5267 30.2112 42.4173Z" fill="#1D7A89"/>
<path d="M30.2029 42.7401L34.0353 40.5153C34.0353 40.6219 34.0353 40.7285 34.0156 40.8295L30.1917 43.0515C30.1917 42.9505 30.2085 42.8439 30.2113 42.7401" fill="#1D7A89"/>
<path d="M30.1831 43.0515L34.0071 40.8295C34.0071 40.9389 33.9874 41.0455 33.9762 41.1493L30.1494 43.3713C30.1625 43.2666 30.1737 43.16 30.1831 43.0515Z" fill="#1D7A89"/>
<path d="M30.1495 43.3713L33.9763 41.1493C33.9763 41.2587 33.9454 41.3625 33.9286 41.4663L30.1074 43.6883C30.1243 43.5845 30.1411 43.4807 30.1523 43.3713" fill="#1D7A89"/>
<path d="M30.1075 43.6883L33.9315 41.4663C33.9119 41.5785 33.8894 41.6851 33.8642 41.7918L30.0374 44.011C30.0626 43.9072 30.085 43.7977 30.1047 43.6855" fill="#1D7A89"/>
<path d="M30.0374 44.011L33.8614 41.7889C33.8362 41.904 33.8053 42.019 33.7744 42.1284L29.9504 44.3504C29.9813 44.241 30.0122 44.1288 30.0374 44.011Z" fill="#1D7A89"/>
<path d="M29.9504 44.3532L33.7743 42.1312C33.7379 42.2519 33.7014 42.3669 33.6593 42.4819L29.8269 44.7039C29.869 44.5917 29.9083 44.4739 29.9447 44.3532" fill="#1D7A89"/>
<path d="M29.8268 44.7039L33.6536 42.4819C33.6031 42.611 33.5498 42.7372 33.4937 42.8579L29.6697 45.0799C29.7258 44.9593 29.7791 44.833 29.8268 44.7039Z" fill="#1D7A89"/>
<path d="M29.6754 45.0799L33.4994 42.8579C33.4253 43.0148 33.341 43.1667 33.2469 43.3124L29.4229 45.5344C29.5181 45.3894 29.6025 45.2374 29.6754 45.0799Z" fill="#1D7A89"/>
<path d="M29.423 45.5344L33.247 43.3124C32.9598 43.7738 32.5651 44.1589 32.0967 44.4346L28.2727 46.6566C28.7411 46.3809 29.1358 45.9958 29.423 45.5344Z" fill="#1D7A89"/>
<path d="M28.2714 46.6621C30.8611 45.1573 30.8539 40.3122 28.2553 35.8402C25.6567 31.3683 21.4508 28.9629 18.8611 30.4677C16.2715 31.9725 16.2787 36.8176 18.8773 41.2896C21.4758 45.7616 25.6817 48.1669 28.2714 46.6621Z" fill="#C2F6FF"/>
<path d="M26.6421 44.6989C28.5713 43.5779 28.5663 39.9692 26.631 36.6386C24.6957 33.3081 21.5629 31.5169 19.6337 32.6379C17.7045 33.759 17.7095 37.3677 19.6448 40.6982C21.5801 44.0287 24.7129 45.8199 26.6421 44.6989Z" fill="#2B99B2"/>
<path d="M50.0552 21.847V24.5011C50.0552 25.0791 49.6737 25.6514 48.933 26.0919C47.4096 26.9756 44.9351 26.9756 43.4004 26.0919C42.6317 25.6458 42.2473 25.0622 42.2473 24.4787V21.8246C42.2473 22.4081 42.6289 22.9917 43.4004 23.4378C44.9322 24.3215 47.4096 24.3215 48.933 23.4378C49.6737 23.0085 50.0524 22.4362 50.0552 21.847Z" fill="#B13B5D"/>
<path d="M50.0523 21.8948V24.5488C50.0495 24.6233 50.041 24.6973 50.0271 24.7705V22.1276C50.0437 22.054 50.0521 21.9787 50.0523 21.9032" fill="#B13B5D"/>
<path d="M50.0272 22.1276V24.7788C50.0112 24.8542 49.9897 24.9283 49.9626 25.0005V22.3464C49.9893 22.2751 50.0109 22.202 50.0272 22.1276Z" fill="#B13B5D"/>
<path d="M49.9654 22.338V24.9921C49.9371 25.0688 49.9024 25.1429 49.8616 25.2137V22.5597C49.9013 22.4883 49.936 22.4142 49.9654 22.338Z" fill="#B13B5D"/>
<path d="M49.8617 22.5597V25.2138C49.8149 25.295 49.7624 25.3728 49.7046 25.4466V22.7926C49.7624 22.7187 49.8149 22.6409 49.8617 22.5597Z" fill="#B13B5D"/>
<path d="M49.7045 22.7925V25.4466C49.6307 25.5403 49.5491 25.6276 49.4604 25.7075V23.0534C49.5483 22.9728 49.6299 22.8855 49.7045 22.7925Z" fill="#B13B5D"/>
<path d="M49.4659 23.0535V25.7075C49.3147 25.847 49.1492 25.9702 48.9722 26.0751V23.421C49.1483 23.3147 49.3136 23.1916 49.4659 23.0535Z" fill="#B13B5D"/>
<path d="M48.9667 23.4209V26.075L48.9191 26.103C48.6474 26.2591 48.3595 26.3852 48.0605 26.479V23.8249C48.3595 23.7311 48.6474 23.605 48.9191 23.449L48.9667 23.4209Z" fill="#B13B5D"/>
<path d="M48.0632 23.825V26.479C47.8212 26.5588 47.5736 26.6207 47.3225 26.6642V24.0101C47.5736 23.9666 47.8212 23.9047 48.0632 23.825Z" fill="#B13B5D"/>
<path d="M47.3198 24.0101V26.6642C47.1571 26.6951 46.9916 26.7175 46.8232 26.7343V24.0803C46.9916 24.0634 47.1599 24.041 47.3226 24.0101" fill="#B13B5D"/>
<path d="M46.8204 24.0914V26.7455C46.6745 26.7455 46.5398 26.7679 46.3855 26.7736V24.1195C46.5314 24.1195 46.6661 24.1195 46.8176 24.0914" fill="#B13B5D"/>
<path d="M46.38 24.1083V26.7623C46.2481 26.7623 46.1134 26.7623 45.9788 26.7623V24.1083C46.1134 24.1083 46.2593 24.1083 46.38 24.1083Z" fill="#B13B5D"/>
<path d="M45.9871 24.1111V26.7651C45.8581 26.7651 45.7318 26.7651 45.6028 26.7427V24.0886C45.729 24.0886 45.8581 24.1083 45.9871 24.1111Z" fill="#B13B5D"/>
<path d="M45.6029 24.0915V26.7456C45.4766 26.7456 45.3476 26.7232 45.2241 26.7035V24.0494C45.3504 24.0691 45.4766 24.0831 45.6057 24.0915" fill="#B13B5D"/>
<path d="M45.2213 24.0466V26.7007C45.0894 26.6838 44.9604 26.6614 44.8313 26.6333V23.9792C44.9604 24.0073 45.0894 24.0297 45.2185 24.0466" fill="#B13B5D"/>
<path d="M44.8341 23.9793V26.6334C44.6966 26.6053 44.5535 26.5716 44.4272 26.5352V23.8811C44.5591 23.9176 44.7078 23.9512 44.8341 23.9793Z" fill="#B13B5D"/>
<path d="M44.416 23.8811V26.5352C44.2553 26.489 44.0971 26.4347 43.9419 26.3725V23.7184C44.098 23.7806 44.2572 23.8349 44.4188 23.8811" fill="#B13B5D"/>
<path d="M43.9503 23.7183V26.3724C43.7568 26.2924 43.5693 26.1986 43.3892 26.0919C42.6204 25.6458 42.2361 25.0622 42.2361 24.4787V21.8246C42.2361 22.4081 42.6176 22.9917 43.3892 23.4378C43.5692 23.5447 43.7567 23.6384 43.9503 23.7183Z" fill="#B13B5D"/>
<path d="M48.9052 20.245C50.437 21.1316 50.4454 22.5653 48.9248 23.449C47.4042 24.3328 44.924 24.3328 43.3922 23.449C41.8604 22.5653 41.8519 21.1316 43.3754 20.245C44.8988 19.3585 47.3677 19.3613 48.9052 20.245Z" fill="#EF597D"/>
<path d="M48.2933 20.4218C49.4912 21.1148 49.4997 22.237 48.3101 22.9272C47.64 23.2682 46.8988 23.4459 46.147 23.4459C45.3952 23.4459 44.654 23.2682 43.9839 22.9272C42.7859 22.237 42.7803 21.1148 43.9699 20.4218C44.6396 20.0813 45.3803 19.9038 46.1316 19.9038C46.8829 19.9038 47.6236 20.0813 48.2933 20.4218Z" fill="#EFA8C5"/>
<path d="M16.7193 12.9898L16.7109 15.3745L11.5767 12.409L11.5851 10.0271L16.7193 12.9898Z" fill="#0E7C8E"/>
<path d="M53.9942 27.7191L54.0728 55.124L50.6415 57.1047L50.563 29.7195L53.9942 27.7191Z" fill="#2B99B2"/>
<path d="M19.3958 40.2432C19.7998 41.0848 20.6863 42.5241 22.6222 43.9914C23.4442 44.6142 25.2482 45.5794 26.665 44.6872C27.8854 43.9185 28.1267 42.1033 28.1183 41.1746C28.0537 39.5852 27.5561 38.0437 26.679 36.7166C24.255 37.9005 21.817 39.0592 19.3958 40.2432Z" fill="#C12B56"/>
<path d="M19.3958 40.2432C20.1288 41.7401 21.2185 43.034 22.5689 44.011C23.3937 44.6339 25.164 45.5485 26.6117 44.7068C27.9051 43.9549 28.0958 42.381 28.1183 41.2896C28.1548 39.5305 27.2766 37.533 26.679 36.7081C24.255 37.9005 21.817 39.0592 19.3958 40.2432Z" fill="#0E7C8E"/>
<path d="M10.1683 43.2648L8.25488 44.387C8.3121 44.3547 8.36107 44.3096 8.39797 44.2552L10.3114 43.1329C10.2731 43.1861 10.2244 43.231 10.1683 43.2648Z" fill="#B13B5D"/>
<path d="M8.39797 44.2439L10.3114 43.1217C10.2731 43.1749 10.2244 43.2197 10.1683 43.2536L8.25488 44.3758C8.3121 44.3435 8.36107 44.2983 8.39797 44.2439Z" fill="#B13B5D"/>
<path d="M9.32379 42.9393L11.2372 41.8282L10.3114 43.1328L8.39795 44.2438L9.32379 42.9393Z" fill="#EF597D"/>
<path d="M14.6264 43.0066L12.7158 44.1288C13.1254 43.8904 13.3807 43.3826 13.3835 42.6615L15.2941 41.5393C15.2941 42.2603 15.0388 42.7681 14.6264 43.0066Z" fill="#EF597D"/>
<path d="M13.3835 42.6503L15.2941 41.5281L13.3835 42.6503Z" fill="#EF597D"/>
<path d="M13.3835 42.6559L15.2941 41.5337C15.2941 41.5702 15.2941 41.6066 15.2941 41.6431L13.3835 42.7653C13.3835 42.7289 13.3835 42.6924 13.3835 42.6559Z" fill="#EF597D"/>
<path d="M13.3809 42.7653L15.2915 41.6431C15.2915 41.6795 15.2915 41.716 15.2915 41.7525L13.3809 42.8747C13.3809 42.8382 13.3809 42.8018 13.3809 42.7653Z" fill="#EF597D"/>
<path d="M13.3751 42.8888L15.2857 41.7666C15.2857 41.8031 15.2857 41.8395 15.2857 41.876L13.3723 42.9982C13.3723 42.9618 13.3723 42.9253 13.3723 42.8888" fill="#EF597D"/>
<path d="M13.3612 42.9842L15.2746 41.8619L15.2578 41.9714L13.3472 43.0936C13.3472 43.0571 13.3472 43.0206 13.3472 42.9842" fill="#EF597D"/>
<path d="M13.3472 43.0935L15.2577 41.9713C15.2577 42.0106 15.2577 42.0471 15.2353 42.0835L13.3247 43.2058C13.3247 43.1693 13.3247 43.1328 13.3472 43.0935Z" fill="#EF597D"/>
<path d="M13.3246 43.2058L15.2352 42.0836C15.2352 42.1229 15.2155 42.1622 15.2043 42.1986L13.2937 43.3209C13.2937 43.2816 13.3133 43.2423 13.3246 43.203" fill="#EF597D"/>
<path d="M13.2937 43.3236L15.2043 42.2014C15.1933 42.2423 15.1802 42.2826 15.165 42.3221L13.2544 43.4443C13.2544 43.4078 13.2796 43.3657 13.2937 43.3264" fill="#EF597D"/>
<path d="M13.2546 43.4499L15.1652 42.3276C15.1484 42.3725 15.1315 42.4174 15.1119 42.4595L13.1985 43.5817C13.2194 43.5387 13.2381 43.4947 13.2546 43.4499Z" fill="#EF597D"/>
<path d="M13.1983 43.5734L15.1117 42.4512C15.0836 42.5073 15.0556 42.5578 15.0247 42.6083L13.1113 43.7305C13.1436 43.6801 13.1727 43.6276 13.1983 43.5734Z" fill="#EF597D"/>
<path d="M13.1114 43.7305L15.0248 42.6083C14.9243 42.7669 14.7878 42.8996 14.6264 42.9954L12.7158 44.1177C12.8764 44.0217 13.012 43.889 13.1114 43.7305Z" fill="#EF597D"/>
<path d="M2.56519 26.5743L4.47859 25.4521C4.89381 25.2108 5.47176 25.2445 6.10582 25.612L4.19522 26.7343C3.55836 26.3667 2.98322 26.3359 2.56519 26.5743Z" fill="#EF597D"/>
<path d="M2.56519 26.5744L4.47859 25.4522C4.53753 25.4176 4.59951 25.3885 4.66376 25.3652L2.75035 26.4875C2.68611 26.5108 2.62413 26.5399 2.56519 26.5744Z" fill="#EF597D"/>
<path d="M2.75024 26.4874L4.66365 25.3652C4.71563 25.3466 4.76914 25.3325 4.82356 25.3231L2.91016 26.4453C2.85779 26.4566 2.80449 26.4706 2.75024 26.4874Z" fill="#EF597D"/>
<path d="M2.91016 26.4453L4.82356 25.3231C4.86676 25.3122 4.91093 25.3057 4.95542 25.3035L3.04202 26.4257C2.9977 26.4295 2.95366 26.4361 2.91016 26.4453Z" fill="#EF597D"/>
<path d="M3.04224 26.4257L4.95564 25.3035C4.99487 25.3007 5.03424 25.3007 5.07347 25.3035L3.16288 26.4257H3.04224Z" fill="#EF597D"/>
<path d="M3.17407 26.4201L5.08467 25.2979H5.19128L3.28068 26.4201H3.17407Z" fill="#EF597D"/>
<path d="M3.26929 26.4229L5.17988 25.3007H5.28369L3.37029 26.4229H3.26929Z" fill="#EF597D"/>
<path d="M3.37036 26.4341L5.28376 25.3119L5.38476 25.3287L3.47136 26.451C3.43821 26.4426 3.40443 26.437 3.37036 26.4341Z" fill="#EF597D"/>
<path d="M3.47144 26.451L5.38484 25.3287L5.47742 25.3484L3.56402 26.4706L3.47144 26.451Z" fill="#EF597D"/>
<path d="M3.56396 26.4706L5.47737 25.3484L5.57276 25.3736L3.65935 26.4959L3.56396 26.4706Z" fill="#EF597D"/>
<path d="M3.65942 26.4959L5.57283 25.3737L5.6626 25.4045L3.75201 26.5267L3.65942 26.4959Z" fill="#EF597D"/>
<path d="M3.75195 26.5266L5.66255 25.4044L5.75513 25.4381L3.84454 26.5603L3.75195 26.5266Z" fill="#EF597D"/>
<path d="M3.84448 26.5603L5.75508 25.4381L5.84766 25.4774L3.93426 26.5996L3.84448 26.5603Z" fill="#EF597D"/>
<path d="M3.93433 26.5996L5.84773 25.4774L5.94031 25.5223L4.02691 26.6445L3.93433 26.5996Z" fill="#EF597D"/>
<path d="M4.01562 26.6446L5.92903 25.5223L6.02161 25.57L4.11101 26.6923L4.01562 26.6446Z" fill="#EF597D"/>
<path d="M4.12231 26.6922L6.03291 25.5699L6.10585 25.612L4.19526 26.7343L4.12231 26.6922Z" fill="#EF597D"/>
<path d="M13.406 34.6853L15.3166 33.5743L15.2941 41.5366L13.3835 42.6476L13.406 34.6853Z" fill="#EF597D"/>
<path d="M4.19238 26.7315L6.10578 25.6205L13.0356 29.624L11.125 30.735L4.19238 26.7315Z" fill="#EF597D"/>
<path d="M11.125 30.735L13.0384 29.6128C14.3009 30.3422 15.3221 32.1098 15.3165 33.563L13.4059 34.6853C13.4087 33.232 12.3903 31.4645 11.125 30.735Z" fill="#EF597D"/>
<path d="M11.125 30.735L13.0384 29.6128H13.0608L11.1474 30.735H11.125Z" fill="#EF597D"/>
<path d="M11.1475 30.7491L13.0609 29.6268L13.1563 29.6886L11.2457 30.8108C11.2142 30.7891 11.1814 30.7694 11.1475 30.7519" fill="#EF597D"/>
<path d="M11.2456 30.808L13.1562 29.6858L13.2544 29.7503L11.341 30.8725L11.2456 30.808Z" fill="#EF597D"/>
<path d="M11.3411 30.8725L13.2545 29.7502C13.2881 29.7727 13.3218 29.7951 13.3527 29.8204L11.4421 30.9426L11.3411 30.8725Z" fill="#EF597D"/>
<path d="M11.4421 30.9427L13.3527 29.8204L13.4537 29.8962L11.5431 31.0184L11.4421 30.9427Z" fill="#EF597D"/>
<path d="M11.543 31.0183L13.4536 29.8961L13.5546 29.9803L11.644 31.1025L11.543 31.0183Z" fill="#EF597D"/>
<path d="M11.644 31.1054L13.5546 29.9832L13.6584 30.0701L11.745 31.1924L11.644 31.1026" fill="#EF597D"/>
<path d="M11.7451 31.1923L13.6585 30.0701L13.7595 30.1655L11.8461 31.2877C11.8125 31.2568 11.7788 31.2232 11.7451 31.1951" fill="#EF597D"/>
<path d="M11.8459 31.2849L13.7593 30.1627L13.8547 30.2581L11.9413 31.3803C11.9105 31.3467 11.8796 31.3158 11.8459 31.2849Z" fill="#EF597D"/>
<path d="M11.9414 31.3859L13.8548 30.2637L13.9474 30.3619L12.0368 31.4841C12.0059 31.4504 11.9751 31.4168 11.9414 31.3859Z" fill="#EF597D"/>
<path d="M12.0369 31.4786L13.9475 30.3563C13.9783 30.3872 14.0092 30.4209 14.0372 30.4545L12.1238 31.5767L12.0369 31.4786Z" fill="#EF597D"/>
<path d="M12.1238 31.5767L14.0372 30.4545L14.127 30.5583L12.2136 31.6805C12.1855 31.644 12.1546 31.6104 12.1238 31.5767Z" fill="#EF597D"/>
<path d="M12.2136 31.6805L14.127 30.5582C14.1551 30.5919 14.1859 30.6284 14.214 30.6676L12.3006 31.7899L12.2136 31.6805Z" fill="#EF597D"/>
<path d="M12.3005 31.79L14.2139 30.6677L14.3149 30.7996L12.4043 31.9218C12.3707 31.8769 12.337 31.832 12.3005 31.79Z" fill="#EF597D"/>
<path d="M12.4043 31.9218L14.3149 30.7996C14.3654 30.8669 14.4131 30.937 14.4608 31.0072L12.5474 32.1294C12.5025 32.0593 12.452 31.9891 12.4043 31.9218Z" fill="#EF597D"/>
<path d="M12.5474 32.1294L14.4608 31.0072C14.5187 31.0951 14.5749 31.1886 14.6291 31.2878L12.7185 32.41C12.6624 32.3174 12.6063 32.2276 12.5474 32.1294Z" fill="#EF597D"/>
<path d="M12.7129 32.3987L14.6235 31.2765C14.6628 31.3438 14.702 31.4084 14.7357 31.4785L12.8251 32.6007C12.7886 32.5334 12.7522 32.4661 12.7129 32.3987Z" fill="#EF597D"/>
<path d="M12.8308 32.6007L14.7414 31.4785L14.8144 31.6132L12.9009 32.7354C12.8785 32.6905 12.8561 32.6456 12.8308 32.6007Z" fill="#EF597D"/>
<path d="M12.9009 32.7354L14.8143 31.6132C14.8339 31.6552 14.8536 31.6945 14.8704 31.7338L12.9598 32.856L12.9009 32.7354Z" fill="#EF597D"/>
<path d="M12.96 32.856L14.8706 31.7338C14.8902 31.7698 14.9071 31.8073 14.9211 31.846L13.0105 32.9682L12.96 32.856Z" fill="#EF597D"/>
<path d="M13.0103 32.9683L14.9209 31.8461C14.9377 31.8825 14.9545 31.919 14.9685 31.9555L13.058 33.0777L13.0103 32.9683Z" fill="#EF597D"/>
<path d="M13.0581 33.0693L14.9687 31.947C14.9855 31.9835 14.9996 32.02 15.0136 32.0564L13.1002 33.1787L13.0581 33.0693Z" fill="#EF597D"/>
<path d="M13.1001 33.187L15.0135 32.0648L15.0556 32.177L13.1422 33.2993C13.1302 33.2611 13.1161 33.2237 13.1001 33.187Z" fill="#EF597D"/>
<path d="M13.1421 33.2994L15.0555 32.1771C15.0695 32.2164 15.0835 32.2557 15.0948 32.295L13.1842 33.4172L13.1421 33.2994Z" fill="#EF597D"/>
<path d="M13.1843 33.4172L15.0949 32.2949C15.1089 32.3342 15.123 32.3735 15.1342 32.4128L13.2208 33.535C13.2208 33.4957 13.1984 33.4564 13.1843 33.4172Z" fill="#EF597D"/>
<path d="M13.2207 33.5349L15.1341 32.4127L15.1706 32.5334L13.2572 33.6556C13.2572 33.6163 13.2347 33.5742 13.2207 33.5349Z" fill="#EF597D"/>
<path d="M13.2573 33.6557L15.1707 32.5334C15.1707 32.5727 15.1904 32.6148 15.2016 32.6541L13.2882 33.7763C13.2882 33.737 13.2685 33.695 13.2573 33.6557Z" fill="#EF597D"/>
<path d="M13.2881 33.7763L15.2015 32.6541C15.2015 32.6961 15.2211 32.7354 15.2295 32.7747L13.3161 33.8969C13.3161 33.8576 13.2993 33.8184 13.2881 33.7763Z" fill="#EF597D"/>
<path d="M13.3162 33.9109L15.238 32.7887L15.2632 32.9093L13.3498 34.0316L13.3246 33.9109" fill="#EF597D"/>
<path d="M13.3413 34.0175L15.2547 32.8953C15.2547 32.9317 15.2547 32.971 15.2743 33.0103L13.3609 34.1325C13.3609 34.0932 13.3609 34.054 13.3413 34.0175Z" fill="#EF597D"/>
<path d="M13.3611 34.1326L15.2745 33.0104L15.2913 33.1254L13.3779 34.2476L13.3611 34.1326Z" fill="#EF597D"/>
<path d="M13.3779 34.2476L15.2913 33.1254C15.2913 33.1618 15.2913 33.2011 15.2913 33.2376L13.3779 34.3598C13.3779 34.3233 13.3779 34.2841 13.3779 34.2476Z" fill="#EF597D"/>
<path d="M13.3892 34.3598L15.3026 33.2375V33.3498L13.392 34.472C13.392 34.4327 13.392 34.3963 13.392 34.3598" fill="#EF597D"/>
<path d="M13.4003 34.4721L15.3109 33.3499C15.3109 33.3863 15.3109 33.4228 15.3109 33.4593L13.3975 34.5815C13.3975 34.545 13.3975 34.5086 13.3975 34.4721" fill="#EF597D"/>
<path d="M13.4031 34.5815L15.3165 33.4592C15.3165 33.4929 15.3165 33.5294 15.3165 33.563L13.4059 34.6853C13.4059 34.6516 13.4059 34.6151 13.4059 34.5815" fill="#EF597D"/>
<path d="M11.125 30.7351C12.3903 31.4645 13.4087 33.2321 13.4059 34.6853L13.3835 42.6504C13.3835 44.1008 12.351 44.6872 11.0885 43.9578L9.32661 42.9393L8.39796 44.2439C8.22402 44.488 7.91821 44.4852 7.61521 44.3113C7.25681 44.0809 6.98306 43.7402 6.83526 43.3405L5.91784 40.9726L4.15594 39.957C2.89343 39.2276 1.8722 37.4572 1.87501 36.0068L1.89745 28.0417C1.89745 26.5885 2.9299 26.0049 4.19522 26.7343L11.125 30.7351Z" fill="#FFCADC"/>
<path d="M6.73413 32.8336L7.30927 32.4998L7.49164 32.814L6.91649 33.1478L6.73413 32.8336Z" fill="#B13B5D"/>
<path d="M4.02954 31.2709L4.59066 30.937C4.9666 30.7238 5.45758 30.7939 5.94855 31.0745C6.51747 31.4279 6.98602 31.9216 7.30926 32.5082L6.74814 32.842C6.4267 32.2591 5.9611 31.7684 5.39586 31.4168C4.89366 31.125 4.40268 31.0577 4.02954 31.2709Z" fill="#B13B5D"/>
<path d="M4.02954 31.2709L4.59066 30.9371C4.63844 30.909 4.68927 30.8864 4.74216 30.8698L4.18104 31.2008C4.12854 31.2196 4.07784 31.2431 4.02954 31.2709Z" fill="#B13B5D"/>
<path d="M4.18115 31.2008L4.74227 30.8697C4.78494 30.8533 4.8291 30.8411 4.87413 30.8333L4.31301 31.1671C4.26835 31.1754 4.2243 31.1866 4.18115 31.2008Z" fill="#B13B5D"/>
<path d="M4.31299 31.1671L4.8741 30.8332C4.9101 30.8249 4.94668 30.8193 4.98352 30.8164L4.42241 31.1503C4.38556 31.1531 4.34899 31.1588 4.31299 31.1671Z" fill="#B13B5D"/>
<path d="M4.42236 31.1503L4.98347 30.8164H5.08166L4.50652 31.1475H4.41113" fill="#B13B5D"/>
<path d="M4.51782 31.1447L5.09296 30.8248H5.18274L4.62163 31.1587H4.52904" fill="#B13B5D"/>
<path d="M4.61035 31.1503L5.17147 30.8164H5.25844L4.69732 31.1503C4.66934 31.1475 4.64115 31.1475 4.61316 31.1503" fill="#B13B5D"/>
<path d="M4.69446 31.1587L5.25557 30.8248H5.33693L4.77582 31.1587H4.69165" fill="#B13B5D"/>
<path d="M4.77856 31.1727L5.33968 30.8389L5.42104 30.8557L4.85993 31.1896L4.78137 31.1727" fill="#B13B5D"/>
<path d="M4.85718 31.1896L5.41829 30.8557L5.49685 30.8782L4.93573 31.212L4.85718 31.1896Z" fill="#B13B5D"/>
<path d="M4.93579 31.212L5.49691 30.8782L5.57546 30.9034L5.01435 31.2373L4.93579 31.212Z" fill="#B13B5D"/>
<path d="M5.01428 31.2372L5.5754 30.9033L5.65115 30.9314L5.09003 31.2652L5.01147 31.2372" fill="#B13B5D"/>
<path d="M5.09277 31.2653L5.65389 30.9314L5.73244 30.9651L5.17133 31.2989L5.09558 31.2653" fill="#B13B5D"/>
<path d="M5.16858 31.299L5.72969 30.9651L5.80544 31.0016L5.24433 31.3354L5.16577 31.299" fill="#B13B5D"/>
<path d="M5.24707 31.3355L5.80819 31.0016L5.88674 31.0409L5.32563 31.3747L5.24707 31.3355Z" fill="#B13B5D"/>
<path d="M5.32568 31.386L5.8868 31.0521L5.94852 31.0858H5.96536L5.40424 31.4197H5.3846L5.32568 31.386Z" fill="#B13B5D"/>
<path d="M5.4182 31.4196L5.97932 31.0857L6.06068 31.1362L5.48554 31.4701L5.40698 31.4196" fill="#B13B5D"/>
<path d="M5.48291 31.4701L6.05805 31.1362L6.13941 31.1895L5.5783 31.5234C5.55227 31.504 5.5251 31.4862 5.49694 31.4701" fill="#B13B5D"/>
<path d="M5.56409 31.5234L6.1252 31.1896L6.20656 31.2485L5.64545 31.5824L5.56128 31.5234" fill="#B13B5D"/>
<path d="M5.64843 31.5823L6.20954 31.2484L6.29652 31.3129L5.72138 31.6468L5.63721 31.5823" fill="#B13B5D"/>
<path d="M5.73242 31.6469L6.30756 31.313L6.39173 31.3831L5.83062 31.717L5.74364 31.6469" fill="#B13B5D"/>
<path d="M5.81957 31.717L6.38069 31.3832L6.46766 31.4589L5.89252 31.7928L5.80835 31.717" fill="#B13B5D"/>
<path d="M5.90356 31.7927L6.47871 31.4589L6.56287 31.5374L6.00176 31.8713L5.91479 31.7927" fill="#B13B5D"/>
<path d="M5.97949 31.8713L6.54061 31.5375C6.56866 31.5627 6.59391 31.5908 6.62197 31.6188L6.06085 31.9499L5.97949 31.8713Z" fill="#B13B5D"/>
<path d="M6.07202 31.947L6.63314 31.616L6.71169 31.6973L6.15058 32.0284L6.07483 31.947" fill="#B13B5D"/>
<path d="M6.14782 32.0313L6.70894 31.7002C6.73419 31.7254 6.75663 31.7535 6.78188 31.7816L6.22077 32.1154L6.14502 32.0313" fill="#B13B5D"/>
<path d="M6.22339 32.1154L6.7845 31.7815L6.85745 31.8657L6.29633 32.1995L6.22339 32.1154Z" fill="#B13B5D"/>
<path d="M6.29639 32.1996L6.8575 31.8657L6.93045 31.9555L6.36933 32.2894C6.34408 32.2585 6.31883 32.2304 6.29639 32.1996Z" fill="#B13B5D"/>
<path d="M6.36938 32.2893L6.9305 31.9554L7.01186 32.0621L6.45075 32.3959L6.37219 32.2893" fill="#B13B5D"/>
<path d="M6.44787 32.396L7.00898 32.0621C7.04545 32.1098 7.07912 32.1603 7.11559 32.2108L6.54045 32.5447C6.50678 32.4942 6.47031 32.4437 6.43384 32.396" fill="#B13B5D"/>
<path d="M6.55444 32.5447L7.12959 32.2108C7.18944 32.2987 7.24555 32.3922 7.29792 32.4914L6.72278 32.8252C6.67041 32.7317 6.6143 32.6382 6.55444 32.5447Z" fill="#B13B5D"/>
<path d="M6.7229 32.814L7.29804 32.4801V32.4997L6.73693 32.8336L6.7229 32.814Z" fill="#B13B5D"/>
<path d="M6.9165 33.1479L7.49165 32.814L7.67401 32.7102L7.09887 33.0441L6.9165 33.1479Z" fill="#4B7781"/>
<path d="M7.10181 33.044L7.66292 32.7101C8.03887 32.4969 8.52704 32.567 9.01801 32.8476L8.4569 33.1814C7.96592 32.8981 7.47495 32.8307 7.10181 33.044Z" fill="#B13B5D"/>
<path d="M7.10181 33.044L7.66292 32.7102C7.71071 32.6821 7.76154 32.6595 7.81442 32.6428L7.25331 32.9739C7.20126 32.9938 7.15064 33.0172 7.10181 33.044Z" fill="#B13B5D"/>
<path d="M7.25061 32.9739L7.81172 32.6428C7.85439 32.6264 7.89856 32.6142 7.94358 32.6063L7.38247 32.9402C7.33689 32.9484 7.2919 32.9597 7.2478 32.9739" fill="#B13B5D"/>
<path d="M7.38232 32.9402L7.94344 32.6063L8.05286 32.5895L7.49174 32.9233C7.4558 32.926 7.42014 32.9316 7.38513 32.9402" fill="#B13B5D"/>
<path d="M7.4917 32.9233L8.05281 32.5895H8.15101L7.58989 32.9205H7.4917" fill="#B13B5D"/>
<path d="M7.59009 32.9177L8.1512 32.5867H8.24098L7.67987 32.9205H7.59009" fill="#B13B5D"/>
<path d="M7.67981 32.9233L8.24092 32.5895H8.32509L7.76398 32.9233C7.73505 32.9206 7.70593 32.9206 7.677 32.9233" fill="#B13B5D"/>
<path d="M7.76684 32.9318L8.32795 32.5979L8.41212 32.6119L7.83698 32.9458L7.75562 32.9318" fill="#B13B5D"/>
<path d="M7.84814 32.9458L8.42329 32.6119L8.50184 32.6288L7.94073 32.9626C7.91267 32.9626 7.88742 32.9486 7.85937 32.9458" fill="#B13B5D"/>
<path d="M7.94336 32.9626L8.50447 32.6288L8.58303 32.6512L8.02192 32.9851L7.94336 32.9626Z" fill="#B13B5D"/>
<path d="M8.00806 32.9851L8.56917 32.6512L8.64773 32.6765L8.08661 33.0104L8.00806 32.9851Z" fill="#B13B5D"/>
<path d="M8.08667 33.0103L8.64778 32.6764L8.72634 32.7044L8.16523 33.0383L8.08948 33.0103" fill="#B13B5D"/>
<path d="M8.16223 33.0383L8.72334 32.7045L8.79909 32.7381L8.23798 33.072L8.15942 33.0383" fill="#B13B5D"/>
<path d="M8.24096 33.0692L8.80207 32.7354L8.88063 32.7718L8.30549 33.1057L8.22974 33.0692" fill="#B13B5D"/>
<path d="M8.31665 33.1085L8.89179 32.7887L8.96754 32.828L8.40643 33.1618L8.32787 33.1226" fill="#B13B5D"/>
<path d="M8.39526 33.1478L8.95638 32.814L9.0181 32.8476L8.45699 33.1815L8.39526 33.1478Z" fill="#B13B5D"/>
<path d="M8.45679 33.1815L9.0179 32.8477C9.58315 33.1992 10.0488 33.69 10.3702 34.2729C11.1137 35.5634 11.1109 36.955 10.3702 37.3843L9.80907 37.7181C10.5582 37.2889 10.5638 35.8973 9.80907 34.6067C9.48703 34.0243 9.02156 33.5337 8.45679 33.1815Z" fill="#B13B5D"/>
<path d="M8.45679 33.1815L9.0179 32.8477H9.03754L8.47643 33.1815H8.45959" fill="#B13B5D"/>
<path d="M8.47351 33.1928L9.03462 32.8589L9.11318 32.9094L8.55206 33.2404L8.4707 33.1928" fill="#B13B5D"/>
<path d="M8.55493 33.2405L9.11605 32.9094L9.19741 32.9627L8.63629 33.2966L8.55493 33.2405Z" fill="#B13B5D"/>
<path d="M8.63623 33.2965L9.19735 32.9626L9.28151 33.0216L8.71759 33.3498L8.63623 33.2909" fill="#B13B5D"/>
<path d="M8.71777 33.3499L9.29292 33.016L9.37708 33.0805L8.81597 33.4144L8.7318 33.3499" fill="#B13B5D"/>
<path d="M8.80187 33.42L9.36299 33.0862L9.44996 33.1563L8.87481 33.4902L8.78784 33.42" fill="#B13B5D"/>
<path d="M8.88892 33.4901L9.46406 33.1562L9.54823 33.232L8.98711 33.5659C8.95953 33.539 8.9305 33.5138 8.90014 33.4901" fill="#B13B5D"/>
<path d="M8.97583 33.5659L9.53694 33.2321L9.62111 33.3106L9.06 33.6445L8.97583 33.5659Z" fill="#B13B5D"/>
<path d="M9.06567 33.6444L9.62679 33.3105L9.71096 33.3919L9.14984 33.723L9.06848 33.6444" fill="#B13B5D"/>
<path d="M9.14123 33.723L9.70235 33.392L9.7781 33.4733L9.21698 33.8044L9.13843 33.723" fill="#B13B5D"/>
<path d="M9.21997 33.8043L9.78109 33.4733L9.85684 33.5546L9.29572 33.8885L9.22278 33.8043" fill="#B13B5D"/>
<path d="M9.29297 33.8886L9.85408 33.5547L9.92703 33.6389L9.36591 33.9727L9.29297 33.8886Z" fill="#B13B5D"/>
<path d="M9.36583 33.9727L9.92695 33.6388C9.9497 33.67 9.97405 33.6999 9.99989 33.7286L9.42475 34.0624C9.40231 34.0316 9.37706 34.0035 9.35181 33.9727" fill="#B13B5D"/>
<path d="M9.43872 34.0625L10.0139 33.7286C10.0391 33.7651 10.0672 33.7988 10.0952 33.8352L9.52008 34.1691C9.49483 34.1326 9.46678 34.099 9.43872 34.0625Z" fill="#B13B5D"/>
<path d="M9.52002 34.1691L10.0952 33.8352L10.2018 33.9867L9.64066 34.3206L9.53124 34.1691" fill="#B13B5D"/>
<path d="M9.62671 34.3206L10.1878 33.9867C10.2439 34.0737 10.3 34.1606 10.3534 34.2504L9.79224 34.5843C9.73893 34.4945 9.68282 34.4047 9.62671 34.3206Z" fill="#B13B5D"/>
<path d="M9.79504 34.5843L10.3562 34.2505V34.2729L10.4291 34.4048L9.86799 34.7387L9.79224 34.6068V34.5843" fill="#B13B5D"/>
<path d="M9.88207 34.7527L10.4432 34.4188L10.5049 34.5367L9.92977 34.8705L9.87085 34.7527" fill="#B13B5D"/>
<path d="M9.94092 34.8564L10.5161 34.5226C10.5329 34.5562 10.5469 34.5899 10.5638 34.6208L9.98861 34.9546L9.94092 34.8564Z" fill="#B13B5D"/>
<path d="M9.98853 34.9546L10.5637 34.6207L10.6058 34.7161L10.0306 35.05C10.0306 35.0191 10.0026 34.9855 9.98853 34.9546Z" fill="#B13B5D"/>
<path d="M10.0308 35.0501L10.6059 34.7162L10.6452 34.806L10.07 35.1398C10.07 35.109 10.0448 35.0809 10.0308 35.0501Z" fill="#B13B5D"/>
<path d="M10.0701 35.1398L10.6452 34.8059L10.6817 34.8985L10.1206 35.2324L10.0813 35.1398" fill="#B13B5D"/>
<path d="M10.1094 35.2324L10.6705 34.8986C10.6705 34.9294 10.6957 34.9603 10.707 34.9939L10.1458 35.325L10.1122 35.2324" fill="#B13B5D"/>
<path d="M10.1428 35.3137L10.7039 34.9827L10.7376 35.0781L10.1765 35.4119L10.1428 35.3137Z" fill="#B13B5D"/>
<path d="M10.1877 35.4232L10.7489 35.0894C10.7489 35.123 10.7685 35.1567 10.7797 35.1876L10.2186 35.5214C10.2186 35.4877 10.199 35.4569 10.1877 35.4232Z" fill="#B13B5D"/>
<path d="M10.2074 35.5214L10.7685 35.1875C10.7685 35.224 10.7881 35.2548 10.7966 35.2885L10.2355 35.6224C10.2355 35.5887 10.2158 35.555 10.2046 35.5214" fill="#B13B5D"/>
<path d="M10.2383 35.6223L10.7994 35.2885C10.7994 35.3249 10.819 35.3586 10.8275 35.3923L10.2663 35.7261L10.2383 35.6223Z" fill="#B13B5D"/>
<path d="M10.2664 35.7262L10.8275 35.3923C10.8275 35.426 10.8443 35.4597 10.8499 35.4933L10.2888 35.8272C10.2888 35.7935 10.2888 35.7599 10.2664 35.7262Z" fill="#B13B5D"/>
<path d="M10.2888 35.8272L10.8499 35.4933C10.8499 35.527 10.864 35.5606 10.8724 35.5915L10.3113 35.9253C10.3113 35.8917 10.3113 35.8608 10.2916 35.8272" fill="#B13B5D"/>
<path d="M10.3083 35.9254L10.8695 35.5916L10.8863 35.6897L10.3252 36.0236L10.3083 35.9254Z" fill="#B13B5D"/>
<path d="M10.3252 36.0236L10.8863 35.6897C10.8863 35.7234 10.8863 35.7542 10.9003 35.7879L10.3252 36.1218C10.3252 36.0881 10.3252 36.0572 10.3252 36.0236Z" fill="#B13B5D"/>
<path d="M10.3394 36.1217L10.9145 35.7878V35.8804L10.3534 36.2143C10.3534 36.1834 10.3534 36.1526 10.3534 36.1217" fill="#B13B5D"/>
<path d="M10.3506 36.2144L10.9117 35.8805V35.9759L10.3506 36.3069C10.3506 36.2789 10.3506 36.2452 10.3506 36.2144Z" fill="#B13B5D"/>
<path d="M10.3562 36.3069L10.9173 35.9758C10.9173 36.0067 10.9173 36.0376 10.9173 36.0684L10.3562 36.3995C10.3562 36.3714 10.3562 36.3406 10.3562 36.3069Z" fill="#B13B5D"/>
<path d="M10.3617 36.3995L10.9228 36.0685C10.9228 36.0965 10.9228 36.1274 10.9228 36.1583L10.3477 36.4921V36.3995" fill="#B13B5D"/>
<path d="M10.3618 36.4921L10.937 36.1554C10.937 36.1863 10.937 36.2171 10.937 36.248L10.3758 36.579V36.4893" fill="#B13B5D"/>
<path d="M10.3618 36.5819L10.9229 36.2509C10.9229 36.2789 10.9229 36.3098 10.9229 36.3406L10.3618 36.6745C10.3618 36.6436 10.3618 36.6128 10.3618 36.5819Z" fill="#B13B5D"/>
<path d="M10.3562 36.6744L10.9173 36.3406V36.4304L10.3562 36.7642C10.3577 36.7343 10.3577 36.7043 10.3562 36.6744Z" fill="#B13B5D"/>
<path d="M10.3448 36.7643L10.906 36.4304C10.906 36.4641 10.906 36.495 10.906 36.5258L10.3308 36.8569C10.3308 36.826 10.3308 36.7951 10.3448 36.7643Z" fill="#B13B5D"/>
<path d="M10.3308 36.8568L10.9059 36.5258C10.9059 36.5566 10.9059 36.5875 10.8863 36.6183L10.3252 36.9522L10.342 36.8568" fill="#B13B5D"/>
<path d="M10.3141 36.9522L10.8752 36.6183L10.8499 36.7165L10.2888 37.0503L10.3141 36.9522Z" fill="#B13B5D"/>
<path d="M10.2889 37.0504L10.85 36.7166L10.8164 36.8204L10.2412 37.1514C10.255 37.1184 10.2672 37.0847 10.2777 37.0504" fill="#B13B5D"/>
<path d="M10.2524 37.1514L10.8276 36.8203C10.8135 36.8568 10.7967 36.8933 10.7799 36.9297L10.2188 37.2636C10.2356 37.2271 10.2496 37.1907 10.2636 37.1514" fill="#B13B5D"/>
<path d="M10.2075 37.2777L10.7686 36.9438C10.747 36.9893 10.7227 37.0333 10.6956 37.0757L10.1345 37.4068C10.1611 37.3651 10.1854 37.322 10.2075 37.2777Z" fill="#B13B5D"/>
<path d="M10.1344 37.3927L10.6955 37.0616C10.6114 37.1941 10.4969 37.3047 10.3617 37.3843L9.80054 37.7182C9.93799 37.6392 10.0537 37.5274 10.1372 37.3927" fill="#B13B5D"/>
<path d="M8.45684 33.1814C9.02058 33.534 9.48506 34.0245 9.80632 34.6067C10.5526 35.8972 10.547 37.2888 9.80632 37.7181L9.62396 37.8219L6.90816 38.9441L4.20079 34.6964L4.01562 34.3822C3.26933 33.0917 3.27495 31.7001 4.01562 31.2708C4.38876 31.0576 4.87973 31.125 5.37071 31.4083C5.93596 31.7599 6.40156 32.2506 6.723 32.8335L6.90255 33.1478L7.08492 33.044C7.47489 32.8307 7.96587 32.8981 8.45684 33.1814Z" fill="#EF597D"/>
<path opacity="0.3" d="M18.8965 17.027L23.0656 19.4342L35.8786 11.7665L31.9003 9.49402L18.8965 17.027Z" fill="#2B99B2"/>
</g>
<defs>
<linearGradient id="paint0_linear_2311_41769" x1="34.2092" y1="21.5328" x2="20.4142" y2="45.4279" gradientUnits="userSpaceOnUse">
<stop stop-color="white"/>
<stop offset="1" stop-color="#94EBFF"/>
</linearGradient>
<clipPath id="clip0_2311_41769">
<rect width="56.8634" height="60" fill="white" transform="translate(1.875)"/>
</clipPath>
</defs>
</svg>
