<svg width="60" height="60" viewBox="0 0 60 60" fill="none" xmlns="http://www.w3.org/2000/svg">
<g clip-path="url(#clip0_2311_41786)">
<path d="M25.991 27.0671L30.2668 60L6.5625 46.3131L12.3447 19.1902L25.991 27.0671Z" fill="url(#paint0_linear_2311_41786)"/>
<path d="M25.991 27.0672L48.1889 14.2323L52.6929 46.9674L30.2667 60.0001L25.991 27.0672Z" fill="#58C6E9"/>
<path d="M12.3447 19.1902L33.792 6.72559L47.4383 14.6025L25.9911 27.0671L12.3447 19.1902Z" fill="#4CABC9"/>
<path d="M20.1988 17.0067L26.0038 27.1255L12.3447 19.1902L17.8885 15.6727L20.1988 17.0067Z" fill="#2F6A7D"/>
<path d="M20.1987 17.0067L41.6485 4.54211L48.1889 14.2323L26.0037 27.1255L20.1987 17.0067Z" fill="#2B99B2"/>
<path d="M17.8884 15.6727L39.3382 3.20813L41.6485 4.54208L20.1988 17.0067L17.8884 15.6727Z" fill="#4CABC9"/>
<path d="M39.7085 26.2606C44.2302 23.6511 47.9075 25.7534 47.9227 30.9447C47.9379 36.136 44.2835 42.4684 39.7617 45.0806C35.24 47.6927 31.5602 45.5878 31.545 40.399C31.5298 35.2103 35.1842 28.8728 39.7085 26.2606Z" fill="#C2F6FF"/>
<path d="M41.7905 33.1256L40.7432 32.5093L44.253 30.4501L45.2446 30.8888L41.7905 33.1256Z" fill="#C54167"/>
<path d="M39.2619 42.2198L38.1309 41.7075L37.7708 38.9204L38.7852 38.5679L39.2619 42.2198Z" fill="#F9BBD3"/>
<path d="M37.786 31.3884L36.7361 30.9421L40.1014 29.0756L41.3364 29.2911L37.786 31.3884Z" fill="#C54167"/>
<path d="M41.3212 29.3418L41.7853 32.9176L45.2571 30.9167L45.7288 34.5508L42.2596 36.5796L42.7287 40.196L39.2011 42.2654L38.7522 38.6288L35.2753 40.6677L34.8062 37.0589L38.2754 34.9794L37.8012 31.363L41.3212 29.3418Z" fill="#E54C78"/>
<path d="M37.8013 31.3631L41.3162 29.3013L41.7854 32.9177" fill="#E54C78"/>
<path d="M35.2703 40.6221L34.1874 40.054L33.7385 36.605L34.791 36.9144L35.2703 40.6221Z" fill="#F9BBD3"/>
<path d="M34.791 37.0412L33.7385 36.605L37.1901 34.5889L38.2324 34.987L34.791 37.0412Z" fill="#C54167"/>
<path d="M38.2755 35.0099L37.2103 34.5966L36.7361 30.9421L37.786 31.3885L38.2755 35.0099Z" fill="#F9BBD3"/>
<path d="M20.2089 13.7986L20.2013 17.0472L17.8884 15.7133L17.8986 12.4646L20.2089 13.7986Z" fill="#C2F6FF"/>
<path d="M20.2088 13.7986L41.6585 1.33398L41.6484 4.58264L20.2012 17.0472L20.2088 13.7986Z" fill="#2F6A7D"/>
<path d="M17.8987 12.4646L39.3484 0L41.6588 1.33395L20.209 13.7986L17.8987 12.4646Z" fill="#8DE7FC"/>
<path d="M12.3447 19.1902L26.0038 27.1204L16.6687 36.8968L12.3447 19.1902Z" fill="url(#paint1_linear_2311_41786)"/>
<path d="M16.6687 36.8967L16.7372 52.189L30.2669 60L26.0038 27.1254L16.6687 36.8967Z" fill="url(#paint2_linear_2311_41786)"/>
<path d="M18.9207 16.3066L18.416 22.6949L26.0038 27.1254L20.2014 17.0472L18.9207 16.3066Z" fill="#0F4D5B"/>
</g>
<defs>
<linearGradient id="paint0_linear_2311_41786" x1="27.9007" y1="28.1703" x2="14.7108" y2="51.0174" gradientUnits="userSpaceOnUse">
<stop stop-color="white"/>
<stop offset="0.17" stop-color="#E0FAFF"/>
<stop offset="0.42" stop-color="#BAF3FF"/>
<stop offset="0.65" stop-color="#9EEFFF"/>
<stop offset="0.85" stop-color="#8DECFF"/>
<stop offset="1" stop-color="#87EBFF"/>
</linearGradient>
<linearGradient id="paint1_linear_2311_41786" x1="19.263" y1="22.5885" x2="17.2063" y2="35.4994" gradientUnits="userSpaceOnUse">
<stop stop-color="#3FB9E7"/>
<stop offset="0.52" stop-color="#91E5FF"/>
</linearGradient>
<linearGradient id="paint2_linear_2311_41786" x1="23.4678" y1="27.1254" x2="23.4678" y2="60" gradientUnits="userSpaceOnUse">
<stop stop-color="white"/>
<stop offset="0.12" stop-color="#EFFCFF"/>
<stop offset="0.52" stop-color="#BEF3FF"/>
<stop offset="0.83" stop-color="#9FEDFF"/>
<stop offset="1" stop-color="#94EBFF"/>
</linearGradient>
<clipPath id="clip0_2311_41786">
<rect width="46.1304" height="60" fill="white" transform="translate(6.5625)"/>
</clipPath>
</defs>
</svg>
