<svg width="60" height="60" viewBox="0 0 60 60" fill="none" xmlns="http://www.w3.org/2000/svg">
<g clip-path="url(#clip0_2311_41764)">
<path d="M21.9336 28.6113C33.9821 34.0878 44.1321 32.823 46.6226 28.2279C48.5316 24.7072 45.7333 19.6218 44.9144 18.1823L21.9336 28.6113Z" fill="#EF597D"/>
<path d="M58.0531 44.2195L36.6501 56.6566L2.823 37.1287L24.226 24.689L58.0531 44.2195Z" fill="#F9BBD3"/>
<path d="M58.0531 44.2195L58.0427 47.5602L36.6396 59.9973L36.6501 56.6566L58.0531 44.2195Z" fill="#E54C78"/>
<path d="M36.65 56.6566L36.6396 59.9974L2.8125 40.4694L2.82293 37.1287L36.65 56.6566Z" fill="#FFCADC"/>
<path d="M13.6978 16.0308L13.7526 35.4831L11.5333 36.7662L11.4785 17.3112L13.6978 16.0308Z" fill="#EF597D"/>
<path d="M11.5332 36.7662L9.36604 35.5066L9.31128 16.0516L11.4784 17.3113L11.5332 36.7662Z" fill="#FFCADC"/>
<path d="M11.4784 17.3112L9.31128 16.0516L11.5306 14.7711L13.6978 16.0307L11.4784 17.3112Z" fill="#7FCADB"/>
<path opacity="0.3" d="M9.32446 20.5868L9.33489 24.2744L11.5021 25.534L11.4786 20.6624L9.32446 20.5868Z" fill="#EF9CBD"/>
<path d="M11.5359 21.4474L11.502 25.534L13.7265 24.2431L13.7526 21.7499L11.5359 21.4474Z" fill="#B13B5D"/>
<path d="M51.2464 26.9969L35.6876 36.0385L10.5918 21.549L26.1505 12.5074L51.2464 26.9969Z" fill="#C54167"/>
<path d="M51.2466 26.9969L51.1996 43.7006L35.6409 52.7422L35.6878 36.0385L51.2466 26.9969Z" fill="#B13B5D"/>
<path d="M35.6877 36.0386L35.6408 52.7422L10.5449 38.2527L10.5919 21.5491L35.6877 36.0386Z" fill="url(#paint0_linear_2311_41764)"/>
<path d="M28.2134 38.2058L30.3779 39.4811L28.2134 38.2058Z" fill="#FFCADC"/>
<path d="M25.3814 41.1423V46.7649L19.1016 43.1399L19.1198 37.5277L25.3814 41.1423Z" fill="#952142"/>
<path d="M19.1016 43.1399L23.7932 40.2242L25.3814 41.1422V46.7649L19.1016 43.1399Z" fill="#EF597D"/>
<path d="M32.5975 31.48L32.6523 50.9349L30.4329 52.218L30.3782 32.7631L32.5975 31.48Z" fill="#EF597D"/>
<path d="M30.4329 52.2181L28.2683 50.9585L28.2109 31.5035L30.3781 32.7632L30.4329 52.2181Z" fill="#FFCADC"/>
<path d="M30.3781 32.7631L28.2109 31.5035L30.4303 30.223L32.5974 31.48L30.3781 32.7631Z" fill="#7FCADB"/>
<path opacity="0.3" d="M28.2239 36.0386L28.2343 39.7261L30.4015 40.9858L30.378 36.1142L28.2239 36.0386Z" fill="#EF9CBD"/>
<path d="M30.4381 36.8992L30.4016 40.9858L32.6262 39.6948L32.6522 37.2017L30.4381 36.8992Z" fill="#B13B5D"/>
<path d="M15.7164 21.7629L15.7712 41.2205L13.5518 42.501L13.4971 23.046L15.7164 21.7629Z" fill="#EF597D"/>
<path d="M13.5518 42.5011L11.3872 41.2414L11.3298 21.7865L13.497 23.0461L13.5518 42.5011Z" fill="#FFCADC"/>
<path d="M13.497 23.0461L11.3298 21.7865L13.5492 20.506L15.7163 21.763L13.497 23.0461Z" fill="#7FCADB"/>
<path opacity="0.3" d="M11.343 26.3215L11.3534 30.0091L13.5206 31.2687L13.4971 26.3972L11.343 26.3215Z" fill="#EF9CBD"/>
<path d="M13.557 27.1821L13.5205 31.2687L15.745 29.9778L15.7711 27.4846L13.557 27.1821Z" fill="#B13B5D"/>
<path d="M42.8673 32.1111L42.922 51.566L40.7027 52.8465L40.6479 33.3916L42.8673 32.1111Z" fill="#EF597D"/>
<path d="M40.7027 52.8465L38.5382 51.5869L38.4834 32.132L40.648 33.3916L40.7027 52.8465Z" fill="#FFCADC"/>
<path d="M40.648 33.3915L38.4834 32.1319L40.7001 30.8514L42.8673 32.1111L40.648 33.3915Z" fill="#7FCADB"/>
<path opacity="0.3" d="M38.4939 36.6671V40.3469L40.6715 41.6143L40.648 36.7427L38.4939 36.6671Z" fill="#EF9CBD"/>
<path d="M40.7079 37.5277L40.6714 41.6143L42.8985 40.3286L42.922 37.8302L40.7079 37.5277Z" fill="#B13B5D"/>
<path d="M50.5762 27.4065L50.6309 46.8614L48.4116 48.1419L48.3542 28.687L50.5762 27.4065Z" fill="#EF597D"/>
<path d="M48.4116 48.1419L46.2445 46.8849L46.1897 27.4274L48.3543 28.687L48.4116 48.1419Z" fill="#FFCADC"/>
<path d="M48.3543 28.6869L46.1897 27.4273L48.409 26.1469L50.5762 27.4065L48.3543 28.6869Z" fill="#7FCADB"/>
<path opacity="0.3" d="M46.2029 31.9651V35.6448L48.3779 36.9123L48.3544 32.0407L46.2029 31.9651Z" fill="#EF9CBD"/>
<path d="M48.4142 32.8257L48.3777 36.9123L50.6048 35.624L50.6309 33.1282L48.4142 32.8257Z" fill="#B13B5D"/>
<path d="M58.0505 25.7687L36.6501 38.2058L2.823 18.6752L24.2234 6.23816L58.0505 25.7687Z" fill="#58C6E9"/>
<path d="M58.0504 25.7687L58.0425 29.1094L36.6421 41.5465L36.6499 38.2058L58.0504 25.7687Z" fill="#2B99B2"/>
<path d="M36.65 38.2059L36.6422 41.5466L2.8125 22.016L2.82293 18.6753L36.65 38.2059Z" fill="#8DE7FC"/>
<path d="M43.634 19.1055V21.6117C43.634 19.5958 42.3091 17.5851 39.6752 16.0621C34.655 13.1673 26.5861 13.0134 21.3051 15.7126C21.086 15.8248 20.8696 15.9421 20.6636 16.0621C18.0557 17.5694 16.77 19.5462 16.7517 21.5387V19.0325C16.7517 17.0505 18.0557 15.0737 20.6636 13.5559C20.8696 13.4359 21.0834 13.3186 21.3051 13.2064C26.5913 10.5099 34.6602 10.6637 39.6726 13.5559C42.3091 15.0789 43.6392 17.0922 43.634 19.1055Z" fill="#2B99B2"/>
<path d="M43.6339 19.1055V21.6117C43.6339 19.5957 42.3091 17.5851 39.6751 16.062C39.052 15.707 38.4035 15.3984 37.7349 15.1388V12.6353C38.3983 12.8941 39.0416 13.2018 39.6595 13.5558C42.2935 15.0789 43.6235 17.0922 43.6183 19.1055" fill="#2B99B2"/>
<path d="M37.7506 12.6352V15.1388C37.229 14.9319 36.6866 14.7494 36.1233 14.5912V12.085C36.6746 12.2409 37.2178 12.4245 37.7506 12.6352Z" fill="#2B99B2"/>
<path d="M36.1232 12.085V14.5912C35.6625 14.4573 35.1913 14.3417 34.7097 14.2444V11.7382C35.1896 11.8373 35.6607 11.9529 36.1232 12.085Z" fill="#2B99B2"/>
<path d="M34.7098 11.7486V14.2548C34.2716 14.1635 33.8257 14.0853 33.3745 14.0227V11.5165C33.8248 11.5791 34.2708 11.6564 34.7124 11.7486" fill="#2B99B2"/>
<path d="M33.3718 11.506V14.0122C32.9372 13.9496 32.5025 13.9001 32.0679 13.8636V11.36C32.5086 11.3965 32.9467 11.4434 33.3718 11.506Z" fill="#2B99B2"/>
<path d="M32.0601 11.36V13.8636C31.622 13.8297 31.1786 13.8036 30.7327 13.7932V11.287C31.176 11.3 31.6194 11.3235 32.0601 11.36Z" fill="#2B99B2"/>
<path d="M30.7328 11.287V13.7932C30.2712 13.7932 29.8096 13.7932 29.3506 13.7932V11.287C29.8131 11.2714 30.2747 11.2714 30.7354 11.287" fill="#2B99B2"/>
<path d="M29.3479 11.2948V13.801C28.8472 13.8166 28.35 13.8497 27.8562 13.9001V11.3939C28.3491 11.3444 28.8472 11.3104 29.3453 11.2948" fill="#2B99B2"/>
<path d="M27.8589 11.3939V13.9001C27.2748 13.9575 26.6984 14.0375 26.1299 14.14V11.6338C26.6984 11.5313 27.2748 11.4513 27.8589 11.3939Z" fill="#2B99B2"/>
<path d="M26.1299 11.6339V14.1401C25.2806 14.2927 24.4425 14.5018 23.6211 14.766V12.2598C24.4424 11.9953 25.2806 11.7862 26.1299 11.6339Z" fill="#2B99B2"/>
<path d="M23.621 12.2701V14.7763C22.8255 15.0265 22.0511 15.3396 21.3052 15.7126C21.0861 15.8247 20.8697 15.9421 20.6636 16.062C20.6089 16.0933 20.5541 16.1246 20.502 16.1585V13.6523L20.6663 13.5558C20.8723 13.4359 21.0861 13.3185 21.3078 13.2064C22.0534 12.8346 22.8268 12.5216 23.621 12.2701Z" fill="#2B99B2"/>
<path d="M20.502 13.6523V16.1585C19.8955 16.5175 19.3274 16.9378 18.8069 17.4129V14.9094C19.3272 14.4332 19.8952 14.0119 20.502 13.6523Z" fill="#2B99B2"/>
<path d="M18.8067 14.9094V17.413C18.5048 17.6891 18.2258 17.9891 17.9722 18.3101V15.8039C18.2256 15.4844 18.5038 15.1853 18.8041 14.9094" fill="#2B99B2"/>
<path d="M17.9749 15.8038V18.31C17.7742 18.5633 17.5937 18.8318 17.4351 19.1133V16.6071C17.5934 16.3254 17.774 16.0569 17.9749 15.8038Z" fill="#2B99B2"/>
<path d="M17.4351 16.6072V19.1134C17.2946 19.3579 17.1742 19.6134 17.0752 19.8775V17.3713C17.1742 17.1073 17.2946 16.8517 17.4351 16.6072Z" fill="#2B99B2"/>
<path d="M17.0751 17.3712V19.8774C16.9819 20.1239 16.9095 20.3777 16.8586 20.6363V18.1301C16.9095 17.8716 16.9819 17.6177 17.0751 17.3712Z" fill="#2B99B2"/>
<path d="M16.8716 18.1301V20.6363C16.8195 20.8941 16.7898 21.1558 16.783 21.4187V18.9125C16.7898 18.6496 16.8195 18.3879 16.8716 18.1301Z" fill="#2B99B2"/>
<path d="M44.9144 19.108V21.6142C44.9144 23.6041 43.7096 25.5965 41.2947 27.1925V24.6863C43.7096 23.0903 44.9092 21.1005 44.9144 19.108Z" fill="#2B99B2"/>
<path d="M44.9117 19.2384V21.7446C44.904 22.0294 44.8717 22.313 44.8152 22.5922V20.086C44.8704 19.8066 44.9027 19.5231 44.9117 19.2384Z" fill="#2B99B2"/>
<path d="M44.8152 20.0939V22.6001C44.7579 22.8823 44.6786 23.1596 44.5779 23.4294V20.9232C44.6801 20.6537 44.7603 20.3763 44.8178 20.0939" fill="#2B99B2"/>
<path d="M44.5753 20.9153V23.4215C44.4658 23.709 44.335 23.9879 44.1841 24.256V21.7498C44.3371 21.4828 44.468 21.2037 44.5753 20.9153Z" fill="#2B99B2"/>
<path d="M44.1841 21.7499V24.2561C44.0092 24.5621 43.8122 24.8549 43.5947 25.1323V22.6261C43.814 22.35 44.011 22.057 44.1841 21.7499Z" fill="#2B99B2"/>
<path d="M43.5949 22.6261V25.1323C43.3192 25.4798 43.0167 25.805 42.6899 26.105V23.5988C43.0158 23.2988 43.3176 22.9736 43.5923 22.6261" fill="#2B99B2"/>
<path d="M42.6898 23.5989V26.1051C42.2545 26.5054 41.787 26.8691 41.292 27.1926V24.6864C41.787 24.3629 42.2545 23.9992 42.6898 23.5989Z" fill="#2B99B2"/>
<path d="M15.479 21.5256V19.0194C15.479 21.2179 16.9212 23.4189 19.8186 25.0906C25.5768 28.4157 34.9157 28.4157 40.6348 25.0906C40.8591 24.9602 41.0782 24.8298 41.2868 24.6864V27.1926C41.0808 27.3308 40.8617 27.4534 40.6374 27.5968C34.9157 30.9193 25.5768 30.9219 19.8186 27.5968C16.9212 25.9225 15.4738 23.7215 15.479 21.5256Z" fill="#2B99B2"/>
<path d="M41.2945 24.6864V27.1926C41.1589 27.2839 41.0181 27.3725 40.8721 27.4534V24.9472C41.0155 24.8585 41.1589 24.7699 41.2945 24.6864Z" fill="#2B99B2"/>
<path d="M40.8642 24.955V27.4611L40.6373 27.5968C39.6175 28.1802 38.5388 28.654 37.4192 29.0102V26.5041C38.5384 26.1489 39.6164 25.675 40.6347 25.0906L40.8642 24.955Z" fill="#2B99B2"/>
<path d="M37.427 26.504V29.0102C36.5145 29.3044 35.5831 29.5362 34.6392 29.7039V27.1977C35.5831 27.03 36.5145 26.7982 37.427 26.504Z" fill="#2B99B2"/>
<path d="M34.6393 27.1978V29.7039C34.0213 29.8161 33.3928 29.9021 32.759 29.9647V27.4612C33.3928 27.396 34.0213 27.3099 34.6393 27.2004" fill="#2B99B2"/>
<path d="M32.7589 27.4612V29.9648C32.2165 30.0204 31.6714 30.0569 31.1238 30.0743V27.5681C31.6714 27.5499 32.2191 27.5133 32.7615 27.4612" fill="#2B99B2"/>
<path d="M31.1212 27.5681V30.0743C30.6179 30.0926 30.112 30.0952 29.6086 30.0743V27.5681C30.1128 27.5803 30.6162 27.5803 31.1186 27.5681" fill="#2B99B2"/>
<path d="M29.6112 27.5759V30.0821C29.1244 30.0682 28.6393 30.0421 28.156 30.0039V27.4977C28.6393 27.5377 29.1244 27.5637 29.6112 27.5759Z" fill="#2B99B2"/>
<path d="M28.156 27.4977V30.0039C27.6762 29.9648 27.1963 29.91 26.7217 29.8448V27.3386C27.1963 27.4064 27.6762 27.4586 28.156 27.4977Z" fill="#2B99B2"/>
<path d="M26.7217 27.3387V29.8449C26.2314 29.7753 25.7446 29.6884 25.2612 29.5841V27.0779C25.7411 27.1796 26.2288 27.263 26.7217 27.3387Z" fill="#2B99B2"/>
<path d="M25.2612 27.0831V29.5893C24.7396 29.4823 24.2181 29.3571 23.7278 29.2137V26.7075C24.2302 26.8518 24.7423 26.977 25.2638 27.0831" fill="#2B99B2"/>
<path d="M23.7251 26.7075V29.2137C23.1123 29.039 22.5151 28.8382 21.9387 28.6113V26.1051C22.5159 26.3329 23.1105 26.5337 23.7225 26.7075" fill="#2B99B2"/>
<path d="M21.9414 26.1051V28.6113C21.213 28.3243 20.5061 27.9853 19.8264 27.5968C16.929 25.9225 15.4816 23.7215 15.4868 21.5256V19.0194C15.4868 21.2179 16.929 23.4189 19.8264 25.0906C20.5053 25.4806 21.2123 25.8197 21.9414 26.1051Z" fill="#2B99B2"/>
<path d="M41.2945 24.6864C41.0859 24.8246 40.8668 24.9472 40.6426 25.0906C34.9234 28.4157 25.5845 28.4157 19.8263 25.0906C14.068 21.7655 14.0367 16.3567 19.7585 13.0317C19.9828 12.9013 20.2175 12.7709 20.46 12.6509C26.2495 9.69356 35.0877 9.86307 40.5774 13.0317C46.067 16.2003 46.3852 21.3248 41.2945 24.6864ZM20.7286 24.5664C25.9861 27.602 34.5114 27.602 39.735 24.5664C39.941 24.4465 40.1418 24.3213 40.3296 24.1987C44.9769 21.137 44.6874 16.4428 39.675 13.5559C34.6626 10.6689 26.5938 10.5098 21.305 13.2064C21.0833 13.3185 20.8694 13.4359 20.6634 13.5559C15.4476 16.5915 15.4685 21.5308 20.726 24.5664" fill="#79E1F2"/>
<path d="M43.7331 17.572V19.3115C43.7331 21.0066 42.6143 22.7017 40.3975 24.05C40.2046 24.1674 40.0064 24.2821 39.7977 24.3943C34.5272 27.2212 25.955 27.2212 20.6505 24.3943C17.98 22.9625 16.6474 21.0927 16.6526 19.228V17.5016C16.6526 19.3662 17.98 21.2309 20.6505 22.6548C25.955 25.4792 34.5272 25.4792 39.7977 22.6548C40.0064 22.5427 40.2046 22.4279 40.3975 22.3106C42.6195 20.9571 43.7331 19.2645 43.7331 17.572Z" fill="#94EBFF"/>
<path d="M43.733 17.6815V19.408C43.7255 19.6492 43.6958 19.8893 43.6443 20.1251V18.3987C43.6958 18.1629 43.7255 17.9228 43.733 17.6815Z" fill="#94EBFF"/>
<path d="M43.647 18.3987V20.1251C43.5939 20.3656 43.5206 20.6011 43.428 20.8292V19.1028C43.5206 18.8747 43.5939 18.6391 43.647 18.3987Z" fill="#94EBFF"/>
<path d="M43.428 19.1028V20.8292C43.3264 21.0745 43.2061 21.3117 43.0681 21.5386V19.8121C43.2061 19.5852 43.3264 19.3481 43.428 19.1028Z" fill="#94EBFF"/>
<path d="M43.068 19.8121V21.5386C42.9054 21.8006 42.7232 22.05 42.5229 22.2844V20.5554C42.7238 20.3223 42.906 20.0738 43.068 19.8121Z" fill="#94EBFF"/>
<path d="M42.523 20.5554V22.2845C42.268 22.5833 41.9889 22.8607 41.6885 23.1138V21.3847C41.9889 21.1316 42.268 20.8543 42.523 20.5554Z" fill="#94EBFF"/>
<path d="M41.6884 21.3978V23.1269C41.2851 23.4683 40.8551 23.777 40.4027 24.0501C40.2671 24.1335 40.1419 24.2144 39.988 24.2926V22.5662C40.1315 22.4853 40.2671 22.4045 40.4027 22.3236C40.8558 22.0506 41.2858 21.741 41.6884 21.3978Z" fill="#94EBFF"/>
<path d="M39.9882 22.5531V24.2795L39.803 24.3812C38.8568 24.8817 37.8625 25.2853 36.8352 25.5861V23.8571C37.862 23.556 38.8562 23.1533 39.803 22.6548L39.9882 22.5531Z" fill="#94EBFF"/>
<path d="M36.8351 23.8571V25.5861C35.9946 25.8351 35.1393 26.0311 34.2742 26.1729V24.4464C35.1396 24.3053 35.9951 24.1085 36.8351 23.8571Z" fill="#94EBFF"/>
<path d="M34.2742 24.4464V26.1728C33.7057 26.2693 33.1293 26.3424 32.5452 26.3971V24.6681C33.1293 24.6159 33.7057 24.5403 34.2742 24.4464Z" fill="#94EBFF"/>
<path d="M32.5452 24.6681V26.3971C32.0497 26.4415 31.5464 26.4728 31.0457 26.4884V24.762C31.5464 24.7463 32.0497 24.715 32.5452 24.6681Z" fill="#94EBFF"/>
<path d="M31.0456 24.762V26.4884C30.584 26.504 30.1198 26.504 29.6582 26.4884V24.762C30.1198 24.762 30.584 24.762 31.0456 24.762Z" fill="#94EBFF"/>
<path d="M29.6504 24.7672V26.4937C29.2045 26.4937 28.7585 26.4624 28.3152 26.4285V24.702C28.7585 24.7359 29.2045 24.7568 29.6504 24.7672Z" fill="#94EBFF"/>
<path d="M28.323 24.702V26.4284C27.8823 26.3945 27.4415 26.3502 27.019 26.2928V24.5664C27.4546 24.6212 27.8953 24.6681 28.323 24.702Z" fill="#94EBFF"/>
<path d="M27.006 24.5664V26.2929C26.5548 26.2329 26.1063 26.1625 25.6655 26.0764V24.35C26.1063 24.4334 26.5548 24.5065 27.006 24.5664Z" fill="#94EBFF"/>
<path d="M25.6654 24.3499V26.0764C25.1856 25.986 24.7144 25.8799 24.252 25.7582V24.0292C24.7127 24.1509 25.1838 24.2578 25.6654 24.3499Z" fill="#94EBFF"/>
<path d="M24.2521 24.0292V25.7583C23.6871 25.6105 23.1394 25.4366 22.6091 25.2367V23.5103C23.1307 23.7032 23.6862 23.8754 24.2521 24.0318" fill="#94EBFF"/>
<path d="M22.609 23.518V25.2444C21.9384 25.0032 21.2856 24.7147 20.6557 24.3812C17.98 22.9625 16.6474 21.0927 16.6526 19.228V17.5016C16.6526 19.3662 17.98 21.2309 20.6505 22.6548C21.2826 22.9874 21.937 23.2759 22.609 23.518Z" fill="#94EBFF"/>
<path d="M39.7403 12.4188C44.8362 15.1337 45.0631 19.4602 40.4027 22.3106C40.2097 22.428 40.0115 22.5427 39.8029 22.6549C34.5323 25.4792 25.9602 25.4792 20.6557 22.6549C15.3512 19.8305 15.3225 15.2458 20.5931 12.4188C20.8017 12.3067 21.0182 12.1998 21.2373 12.0955C26.5417 9.59709 34.6471 9.70662 39.7403 12.4188Z" fill="#94EBFF"/>
<path d="M16.658 17.5017C17.4821 11.0862 23.4802 6.24859 30.4042 6.34769C37.2004 6.44418 42.9691 11.2714 43.7384 17.5617L16.658 17.5017Z" fill="#94EBFF"/>
<path d="M32.8763 10.2464V11.0601C32.8763 11.3887 32.6598 11.7173 32.2269 11.9677C31.7379 12.217 31.1967 12.347 30.6478 12.347C30.0989 12.347 29.5578 12.217 29.0687 11.9677C28.628 11.7069 28.4089 11.3809 28.4089 11.0471V10.2334C28.4089 10.5672 28.628 10.901 29.0687 11.1566C29.5579 11.4053 30.099 11.535 30.6478 11.535C31.1966 11.535 31.7377 11.4053 32.2269 11.1566C32.6598 10.9036 32.8737 10.575 32.8763 10.2464Z" fill="#2B99B2"/>
<path d="M32.8762 10.2673V11.081C32.8734 11.1239 32.8682 11.1665 32.8606 11.2088V10.3951C32.8682 10.3529 32.8734 10.3102 32.8762 10.2673Z" fill="#2B99B2"/>
<path d="M32.8605 10.3951V11.2088C32.8519 11.2515 32.8397 11.2934 32.824 11.334V10.5203C32.8397 10.4797 32.8519 10.4378 32.8605 10.3951Z" fill="#2B99B2"/>
<path d="M32.824 10.5203V11.3339C32.8081 11.3779 32.789 11.4206 32.7666 11.4617V10.6481C32.7898 10.607 32.8098 10.5643 32.8266 10.5203" fill="#2B99B2"/>
<path d="M32.7641 10.6481V11.4617C32.7364 11.5079 32.7059 11.5523 32.6729 11.5947V10.7811C32.706 10.7392 32.7356 10.6947 32.7615 10.6481" fill="#2B99B2"/>
<path d="M32.6753 10.781V11.5947C32.6328 11.6474 32.5866 11.6971 32.5371 11.7433V10.9297C32.5872 10.884 32.6335 10.8343 32.6753 10.781Z" fill="#2B99B2"/>
<path d="M32.5372 10.9297V11.7486C32.4496 11.8273 32.3544 11.8972 32.2529 11.9572V11.1383C32.3544 11.0783 32.4496 11.0085 32.5372 10.9297Z" fill="#2B99B2"/>
<path d="M32.2581 11.1383V11.952L32.2321 11.9676C32.0779 12.0575 31.9144 12.1301 31.7444 12.1841V11.3704C31.9154 11.3169 32.0799 11.2443 32.2347 11.154L32.2607 11.1383" fill="#2B99B2"/>
<path d="M31.7366 11.3705V12.1841C31.5975 12.2287 31.4555 12.2635 31.3115 12.2885V11.4878C31.4546 11.4629 31.5958 11.4281 31.734 11.3835" fill="#2B99B2"/>
<path d="M31.314 11.4878V12.3014C31.2201 12.3199 31.1252 12.333 31.0298 12.3406V11.5165C31.1263 11.5165 31.2202 11.493 31.314 11.4747" fill="#2B99B2"/>
<path d="M31.0298 11.5165V12.3275C30.949 12.3275 30.8655 12.3432 30.769 12.3458V11.5321C30.8525 11.5321 30.9359 11.5321 31.0298 11.5165Z" fill="#2B99B2"/>
<path d="M30.782 11.5321V12.3458H30.5525V11.5321H30.782Z" fill="#2B99B2"/>
<path d="M30.5526 11.5322V12.3458C30.4795 12.3458 30.4065 12.3458 30.3335 12.3458V11.5217C30.4065 11.5217 30.4795 11.5217 30.5526 11.5217" fill="#2B99B2"/>
<path d="M30.3334 11.5217V12.3354L30.1169 12.3093V11.4878L30.3334 11.5139" fill="#2B99B2"/>
<path d="M30.1169 11.4878V12.3015L29.8953 12.2649V11.4591L30.1169 11.4956" fill="#2B99B2"/>
<path d="M29.8954 11.4591V12.2702L29.6633 12.2128V11.4017L29.898 11.4591" fill="#2B99B2"/>
<path d="M29.6502 11.4017V12.2154C29.5618 12.1893 29.4748 12.1589 29.3894 12.1241V11.3104C29.4755 11.3443 29.5667 11.3756 29.6502 11.4017Z" fill="#2B99B2"/>
<path d="M29.3894 11.3105V12.1241C29.278 12.0799 29.1699 12.0276 29.066 11.9677C28.6253 11.7069 28.4062 11.3809 28.4062 11.0471V10.2334C28.4062 10.5672 28.6253 10.901 29.066 11.1566C29.17 11.2157 29.278 11.2671 29.3894 11.3105Z" fill="#2B99B2"/>
<path d="M32.2165 9.32587C33.0927 9.8318 33.0953 10.6507 32.2165 11.1514C31.7273 11.4001 31.1862 11.5298 30.6374 11.5298C30.0886 11.5298 29.5475 11.4001 29.0583 11.1514C28.1847 10.6455 28.1795 9.82659 29.0583 9.32587C29.5473 9.07653 30.0885 8.94653 30.6374 8.94653C31.1863 8.94653 31.7275 9.07653 32.2165 9.32587Z" fill="#C2F6FF"/>
<path d="M30.6701 3.0617L30.6414 10.2569L29.9634 9.98829L29.9921 2.79309L30.6701 3.0617Z" fill="#F9BBD3"/>
<path d="M30.67 3.06165L31.3924 2.77478L31.3611 9.96998L30.6414 10.2569L30.67 3.06165Z" fill="#C12B56"/>
<path d="M29.9922 2.79305L30.712 2.50879L31.3926 2.7748L30.6702 3.06166L29.9922 2.79305Z" fill="#CE4D6C"/>
<path d="M30.0051 1.55688L35.8051 10.2334L29.9895 6.877L30.0051 1.55688Z" fill="#EF597D"/>
<path d="M30.0051 1.55692L32.6834 0L38.4834 8.6791L35.8051 10.2334L30.0051 1.55692Z" fill="#C12B56"/>
<path d="M18.679 23.0539L42.1683 22.6627L19.1353 23.4242C19.1353 23.4242 21.6207 26.1703 28.3725 26.7623C35.1244 27.3543 40.7079 24.4413 41.5085 23.273C42.3092 22.1046 33.0668 23.4138 33.0668 23.4138" fill="#94EBFF"/>
<path d="M23.8583 35.337L23.8505 38.1588L21.3965 36.7401L21.4043 33.9183L23.8583 35.337Z" fill="#952142"/>
<path d="M21.3965 36.7401L23.8583 35.337L23.8505 38.1588L21.3965 36.7401Z" fill="#EF597D"/>
</g>
<defs>
<linearGradient id="paint0_linear_2311_41764" x1="26.74" y1="30.8697" x2="19.4952" y2="43.4189" gradientUnits="userSpaceOnUse">
<stop stop-color="white"/>
<stop offset="0.34" stop-color="#FFFCFD"/>
<stop offset="0.55" stop-color="#FEF4F8"/>
<stop offset="0.72" stop-color="#FDE5EE"/>
<stop offset="0.88" stop-color="#FBD1E1"/>
<stop offset="1" stop-color="#F9BBD3"/>
</linearGradient>
<clipPath id="clip0_2311_41764">
<rect width="55.2406" height="60" fill="white" transform="translate(2.8125)"/>
</clipPath>
</defs>
</svg>
