<svg width="60" height="60" viewBox="0 0 60 60" fill="none" xmlns="http://www.w3.org/2000/svg">
<g clip-path="url(#clip0_2311_41776)">
<path d="M57.677 15.2221L31.4799 30.4441L5.1145 15.2221L31.3116 0L57.677 15.2221Z" fill="#C2F6FF"/>
<path d="M57.6772 15.222L57.5917 44.7753L31.3972 60L31.4801 30.4441L57.6772 15.222Z" fill="#EF597D"/>
<path d="M31.48 30.4441L31.3971 60L5.03174 44.7779L5.11461 15.222L31.48 30.4441Z" fill="url(#paint0_linear_2311_41776)"/>
<path d="M8.07739 26.6217L10.3485 25.3036L8.07739 26.6295" fill="#3F8FA8"/>
<path d="M8.07739 26.6295L10.3459 25.3114C10.3459 25.3528 10.3459 25.3969 10.3459 25.4383L8.07739 26.759C8.07739 26.715 8.07739 26.6736 8.07739 26.6295Z" fill="#3E8BA3"/>
<path d="M8.07739 26.759L10.3459 25.4382C10.3485 25.4796 10.3485 25.5211 10.3459 25.5625L8.07739 26.8833V26.759Z" fill="#3C879E"/>
<path d="M8.0773 26.8832L10.3458 25.5625C10.3458 25.6065 10.3458 25.648 10.3458 25.6894L8.07471 27.0101C8.07471 26.9687 8.07471 26.9247 8.09024 26.8832" fill="#3A839A"/>
<path d="M8.06183 27.0102L10.333 25.6895C10.333 25.7335 10.333 25.7749 10.3148 25.8163L8.0437 27.1345C8.0437 27.0956 8.05665 27.0516 8.06183 27.0102Z" fill="#387F95"/>
<path d="M8.04372 27.1344L10.3149 25.8163C10.3149 25.8603 10.2993 25.9043 10.289 25.9458L8.01782 27.2639C8.01782 27.2225 8.03595 27.1784 8.04372 27.1344Z" fill="#377B90"/>
<path d="M8.0178 27.2639L10.2889 25.9458C10.2889 25.9924 10.2656 26.0364 10.2527 26.0805L7.98413 27.3986C7.98413 27.3546 8.00744 27.3106 8.0178 27.2639Z" fill="#35778C"/>
<path d="M7.98411 27.3986L10.2527 26.0804C10.2527 26.1271 10.2242 26.1737 10.2086 26.2177L7.9375 27.5384C7.95304 27.4953 7.96858 27.4487 7.98411 27.3986Z" fill="#337387"/>
<path d="M7.93754 27.5385L10.2087 26.2178C10.1896 26.2689 10.168 26.319 10.1439 26.368L7.8728 27.7017C7.89611 27.6524 7.91683 27.6032 7.93754 27.5515" fill="#316F82"/>
<path d="M7.87282 27.7016L10.144 26.3809C10.1158 26.4437 10.0829 26.5043 10.0456 26.5621L7.77441 27.8829C7.81179 27.825 7.84469 27.7644 7.87282 27.7016Z" fill="#306B7E"/>
<path d="M7.77439 27.8699L10.0455 26.5492C9.9315 26.733 9.77411 26.8859 9.58715 26.9946L7.3186 28.3153C7.50367 28.2051 7.65989 28.0524 7.77439 27.8699Z" fill="#2E6779"/>
<path d="M13.3628 29.6673L15.6339 28.3491L13.3654 29.6673" fill="#3F8FA8"/>
<path d="M13.3628 29.6751L15.6313 28.3569C15.6313 28.3984 15.6313 28.4424 15.6313 28.4838L13.3628 29.8046C13.3628 29.7605 13.3628 29.7191 13.3628 29.6751Z" fill="#3E8BA3"/>
<path d="M13.3604 29.8045L15.6289 28.4838C15.6315 28.5252 15.6315 28.5667 15.6289 28.6081L13.3604 29.9288V29.8045Z" fill="#3C879E"/>
<path d="M13.3525 29.9288L15.6211 28.608C15.6211 28.6521 15.6211 28.6935 15.6211 28.7349L13.3525 30.0557C13.3525 30.0142 13.3525 29.9702 13.3525 29.9288Z" fill="#3A839A"/>
<path d="M13.3396 30.0557L15.6081 28.735C15.6081 28.779 15.6081 28.8204 15.59 28.8619L13.3188 30.18C13.3188 30.1386 13.3188 30.0971 13.3396 30.0557Z" fill="#387F95"/>
<path d="M13.3188 30.18L15.5873 28.8618C15.5873 28.9058 15.5718 28.9473 15.5614 28.9913L13.2903 30.3094C13.2903 30.268 13.3084 30.224 13.3162 30.18" fill="#377B90"/>
<path d="M13.2928 30.3095L15.564 28.9966C15.564 29.0406 15.5407 29.0872 15.5277 29.1312L13.2566 30.4442C13.2695 30.4002 13.2799 30.3562 13.2903 30.3095" fill="#35778C"/>
<path d="M13.2568 30.4441L15.5254 29.126C15.5254 29.1726 15.4969 29.2192 15.4813 29.2632L13.2102 30.584C13.2257 30.5373 13.2413 30.4933 13.2568 30.4441Z" fill="#337387"/>
<path d="M13.2127 30.584L15.4838 29.2555C15.4631 29.3073 15.4424 29.3591 15.4191 29.4057L13.1479 30.7264C13.1713 30.6772 13.192 30.628 13.2127 30.5762" fill="#316F82"/>
<path d="M13.148 30.7342L15.4191 29.4135C15.391 29.4763 15.3581 29.5369 15.3207 29.5947L13.0496 30.9129C13.0864 30.8556 13.1193 30.7959 13.148 30.7342Z" fill="#306B7E"/>
<path d="M13.0495 30.9129L15.3284 29.5947C15.2113 29.7766 15.0512 29.9269 14.8623 30.0324L12.5938 31.3531C12.7789 31.2419 12.9351 31.0883 13.0495 30.9051" fill="#2E6779"/>
<path d="M18.6355 32.7127L20.9066 31.3945L18.6355 32.7127Z" fill="#3F8FA8"/>
<path d="M18.6355 32.7205L20.9066 31.4023C20.9066 31.4438 20.9066 31.4878 20.9066 31.5292L18.6355 32.8474C18.6355 32.8059 18.6355 32.7645 18.6355 32.7205Z" fill="#3E8BA3"/>
<path d="M18.6331 32.8473L20.9042 31.5292V31.6535L18.6331 32.9716V32.8473Z" fill="#3C879E"/>
<path d="M18.6252 32.9716L20.8964 31.6534C20.8964 31.6975 20.8964 31.7389 20.8964 31.7803L18.6252 33.1011C18.6252 33.057 18.6252 33.0156 18.6252 32.9716Z" fill="#3A839A"/>
<path d="M18.6124 33.1011L20.8835 31.7804C20.8835 31.8244 20.8835 31.8659 20.8628 31.9073L18.5942 33.2254C18.5942 33.184 18.5942 33.1426 18.6124 33.1011Z" fill="#387F95"/>
<path d="M18.5943 33.2254L20.8628 31.9072C20.8628 31.9513 20.8473 31.9927 20.8369 32.0367L18.5684 33.3548C18.5684 33.3134 18.5865 33.2694 18.5943 33.2254Z" fill="#377B90"/>
<path d="M18.5682 33.3549L20.8368 32.0367C20.8368 32.0808 20.8161 32.1274 20.8031 32.1714L18.532 33.4895C18.532 33.4455 18.5579 33.4015 18.5682 33.3549Z" fill="#35778C"/>
<path d="M18.532 33.4895L20.8031 32.1714L20.7565 32.3086L18.4854 33.6294C18.5036 33.5837 18.5192 33.537 18.532 33.4895Z" fill="#337387"/>
<path d="M18.4855 33.6294L20.7566 32.3087C20.7385 32.3605 20.7152 32.4123 20.6945 32.4589L18.4363 33.7796C18.4597 33.7307 18.4804 33.6806 18.4984 33.6294" fill="#316F82"/>
<path d="M18.4362 33.7796L20.7073 32.4589C20.6773 32.5213 20.6436 32.5818 20.6063 32.6401L18.3352 33.9583C18.3719 33.9005 18.4056 33.8409 18.4362 33.7796Z" fill="#306B7E"/>
<path d="M18.3222 33.9583L20.5934 32.6401C20.4803 32.8238 20.3238 32.9768 20.1376 33.0856L17.8665 34.4063C18.0522 34.2958 18.2085 34.1421 18.3222 33.9583Z" fill="#2E6779"/>
<path d="M23.9106 35.7581L26.1792 34.4374L23.9106 35.7581Z" fill="#3F8FA8"/>
<path d="M23.9105 35.7659L26.1791 34.4452C26.1791 34.4892 26.1791 34.5306 26.1791 34.5747L23.908 35.8928C23.908 35.8514 23.908 35.8074 23.908 35.7659" fill="#3E8BA3"/>
<path d="M23.9055 35.8927L26.1767 34.5746V34.6989L23.9055 36.017C23.9081 35.9756 23.9081 35.9341 23.9055 35.8927Z" fill="#3C879E"/>
<path d="M23.8976 36.0171L26.1687 34.699C26.1687 34.7404 26.1687 34.7844 26.1687 34.8259L23.8743 36.144C23.8743 36.1026 23.8743 36.0611 23.8743 36.0171" fill="#3A839A"/>
<path d="M23.8743 36.1439L26.1454 34.8258C26.1454 34.8672 26.1454 34.9087 26.1273 34.9501L23.8743 36.2708C23.8743 36.2294 23.8743 36.188 23.8924 36.1439" fill="#387F95"/>
<path d="M23.8743 36.2708L26.1454 34.9501C26.1454 34.9941 26.1299 35.0381 26.1195 35.0796L23.8484 36.4003C23.8484 36.3588 23.8665 36.3148 23.8743 36.2708Z" fill="#377B90"/>
<path d="M23.8407 36.4003L26.1118 35.0796C26.1118 35.1262 26.0885 35.1702 26.0756 35.2142L23.8044 36.535C23.8044 36.491 23.8303 36.4469 23.8407 36.4003Z" fill="#35778C"/>
<path d="M23.8045 36.535L26.0757 35.2142C26.0633 35.2618 26.0477 35.3086 26.029 35.3541L23.7605 36.6722C23.776 36.6282 23.7916 36.5816 23.8045 36.535Z" fill="#337387"/>
<path d="M23.7605 36.6723L26.0291 35.3541C26.0111 35.4053 25.9903 35.4554 25.9669 35.5043L23.6958 36.8225C23.7199 36.7735 23.7415 36.7234 23.7605 36.6723Z" fill="#316F82"/>
<path d="M23.6956 36.8224L25.9667 35.5043C25.9356 35.569 25.902 35.6286 25.8683 35.6855L23.5972 37.0037C23.6345 36.9459 23.6674 36.8853 23.6956 36.8224Z" fill="#306B7E"/>
<path d="M23.5973 37.0037L25.8684 35.6855C25.7523 35.8676 25.5954 36.0201 25.4101 36.131L23.1389 37.4491C23.3259 37.3404 23.4833 37.1874 23.5973 37.0037Z" fill="#2E6779"/>
<path d="M30.6852 39.1766L28.4141 40.4947C28.888 40.2202 29.191 39.6349 29.191 38.8036L31.4595 37.4829C31.4517 38.3194 31.1591 38.8995 30.6852 39.1766Z" fill="#2B99B2"/>
<path d="M29.1858 38.8036L31.4543 37.4829L29.1858 38.8036Z" fill="#2B99B2"/>
<path d="M29.1857 38.8115L31.4542 37.4907C31.4542 37.5347 31.4542 37.5762 31.4542 37.6202L29.1831 38.9383C29.1831 38.8969 29.1831 38.8529 29.1831 38.8115" fill="#2B99B2"/>
<path d="M29.1807 38.9383L31.4518 37.6201V37.7444L29.1807 39.0626C29.1832 39.0212 29.1832 38.9797 29.1807 38.9383Z" fill="#2B99B2"/>
<path d="M29.1729 39.0626L31.444 37.7445C31.444 37.7859 31.444 37.83 31.444 37.8714L29.1729 39.1895C29.1729 39.1481 29.1729 39.1067 29.1729 39.0626Z" fill="#2B99B2"/>
<path d="M29.16 39.1895L31.4311 37.8713C31.4311 37.9128 31.4311 37.9542 31.413 37.9956L29.1418 39.3164C29.1418 39.2749 29.1418 39.2335 29.16 39.1895Z" fill="#2B99B2"/>
<path d="M29.1419 39.3163L31.413 37.9956C31.413 38.0396 31.3975 38.0837 31.3871 38.1251L29.116 39.4458C29.116 39.4018 29.1341 39.3604 29.1419 39.3163Z" fill="#2B99B2"/>
<path d="M29.1159 39.4459L31.3871 38.1251C31.3871 38.1717 31.3638 38.2158 31.3508 38.2598L29.0823 39.5805C29.0823 39.5365 29.1056 39.4899 29.1159 39.4459Z" fill="#2B99B2"/>
<path d="M29.0823 39.5805L31.3508 38.2598C31.3379 38.3064 31.3223 38.353 31.3068 38.3996L29.0356 39.7177L29.0823 39.5805Z" fill="#2B99B2"/>
<path d="M29.0357 39.7178L31.3068 38.3997C31.2861 38.4515 31.2654 38.5007 31.2421 38.5499L28.9709 39.8732C28.9943 39.8266 29.015 39.7748 29.0357 39.723" fill="#2B99B2"/>
<path d="M28.9707 39.8732L31.2419 38.5551C31.2122 38.6163 31.1793 38.6759 31.1435 38.7337L28.8723 40.0545C28.9097 39.9966 28.9426 39.936 28.9707 39.8732Z" fill="#2B99B2"/>
<path d="M28.8724 40.0492L31.1436 38.7285C31.0289 38.9124 30.8717 39.0661 30.6852 39.1765L28.4141 40.4947C28.601 40.386 28.7584 40.233 28.8724 40.0492Z" fill="#2B99B2"/>
<path d="M2.83325 16.5402L5.10439 15.2195L31.475 30.4467L29.2038 31.7649L2.83325 16.5402Z" fill="#C2F6FF"/>
<path d="M29.2038 31.7649L31.475 30.4468L31.4542 37.4829L29.1831 38.8036L29.2038 31.7649Z" fill="#2B99B2"/>
<path d="M29.2039 31.7648L29.1858 38.8035C29.1858 40.4765 27.9945 41.1524 26.5392 40.3107C25.0838 39.4691 23.9055 37.431 23.9106 35.7581C23.9106 37.431 22.7194 38.1069 21.264 37.2653C19.8086 36.4236 18.6303 34.3881 18.6355 32.7126C18.6355 34.3881 17.4468 35.0615 15.9888 34.2198C14.5309 33.3782 13.3577 31.3427 13.3629 29.6672C13.3629 31.3427 12.1717 32.016 10.7163 31.177C9.26089 30.3379 8.07741 28.2972 8.07741 26.6217C8.07741 28.2972 6.88876 28.9732 5.43078 28.1315C3.97279 27.2899 2.79708 25.2518 2.80226 23.5789L2.82298 16.5402L29.2039 31.7648Z" fill="url(#paint1_linear_2311_41776)"/>
<path d="M50.3743 32.9923L50.3899 38.1173L39.1222 44.9876L39.1067 39.5908L50.3743 32.9923Z" fill="#952142"/>
<path d="M16.7759 39.2827L16.763 44.1772L10.7239 40.6889L10.7368 35.7944L16.7759 39.2827Z" fill="#952142"/>
<path d="M10.7239 40.6888L15.3464 38.4565L16.7759 39.2826L16.763 44.1771L10.7239 40.6888Z" fill="#EF597D"/>
<path d="M31.4748 30.4467L31.4541 38.7233L57.6512 23.3795V15.2195L31.4748 30.4467Z" fill="#2B99B2"/>
<path d="M39.1067 39.5908L39.1222 44.9877L50.3899 38.1173L46.0056 35.5509L39.1067 39.5908Z" fill="#C12B56"/>
<path opacity="0.3" d="M42.9678 20.2668L45.8863 22.064L54.0749 17.3016L50.9543 15.6261L42.9678 20.2668Z" fill="#2B99B2"/>
<path d="M31.4541 38.7233V40.4946L57.6486 25.055L57.6512 23.3795L31.4541 38.7233Z" fill="#C12B56"/>
<path d="M25.9718 44.3015L25.9355 56.8225L19.3604 53.026L19.394 40.505L25.9718 44.3015Z" fill="#EF597D"/>
<path d="M19.3604 53.026L25.9588 49.0898L25.9718 44.3015L19.394 40.505L19.3604 53.026Z" fill="#952142"/>
<path d="M8.07739 26.6218V19.5753L13.2826 22.5716L13.3629 29.6672C13.3888 30.3716 13.0806 31.537 11.8816 31.537C10.4418 31.537 8.14731 29.3565 8.07739 26.6218Z" fill="#58C6E9"/>
<path d="M18.6121 32.6972L18.8115 25.7543L24.0063 28.7505L23.8872 35.7426C23.9675 36.4392 23.6282 37.6357 22.4422 37.6357C21.0023 37.6357 18.6716 35.4319 18.6121 32.6972Z" fill="#58C6E9"/>
<path d="M8.08496 19.5754L36.087 2.75806L40.9504 5.56526L13.2798 22.5716" fill="#58C6E9"/>
<path d="M18.8088 25.7542L46.8109 8.93689L51.6743 11.7441L24.0037 28.753" fill="#58C6E9"/>
<path d="M50.9727 9.44454L42.9861 14.0852L34.9426 9.44195L42.9317 4.80127L50.9727 9.44454Z" fill="#94EBFF"/>
<path d="M50.9727 9.44458L50.9546 15.6261L42.968 20.2668L42.9861 14.0853L50.9727 9.44458Z" fill="#2B99B2"/>
<path d="M42.986 14.0852L42.9679 20.2667L34.927 15.6234L34.9425 9.44189L42.986 14.0852Z" fill="#8DE7FC"/>
<path d="M47.3522 9.44453L42.999 11.972L38.6199 9.44453L42.9731 6.91443L47.3522 9.44453Z" fill="#2B99B2"/>
<path d="M42.9731 6.91443L42.999 11.972L47.3523 9.44453L42.9731 6.91443Z" fill="#1D7A89"/>
</g>
<defs>
<linearGradient id="paint0_linear_2311_41776" x1="18.2572" y1="15.222" x2="18.2572" y2="60" gradientUnits="userSpaceOnUse">
<stop stop-color="white"/>
<stop offset="0.22" stop-color="#FFFAFB"/>
<stop offset="0.49" stop-color="#FDEAF1"/>
<stop offset="0.8" stop-color="#FBD0E1"/>
<stop offset="1" stop-color="#F9BBD3"/>
</linearGradient>
<linearGradient id="paint1_linear_2311_41776" x1="17.6877" y1="25.1171" x2="13.3215" y2="32.6816" gradientUnits="userSpaceOnUse">
<stop stop-color="white"/>
<stop offset="0.17" stop-color="#F4FDFF"/>
<stop offset="0.46" stop-color="#D8F8FF"/>
<stop offset="0.84" stop-color="#AAEFFF"/>
<stop offset="1" stop-color="#94EBFF"/>
</linearGradient>
<clipPath id="clip0_2311_41776">
<rect width="54.8647" height="60" fill="white" transform="translate(2.8125)"/>
</clipPath>
</defs>
</svg>
