<svg width="60" height="60" viewBox="0 0 60 60" fill="none" xmlns="http://www.w3.org/2000/svg">
<g clip-path="url(#clip0_2311_41765)">
<path d="M56.3684 36.9913L30.1565 52.2241L3.77344 36.9913L29.9853 21.7585L56.3684 36.9913Z" fill="#F9BBD3"/>
<path d="M56.3683 36.9913L56.3476 44.7646L30.1331 60L30.1564 52.2241L56.3683 36.9913Z" fill="#E54C78"/>
<path d="M30.1564 52.2241L30.1331 60L3.75 44.7672L3.77334 36.9913L30.1564 52.2241Z" fill="url(#paint0_linear_2311_41765)"/>
<path d="M34.8535 3.60783L30.8825 5.91622L26.8831 3.60783L30.8566 1.29944L34.8535 3.60783Z" fill="#FFCADC"/>
<path d="M34.8535 3.60785L34.786 27.8226L30.8125 30.131L30.8825 5.91624L34.8535 3.60785Z" fill="#EF597D"/>
<path d="M30.8826 5.91624L30.8126 30.131L26.8157 27.8226L26.8831 3.60785L30.8826 5.91624Z" fill="#F9BBD3"/>
<path d="M16.114 14.2264L12.1404 16.5348L8.14355 14.2264L12.1171 11.918L16.114 14.2264Z" fill="#FFCADC"/>
<path d="M16.114 14.2264L16.0465 38.4412L12.073 40.7496L12.1404 16.5348L16.114 14.2264Z" fill="#EF597D"/>
<path d="M12.1405 16.5348L12.0731 40.7496L8.07617 38.4412L8.14361 14.2264L12.1405 16.5348Z" fill="url(#paint1_linear_2311_41765)"/>
<path d="M25.7885 8.8419L21.8176 11.1503L17.8181 8.8419L21.7917 6.53351L25.7885 8.8419Z" fill="#FFCADC"/>
<path d="M25.7885 8.84192L25.7211 33.0567L21.7476 35.3651L21.8176 11.1503L25.7885 8.84192Z" fill="#EF597D"/>
<path d="M21.8177 11.1503L21.7476 35.3651L17.7507 33.0567L17.8182 8.84192L21.8177 11.1503Z" fill="#F9BBD3"/>
<path d="M53.1574 13.9619L49.1839 16.2703L45.187 13.9619L49.158 11.6535L53.1574 13.9619Z" fill="#FFCADC"/>
<path d="M53.1574 13.9619L53.0874 38.1767L49.1165 40.4851L49.1839 16.2703L53.1574 13.9619Z" fill="#EF597D"/>
<path d="M49.1839 16.2703L49.1164 40.4851L45.1169 38.1767L45.187 13.9619L49.1839 16.2703Z" fill="#F9BBD3"/>
<path d="M34.4153 24.5805L30.4443 26.8889L26.4448 24.5805L30.4184 22.2721L34.4153 24.5805Z" fill="#FFCADC"/>
<path d="M34.4153 24.5804L34.3479 48.7952L30.377 51.1036L30.4444 26.8888L34.4153 24.5804Z" fill="#EF597D"/>
<path d="M30.4444 26.8888L30.3769 51.1036L26.3774 48.7952L26.4449 24.5804L30.4444 26.8888Z" fill="url(#paint2_linear_2311_41765)"/>
<path d="M44.0925 19.196L40.119 21.5044L36.1221 19.196L40.093 16.8876L44.0925 19.196Z" fill="#FFCADC"/>
<path d="M44.0925 19.1959L44.0225 43.4107L40.0515 45.7191L40.1189 21.5043L44.0925 19.1959Z" fill="#EF597D"/>
<path d="M40.1189 21.5043L40.0515 45.7191L36.052 43.4107L36.122 19.1959L40.1189 21.5043Z" fill="#F9BBD3"/>
<path d="M30.4313 35.544V27.5372L34.4152 28.1908V36.5296L30.4287 38.9132L30.4313 35.544Z" fill="#C12B56"/>
<path d="M40.08 30.4604V22.4536L44.0639 23.1072V31.446L40.0774 33.8322L40.08 30.4604Z" fill="#C12B56"/>
<path d="M49.1449 26.0407V18.0339L53.1288 18.6875V27.0263L49.1423 29.4099L49.1449 26.0407Z" fill="#C12B56"/>
<path d="M12.1432 25.3689V17.3622L16.1297 18.0158V26.3545L12.1406 28.7381L12.1432 25.3689Z" fill="#C12B56"/>
<path d="M21.7917 20.2853V12.2786L25.7756 12.9322V21.2709L21.7891 23.6545L21.7917 20.2853Z" fill="#C12B56"/>
<path d="M30.8568 15.8656V7.85889L34.8408 8.50991V16.8512L30.8542 19.2348L30.8568 15.8656Z" fill="#C12B56"/>
<path d="M56.3685 15.2276L30.1644 30.4578L3.78906 15.2276L29.9932 0L56.3685 15.2276Z" fill="#58C6E9"/>
<path d="M56.3685 15.2275L56.3555 20.1374L30.1514 35.365L30.1643 30.4577L56.3685 15.2275Z" fill="#2B99B2"/>
<path d="M30.1643 30.4577L30.1513 35.365L3.77344 20.1374L3.789 15.2275L30.1643 30.4577Z" fill="#8DE7FC"/>
<path d="M14.8406 20.2853L16.1919 19.5072C16.7625 19.1752 17.5536 19.2219 18.4277 19.7251L17.0763 20.5032C16.2126 20 15.419 19.9533 14.8406 20.2853Z" fill="#2B99B2"/>
<path d="M14.8406 20.2852L16.1919 19.5071C16.2745 19.4601 16.3613 19.421 16.4513 19.3904L15.0999 20.1685C15.0099 20.2 14.9231 20.24 14.8406 20.2878" fill="#2B99B2"/>
<path d="M15.0999 20.1659L16.4512 19.3878C16.5229 19.3613 16.5966 19.3405 16.6716 19.3256L15.3203 20.1037C15.2457 20.1193 15.1721 20.1392 15.0999 20.1633" fill="#2B99B2"/>
<path d="M15.323 20.1089L16.6743 19.3307C16.7314 19.3307 16.7936 19.31 16.8533 19.3048L15.5046 20.0829C15.4435 20.0876 15.3829 20.0962 15.323 20.1089Z" fill="#2B99B2"/>
<path d="M15.5046 20.0804L16.8534 19.3022C16.907 19.3022 16.9614 19.3022 17.0168 19.3022L15.6654 20.0804C15.611 20.0804 15.5565 20.0804 15.5046 20.0804Z" fill="#2B99B2"/>
<path d="M15.6653 20.0725L17.0166 19.2944H17.1644L15.8131 20.0725C15.7639 20.07 15.7145 20.07 15.6653 20.0725Z" fill="#2B99B2"/>
<path d="M15.8132 20.0777L17.1645 19.2996C17.2115 19.3022 17.2582 19.3074 17.3046 19.3151L15.9533 20.0932L15.8132 20.0803" fill="#2B99B2"/>
<path d="M15.9533 20.0907L17.3047 19.3126L17.4343 19.3308L16.083 20.1089C16.0389 20.1089 15.9922 20.0933 15.9456 20.0855" fill="#2B99B2"/>
<path d="M16.0908 20.1088L17.4343 19.3307L17.564 19.3592L16.2127 20.1373L16.083 20.1088" fill="#2B99B2"/>
<path d="M16.2205 20.1426L17.5718 19.3645L17.7015 19.4008L16.3501 20.1789L16.2205 20.1426Z" fill="#2B99B2"/>
<path d="M16.3501 20.1789L17.7014 19.4008L17.8259 19.4423L16.4772 20.2204L16.3501 20.1789Z" fill="#2B99B2"/>
<path d="M16.4773 20.2204L17.826 19.4423L17.9531 19.4889L16.6044 20.2671L16.4773 20.2204Z" fill="#2B99B2"/>
<path d="M16.6042 20.2671L17.953 19.489L18.0801 19.5435L16.7287 20.3216C16.6872 20.3008 16.6457 20.2853 16.6042 20.2671Z" fill="#2B99B2"/>
<path d="M16.7288 20.3216L18.0801 19.5435L18.2124 19.5901L16.861 20.3683L16.7339 20.3086" fill="#2B99B2"/>
<path d="M16.856 20.3812L18.2125 19.5901L18.3421 19.6575L16.9908 20.4356L16.8611 20.3708" fill="#2B99B2"/>
<path d="M16.9856 20.4461L18.3369 19.668L18.4355 19.7224L17.0842 20.5005L16.9856 20.4435" fill="#2B99B2"/>
<path d="M19.2988 27.9473C20.5249 27.2348 20.5225 24.9424 19.2932 22.8269C18.064 20.7115 16.0735 19.5742 14.8473 20.2867C13.6212 20.9992 13.6237 23.2917 14.8529 25.4071C16.0822 27.5225 18.0726 28.6598 19.2988 27.9473Z" fill="#C2F6FF"/>
<path d="M20.6532 27.1612L19.3018 27.9393C19.8647 27.6099 20.2148 26.9018 20.2174 25.9214C20.2174 23.9269 18.822 21.5121 17.0842 20.4954L18.4355 19.7173C20.1733 20.721 21.5739 23.1513 21.5687 25.1459C21.5661 26.1367 21.216 26.8344 20.6532 27.1612Z" fill="#2B99B2"/>
<path d="M17.0842 20.5031L18.4355 19.725L18.4667 19.7431L17.1154 20.5212L17.0842 20.5031Z" fill="#2B99B2"/>
<path d="M17.1152 20.5213L18.4666 19.7432L18.5988 19.8262L17.2501 20.6043L17.1152 20.5239" fill="#2B99B2"/>
<path d="M17.2502 20.6016L18.599 19.8235L18.7338 19.9117L17.3825 20.6898L17.2502 20.6016Z" fill="#2B99B2"/>
<path d="M17.3826 20.6899L18.7339 19.9117L18.8714 20.0077L17.52 20.7858L17.3826 20.6873" fill="#2B99B2"/>
<path d="M17.52 20.7884L18.8713 20.0103L19.0088 20.1166L17.6575 20.8947L17.52 20.791" fill="#2B99B2"/>
<path d="M17.6575 20.887L19.0088 20.1089L19.1488 20.223L17.7975 21.0011L17.6575 20.887Z" fill="#2B99B2"/>
<path d="M17.7976 21.0088L19.1489 20.2307L19.289 20.3526L17.9377 21.1307C17.891 21.0866 17.8443 21.0477 17.7976 21.0088Z" fill="#2B99B2"/>
<path d="M17.9375 21.1308L19.2888 20.3527L19.4263 20.4798L18.075 21.2579L17.9375 21.1308Z" fill="#2B99B2"/>
<path d="M18.075 21.2578L19.4263 20.4797L19.5585 20.612L18.2072 21.3901L18.075 21.2578Z" fill="#2B99B2"/>
<path d="M18.2124 21.3902L19.5637 20.6121C19.6078 20.6562 19.6493 20.7002 19.6908 20.7469L18.3421 21.525L18.2124 21.3902Z" fill="#2B99B2"/>
<path d="M18.3369 21.5251L19.6856 20.7469L19.8101 20.8818L18.4718 21.6651L18.3499 21.5302" fill="#2B99B2"/>
<path d="M18.4719 21.6651L19.8232 20.887C19.8621 20.9336 19.9036 20.9803 19.9425 21.0296L18.5938 21.8077L18.4719 21.6651Z" fill="#2B99B2"/>
<path d="M18.5808 21.8025L19.9295 21.0244C19.971 21.0737 20.0125 21.123 20.0514 21.1748L18.7001 21.953L18.5808 21.8051" fill="#2B99B2"/>
<path d="M18.7002 21.9504L20.0515 21.1722L20.1916 21.3538L18.8403 22.1319C18.7962 22.0697 18.7495 22.01 18.7002 21.9478" fill="#2B99B2"/>
<path d="M18.8401 22.1346L20.1914 21.3564C20.2588 21.4498 20.3263 21.5458 20.3911 21.6418L19.0398 22.4199C18.975 22.3239 18.9101 22.2305 18.8401 22.1371" fill="#2B99B2"/>
<path d="M19.0398 22.4173L20.3911 21.6392C20.4715 21.7585 20.5493 21.883 20.6245 22.0101L19.2732 22.7882C19.1971 22.6602 19.1193 22.5357 19.0398 22.4147" fill="#2B99B2"/>
<path d="M19.2732 22.7907L20.6245 22.0126C20.6764 22.1034 20.7283 22.1941 20.7775 22.2875L19.4288 23.0656L19.2732 22.7907Z" fill="#2B99B2"/>
<path d="M19.429 23.0657L20.7777 22.2876L20.8762 22.4769L19.5249 23.255C19.4938 23.1902 19.4601 23.128 19.429 23.0657Z" fill="#2B99B2"/>
<path d="M19.5249 23.255L20.8762 22.4769C20.9047 22.5314 20.9307 22.5885 20.9566 22.6429L19.6053 23.421C19.5794 23.364 19.5534 23.3095 19.5249 23.255Z" fill="#2B99B2"/>
<path d="M19.6052 23.4211L20.9565 22.6429L21.0266 22.796L19.6753 23.5741L19.6052 23.4236" fill="#2B99B2"/>
<path d="M19.6753 23.5714L21.0266 22.7933L21.0889 22.9412L19.7375 23.7193L19.6753 23.5688" fill="#2B99B2"/>
<path d="M19.7375 23.7218L21.0889 22.9437L21.1511 23.0968L19.7998 23.8749C19.7816 23.823 19.7609 23.7737 19.7375 23.7218Z" fill="#2B99B2"/>
<path d="M19.7998 23.8749L21.1511 23.0968C21.1719 23.1487 21.19 23.2006 21.2082 23.2498L19.8569 24.0279C19.8387 23.9761 19.8206 23.9268 19.7998 23.8749Z" fill="#2B99B2"/>
<path d="M19.8569 24.0279L21.2083 23.2498C21.229 23.3042 21.2472 23.3587 21.2653 23.4106L19.914 24.1887C19.8958 24.1342 19.8777 24.0823 19.8569 24.0279Z" fill="#2B99B2"/>
<path d="M19.9141 24.1888L21.2654 23.4106C21.2835 23.4651 21.2991 23.5196 21.3173 23.574L19.9659 24.3522C19.9504 24.2977 19.9322 24.2432 19.9141 24.1888Z" fill="#2B99B2"/>
<path d="M19.9658 24.3521L21.3171 23.574L21.3664 23.74L20.0281 24.5181C20.0125 24.461 19.9969 24.4066 19.9788 24.3521" fill="#2B99B2"/>
<path d="M20.0281 24.5181L21.3794 23.74C21.395 23.7945 21.4079 23.8515 21.4209 23.906L20.0722 24.6841C20.0566 24.627 20.0436 24.5726 20.0281 24.5181Z" fill="#2B99B2"/>
<path d="M20.0591 24.6841L21.4078 23.906C21.4234 23.9605 21.4363 24.0175 21.4467 24.072L20.0954 24.8501C20.0954 24.7956 20.0721 24.7412 20.0591 24.6867" fill="#2B99B2"/>
<path d="M20.0955 24.8476L21.4468 24.0695C21.4468 24.1239 21.4701 24.1784 21.4805 24.2329L20.1292 25.011C20.1292 24.9565 20.1084 24.8994 20.0955 24.845" fill="#2B99B2"/>
<path d="M20.1292 25.0136L21.4805 24.2355C21.4805 24.2873 21.4986 24.3418 21.509 24.3937L20.1577 25.1718C20.1577 25.1173 20.1395 25.0655 20.1292 25.0136Z" fill="#2B99B2"/>
<path d="M20.1577 25.1718L21.509 24.3937C21.509 24.4481 21.5246 24.5 21.5298 24.5519L20.1811 25.33L20.1577 25.1718Z" fill="#2B99B2"/>
<path d="M20.1812 25.33L21.5299 24.5519C21.5299 24.6038 21.5299 24.6556 21.548 24.7049L20.1967 25.483L20.1812 25.33Z" fill="#2B99B2"/>
<path d="M20.1968 25.4829L21.5481 24.7048C21.5481 24.7567 21.5481 24.8086 21.5481 24.8579L20.1968 25.636C20.1968 25.5841 20.1968 25.5348 20.1968 25.4829Z" fill="#2B99B2"/>
<path d="M20.2097 25.636L21.561 24.8579C21.561 24.9098 21.561 24.9617 21.561 25.0109L20.2123 25.789V25.636" fill="#2B99B2"/>
<path d="M20.2174 25.7891L21.5662 25.011C21.5662 25.0577 21.5662 25.107 21.5662 25.1536L20.2148 25.9317V25.7813" fill="#2B99B2"/>
<path d="M20.2175 25.9395L21.5688 25.1614C21.5688 25.2133 21.5688 25.2651 21.5688 25.3144L20.2175 26.0925C20.2175 26.0432 20.2175 25.994 20.2175 25.9421" fill="#2B99B2"/>
<path d="M20.2148 26.0899L21.5662 25.3118C21.5662 25.361 21.5662 25.4103 21.5662 25.4596L20.2148 26.2377C20.2148 26.1884 20.2148 26.1392 20.2148 26.0873" fill="#2B99B2"/>
<path d="M20.2045 26.2404L21.5558 25.4623C21.5534 25.5127 21.5482 25.5629 21.5403 25.6127L20.189 26.3908C20.1967 26.341 20.2019 26.2908 20.2045 26.2404Z" fill="#2B99B2"/>
<path d="M20.189 26.3908L21.5403 25.6127C21.5403 25.6645 21.5403 25.7138 21.5195 25.7631L20.1682 26.5412C20.1682 26.4919 20.1838 26.4427 20.189 26.3908Z" fill="#2B99B2"/>
<path d="M20.1681 26.5412L21.5194 25.7631L21.4883 25.9161L20.137 26.6942L20.1681 26.5412Z" fill="#2B99B2"/>
<path d="M20.137 26.6942L21.4883 25.9161C21.4883 25.9732 21.4597 26.0251 21.4442 26.0769L20.0955 26.8551C20.111 26.8032 20.124 26.7487 20.137 26.6942Z" fill="#2B99B2"/>
<path d="M20.0955 26.8525L21.4442 26.0743C21.4292 26.1306 21.411 26.1861 21.3897 26.2403L20.041 27.0184L20.0955 26.8525Z" fill="#2B99B2"/>
<path d="M20.0409 27.021L21.3897 26.2429C21.3677 26.3039 21.3426 26.3636 21.3145 26.4219L19.9631 27.2C19.9922 27.1417 20.0182 27.082 20.0409 27.021Z" fill="#2B99B2"/>
<path d="M19.9632 27.2L21.3145 26.4219C21.2792 26.4956 21.2403 26.5674 21.1978 26.6372L19.8464 27.4153C19.8899 27.3461 19.9289 27.2742 19.9632 27.2Z" fill="#2B99B2"/>
<path d="M19.8464 27.4153L21.1978 26.6372C21.0596 26.8506 20.873 27.0284 20.6531 27.1559L19.3018 27.9341C19.5217 27.8065 19.7083 27.6287 19.8464 27.4153Z" fill="#2B99B2"/>
<path d="M12.8694 13.5884L27.3915 5.15108L35.9585 0.477234L21.439 8.91453L12.8694 13.5884Z" fill="#58C6E9"/>
<path d="M21.439 8.91455L29.9515 23.4522L12.8694 13.5884L21.439 8.91455Z" fill="url(#paint3_linear_2311_41765)"/>
<path d="M21.439 8.91453L35.9585 0.477234L44.4736 15.0123L29.9515 23.4522L21.439 8.91453Z" fill="#94EBFF"/>
<path opacity="0.3" d="M29.9514 23.4522L36.0985 27.0082L51.1367 18.27L44.4735 15.0123L29.9514 23.4522Z" fill="#2B99B2"/>
</g>
<defs>
<linearGradient id="paint0_linear_2311_41765" x1="18.6404" y1="45.5739" x2="15.266" y2="51.4149" gradientUnits="userSpaceOnUse">
<stop stop-color="#FEF0F5"/>
<stop offset="0.53" stop-color="#FBD1E1"/>
<stop offset="1" stop-color="#F9BBD3"/>
</linearGradient>
<linearGradient id="paint1_linear_2311_41765" x1="10.107" y1="14.2264" x2="10.107" y2="40.7496" gradientUnits="userSpaceOnUse">
<stop stop-color="white"/>
<stop offset="0.22" stop-color="#FEF7FA"/>
<stop offset="0.54" stop-color="#FDE3ED"/>
<stop offset="0.94" stop-color="#FAC1D7"/>
<stop offset="1" stop-color="#F9BBD3"/>
</linearGradient>
<linearGradient id="paint2_linear_2311_41765" x1="28.4109" y1="24.5804" x2="28.4109" y2="51.1036" gradientUnits="userSpaceOnUse">
<stop stop-color="white"/>
<stop offset="0.22" stop-color="#FEF7FA"/>
<stop offset="0.54" stop-color="#FDE3ED"/>
<stop offset="0.94" stop-color="#FAC1D7"/>
<stop offset="1" stop-color="#F9BBD3"/>
</linearGradient>
<linearGradient id="paint3_linear_2311_41765" x1="21.4104" y1="8.91455" x2="21.4104" y2="23.4522" gradientUnits="userSpaceOnUse">
<stop stop-color="white"/>
<stop offset="1" stop-color="#94EBFF"/>
</linearGradient>
<clipPath id="clip0_2311_41765">
<rect width="52.6183" height="60" fill="white" transform="translate(3.75)"/>
</clipPath>
</defs>
</svg>
