<svg width="60" height="60" viewBox="0 0 60 60" fill="none" xmlns="http://www.w3.org/2000/svg">
<g clip-path="url(#clip0_2557_65483)">
<path d="M56.6619 45.7276L36.5008 57.4449L16.2039 45.7276L36.3676 34.0103L56.6619 45.7276Z" fill="#94EBFF"/>
<path d="M56.6621 45.7275L56.6569 48.2826L36.4932 59.9999L36.501 57.4449L56.6621 45.7275Z" fill="#0E7C8E"/>
<path d="M36.5009 57.4449L36.4931 59.9999L16.1987 48.2826L16.204 45.7275L36.5009 57.4449Z" fill="#23B6D8"/>
<path d="M53.9735 10.1341L36.5372 20.2682L18.9861 10.1341L36.4223 0L53.9735 10.1341Z" fill="#94EBFF"/>
<path d="M53.9735 10.1342L53.8742 45.2731L36.438 55.4072L36.5373 20.2683L53.9735 10.1342Z" fill="#58C6E9"/>
<path d="M36.5373 20.2683L36.4381 55.4072L18.8843 45.2731L18.9862 10.1342L36.5373 20.2683Z" fill="url(#paint0_linear_2557_65483)"/>
<path d="M46.0211 20.4093C47.8499 19.3643 49.3312 20.2003 49.3364 22.2982V26.0942L42.7293 29.9112V26.1125C42.7214 24.0225 44.1975 21.4622 46.0211 20.4093Z" fill="#0F4D5B"/>
<path d="M24.4724 40.0975L25.5775 39.4549C25.9224 39.2537 26.3979 39.2824 26.9256 39.5881L25.8205 40.2203C25.2928 39.9251 24.8173 39.8964 24.4724 40.0975Z" fill="#0E7C8E"/>
<path d="M24.4724 40.0976L25.5775 39.4549C25.6277 39.4263 25.6801 39.4018 25.7343 39.3817L24.6292 40.0244C24.5746 40.0434 24.5221 40.0679 24.4724 40.0976Z" fill="#0E7C8E"/>
<path d="M24.6292 40.0244L25.7343 39.3817C25.777 39.3677 25.8207 39.3563 25.8649 39.3478L24.7598 39.9905C24.7156 39.999 24.6719 40.0104 24.6292 40.0244Z" fill="#0E7C8E"/>
<path d="M24.7598 39.9904L25.8649 39.3477C25.901 39.3396 25.9377 39.3343 25.9746 39.332L24.8695 39.9747C24.8326 39.977 24.7959 39.9822 24.7598 39.9904Z" fill="#0E7C8E"/>
<path d="M24.8696 39.9747L25.9747 39.332H26.0714L24.9663 39.959H24.8696" fill="#0E7C8E"/>
<path d="M24.9661 39.9591L26.0712 39.3164H26.1574L25.0549 39.9591H24.9661Z" fill="#0E7C8E"/>
<path d="M25.0549 39.9722L26.1574 39.3295H26.2436L25.1385 39.9695H25.0549" fill="#0E7C8E"/>
<path d="M25.1387 39.98L26.2438 39.34L26.3248 39.353L25.2197 39.9931H25.1387" fill="#0E7C8E"/>
<path d="M25.2195 39.9931L26.3246 39.353L26.403 39.3687L25.3005 40.0114L25.2195 39.9931Z" fill="#0E7C8E"/>
<path d="M25.3005 40.0113L26.403 39.3687L26.4814 39.3922L25.3789 40.0322L25.3005 40.0113Z" fill="#0E7C8E"/>
<path d="M25.3789 40.0323L26.4814 39.3922L26.5572 39.4157L25.4547 40.0584L25.3789 40.0323Z" fill="#0E7C8E"/>
<path d="M25.4548 40.0583L26.5573 39.4156L26.6357 39.4444L25.5306 40.0871L25.4548 40.0583Z" fill="#0E7C8E"/>
<path d="M25.5305 40.0871L26.6356 39.4445L26.7114 39.4784L25.6063 40.1185L25.5305 40.0871Z" fill="#0E7C8E"/>
<path d="M25.6062 40.1185L26.7113 39.4784L26.7871 39.5124L25.682 40.155L25.6062 40.1185Z" fill="#0E7C8E"/>
<path d="M25.6821 40.155L26.7872 39.5123L26.8656 39.5541L25.7605 40.1968L25.6821 40.155Z" fill="#0E7C8E"/>
<path d="M25.7605 40.1969L26.8656 39.5542L26.9257 39.5882L25.8206 40.2204L25.7605 40.1891" fill="#0E7C8E"/>
<path d="M28.2634 44.079L27.1583 44.7191C27.4979 44.5232 27.7095 44.1026 27.7121 43.5043C27.7121 43.4546 27.7121 43.4102 27.7121 43.3606C27.6542 42.7294 27.4542 42.1195 27.1271 41.5765C26.7999 41.0336 26.3542 40.5717 25.8232 40.2255L26.9284 39.5854C27.4599 39.9308 27.9059 40.3925 28.2327 40.9356C28.5595 41.4788 28.7585 42.0891 28.8146 42.7205C28.8172 42.7684 28.8172 42.8163 28.8146 42.8642C28.8146 43.4599 28.603 43.8779 28.2634 44.079Z" fill="#0E7C8E"/>
<path d="M25.8206 40.2204L26.9257 39.5803H26.944L25.8388 40.223L25.8206 40.2099" fill="#0E7C8E"/>
<path d="M25.8389 40.2413L26.944 39.5986L27.025 39.6483L25.9199 40.2883L25.8389 40.2413Z" fill="#0E7C8E"/>
<path d="M25.9199 40.2883L27.025 39.6482L27.106 39.7004L26.0009 40.3431L25.9199 40.2883Z" fill="#0E7C8E"/>
<path d="M26.0007 40.3431L27.1058 39.7004L27.1868 39.7605L26.0843 40.4006L26.0007 40.3431Z" fill="#0E7C8E"/>
<path d="M26.0845 40.4007L27.187 39.7606C27.2159 39.78 27.2438 39.801 27.2706 39.8233L26.1681 40.466L26.0845 40.4007Z" fill="#0E7C8E"/>
<path d="M26.168 40.4659L27.2705 39.8232L27.3567 39.8912L26.2516 40.5339L26.168 40.4659Z" fill="#0E7C8E"/>
<path d="M26.2517 40.5339L27.3568 39.8912L27.4404 39.967L26.3353 40.6071L26.2517 40.5339Z" fill="#0E7C8E"/>
<path d="M26.3352 40.607L27.4403 39.9669L27.5239 40.0427L26.4188 40.6854L26.3352 40.607Z" fill="#0E7C8E"/>
<path d="M26.4189 40.6854L27.5241 40.0427L27.605 40.1237L26.4999 40.7638L26.4189 40.6854Z" fill="#0E7C8E"/>
<path d="M26.4998 40.7639L27.6049 40.1238L27.6806 40.2048L26.5755 40.8448L26.4998 40.7639Z" fill="#0E7C8E"/>
<path d="M26.5757 40.8448L27.6808 40.2047L27.7566 40.2857L26.6514 40.9284L26.5757 40.8448Z" fill="#0E7C8E"/>
<path d="M26.6514 40.9285L27.7565 40.2858L27.827 40.372L26.7245 41.0042L26.6514 40.9206" fill="#0E7C8E"/>
<path d="M26.7246 41.0042L27.8271 40.3641C27.8532 40.3929 27.8767 40.4216 27.9003 40.453L26.7951 41.0957L26.7246 41.0042Z" fill="#0E7C8E"/>
<path d="M26.7949 41.1034L27.9 40.4607C27.9288 40.4947 27.9549 40.5312 27.981 40.5678L26.8785 41.2105C26.8498 41.1739 26.8237 41.1373 26.7949 41.1034Z" fill="#0E7C8E"/>
<path d="M26.8787 41.2106L27.9812 40.5679C28.0204 40.6201 28.0595 40.675 28.0961 40.7298L26.991 41.3725C26.9544 41.3177 26.9179 41.2628 26.8787 41.2106Z" fill="#0E7C8E"/>
<path d="M26.991 41.3725L28.0961 40.7299C28.1483 40.8082 28.198 40.8866 28.2476 40.9676L27.1425 41.6103C27.0955 41.5293 27.0432 41.4483 26.991 41.3725Z" fill="#0E7C8E"/>
<path d="M27.1426 41.6102L28.2477 40.9675L28.3417 41.1373L27.2366 41.7879L27.1426 41.6181" fill="#0E7C8E"/>
<path d="M27.2366 41.788L28.3417 41.1453C28.3626 41.1818 28.3809 41.2184 28.3992 41.2576L27.294 41.8977C27.2758 41.8611 27.2575 41.8245 27.2366 41.788Z" fill="#0E7C8E"/>
<path d="M27.2939 41.8898L28.3991 41.2498L28.4461 41.3464L27.3462 41.9891L27.2992 41.8898" fill="#0E7C8E"/>
<path d="M27.3462 41.9891L28.4513 41.3464C28.467 41.3778 28.48 41.4091 28.4931 41.4405L27.388 42.0806C27.388 42.0492 27.3619 42.0205 27.3462 41.9891Z" fill="#0E7C8E"/>
<path d="M27.3828 42.0805L28.4879 41.4404L28.5271 41.5293L27.422 42.1719C27.4089 42.1406 27.3985 42.1119 27.3828 42.0805Z" fill="#0E7C8E"/>
<path d="M27.4221 42.172L28.5272 41.5293C28.5272 41.5606 28.5534 41.5894 28.5638 41.6207L27.4587 42.2634C27.4587 42.2321 27.4352 42.2033 27.4221 42.172Z" fill="#0E7C8E"/>
<path d="M27.4587 42.2634L28.5639 41.6207L28.6004 41.7148L27.4953 42.3575C27.4953 42.3261 27.4718 42.2948 27.4587 42.2634Z" fill="#0E7C8E"/>
<path d="M27.4951 42.3574L28.6002 41.7147L28.6316 41.8114L27.5291 42.4515L27.4951 42.3574Z" fill="#0E7C8E"/>
<path d="M27.5291 42.4515L28.6316 41.8114C28.6316 41.8428 28.6551 41.8767 28.6655 41.9107L27.5604 42.5508L27.5291 42.4515Z" fill="#0E7C8E"/>
<path d="M27.5605 42.5508L28.6657 41.9108C28.6657 41.9421 28.6839 41.9761 28.6944 42.01L27.5893 42.6527C27.5893 42.6188 27.571 42.5848 27.5605 42.5508Z" fill="#0E7C8E"/>
<path d="M27.5891 42.6527L28.6942 42.01C28.6942 42.044 28.7125 42.0753 28.7204 42.1093L27.6074 42.752C27.6074 42.718 27.5891 42.684 27.5813 42.6527" fill="#0E7C8E"/>
<path d="M27.6077 42.7519L28.7128 42.1093L28.7363 42.2085L27.6312 42.8512L27.6077 42.7519Z" fill="#0E7C8E"/>
<path d="M27.6389 42.8512L28.744 42.2085C28.744 42.2425 28.7571 42.2764 28.7623 42.3078L27.6598 42.9505C27.6598 42.9165 27.6598 42.8852 27.6389 42.8512Z" fill="#0E7C8E"/>
<path d="M27.6599 42.9505L28.7624 42.3079C28.7624 42.3392 28.7624 42.3732 28.7807 42.4045L27.6756 43.0472L27.6599 42.9505Z" fill="#0E7C8E"/>
<path d="M27.6755 43.0472L28.7806 42.4045C28.7806 42.4359 28.7806 42.4672 28.7937 42.4986L27.6886 43.1413C27.6886 43.1099 27.6886 43.0786 27.6886 43.0472" fill="#0E7C8E"/>
<path d="M27.6885 43.1412L28.7936 42.4985C28.7936 42.5351 28.7936 42.5691 28.7936 42.6057L27.6911 43.2483C27.6911 43.2118 27.6911 43.1778 27.6911 43.1412" fill="#0E7C8E"/>
<path d="M27.7017 43.2484L28.8042 42.6057C28.8068 42.6431 28.8068 42.6806 28.8042 42.7181L27.7095 43.3555V43.2432" fill="#0E7C8E"/>
<path d="M27.7095 43.3555L28.8146 42.7128V42.7572L27.7095 43.3999V43.3555Z" fill="#0E7C8E"/>
<path d="M27.7095 43.4051L28.8146 42.7625C28.8146 42.7964 28.8146 42.8278 28.8146 42.8617L27.7095 43.5044C27.7095 43.4705 27.7095 43.4391 27.7095 43.4051Z" fill="#0E7C8E"/>
<path d="M27.7122 43.5096L28.8173 42.8669C28.8173 42.8983 28.8173 42.9296 28.8173 42.9584L27.7122 43.6011C27.7122 43.5697 27.7122 43.541 27.7122 43.5096Z" fill="#0E7C8E"/>
<path d="M27.7095 43.6011L28.8146 42.9584C28.8146 42.9897 28.8146 43.0185 28.8146 43.0472L27.7095 43.6899C27.7095 43.6612 27.7095 43.6324 27.7095 43.6011Z" fill="#0E7C8E"/>
<path d="M27.7041 43.6899L28.8092 43.0472C28.8092 43.0786 28.8092 43.1099 28.8092 43.1387L27.7041 43.7814C27.7041 43.7526 27.7041 43.7213 27.7041 43.6899Z" fill="#0E7C8E"/>
<path d="M27.6937 43.7814L28.7988 43.1387C28.7988 43.17 28.7988 43.2014 28.7988 43.2301L27.6807 43.878C27.6807 43.8493 27.6807 43.8179 27.6807 43.7866" fill="#0E7C8E"/>
<path d="M27.6806 43.8779L28.7858 43.2352C28.7858 43.2666 28.7727 43.2979 28.7675 43.3293L27.6624 43.9694C27.6624 43.9406 27.6754 43.9093 27.6806 43.8779Z" fill="#0E7C8E"/>
<path d="M27.6624 43.9642L28.7675 43.3241C28.7675 43.3554 28.7518 43.3894 28.7413 43.4208L27.6362 44.0608C27.6362 44.0295 27.6545 43.9981 27.6624 43.9642Z" fill="#0E7C8E"/>
<path d="M27.6364 44.0609L28.7415 43.4208C28.7415 43.4547 28.7206 43.4887 28.7076 43.5201L27.6077 44.1627L27.639 44.0609" fill="#0E7C8E"/>
<path d="M27.6076 44.1627L28.7101 43.52C28.7101 43.5566 28.6813 43.5932 28.6657 43.6271L27.5605 44.2698L27.6076 44.1627Z" fill="#0E7C8E"/>
<path d="M27.5578 44.2698L28.6525 43.6167C28.6321 43.6619 28.6085 43.7055 28.582 43.7473L27.4873 44.4005C27.5134 44.3583 27.5369 44.3147 27.5578 44.2698Z" fill="#0E7C8E"/>
<path d="M27.4874 44.4005L28.5925 43.7578C28.5102 43.8899 28.3973 44.0001 28.2633 44.0792L27.1582 44.7192C27.2921 44.6412 27.405 44.5318 27.4874 44.4005Z" fill="#0E7C8E"/>
<path d="M25.8206 40.2203C26.3515 40.5665 26.7973 41.0284 27.1244 41.5713C27.4515 42.1143 27.6515 42.7242 27.7094 43.3554C27.7094 43.405 27.7094 43.4494 27.7094 43.4991C27.7094 44.7009 26.8525 45.1868 25.8049 44.5833C25.2551 44.2243 24.7975 43.7409 24.4694 43.1722C24.1412 42.6034 23.9516 41.9654 23.916 41.3097C23.916 41.2601 23.916 41.2131 23.916 41.1687C23.9892 40.074 24.8147 39.6482 25.8206 40.2203Z" fill="#2B99B2"/>
<path d="M51.1859 27.1105L51.1885 28.1581L44.6022 31.9594L44.5996 30.9144L51.1859 27.1105Z" fill="#0F4D5B"/>
<path d="M44.6023 31.9594L42.763 30.8909L42.7578 29.8433L44.5997 30.9144L44.6023 31.9594Z" fill="url(#paint1_linear_2557_65483)"/>
<path d="M44.5997 30.9144L42.7578 29.8433L49.3441 26.042L51.1859 27.1105L44.5997 30.9144Z" fill="#94EBFF"/>
<path d="M25.9146 42.4306L24.833 41.7879C24.8572 41.7736 24.8825 41.7614 24.9088 41.7513L25.9904 42.3914C25.9641 42.4024 25.9388 42.4155 25.9146 42.4306Z" fill="#469EBA"/>
<path d="M25.9903 42.3914L24.9087 41.7513C24.9287 41.7412 24.9497 41.7333 24.9714 41.7278L26.053 42.3705L25.9903 42.3914Z" fill="#459AB6"/>
<path d="M26.053 42.3705L24.9714 41.7278H25.0211L26.1001 42.3705H26.053Z" fill="#4396B1"/>
<path d="M26.1 42.3601L25.021 41.7174H25.0602L26.1418 42.3601H26.1Z" fill="#4193AC"/>
<path d="M26.1419 42.3548L25.0603 41.7122H25.0969L26.1785 42.3548H26.1419Z" fill="#3F8FA8"/>
<path d="M26.1785 42.3548L25.0969 41.7122H25.1283L26.2099 42.3548H26.1785Z" fill="#3E8BA3"/>
<path d="M26.2098 42.3601L25.1282 41.7174H25.1595L26.2411 42.3575H26.2098" fill="#3C879E"/>
<path d="M26.2413 42.3653L25.1597 41.7252H25.1884L26.27 42.3653H26.2413Z" fill="#3A839A"/>
<path d="M26.2698 42.3758L25.1882 41.7357H25.217L26.296 42.3784L26.2698 42.3627" fill="#387F95"/>
<path d="M26.296 42.3915L25.217 41.7488L25.2197 41.7514L26.3013 42.3941L26.296 42.3915Z" fill="#377B90"/>
<path d="M12.1439 50.5583L11.0623 49.9156L24.833 41.7905L25.9146 42.4306L12.1439 50.5583Z" fill="#4CAAC8"/>
<path d="M11.2164 52.1964L10.1375 51.5537C10.0819 51.5136 10.0378 51.4598 10.0094 51.3975C9.98102 51.3352 9.96932 51.2666 9.97547 51.1984L11.0571 51.8384C11.0509 51.9067 11.0624 51.9755 11.0902 52.0381C11.1181 52.1008 11.1616 52.1552 11.2164 52.1964Z" fill="#23B6D8"/>
<path d="M11.0571 51.8411L9.97554 51.1984L9.91284 28.7539L10.9944 29.3966L11.0571 51.8411Z" fill="#23B6D8"/>
<path d="M11.5379 28.4352L10.4563 27.7925L10.5321 27.7533L11.6137 28.396L11.5379 28.4352Z" fill="#469EBA"/>
<path d="M11.6136 28.3959L10.532 27.7532L10.5973 27.7323L11.6711 28.3724L11.6057 28.3959" fill="#459AB6"/>
<path d="M11.6712 28.3724L10.5896 27.7323H10.6366L11.7182 28.3724H11.6712Z" fill="#4396B1"/>
<path d="M11.7259 28.362L10.6443 27.7219H10.6861L11.7651 28.3646H11.7259" fill="#4193AC"/>
<path d="M11.7653 28.3594L10.6863 27.7167H10.7202L11.8018 28.3594H11.7653Z" fill="#3F8FA8"/>
<path d="M11.8018 28.3594L10.7202 27.7167H10.7542L11.8358 28.3568H11.8018" fill="#3E8BA3"/>
<path d="M11.8357 28.362L10.7542 27.7219H10.7855L11.8645 28.3646H11.8357" fill="#3C879E"/>
<path d="M11.8644 28.3699L10.7854 27.7272H10.8141L11.8931 28.3699H11.8644Z" fill="#3A839A"/>
<path d="M11.8932 28.3802L10.8142 27.7375L10.8403 27.7532L11.9324 28.3933H11.9036" fill="#387F95"/>
<path d="M11.9219 28.396L10.8403 27.7533L10.8429 27.7559L11.9245 28.396H11.9219Z" fill="#377B90"/>
<path d="M11.5378 28.4352C11.8382 28.2575 12.0812 28.3986 12.0838 28.7513L12.1439 50.5557L25.9147 42.4306C26.2151 42.253 26.4581 42.3967 26.4581 42.7494C26.4498 42.9405 26.3965 43.1269 26.3025 43.2935C26.2086 43.4602 26.0766 43.6022 25.9173 43.7082L11.6031 52.1546C11.5481 52.1951 11.4833 52.2203 11.4154 52.2276C11.3475 52.235 11.2788 52.2242 11.2165 52.1964C11.1616 52.1552 11.1181 52.1008 11.0903 52.0381C11.0624 51.9755 11.0509 51.9067 11.0571 51.8385L10.9944 29.394C11.0042 29.2029 11.0584 29.0168 11.1527 28.8503C11.2471 28.6839 11.3789 28.5417 11.5378 28.4352Z" fill="#0E7C8E"/>
<path d="M10.9944 29.3938L9.91281 28.7538C9.91025 28.7172 9.91025 28.6806 9.91281 28.644L10.9944 29.2867C10.9919 29.3224 10.9919 29.3582 10.9944 29.3938Z" fill="#2E6779"/>
<path d="M11.0023 29.2868L9.92065 28.6441C9.92374 28.6187 9.9281 28.5934 9.93372 28.5684L11.0153 29.211C11.0082 29.2358 11.0038 29.2612 11.0023 29.2868Z" fill="#306B7E"/>
<path d="M11.0152 29.2111L9.93359 28.5684C9.93663 28.5461 9.94188 28.5242 9.94927 28.5031L11.0283 29.1457C11.0268 29.1675 11.0268 29.1893 11.0283 29.2111" fill="#316F82"/>
<path d="M11.0284 29.1457L9.94946 28.503L9.96514 28.4481L11.0467 29.0908C11.0395 29.1087 11.0334 29.127 11.0284 29.1457Z" fill="#337387"/>
<path d="M11.0467 29.0908L9.96509 28.4481C9.96509 28.4298 9.97815 28.4115 9.98338 28.3959L11.065 29.0386C11.0573 29.0554 11.0512 29.0729 11.0467 29.0908Z" fill="#35778C"/>
<path d="M11.065 29.0385L9.9834 28.3958C9.9834 28.3775 9.99646 28.3619 10.0043 28.3462L11.0833 28.9863C11.0833 29.0046 11.0833 29.0202 11.065 29.0385Z" fill="#377B90"/>
<path d="M11.0831 28.9863L10.0042 28.3463C10.0095 28.3291 10.0165 28.3125 10.0251 28.2966L11.1067 28.9393L11.0831 28.9863Z" fill="#387F95"/>
<path d="M11.1067 28.9393L10.0251 28.2967L10.0487 28.2496L11.1303 28.8923L11.1067 28.9393Z" fill="#3A839A"/>
<path d="M11.1302 28.8922L10.0486 28.2495C10.0563 28.2333 10.065 28.2176 10.0747 28.2025L11.1485 28.8452C11.1388 28.8603 11.13 28.876 11.1223 28.8922" fill="#3C879E"/>
<path d="M11.1485 28.8452L10.0747 28.2025C10.0833 28.1863 10.0929 28.1706 10.1034 28.1555L11.1824 28.7982L11.1563 28.8452" fill="#3E8BA3"/>
<path d="M11.1825 28.7982L10.1035 28.1555C10.1131 28.1393 10.1235 28.1236 10.1349 28.1085L11.2139 28.7486L11.1825 28.7982Z" fill="#3F8FA8"/>
<path d="M11.2138 28.7486L10.1348 28.1085C10.1461 28.0905 10.1583 28.0731 10.1713 28.0563L11.2503 28.699L11.2138 28.7486Z" fill="#4193AC"/>
<path d="M11.2504 28.6989L10.1714 28.0562L10.2158 28.0013L11.2948 28.644L11.2504 28.6989Z" fill="#4396B1"/>
<path d="M11.2948 28.644L10.2158 28.0013L10.2733 27.936L11.3549 28.5787L11.2948 28.644Z" fill="#459AB6"/>
<path d="M11.355 28.5788L10.2734 27.9413C10.3288 27.8866 10.3901 27.8384 10.4563 27.7976L11.5379 28.4403C11.4707 28.4796 11.4091 28.528 11.355 28.584" fill="#469EBA"/>
<path d="M13.7611 32.5734V33.8536C13.7439 34.0706 13.6727 34.2798 13.5541 34.4623C13.4355 34.6448 13.2731 34.7948 13.0818 34.8986C13.0452 34.9247 13.0034 34.9482 12.959 34.9744C12.3545 35.2822 11.6858 35.4427 11.0074 35.4427C10.3291 35.4427 9.66032 35.2822 9.05584 34.9744C8.51243 34.6608 8.24072 34.2481 8.24072 33.8353V32.5577C8.24072 32.9705 8.50198 33.3833 9.05323 33.6968C9.66114 34.0065 10.334 34.1673 11.0162 34.1659C11.6985 34.1646 12.3706 34.0011 12.9773 33.689L13.1001 33.6132C13.2873 33.5076 13.4456 33.3575 13.5609 33.1761C13.6762 32.9948 13.7449 32.7877 13.7611 32.5734Z" fill="#1D7A89"/>
<path d="M13.761 32.5995V33.877C13.76 33.9298 13.7539 33.9823 13.7427 34.0338V32.7562C13.7526 32.7045 13.7587 32.6521 13.761 32.5995Z" fill="#1D7A89"/>
<path d="M13.761 32.7563V34.0339C13.751 34.0874 13.7362 34.1399 13.7166 34.1906V32.9131C13.735 32.8619 13.7498 32.8096 13.761 32.7563Z" fill="#1D7A89"/>
<path d="M13.7089 32.9052V34.1827C13.6889 34.2369 13.6644 34.2893 13.6357 34.3394V33.0619C13.6633 33.0112 13.6878 32.9589 13.7089 32.9052Z" fill="#1D7A89"/>
<path d="M13.6356 33.0698V34.3474C13.6027 34.4046 13.566 34.4596 13.5259 34.512V33.2344C13.5669 33.182 13.6044 33.1271 13.6382 33.0698" fill="#1D7A89"/>
<path d="M13.5233 33.2344V34.5119C13.471 34.5767 13.4142 34.6378 13.3535 34.6948V33.4277C13.4149 33.3714 13.4717 33.3102 13.5233 33.2448" fill="#1D7A89"/>
<path d="M13.3534 33.4277V34.7053C13.2716 34.7797 13.1842 34.8478 13.0921 34.9091C13.074 34.9228 13.0548 34.935 13.0347 34.9456V33.6681L13.0948 33.6315C13.1869 33.5704 13.2743 33.5023 13.356 33.4277" fill="#1D7A89"/>
<path d="M13.0321 33.6576V34.9352L12.9668 34.9743C12.7755 35.0827 12.5732 35.1703 12.3633 35.2356V33.9581C12.5768 33.8903 12.7826 33.8001 12.9772 33.689L13.0399 33.6498" fill="#1D7A89"/>
<path d="M12.3633 33.9633V35.2408C12.1921 35.2954 12.0176 35.339 11.8408 35.3714V34.0939C12.0176 34.0618 12.1922 34.0181 12.3633 33.9633Z" fill="#1D7A89"/>
<path d="M11.8407 34.0939V35.3714C11.7223 35.3923 11.6047 35.408 11.488 35.4184V34.1409C11.6082 34.1304 11.7258 34.1148 11.8407 34.0939Z" fill="#1D7A89"/>
<path d="M11.488 34.141V35.4185C11.3862 35.4185 11.2843 35.4368 11.1824 35.4394V34.1619C11.2843 34.1619 11.3862 34.1619 11.488 34.141Z" fill="#1D7A89"/>
<path d="M11.1825 34.1619V35.4394C11.0884 35.4394 10.9918 35.4394 10.8977 35.4394V34.1619C10.9918 34.1619 11.0858 34.1619 11.1799 34.1619" fill="#1D7A89"/>
<path d="M10.9002 34.1645V35.442L10.6389 35.4263V34.1488C10.7277 34.1488 10.8192 34.1619 10.9002 34.1645Z" fill="#1D7A89"/>
<path d="M10.626 34.1487V35.4263C10.5372 35.4263 10.4483 35.4106 10.3647 35.3975V34.12L10.626 34.1487Z" fill="#1D7A89"/>
<path d="M10.3648 34.1201V35.3976C10.2707 35.3976 10.1793 35.3689 10.1035 35.348V34.0704C10.195 34.0913 10.2864 34.107 10.3648 34.1201Z" fill="#1D7A89"/>
<path d="M10.0852 34.0704V35.348C9.98823 35.3297 9.89229 35.3061 9.79785 35.2774V33.9999C9.89229 34.0286 9.98823 34.0522 10.0852 34.0704Z" fill="#1D7A89"/>
<path d="M9.79779 33.9999V35.2775C9.68442 35.2459 9.5728 35.2084 9.46338 35.1651V33.8876C9.5728 33.9309 9.68442 33.9684 9.79779 33.9999Z" fill="#1D7A89"/>
<path d="M9.46337 33.8875V35.1651C9.32533 35.1121 9.19168 35.0483 9.06365 34.9744C8.52024 34.6608 8.24854 34.2481 8.24854 33.8353V32.5577C8.24854 32.9705 8.50979 33.3833 9.06104 33.6968C9.18962 33.7697 9.32319 33.8335 9.46076 33.8875" fill="#1D7A89"/>
<path d="M12.9564 31.4343C14.0014 32.0352 14.0406 33.0018 13.0922 33.621L12.9773 33.6889C12.3707 33.9989 11.6991 34.1606 11.0179 34.1606C10.3366 34.1606 9.66508 33.9989 9.05846 33.6889C7.97947 33.0645 7.97164 32.0508 9.0454 31.4264L9.17864 31.3559C9.77354 31.0835 10.4223 30.949 11.0765 30.9626C11.7307 30.9762 12.3733 31.1374 12.9564 31.4343Z" fill="#1D7A89"/>
<path d="M17.9411 20.5791L17.9568 25.9923C17.9568 28.9837 15.8667 32.6256 13.2542 34.1278C10.6416 35.63 8.53589 34.423 8.53589 31.4343V26.0184L17.9411 20.5791Z" fill="#2B99B2"/>
<path d="M8.53601 31.4343V26.0185L3 22.8076L3.01568 28.2235C3.01568 29.71 3.53819 30.755 4.38988 31.2462L9.91283 34.457C9.05852 33.9659 8.53601 32.9182 8.53601 31.4343Z" fill="url(#paint2_linear_2557_65483)"/>
<path d="M8.52295 26.0185L3 22.8102L12.4235 17.3683L17.9464 20.5791L8.52295 26.0185Z" fill="#58C6E9"/>
<path d="M7.53801 20.0566L7.52495 24.43L5.81372 23.4398L5.82678 19.0664L7.53801 20.0566Z" fill="#23B6D8"/>
<path d="M7.53797 20.0566L10.4849 18.3453L10.4719 22.7188L7.5249 24.43L7.53797 20.0566Z" fill="#0E7C8E"/>
<path d="M5.8269 19.0665L8.77126 17.3552L10.4851 18.3454L7.53813 20.0566L5.8269 19.0665Z" fill="#94EBFF"/>
<path d="M12.5464 17.3735L12.5359 21.747L10.8247 20.7594L10.8352 16.386L12.5464 17.3735Z" fill="#23B6D8"/>
<path d="M12.5463 17.3735L15.4933 15.6597L15.4802 20.0357L12.5359 21.7469L12.5463 17.3735Z" fill="#0E7C8E"/>
<path d="M10.8352 16.386L13.7822 14.6721L15.4934 15.6597L12.5464 17.3735L10.8352 16.386Z" fill="#94EBFF"/>
<path d="M46.4862 47.6557L45.3811 47.013L45.6554 42.219L46.7605 42.8617L46.4862 47.6557Z" fill="url(#paint3_linear_2557_65483)"/>
<path d="M47.3795 39.993L46.2744 39.3503L49.3024 37.6025L50.4075 38.2452L47.3795 39.993Z" fill="#EB6100"/>
<path d="M50.4077 38.2452L46.4862 47.6556L46.7605 42.8616L43.6855 44.6355L47.607 35.2251L47.3797 39.993L50.4077 38.2452Z" fill="#FCAA1A"/>
<path d="M43.6854 44.6356L42.5803 43.9929L46.5018 34.5851L47.6069 35.2252L43.6854 44.6356Z" fill="url(#paint4_linear_2557_65483)"/>
<mask id="mask0_2557_65483" style="mask-type:alpha" maskUnits="userSpaceOnUse" x="42" y="19" width="8" height="11">
<path d="M46.0211 20.4093C47.8499 19.3643 49.3312 20.2003 49.3364 22.2982V26.0942L42.7293 29.9112V26.1125C42.7214 24.0225 44.1975 21.4622 46.0211 20.4093Z" fill="#0F4D5B"/>
</mask>
<g mask="url(#mask0_2557_65483)">
<path d="M49.344 26.042L43.1941 22.293L41.4724 27.748L42.7578 29.8433L49.344 26.042Z" fill="#2B99B2"/>
</g>
<path opacity="0.2" d="M29.042 12.6317L41.6763 4.76526L52.0586 11.247L39.4739 18.5622L29.042 12.6317Z" fill="#23B6D8"/>
<path d="M46.0339 7.17935V9.30859C46.0339 10.594 45.2502 11.8793 43.6983 12.9061C43.5625 12.9949 43.4371 13.0837 43.2777 13.1673C39.5861 15.3122 33.5773 15.3122 29.8596 13.1673C27.9916 12.0883 27.0563 10.6697 27.0615 9.2485V7.11926C27.0615 8.53266 27.9916 9.95128 29.8622 11.0381C33.5773 13.183 39.5861 13.183 43.2777 11.0381C43.424 10.9519 43.5625 10.8657 43.6983 10.7768C45.2528 9.75011 46.0313 8.46473 46.0339 7.17935Z" fill="#EF597D"/>
<path d="M46.034 7.26038V9.39222C46.0282 9.57465 46.0081 9.75635 45.9739 9.93564V7.8064C46.0104 7.62652 46.0313 7.44384 46.0366 7.26038" fill="#EF597D"/>
<path d="M45.9713 7.8064V9.93563C45.9336 10.1178 45.8821 10.2969 45.8171 10.4712V8.34197C45.8826 8.17226 45.9341 7.99751 45.9713 7.81946" fill="#EF597D"/>
<path d="M45.8172 8.34717V10.4764C45.7447 10.6625 45.6573 10.8425 45.5559 11.0146V8.88536C45.6573 8.71329 45.7447 8.5333 45.8172 8.34717Z" fill="#EF597D"/>
<path d="M45.5636 8.86963V10.9989C45.4519 11.197 45.3243 11.3857 45.1821 11.5632V9.43394C45.3229 9.25545 45.4504 9.06684 45.5636 8.86963Z" fill="#EF597D"/>
<path d="M45.1848 9.44446V11.5737C45.0041 11.7998 44.8048 12.0104 44.5891 12.2033V10.0741C44.8005 9.87994 44.9961 9.66941 45.1743 9.44446" fill="#EF597D"/>
<path d="M44.5893 10.0741V12.2033C44.3089 12.4623 44.0074 12.6973 43.6879 12.9061C43.5939 12.9688 43.4972 13.0315 43.3979 13.0916V10.9598C43.4972 10.8997 43.5939 10.8396 43.6879 10.7769C44.0074 10.5681 44.3089 10.333 44.5893 10.0741Z" fill="#EF597D"/>
<path d="M43.4084 10.9597V13.0916L43.2778 13.1673C42.6155 13.5454 41.9149 13.8519 41.1877 14.0817V11.9525C41.9167 11.723 42.6191 11.4165 43.283 11.0381L43.4136 10.9597" fill="#EF597D"/>
<path d="M41.1929 11.9525V14.0948C40.6042 14.2829 40.0038 14.4322 39.3955 14.5416V12.4123C40.0042 12.2989 40.6046 12.1453 41.1929 11.9525Z" fill="#EF597D"/>
<path d="M39.4032 12.3993V14.5285C39.0061 14.5991 38.6012 14.6565 38.1936 14.6983V12.5665C38.6012 12.5273 39.0061 12.4698 39.4032 12.3993Z" fill="#EF597D"/>
<path d="M38.1937 12.5664V14.6983C37.8436 14.7322 37.4935 14.7557 37.1487 14.7662V12.6369C37.5014 12.6369 37.8541 12.603 38.1937 12.5664Z" fill="#EF597D"/>
<path d="M37.1408 12.637V14.7662C36.8169 14.7793 36.4929 14.7793 36.1689 14.7662V12.637C36.4929 12.637 36.8169 12.637 37.1408 12.637Z" fill="#EF597D"/>
<path d="M36.1689 12.6422V14.7714C35.8554 14.7714 35.5445 14.7479 35.2336 14.7218V12.5925C35.5445 12.6187 35.8554 12.6343 36.1689 12.6422Z" fill="#EF597D"/>
<path d="M35.2335 12.5925V14.7218C34.9226 14.6956 34.6169 14.6617 34.3113 14.6173V12.488C34.6169 12.5325 34.9252 12.5664 35.2335 12.5925Z" fill="#EF597D"/>
<path d="M34.3114 12.488V14.6173C33.9926 14.5728 33.6791 14.518 33.3708 14.4553V12.326C33.6791 12.3888 33.9953 12.4436 34.3114 12.488Z" fill="#EF597D"/>
<path d="M33.3708 12.3261V14.4553C33.0338 14.3848 32.7046 14.3038 32.3806 14.2124V12.0831C32.7046 12.1746 33.0338 12.2556 33.3708 12.3261Z" fill="#EF597D"/>
<path d="M32.3807 12.0831V14.2124C31.9835 14.1 31.5969 13.9694 31.2285 13.8231V11.6938C31.5995 11.8402 31.9862 11.9708 32.3807 12.0831Z" fill="#EF597D"/>
<path d="M31.2286 11.6939V13.8231C30.7568 13.6384 30.2992 13.4192 29.8596 13.1673C27.9916 12.0883 27.0563 10.6697 27.0615 9.2485V7.11926C27.0615 8.53266 27.9916 9.95128 29.8622 11.0381C30.3012 11.2894 30.7579 11.5086 31.2286 11.6939Z" fill="#EF597D"/>
<path d="M43.2358 3.26574C46.8046 5.32705 46.9613 8.61887 43.6983 10.7768C43.5624 10.8657 43.4239 10.9519 43.2776 11.0381C39.5861 13.183 33.5772 13.183 29.8621 11.0381C26.1471 8.89319 26.1262 5.41326 29.8203 3.26836C29.9667 3.18214 30.1156 3.09854 30.2697 3.02016C33.9848 1.12345 39.6671 1.20705 43.2358 3.26574Z" fill="#FFCADC"/>
<path opacity="0.3" d="M7.5249 24.43L10.4719 22.7188L12.3634 23.803L9.33018 25.5534L7.5249 24.43Z" fill="#2B99B2"/>
<path opacity="0.3" d="M12.5359 21.7365L15.4802 20.0253L17.3743 21.1095L14.3386 22.8625L12.5359 21.7365Z" fill="#2B99B2"/>
</g>
<defs>
<linearGradient id="paint0_linear_2557_65483" x1="35.3329" y1="19.5707" x2="20.0913" y2="45.968" gradientUnits="userSpaceOnUse">
<stop stop-color="white"/>
<stop offset="1" stop-color="#94EBFF"/>
</linearGradient>
<linearGradient id="paint1_linear_2557_65483" x1="42.7578" y1="30.9013" x2="44.6023" y2="30.9013" gradientUnits="userSpaceOnUse">
<stop stop-color="white"/>
<stop offset="1" stop-color="#94EBFF"/>
</linearGradient>
<linearGradient id="paint2_linear_2557_65483" x1="5.81895" y1="25.1589" x2="6.36759" y2="30.5486" gradientUnits="userSpaceOnUse">
<stop stop-color="white"/>
<stop offset="1" stop-color="#94EBFF"/>
</linearGradient>
<linearGradient id="paint3_linear_2557_65483" x1="47.1446" y1="43.0785" x2="44.9971" y2="46.7962" gradientUnits="userSpaceOnUse">
<stop stop-color="#FFF1DC"/>
<stop offset="0.14" stop-color="#FFEFD7"/>
<stop offset="0.32" stop-color="#FEEBC7"/>
<stop offset="0.51" stop-color="#FDE3AD"/>
<stop offset="0.72" stop-color="#FBD989"/>
<stop offset="0.94" stop-color="#FACC5B"/>
<stop offset="1" stop-color="#F9C84E"/>
</linearGradient>
<linearGradient id="paint4_linear_2557_65483" x1="47.6226" y1="35.2304" x2="42.5673" y2="43.9903" gradientUnits="userSpaceOnUse">
<stop stop-color="#FFF1DC"/>
<stop offset="0.14" stop-color="#FFEFD7"/>
<stop offset="0.32" stop-color="#FEEBC7"/>
<stop offset="0.51" stop-color="#FDE3AD"/>
<stop offset="0.72" stop-color="#FBD989"/>
<stop offset="0.94" stop-color="#FACC5B"/>
<stop offset="1" stop-color="#F9C84E"/>
</linearGradient>
<clipPath id="clip0_2557_65483">
<rect width="53.6619" height="60" fill="white" transform="translate(3)"/>
</clipPath>
</defs>
</svg>
