<svg width="60" height="60" viewBox="0 0 60 60" fill="none" xmlns="http://www.w3.org/2000/svg">
<g clip-path="url(#clip0_2311_41783)">
<path d="M11.2737 19.934L11.2189 39.3047L2.8125 34.4497L2.86726 15.0815L11.2737 19.934Z" fill="#FFCADC"/>
<path d="M11.2738 19.934L22.152 13.6135L22.0973 32.9843L11.219 39.3047L11.2738 19.934Z" fill="#C12B56"/>
<path d="M2.86719 15.0815L13.7455 8.75842L22.1519 13.6135L11.2736 19.9339L2.86719 15.0815Z" fill="#E54C78"/>
<path d="M27.492 25.8842L27.3956 59.9974L4.66382 46.8741L4.76029 12.7609L27.492 25.8842Z" fill="url(#paint0_linear_2311_41783)"/>
<path d="M27.492 25.8841L49.5432 13.0685L49.4467 47.1843L27.3955 59.9973L27.492 25.8841Z" fill="#E54C78"/>
<path d="M4.76025 12.8156L26.8141 0L49.5432 13.1233L27.492 25.9389L4.76025 12.8156Z" fill="#94EBFF"/>
<path d="M19.8653 46.8585V55.6143L10.0847 49.9666L10.1134 41.229L19.8653 46.8585Z" fill="#952142"/>
<path d="M47.2044 39.3646L47.1523 57.8462L39.1292 53.2154L39.1839 34.7312L47.2044 39.3646Z" fill="url(#paint1_linear_2311_41783)"/>
<path d="M47.2045 39.3647L57.5847 33.3311L57.5326 51.8153L47.1523 57.8463L47.2045 39.3647Z" fill="#E54C78"/>
<path d="M39.1838 34.7312L49.5615 28.7002L57.5846 33.331L47.2043 39.3647L39.1838 34.7312Z" fill="#F9BBD3"/>
<path d="M44.2891 50.3342L44.2735 56.1983L41.1941 54.4201L41.2097 48.5559L44.2891 50.3342Z" fill="#EF597D"/>
<path d="M41.1941 54.4201L44.2839 52.5766L44.2891 50.3342L41.2097 48.5559L41.1941 54.4201Z" fill="#952142"/>
<path d="M4.7002 21.9443L27.4763 35.3909V25.9154L4.7002 12.7191V21.9443Z" fill="#C2F6FF"/>
<path d="M49.5223 22.3432L27.4763 35.3909V25.9154L49.5718 13.0894L49.5223 22.3432Z" fill="#2B99B2"/>
<path opacity="0.3" d="M22.251 19.0996L30.7539 24.0433L45.9788 15.1962L37.3142 10.3438L22.251 19.0996Z" fill="#2B99B2"/>
<path d="M10.5619 30.6505L10.5515 35.0076L6.76025 32.8199L6.77329 28.4629L10.5619 30.6505Z" fill="#952142"/>
<path d="M6.76025 32.8199L10.5619 30.6505L10.5515 35.0076L6.76025 32.8199Z" fill="#EF597D"/>
<path d="M16.8744 33.9229L16.864 38.2799L13.0728 36.0923L13.0858 31.7352L16.8744 33.9229Z" fill="#952142"/>
<path d="M13.0728 36.0922L16.8744 33.9229L16.864 38.2799L13.0728 36.0922Z" fill="#EF597D"/>
<path d="M23.899 37.5994L23.886 41.9564L20.0947 39.7688L20.1078 35.4117L23.899 37.5994Z" fill="#952142"/>
<path d="M20.0947 39.7688L23.899 37.5994L23.886 41.9564L20.0947 39.7688Z" fill="#EF597D"/>
<path d="M22.1729 10.9434L22.1677 13.2093L16.9736 10.2107L16.9788 7.94226L22.1729 10.9434Z" fill="#F4B5D2"/>
<path d="M37.3221 8.07788L37.3143 10.3438L32.2715 13.2771L32.2767 11.0087L37.3221 8.07788Z" fill="#952142"/>
<path d="M27.3018 13.903L27.294 16.1688L22.2512 19.0996L22.259 16.8337L27.3018 13.903Z" fill="#952142"/>
<path d="M22.2588 16.8338L22.251 19.0996L17.1248 16.1402L17.13 13.8717L22.2588 16.8338Z" fill="#F4B5D2"/>
<path d="M37.3221 8.07791L32.2767 11.0087L37.4733 14.0099L32.4957 16.9015L27.3016 13.9029L22.2588 16.8337L17.13 13.8717L22.1728 10.9435L16.9788 7.94232L21.9564 5.05066L27.1504 8.04923L32.1958 5.11845L37.3221 8.07791Z" fill="#E54C78"/>
<path d="M37.4735 14.0099L37.4657 16.2758L32.488 19.1674L32.4959 16.9015L37.4735 14.0099Z" fill="#952142"/>
<path d="M32.4958 16.9015L32.488 19.1674L27.2939 16.1688L27.3018 13.903L32.4958 16.9015Z" fill="#F4B5D2"/>
<path d="M10.0847 49.9666L16.9736 45.2966L19.8653 46.8585V55.6143L10.0847 49.9666Z" fill="#EF597D"/>
</g>
<defs>
<linearGradient id="paint0_linear_2311_41783" x1="23.4766" y1="23.5661" x2="8.67929" y2="49.1947" gradientUnits="userSpaceOnUse">
<stop stop-color="white"/>
<stop offset="0.22" stop-color="#FFFAFB"/>
<stop offset="0.49" stop-color="#FDEAF1"/>
<stop offset="0.8" stop-color="#FBD0E1"/>
<stop offset="1" stop-color="#F9BBD3"/>
</linearGradient>
<linearGradient id="paint1_linear_2311_41783" x1="47.1757" y1="39.3464" x2="39.1604" y2="53.2311" gradientUnits="userSpaceOnUse">
<stop stop-color="white"/>
<stop offset="0.22" stop-color="#FFFAFB"/>
<stop offset="0.49" stop-color="#FDEAF1"/>
<stop offset="0.8" stop-color="#FBD0E1"/>
<stop offset="1" stop-color="#F9BBD3"/>
</linearGradient>
<clipPath id="clip0_2311_41783">
<rect width="54.7721" height="60" fill="white" transform="translate(2.8125)"/>
</clipPath>
</defs>
</svg>
