<svg width="60" height="60" viewBox="0 0 60 60" fill="none" xmlns="http://www.w3.org/2000/svg">
<g clip-path="url(#clip0_2311_41772)">
<path d="M33.5442 30.9682L27.6482 27.5436C28.1343 27.1193 28.6597 26.7421 29.2171 26.417C29.5154 26.2434 29.8249 26.0896 30.1435 25.9568L36.0395 29.3844C35.7219 29.5173 35.4134 29.671 35.1161 29.8446C34.5577 30.1686 34.0314 30.5448 33.5442 30.9682Z" fill="#76BCCC"/>
<path d="M36.0396 29.3845L30.1436 25.9568C30.3963 25.85 30.6558 25.7601 30.9205 25.6879L36.8165 29.1155C36.5521 29.1887 36.2926 29.2785 36.0396 29.3845Z" fill="#73B7C7"/>
<path d="M36.8164 29.1155L30.9204 25.6878C31.1109 25.635 31.3046 25.5941 31.5001 25.5653L37.3991 28.99C37.2027 29.0209 37.0082 29.0628 36.8164 29.1155Z" fill="#70B3C2"/>
<path d="M37.3992 28.99L31.5002 25.5653C31.6635 25.5387 31.8281 25.5217 31.9933 25.5145L37.8923 28.9422C37.7272 28.9495 37.5627 28.9655 37.3992 28.99Z" fill="#6EAEBD"/>
<path d="M37.8922 28.9422L31.9932 25.5145C32.1395 25.507 32.2861 25.507 32.4325 25.5145L38.3285 28.9422C38.1831 28.9347 38.0375 28.9347 37.8922 28.9422Z" fill="#6BA9B8"/>
<path d="M38.3286 28.9452L32.4326 25.5176C32.5659 25.5258 32.6986 25.5418 32.8301 25.5654L38.7291 28.993C38.5966 28.9694 38.4629 28.9534 38.3286 28.9452Z" fill="#68A4B3"/>
<path d="M38.7291 28.9929L32.8301 25.5653C32.9559 25.5869 33.0806 25.6148 33.2036 25.649L39.0996 29.0766C38.9776 29.0424 38.8539 29.0145 38.7291 28.9929Z" fill="#65A0AD"/>
<path d="M39.0996 29.0767L33.2036 25.649C33.3215 25.6841 33.4372 25.726 33.5503 25.7746L39.4493 29.2112C39.335 29.1631 39.2183 29.1212 39.0996 29.0856" fill="#629BA8"/>
<path d="M39.4493 29.2111L33.5503 25.7745C33.6642 25.8211 33.775 25.875 33.882 25.9359L39.781 29.3635C39.6734 29.3038 39.5627 29.2499 39.4493 29.2022" fill="#5F96A3"/>
<path d="M39.7808 29.3635L33.8818 25.924L33.9207 25.9449L39.8167 29.3725L39.7808 29.3516" fill="#5C929E"/>
<path d="M25.9777 25.4398L31.8767 28.8675C30.5917 28.1204 28.8136 28.225 26.8503 29.3576C25.8436 29.9548 24.9286 30.6946 24.1339 31.554L18.2349 28.1264C19.0317 27.268 19.9475 26.5283 20.9543 25.9299C22.9176 24.7973 24.6957 24.6928 25.9777 25.4398Z" fill="#2B99B2"/>
<path d="M24.1339 31.5539L18.2349 28.1263C18.3484 28.0068 18.465 27.8872 18.5815 27.7737L24.4835 31.1983C24.3669 31.3149 24.2534 31.4314 24.1398 31.5539" fill="#2B99B2"/>
<path d="M24.4835 31.1984L18.5815 27.7737C19.2898 27.0579 20.0873 26.4362 20.9543 25.9239C21.2762 25.7377 21.6096 25.5721 21.9524 25.4279L27.8484 28.8555C27.5059 29.0003 27.1725 29.166 26.8503 29.3516C25.9844 29.8619 25.187 30.4804 24.4776 31.1924" fill="#2B99B2"/>
<path d="M27.8484 28.8615L21.9524 25.4338C22.2217 25.3169 22.4982 25.2171 22.7802 25.135L28.6672 28.5776C28.3854 28.6601 28.109 28.7599 27.8394 28.8764" fill="#2B99B2"/>
<path d="M28.6671 28.5776L22.78 25.1499C22.9828 25.0956 23.1883 25.0517 23.3956 25.0184L29.2946 28.4461C29.086 28.4776 28.8794 28.5215 28.676 28.5776" fill="#2B99B2"/>
<path d="M29.2947 28.4462L23.3958 25.0275C23.571 25.0005 23.7476 24.9835 23.9247 24.9767L29.8207 28.4013C29.6504 28.4013 29.474 28.4282 29.2947 28.4551" fill="#2B99B2"/>
<path d="M29.8206 28.3923L23.9246 24.9677C24.0798 24.9587 24.2355 24.9587 24.3907 24.9677L30.2867 28.3953C30.1343 28.3953 29.9879 28.3953 29.8206 28.3953" fill="#2B99B2"/>
<path d="M30.2869 28.3983L24.3909 24.9707C24.5331 24.9799 24.6748 24.9969 24.8152 25.0215L30.7142 28.4491C30.5728 28.4245 30.4301 28.4075 30.2869 28.3983Z" fill="#2B99B2"/>
<path d="M30.7142 28.4491L24.8152 25.0275C24.9497 25.0514 25.0841 25.0813 25.2126 25.1171L31.1086 28.5447C30.979 28.5071 30.8473 28.4772 30.7142 28.4551" fill="#2B99B2"/>
<path d="M31.1087 28.5387L25.2126 25.1111C25.3382 25.1499 25.4637 25.1918 25.5862 25.2426L31.4822 28.6702C31.3601 28.6197 31.2354 28.5758 31.1087 28.5387Z" fill="#2B99B2"/>
<path d="M31.4822 28.6702L25.5862 25.2426C25.7082 25.2941 25.8269 25.353 25.9418 25.4189L31.8378 28.8435C31.7226 28.7792 31.6038 28.7213 31.4822 28.6702Z" fill="#2B99B2"/>
<path d="M31.8379 28.8436L25.9419 25.4189L25.9778 25.4399L31.8768 28.8675L31.8379 28.8436Z" fill="#2B99B2"/>
<path d="M5.917 54.5492L0.0209961 51.1216C0.0209961 51.0858 0.0209961 51.0499 0.0209961 51.014L5.917 54.4417C5.91401 54.4775 5.917 54.5134 5.917 54.5492Z" fill="#58C6E9"/>
<path d="M5.917 54.5492L0.0209961 51.1216C0.0209961 51.0858 0.0209961 51.0499 0.0209961 51.014L5.917 54.4417C5.917 54.4775 5.917 54.5134 5.917 54.5492Z" fill="#58C6E9"/>
<path d="M5.91383 54.4417L0.0178223 51.0141V50.8856L5.91383 54.3133V54.4417Z" fill="#58C6E9"/>
<path d="M5.89899 55.15C5.89899 54.9528 5.89899 54.7525 5.91692 54.5523L0.0209183 51.1217C0.0059766 51.3249 0 51.5251 0 51.7194C0 53.8291 0.753063 55.3054 1.95438 56.0106L7.85038 59.4353C6.64907 58.745 5.90497 57.2598 5.89899 55.15Z" fill="#58C6E9"/>
<path d="M10.4203 42.578C10.4353 42.3688 10.4562 42.1626 10.4831 41.9534C10.4831 41.8937 10.498 41.8369 10.507 41.7801L10.5518 41.4813L10.5877 41.284C10.5877 41.1884 10.6235 41.0928 10.6415 40.9852C10.6594 40.8776 10.6654 40.8806 10.6744 40.8268C10.7281 40.5848 10.7879 40.3397 10.8537 40.0977L10.8895 39.9781C10.9493 39.766 11.012 39.5568 11.0808 39.3476L11.0957 39.3028C11.1644 39.0996 11.2362 38.8964 11.3139 38.7051C11.3318 38.6543 11.3527 38.6065 11.3706 38.5557C11.4394 38.3824 11.5081 38.212 11.5828 38.0417C11.5915 38.0163 11.6014 37.9914 11.6127 37.967C11.6964 37.7787 11.78 37.5904 11.8697 37.4052L11.9324 37.2797C12.0042 37.1302 12.0789 36.9808 12.1536 36.8374L12.2313 36.682C12.3269 36.4997 12.4285 36.3204 12.5301 36.1411C12.5483 36.1062 12.5682 36.0723 12.5899 36.0395C12.6795 35.8841 12.7752 35.7407 12.8708 35.5763L12.9574 35.4418C13.077 35.2566 13.1995 35.0743 13.325 34.892L13.3848 34.8113C13.5163 34.623 13.6507 34.4407 13.7882 34.2614L13.842 34.1897C14.0183 33.9656 14.1976 33.7504 14.3799 33.5383L14.4516 33.4546C14.5652 33.3231 14.6817 33.1946 14.7983 33.0691C14.9208 32.9376 15.0433 32.8121 15.1688 32.6866L15.2495 32.6089C15.4139 32.4505 15.5782 32.31 15.7486 32.1457L15.7934 32.1038C15.9667 31.9524 16.143 31.806 16.3223 31.6646L16.4269 31.5839C16.6032 31.4494 16.7825 31.3179 16.9618 31.1954L17.0604 31.1296C17.2487 31.0041 17.44 30.8816 17.6342 30.771C17.8285 30.6605 17.933 30.6007 18.0974 30.523L18.2289 30.4573L18.5815 30.2959L18.6981 30.2451C18.8086 30.2003 18.9192 30.1614 19.0268 30.1226L19.0985 30.0957C19.23 30.0509 19.3615 30.009 19.49 29.9761L19.7081 29.9194L19.8217 29.8925C19.9293 29.8686 20.0368 29.8506 20.1414 29.8327C20.3018 29.8072 20.4634 29.7903 20.6255 29.7819H20.7212C20.8615 29.7744 21.0022 29.7744 21.1425 29.7819H21.2172C21.3278 29.7819 21.4354 29.8028 21.543 29.8208H21.6446C21.7671 29.8447 21.8896 29.8716 22.0062 29.9044H22.0211C22.1326 29.9375 22.2424 29.9764 22.3498 30.021L22.4425 30.0598C22.5351 30.1017 22.6247 30.1435 22.7114 30.1913C22.7413 30.2092 22.7712 30.2212 22.7981 30.2391L16.9349 26.8205L16.8961 26.7965L16.8483 26.7726C16.7616 26.7278 16.672 26.683 16.5793 26.6412L16.5285 26.6172H16.4867C16.3791 26.5754 16.2685 26.5336 16.155 26.5007C16.0353 26.4654 15.9135 26.4375 15.7904 26.417H15.7486H15.6888C15.5842 26.3991 15.4736 26.3871 15.3631 26.3782H15.3093H15.2794C15.139 26.3707 14.9984 26.3707 14.858 26.3782H14.8162H14.7624C14.6003 26.3855 14.4387 26.4015 14.2783 26.426H14.2574C14.1558 26.4409 14.0512 26.4619 13.9585 26.4828L13.848 26.5097C13.7792 26.5276 13.7135 26.5395 13.6478 26.5605H13.6268C13.4953 26.5963 13.3668 26.6352 13.2354 26.68L13.1636 26.7069C13.0561 26.7457 12.9455 26.7846 12.8349 26.8324H12.7961L12.7184 26.8653C12.5988 26.9161 12.4823 26.9699 12.3628 27.0266L12.2343 27.0924C12.0789 27.1701 11.9354 27.2508 11.7681 27.3404C11.6007 27.4301 11.3856 27.5735 11.1943 27.702L11.0987 27.7648C10.9164 27.8873 10.7401 28.0188 10.5608 28.1533L10.4592 28.2339C10.2799 28.3744 10.1036 28.5328 9.92726 28.6762L9.88244 28.7151C9.71509 28.8645 9.54774 29.0139 9.38637 29.1783L9.33557 29.2261C9.32487 29.2353 9.31488 29.2453 9.30569 29.256C9.18018 29.3815 9.05467 29.507 8.93214 29.6385H8.9172C8.80066 29.764 8.6871 29.8925 8.57055 30.024L8.54067 30.0598L8.49883 30.1076C8.31654 30.3198 8.13725 30.538 7.96392 30.7591C7.96255 30.766 7.96255 30.7731 7.96392 30.78C7.94934 30.7956 7.93632 30.8126 7.92507 30.8308C7.78761 31.0101 7.65014 31.1954 7.51866 31.3807C7.51866 31.3986 7.49176 31.4165 7.47981 31.4374C7.47282 31.4457 7.4668 31.4547 7.46188 31.4643C7.33338 31.6436 7.21086 31.8289 7.09132 32.0142L7.05546 32.065C7.04052 32.0919 7.02558 32.1188 7.00765 32.1457C6.91202 32.2981 6.8164 32.4445 6.70882 32.6089C6.70882 32.6328 6.67893 32.6567 6.66698 32.6806L6.64905 32.7105C6.54446 32.8898 6.44584 33.0691 6.35021 33.2514C6.34342 33.2669 6.33543 33.2819 6.32631 33.2962L6.25459 33.3948C6.17689 33.5402 6.10218 33.6867 6.03046 33.8341L5.98564 33.9237L5.96173 33.9775C5.87208 34.1658 5.78542 34.3511 5.70473 34.5393V34.5573C5.70473 34.5752 5.68979 34.5961 5.68083 34.617C5.6091 34.7874 5.53738 34.9577 5.47164 35.1281C5.47164 35.1549 5.44773 35.1818 5.43877 35.2087L5.41187 35.2805C5.33716 35.4807 5.26246 35.6839 5.19671 35.8781V35.911C5.12499 36.1202 5.06224 36.3324 5.00247 36.5415C4.99587 36.5678 4.98789 36.5938 4.97856 36.6192V36.6611C4.91282 36.9061 4.85305 37.1482 4.79926 37.3902C4.79255 37.4117 4.78755 37.4337 4.78432 37.456C4.78432 37.4859 4.78432 37.5187 4.76639 37.5486C4.74547 37.6442 4.72754 37.7399 4.70961 37.8474C4.69168 37.955 4.68571 37.9789 4.67674 38.0447C4.66778 38.1104 4.64387 38.2419 4.63192 38.3435C4.63192 38.3913 4.63192 38.4362 4.611 38.484C4.60953 38.4959 4.60953 38.5079 4.611 38.5198C4.5841 38.729 4.56318 38.9352 4.54824 39.1444V39.2759C4.54824 39.488 4.52732 39.7002 4.53031 39.9094C4.5272 40.4962 4.58934 41.0815 4.71559 41.6546L4.46756 41.8907L4.33906 42.0252L4.18964 42.1776C4.09102 42.2792 3.9954 42.3838 3.89081 42.4764L3.76529 42.6139L3.72645 42.6587L3.63082 42.7752C3.50531 42.9217 3.3798 43.0741 3.26026 43.2265L3.18556 43.3161C3.15268 43.358 3.1228 43.4058 3.08993 43.4476L2.83592 43.7883L2.7373 43.9228L2.65961 44.0393L2.4564 44.3381C2.42054 44.3949 2.38169 44.4457 2.34583 44.4995C2.30997 44.5533 2.30101 44.5772 2.2771 44.6131L2.10676 44.894L1.99918 45.0703C1.97528 45.1121 1.95436 45.1539 1.93045 45.1928L1.77805 45.4647C1.74816 45.5245 1.7123 45.5813 1.68242 45.6381C1.65253 45.6948 1.63759 45.7307 1.61369 45.7785C1.58978 45.8263 1.51806 45.9578 1.47323 46.0505L1.39255 46.2118C1.36565 46.2626 1.34473 46.3164 1.32083 46.3672C1.29692 46.418 1.23417 46.5555 1.19233 46.6481C1.15049 46.7408 1.14452 46.7467 1.1236 46.7975L1.05487 46.9649C1.01303 47.0635 0.97418 47.1621 0.935332 47.2637C0.914413 47.3115 0.893495 47.3564 0.875565 47.4042C0.857635 47.452 0.836716 47.5177 0.815798 47.5715C0.776949 47.6821 0.735112 47.7897 0.699252 47.9002C0.681322 47.9481 0.663392 47.9959 0.64845 48.0437C0.633509 48.0915 0.618567 48.1423 0.600637 48.1931C0.561788 48.3186 0.52294 48.4471 0.48708 48.5726C0.46915 48.6264 0.45122 48.6802 0.436278 48.734L0.409383 48.8416C0.363562 49.0129 0.321725 49.1832 0.283872 49.3526C0.283872 49.4064 0.256977 49.4572 0.245024 49.508C0.246704 49.5308 0.246704 49.5538 0.245024 49.5767C0.245024 49.6305 0.224106 49.6843 0.215141 49.7381C0.188245 49.8755 0.164339 50.013 0.140432 50.1505L0.113537 50.3328C0.113537 50.3746 0.0985946 50.4194 0.0926179 50.4642C0.0776762 50.5987 0.0627346 50.7302 0.0507812 50.8647L5.91392 54.3132C5.93185 54.1369 5.95276 53.9606 5.97966 53.7813C5.97966 53.7215 5.99759 53.6618 6.00655 53.599C6.02747 53.4645 6.05138 53.3271 6.07827 53.1896C6.07827 53.1358 6.09919 53.082 6.10816 53.0282L6.16195 52.8041C6.19781 52.6348 6.23965 52.4644 6.28746 52.2931C6.31137 52.2035 6.33527 52.1138 6.36217 52.0242C6.38906 51.9345 6.43688 51.7701 6.47871 51.6446C6.52055 51.5191 6.54147 51.4504 6.57434 51.3458C6.60721 51.2412 6.65204 51.1277 6.69387 51.0171C6.73571 50.9065 6.77157 50.8109 6.81042 50.7183C6.84927 50.6256 6.8911 50.521 6.93294 50.4194C6.97478 50.3178 7.02259 50.2072 7.06742 50.1027C7.11224 49.9981 7.15408 49.9144 7.19592 49.8217C7.23775 49.7291 7.29752 49.6096 7.35131 49.505C7.4051 49.4004 7.44096 49.3227 7.48877 49.2301C7.53659 49.1374 7.59934 49.0239 7.65612 48.9312C7.7129 48.8386 7.75474 48.7489 7.80853 48.6593C7.86232 48.5696 7.92208 48.4591 7.98185 48.3604C8.04162 48.2618 8.09541 48.1722 8.15518 48.0795C8.21494 47.9869 8.27172 47.8973 8.33149 47.8046L8.53469 47.5058L8.71399 47.2548C8.79568 47.1412 8.87935 47.0276 8.96502 46.9141L9.13535 46.69C9.25787 46.5376 9.3804 46.3911 9.50591 46.2417L9.64337 46.0803C9.68222 46.0325 9.72406 45.9877 9.76589 45.9429L10.0647 45.644L10.2171 45.4886C10.3397 45.3631 10.4652 45.2406 10.5907 45.1211C10.4672 44.5466 10.4051 43.9605 10.4054 43.3729C10.4054 43.1667 10.4054 42.9545 10.4263 42.7424C10.4174 42.6587 10.4174 42.6198 10.4203 42.578Z" fill="url(#paint0_linear_2311_41772)"/>
<path d="M17.6551 30.7651C20.4671 29.1395 22.9116 29.5698 24.1338 31.554C24.9286 30.6947 25.8435 29.9549 26.8502 29.3576C29.9461 27.5646 32.5789 28.3416 33.5441 30.9683C34.0313 30.5449 34.5576 30.1687 35.116 29.8447C38.7647 27.7349 41.7352 29.4293 41.7471 33.625V33.7535C41.7471 38.7321 38.2597 44.8103 33.9266 47.2996L13.7852 58.9273C12.0788 59.9134 10.498 60.1944 9.20702 59.8746C7.23472 59.6714 5.9049 57.971 5.89893 55.15C5.89893 54.9528 5.89893 54.7526 5.91686 54.5524C5.91686 54.5165 5.91686 54.4806 5.91686 54.4448V54.3133C6.21569 51.053 8.08341 47.4401 10.5817 45.0913C10.4582 44.5167 10.3961 43.9307 10.3964 43.3431C10.3814 38.7201 13.6298 33.096 17.6551 30.7651Z" fill="url(#paint1_linear_2311_41772)"/>
<path d="M58.252 26.16L50.6646 21.7552C51.2383 21.4235 51.8151 21.0559 52.3888 20.6584L59.9732 25.0663C59.3975 25.4647 58.8237 25.8293 58.252 26.16Z" fill="#EB6100"/>
<path d="M58.252 26.16L50.6646 21.7552C51.2383 21.4235 51.8151 21.0559 52.3888 20.6584L59.9732 25.0663C59.3975 25.4647 58.8217 25.8293 58.246 26.16" fill="#EB6100"/>
<path d="M45.9101 27.3882L38.3257 22.9803C41.6368 24.9048 46.1133 24.3819 50.6646 21.7551L58.252 26.1599C53.6947 28.7867 49.2212 29.3127 45.9101 27.3882Z" fill="#EB6100"/>
<path d="M45.9101 27.3882L38.3257 22.9803L38.4213 23.0341L45.9998 27.4419L45.9071 27.3882" fill="#EB6100"/>
<path d="M45.9998 27.442L38.4214 23.0342C38.6985 23.1919 38.9849 23.3326 39.279 23.4555L46.8605 27.8604C46.5669 27.7372 46.2806 27.5976 46.0028 27.442" fill="#EB6100"/>
<path d="M46.8605 27.8603L39.2791 23.4554C39.5717 23.5777 39.871 23.6835 40.1756 23.7722L47.757 28.18C47.4526 28.0898 47.1533 27.983 46.8605 27.8603Z" fill="#EB6100"/>
<path d="M47.7628 28.18L40.1814 23.7722C40.4985 23.8655 40.8208 23.9404 41.1466 23.9963L48.7281 28.4012C48.4027 28.3444 48.0805 28.2706 47.7628 28.18Z" fill="#EB6100"/>
<path d="M48.7282 28.4012L41.1467 23.9963C41.491 24.0549 41.8381 24.0948 42.1867 24.1159L49.7681 28.5237C49.4195 28.5012 49.0724 28.4603 48.7282 28.4012Z" fill="#EB6100"/>
<path d="M49.768 28.5237L42.1865 24.1309C42.5678 24.1504 42.9498 24.1504 43.3311 24.1309L50.9125 28.5357C50.5313 28.5567 50.1492 28.5567 49.768 28.5357" fill="#EB6100"/>
<path d="M50.9125 28.5327L43.3311 24.1309C43.7654 24.11 44.1983 24.0661 44.628 23.9994L52.2124 28.4072C51.7817 28.4731 51.3478 28.516 50.9125 28.5357" fill="#EB6100"/>
<path d="M52.2126 28.4043L44.6282 23.9964C45.1501 23.9169 45.6669 23.8071 46.1761 23.6677L53.7695 28.0755C53.261 28.2135 52.7452 28.3233 52.2245 28.4043" fill="#EB6100"/>
<path d="M53.7694 28.0755L46.176 23.6677C46.8705 23.478 47.5522 23.2444 48.2171 22.9684L55.7985 27.3732C55.1381 27.651 54.4603 27.8856 53.7694 28.0755Z" fill="#EB6100"/>
<path d="M55.7985 27.3732L48.217 22.9684C49.0582 22.6172 49.8757 22.2119 50.6645 21.7551L58.2519 26.1599C57.4638 26.6179 56.6461 27.0232 55.8044 27.3732" fill="#EB6100"/>
<path d="M29.6743 41.0569C29.6235 40.9732 29.5787 40.8836 29.5309 40.7939C29.4831 40.7043 29.3845 40.5279 29.3157 40.3875C29.2679 40.2919 29.2231 40.1932 29.1783 40.0887C29.1335 39.9841 29.0528 39.8167 28.993 39.6793C28.9332 39.5418 28.9093 39.4701 28.8705 39.3625C28.8316 39.2549 28.7629 39.0846 28.7121 38.9411L28.6015 38.6094C28.5567 38.463 28.5119 38.3106 28.47 38.1701C28.4282 38.0297 28.4073 37.94 28.3774 37.8265C28.3475 37.7129 28.3027 37.5276 28.2668 37.3693C28.231 37.2109 28.213 37.1332 28.1891 37.0136C28.1652 36.8941 28.1294 36.6969 28.1025 36.5355C28.0756 36.3741 28.0606 36.2994 28.0427 36.1799C28.0158 36.0096 27.9949 35.8362 27.974 35.6659C27.974 35.5494 27.9441 35.4358 27.9321 35.3163C27.9142 35.128 27.8993 34.9367 27.8843 34.7455C27.8843 34.6409 27.8664 34.5393 27.8604 34.4467C27.8604 34.1986 27.8395 33.9446 27.8335 33.6936C27.8335 33.6428 27.8335 33.592 27.8335 33.5382C27.8335 33.2394 27.8335 32.9405 27.8335 32.6118C27.8335 32.5222 27.8335 32.4265 27.8335 32.3339C27.8335 32.1128 27.8515 31.8916 27.8634 31.6675C27.8634 31.545 27.8843 31.4225 27.8933 31.2999C27.8933 31.1027 27.9232 30.9055 27.9441 30.7023C27.9441 30.5678 27.974 30.4333 27.9889 30.2988C28.0098 30.1165 28.0308 29.9343 28.0547 29.752C28.0905 29.477 28.1353 29.1991 28.1802 28.9212C28.1802 28.8196 28.2101 28.718 28.228 28.6224C28.2937 28.2399 28.3684 27.8574 28.4491 27.4719C28.5029 27.2208 28.5627 26.9698 28.6224 26.7158C28.6434 26.6262 28.6613 26.5365 28.6822 26.4439C28.7689 26.0972 28.8585 25.7506 28.9542 25.4039C28.9542 25.374 28.9751 25.3412 28.981 25.3113C29.0647 25.0125 29.1544 24.7136 29.247 24.4148C29.2799 24.3072 29.3157 24.1966 29.3516 24.0891C29.4233 23.859 29.498 23.6288 29.5787 23.3987C29.6116 23.2971 29.6474 23.1926 29.6833 23.0999C29.77 22.8549 29.8596 22.6128 29.9493 22.3678C29.9821 22.2841 30.012 22.1974 30.0449 22.1138C30.1644 21.794 30.2899 21.4772 30.4214 21.1605L30.5051 20.9603C30.6157 20.6973 30.7292 20.4373 30.8428 20.1743C30.8816 20.0906 30.9205 20.004 30.9563 19.9203C31.0998 19.6035 31.2552 19.2868 31.3986 18.97C31.6078 18.5337 31.8319 18.1004 32.059 17.6671L32.2563 17.2995C32.4356 16.9678 32.6209 16.6361 32.8091 16.3074L33.0093 15.9608C33.2623 15.5264 33.5253 15.0961 33.7983 14.6698C33.9895 14.371 34.1838 14.0721 34.3959 13.7733L34.5483 13.5521C34.7127 13.3131 34.8771 13.074 35.0444 12.8379C35.1042 12.7543 35.1639 12.6706 35.2267 12.5899C35.4418 12.2911 35.663 11.9922 35.8871 11.6934C36.168 11.3258 36.4549 10.9672 36.7418 10.6206C36.7986 10.5489 36.8583 10.4831 36.9151 10.4144C37.1213 10.1664 37.3305 9.92131 37.5427 9.68224C37.701 9.50294 37.8594 9.32663 38.0208 9.15031L38.469 8.6662C38.6304 8.49587 38.7948 8.33151 38.9561 8.16416C39.1175 7.99681 39.2968 7.81751 39.4701 7.65016L39.6046 7.51868C39.8766 7.2557 40.1515 7.00169 40.4264 6.75366L40.5579 6.63712C40.8358 6.38908 41.1167 6.14703 41.3976 5.91394L41.5082 5.82429C41.7991 5.58522 42.0889 5.35512 42.3778 5.13398L42.4495 5.08019C42.7543 4.84909 43.0591 4.62795 43.364 4.41678L35.7795 0C35.4747 0.213169 35.1699 0.434306 34.8651 0.663413L34.7934 0.717203C34.4945 0.93834 34.2107 1.16844 33.9238 1.40452L33.8132 1.49417C33.5293 1.72726 33.2514 1.96932 32.9705 2.21735L32.842 2.3339C32.5671 2.58193 32.2921 2.83893 32.0172 3.1019L31.8857 3.2304L31.7004 3.4097C31.5899 3.52027 31.4823 3.63682 31.3717 3.74739C31.2074 3.91174 31.046 4.0761 30.8846 4.24943C30.7233 4.42275 30.5858 4.57217 30.4364 4.73354C30.287 4.89491 30.1136 5.08318 29.9552 5.26546C29.9104 5.31627 29.8626 5.36707 29.8178 5.42086C29.6534 5.60912 29.4921 5.80337 29.3307 5.99761L29.1574 6.20082C28.9093 6.49965 28.6613 6.79849 28.4192 7.12422L28.3027 7.27363C28.0786 7.57247 27.8574 7.8713 27.6393 8.17014L27.46 8.42116C27.3912 8.51678 27.3225 8.60942 27.2568 8.71999C27.1552 8.86343 27.0595 9.01883 26.9579 9.14733C26.9071 9.22203 26.8533 9.29674 26.8055 9.37145C26.6143 9.64937 26.429 9.93326 26.2467 10.2172L26.2198 10.265C25.9449 10.6923 25.6849 11.1226 25.4309 11.5559L25.3592 11.6695C25.3143 11.7472 25.2755 11.8249 25.2307 11.8996C25.0424 12.2313 24.8571 12.56 24.6778 12.8917C24.639 12.9664 24.5942 13.0411 24.5523 13.1158L24.4806 13.2623C24.2495 13.6946 24.0294 14.1289 23.8202 14.5652C23.6708 14.864 23.5213 15.1898 23.3839 15.5035L23.2703 15.7605C23.2255 15.8591 23.1807 15.9548 23.1388 16.0594L22.9326 16.5495C22.9057 16.6152 22.8759 16.6839 22.849 16.7527C22.7324 17.0515 22.6189 17.3205 22.5083 17.6014L22.4724 17.703C22.4396 17.7896 22.4067 17.8733 22.3768 17.96C22.2842 18.202 22.1975 18.4471 22.1108 18.6891L22.0033 18.9879L21.9226 19.224C21.8718 19.3734 21.8269 19.5229 21.7791 19.6723C21.7313 19.8217 21.7074 19.8934 21.6745 20.004C21.5819 20.3028 21.4923 20.6017 21.4086 20.9005L21.3817 20.9961C21.2861 21.3398 21.1964 21.6834 21.1127 22.0241C21.0918 22.1197 21.0709 22.2094 21.05 22.302C20.9932 22.5411 20.9364 22.7802 20.8856 23.0192C20.8856 23.0192 20.8856 23.0401 20.8856 23.0521C20.8049 23.4376 20.7302 23.8231 20.6645 24.2056C20.6466 24.3072 20.6316 24.4088 20.6167 24.5044C20.5689 24.7833 20.527 25.0613 20.4912 25.3382C20.4912 25.383 20.4912 25.4308 20.4702 25.4756C20.4523 25.6131 20.4404 25.7476 20.4254 25.8821C20.4105 26.0165 20.3925 26.154 20.3776 26.2885C20.3597 26.4857 20.3447 26.6829 20.3298 26.8861C20.3298 27.0087 20.3089 27.1342 20.2999 27.2567C20.2999 27.4808 20.279 27.702 20.27 27.9231C20.27 28.0157 20.27 28.1084 20.27 28.201C20.27 28.4999 20.27 28.8226 20.27 29.1274C20.27 29.1782 20.27 29.229 20.27 29.2798C20.27 29.5328 20.279 29.7838 20.2969 30.0329C20.2969 30.1375 20.3148 30.2421 20.3208 30.3317C20.3208 30.523 20.3507 30.7142 20.3686 30.9025C20.3686 31.019 20.3955 31.1326 20.4105 31.2491C20.4314 31.4225 20.4523 31.5928 20.4792 31.7631C20.4971 31.8827 20.5181 32.0022 20.539 32.1187C20.5599 32.2353 20.5928 32.4415 20.6256 32.5999C20.6585 32.7582 20.6764 32.8359 20.7033 32.9525C20.7302 33.069 20.775 33.2513 20.8139 33.4097C20.8527 33.5681 20.8737 33.6398 20.9065 33.7564C20.9394 33.8729 20.9932 34.0552 21.038 34.1926C21.0828 34.3301 21.1097 34.4168 21.1486 34.5244C21.1874 34.6319 21.2502 34.8083 21.304 34.9487L21.4295 35.2625C21.4893 35.4029 21.549 35.5374 21.6118 35.6749C21.6745 35.8123 21.7014 35.8721 21.7492 35.9737C21.7971 36.0753 21.8927 36.2456 21.9674 36.3801C22.0152 36.4668 22.06 36.5564 22.1108 36.6431C22.1945 36.7865 22.2872 36.927 22.3768 37.0644C22.4216 37.1362 22.4635 37.2079 22.5113 37.2736C22.6517 37.4798 22.8101 37.6771 22.9506 37.8713C23.6129 38.7015 24.4235 39.4017 25.3412 39.9363L32.9257 44.3411C32.0128 43.8069 31.2072 43.1077 30.5499 42.2791C30.3945 42.0879 30.2511 41.8876 30.1077 41.6814L29.9732 41.4723C29.8626 41.3408 29.761 41.2033 29.6743 41.0569Z" fill="url(#paint2_linear_2311_41772)"/>
<path d="M58.2518 26.1599C58.8256 25.8272 59.4013 25.4627 59.9791 25.0662C58.5738 28.5276 56.7093 31.7842 54.4357 34.7484C51.5759 38.4719 48.3873 41.3019 45.2346 43.1158C39.476 46.4418 33.8311 46.403 30.523 42.2791C25.4009 35.9079 27.8036 22.2093 35.902 11.6754C38.0034 8.88023 40.5233 6.42584 43.3728 4.3988C40.0857 12.563 39.9064 20.7929 43.5462 25.3172C46.8453 29.4411 52.4873 29.486 58.2518 26.1599Z" fill="#FCAA1A"/>
<path d="M51.9225 36.927L56.1361 39.3774C55.2814 38.8784 54.0981 38.9501 52.7921 39.7032C52.3384 39.9689 51.9138 40.2814 51.5251 40.6355L47.3115 38.1851C47.7008 37.8326 48.1254 37.5211 48.5786 37.2557C49.8845 36.5027 51.0798 36.4309 51.9225 36.927Z" fill="#2B99B2"/>
<path d="M51.5251 40.6354L47.3115 38.185C47.7008 37.8325 48.1254 37.521 48.5786 37.2556C48.7916 37.1323 49.0122 37.0226 49.239 36.9269L53.4526 39.3743C53.2255 39.4694 53.0049 39.5792 52.7921 39.7031C52.3384 39.9688 51.9138 40.2813 51.5251 40.6354Z" fill="#2B99B2"/>
<path d="M53.4526 39.3714L49.239 36.924C49.418 36.8493 49.6017 36.7864 49.7889 36.7357L54.0024 39.1832C53.8151 39.2334 53.6314 39.2963 53.4526 39.3714Z" fill="#2B99B2"/>
<path d="M54.0024 39.1862L49.7888 36.7387C49.9254 36.7009 50.0641 36.671 50.2042 36.649L54.4148 39.0965C54.2757 39.1184 54.138 39.1484 54.0024 39.1862Z" fill="#2B99B2"/>
<path d="M54.4149 39.0965L50.2043 36.649C50.3239 36.6311 50.4404 36.6191 50.554 36.6132L54.7675 39.0606C54.654 39.0606 54.5345 39.0785 54.4149 39.0965Z" fill="#2B99B2"/>
<path d="M54.7675 39.0726L50.554 36.6251C50.6615 36.6251 50.7631 36.6251 50.8528 36.6251L55.0664 39.0726C54.9648 39.0726 54.8602 39.0726 54.7675 39.0726Z" fill="#2B99B2"/>
<path d="M55.0783 39.0726L50.8647 36.6251C50.9599 36.6313 51.0546 36.6423 51.1486 36.658L55.3622 39.1054C55.2696 39.0905 55.1739 39.0786 55.0634 39.0726" fill="#2B99B2"/>
<path d="M55.362 39.0965L51.1484 36.649C51.2381 36.6644 51.3268 36.6843 51.4144 36.7088L55.625 39.1593C55.5385 39.1338 55.4507 39.1128 55.362 39.0965Z" fill="#2B99B2"/>
<path d="M55.6251 39.1592L51.4146 36.7087C51.4982 36.7356 51.5819 36.7655 51.6626 36.7984L55.8612 39.2458C55.7803 39.2121 55.6975 39.1831 55.6132 39.1592" fill="#2B99B2"/>
<path d="M55.8612 39.2459L51.6775 36.7985C51.7588 36.8319 51.8376 36.8708 51.9136 36.915L56.1271 39.3625C56.0505 39.3177 55.9706 39.2787 55.8881 39.2459" fill="#2B99B2"/>
<path d="M56.1122 39.3714L51.8987 36.924H51.9226L56.1362 39.3744L56.1122 39.3595" fill="#2B99B2"/>
<path d="M45.7009 35.7167L49.9144 38.1671C48.8326 37.5366 47.3325 37.6262 45.6769 38.5825L41.4634 36.1321C43.1249 35.1877 44.625 35.0891 45.7009 35.7167Z" fill="#8DE7FC"/>
<path d="M45.6828 38.5824L41.4692 36.132C41.7429 35.9746 42.0264 35.8349 42.3179 35.7136L46.5315 38.1611C46.2391 38.2816 45.9555 38.4223 45.6828 38.5824Z" fill="#8DE7FC"/>
<path d="M46.5314 38.1761L42.3179 35.7286C42.543 35.6317 42.7747 35.5508 43.0112 35.4866L47.2247 37.934C46.9904 37.9966 46.7607 38.0755 46.5374 38.1701" fill="#8DE7FC"/>
<path d="M47.2188 37.9251L43.0112 35.4866C43.1851 35.438 43.3617 35.4 43.5402 35.373L47.7537 37.8205C47.5753 37.8475 47.3986 37.8854 47.2248 37.9341" fill="#8DE7FC"/>
<path d="M47.7477 37.8115L43.5342 35.364C43.6806 35.3404 43.8283 35.3254 43.9765 35.3192L48.187 37.7667C48.0436 37.7667 47.8882 37.7876 47.7477 37.8115Z" fill="#8DE7FC"/>
<path d="M48.1871 37.7667L43.9766 35.3192C44.108 35.3192 44.2395 35.3192 44.368 35.3192L48.5816 37.7697C48.4502 37.7621 48.3185 37.7621 48.1871 37.7697" fill="#8DE7FC"/>
<path d="M48.5815 37.7726L44.3679 35.3221C44.4904 35.3221 44.61 35.3461 44.7265 35.364L48.9401 37.8144C48.8216 37.7928 48.7018 37.7788 48.5815 37.7726Z" fill="#8DE7FC"/>
<path d="M48.9401 37.8145L44.7266 35.364C44.8401 35.3849 44.9537 35.4118 45.0613 35.4417L49.2868 37.8772C49.1766 37.8463 49.0649 37.8214 48.9521 37.8025" fill="#8DE7FC"/>
<path d="M49.2868 37.8773L45.0732 35.4298C45.1808 35.4627 45.2854 35.4985 45.3721 35.5404L49.5856 37.9908C49.4883 37.9473 49.3885 37.9094 49.2868 37.8773Z" fill="#8DE7FC"/>
<path d="M49.5856 38.0027L45.3721 35.5522C45.4767 35.5971 45.5753 35.6449 45.6709 35.6987L49.8815 38.1491C49.7858 38.0926 49.6859 38.0436 49.5827 38.0027" fill="#8DE7FC"/>
<path d="M49.8844 38.1492L45.6738 35.6987L45.7037 35.7167L49.9173 38.1671L49.8844 38.1492Z" fill="#8DE7FC"/>
<path d="M37.1899 57.7468L32.9763 55.2993C32.2322 54.866 31.781 53.9486 31.781 52.6397C31.781 52.5261 31.781 52.4066 31.781 52.29L35.9946 54.7375C35.9946 54.854 35.9946 54.9736 35.9946 55.0901C35.9826 56.405 36.4369 57.3015 37.1899 57.7468Z" fill="#8DE7FC"/>
<path d="M37.1899 57.7468L32.9763 55.2993C32.2322 54.866 31.781 53.9486 31.781 52.6397C31.781 52.5261 31.781 52.4066 31.781 52.29L35.9946 54.7375C35.9946 54.854 35.9946 54.9736 35.9946 55.0901C35.9946 56.396 36.4608 57.3135 37.2049 57.7468" fill="#8DE7FC"/>
<path d="M35.9916 54.7375L31.7781 52.2901V52.1198L35.9916 54.5702V54.7375Z" fill="#8DE7FC"/>
<path d="M35.9916 54.5671L31.7781 52.1196C31.9962 49.729 33.5711 47.0185 35.5643 45.6887L39.7749 48.1392C37.7906 49.469 36.2068 52.1734 35.9916 54.5671Z" fill="#8DE7FC"/>
<path d="M35.9916 54.5672L31.7781 52.1197L31.805 51.8717L36.0185 54.3132C36.0185 54.3969 35.9976 54.4805 35.9916 54.5612" fill="#8DE7FC"/>
<path d="M36.0185 54.3132L31.8049 51.8657C31.8318 51.6685 31.8647 51.4713 31.9065 51.2681L36.1201 53.7155C36.0783 53.9128 36.0424 54.11 36.0185 54.3132Z" fill="#8DE7FC"/>
<path d="M36.1201 53.7154L31.9065 51.268C31.9424 51.1066 31.9812 50.9482 32.026 50.7869L36.2366 53.2343C36.1918 53.3957 36.1529 53.5541 36.1201 53.7154Z" fill="#8DE7FC"/>
<path d="M36.2367 53.2462L32.0261 50.7988C32.065 50.6554 32.1068 50.5 32.1546 50.3715L36.3682 52.8189C36.3204 52.9624 36.2755 53.1177 36.2367 53.2462Z" fill="#8DE7FC"/>
<path d="M36.3681 52.819L32.1545 50.3715C32.1984 50.24 32.2462 50.1085 32.298 49.9771L36.5086 52.4245C36.4578 52.556 36.4129 52.6875 36.3681 52.819Z" fill="#8DE7FC"/>
<path d="M36.5087 52.4245L32.2981 49.9771C32.3459 49.8515 32.3967 49.726 32.4505 49.6035L36.6641 52.051C36.6103 52.1735 36.5565 52.299 36.5087 52.4245Z" fill="#8DE7FC"/>
<path d="M36.664 52.051L32.4504 49.6035C32.5042 49.481 32.558 49.3615 32.6148 49.2419L36.8284 51.6894C36.7716 51.8089 36.7148 51.9285 36.664 52.051Z" fill="#8DE7FC"/>
<path d="M36.8283 51.6894L32.6147 49.2329C32.6745 49.1134 32.7343 48.9939 32.797 48.8773L37.0076 51.3248C36.9449 51.4413 36.8851 51.5609 36.8283 51.6804" fill="#8DE7FC"/>
<path d="M37.0077 51.3247L32.7971 48.8773C32.8599 48.7577 32.9226 48.6412 32.9914 48.5247L37.2049 50.9721C37.1362 51.0887 37.0705 51.2052 37.0077 51.3247Z" fill="#8DE7FC"/>
<path d="M37.205 50.9811L32.9915 48.5337C33.0602 48.4141 33.1319 48.2976 33.2066 48.181L37.4202 50.6285C37.3455 50.745 37.2738 50.8646 37.205 50.9811Z" fill="#8DE7FC"/>
<path d="M37.4201 50.6286L33.2065 48.1811C33.2842 48.0596 33.3649 47.9401 33.4486 47.8225L37.6622 50.27C37.5785 50.3865 37.4978 50.509 37.4201 50.6286Z" fill="#8DE7FC"/>
<path d="M37.6621 50.2698L33.4485 47.8224C33.5381 47.6939 33.6308 47.5684 33.7264 47.4429L37.94 49.8933C37.8443 50.0148 37.7517 50.1404 37.6621 50.2698Z" fill="#8DE7FC"/>
<path d="M37.9311 49.8934L33.7175 47.4429C33.8251 47.3025 33.9387 47.168 34.0522 47.0365L38.2658 49.484C38.1522 49.6154 38.0387 49.7529 37.9311 49.8934Z" fill="#8DE7FC"/>
<path d="M38.2748 49.4839L34.0613 47.0365C34.2077 46.8661 34.3601 46.7048 34.5155 46.5524L38.7291 48.9998C38.5737 49.1552 38.4302 49.3166 38.2748 49.4839Z" fill="#8DE7FC"/>
<path d="M38.7289 48.9999L34.5154 46.5434C34.8378 46.2241 35.1889 45.935 35.5643 45.6798L39.7749 48.1303C39.3999 48.3835 39.0497 48.6717 38.7289 48.9909" fill="#8DE7FC"/>
<path d="M45.6828 38.5825C48.5457 36.927 50.9423 37.8683 51.525 40.6355C51.9137 40.2814 52.3384 39.9689 52.7921 39.7032C55.3143 38.2449 57.3822 39.3446 57.5017 42.1476V42.312C57.5017 44.9328 55.9866 47.942 53.9307 49.7082C53.5607 50.0353 53.1604 50.3264 52.7353 50.5778L40.7819 57.4719C39.6105 58.1502 38.5317 58.2847 37.698 57.959C36.655 57.693 35.9737 56.677 35.9707 55.0902C35.9707 54.9736 35.9707 54.8541 35.9707 54.7375V54.5672C36.1859 52.1765 37.7637 49.4691 39.7539 48.1393C40.0737 44.5114 42.6018 40.3606 45.6828 38.5825Z" fill="url(#paint3_linear_2311_41772)"/>
<path d="M39.7748 48.1392L35.5642 45.6888C35.863 42.0639 38.3882 37.9191 41.4692 36.1261L45.6827 38.5765C42.6018 40.3606 40.0736 44.5114 39.7748 48.1392Z" fill="#8DE7FC"/>
<path d="M39.7748 48.1392L35.5642 45.6888C35.5642 45.5484 35.5911 45.4049 35.609 45.2615L39.8196 47.7089C39.8017 47.8524 39.7867 47.9958 39.7748 48.1392Z" fill="#8DE7FC"/>
<path d="M39.8197 47.7089L35.6091 45.2615C35.645 44.9836 35.6928 44.7027 35.7526 44.4218L39.9661 46.8692C39.9034 47.1501 39.8556 47.431 39.8197 47.7089Z" fill="#8DE7FC"/>
<path d="M39.966 46.8692L35.7524 44.4217C35.8003 44.1946 35.857 43.9675 35.9198 43.7404L40.1334 46.1878C40.0676 46.4149 40.0138 46.642 39.966 46.8692Z" fill="#8DE7FC"/>
<path d="M40.1335 46.1878L35.9199 43.7404C35.9767 43.5372 36.0365 43.334 36.1052 43.1427L40.3188 45.5902C40.25 45.7904 40.1873 45.9936 40.1335 46.1878Z" fill="#8DE7FC"/>
<path d="M40.3217 45.5812L36.1082 43.1338C36.1709 42.9455 36.2367 42.7572 36.3084 42.569L40.5219 45.0194C40.4502 45.2047 40.3845 45.393 40.3217 45.5812Z" fill="#8DE7FC"/>
<path d="M40.519 45.0195L36.3054 42.569C36.3742 42.3927 36.4489 42.2134 36.5266 42.0371L40.7371 44.4846C40.6594 44.6609 40.5877 44.8402 40.519 45.0195Z" fill="#8DE7FC"/>
<path d="M40.7369 44.4845L36.5264 42.037C36.6011 41.8637 36.6788 41.6904 36.7624 41.52L40.973 43.9675C40.8923 44.1378 40.8117 44.3111 40.7369 44.4845Z" fill="#8DE7FC"/>
<path d="M40.973 43.9676L36.7625 41.5201C36.8431 41.3498 36.9298 41.1794 37.0194 41.0121L41.2181 43.4595C41.1284 43.6269 41.0448 43.7972 40.9611 43.9676" fill="#8DE7FC"/>
<path d="M41.2181 43.4595L37.0344 41.0121C37.1241 40.8447 37.2167 40.6744 37.3123 40.51L41.5169 42.9575C41.4213 43.1248 41.3257 43.2922 41.236 43.4595" fill="#8DE7FC"/>
<path d="M41.517 42.9575L37.3035 40.51C37.4051 40.3397 37.5067 40.1724 37.6023 40.005L41.8159 42.4525C41.7113 42.6198 41.6067 42.7872 41.517 42.9575Z" fill="#8DE7FC"/>
<path d="M41.8158 42.4525L37.6052 40.005C37.7158 39.8317 37.8323 39.6584 37.9489 39.488L42.1625 41.9355C42.0429 42.1058 41.9294 42.2792 41.8158 42.4525Z" fill="#8DE7FC"/>
<path d="M42.1655 41.9354L37.9519 39.488C38.0804 39.3057 38.2149 39.1264 38.3494 38.9501L42.5629 41.3975C42.4255 41.5738 42.294 41.7531 42.1655 41.9354Z" fill="#8DE7FC"/>
<path d="M42.5629 41.3976L38.3494 38.9501C38.5048 38.7529 38.6482 38.5586 38.8275 38.3704L43.0411 40.8178C42.8767 41.0061 42.7183 41.2003 42.5629 41.3976Z" fill="#8DE7FC"/>
<path d="M43.041 40.8177L38.8274 38.3703C39.0386 38.1272 39.2567 37.8942 39.4818 37.671L43.6954 40.1215C43.4683 40.3426 43.2501 40.5757 43.041 40.8177Z" fill="#8DE7FC"/>
<path d="M43.6955 40.1215L39.4819 37.6711C40.0778 37.0775 40.7454 36.5605 41.4692 36.1321L45.6828 38.5825C44.9571 39.0082 44.2892 39.5255 43.6955 40.1215Z" fill="#8DE7FC"/>
</g>
<defs>
<linearGradient id="paint0_linear_2311_41772" x1="11.4244" y1="26.3423" x2="11.4244" y2="54.3102" gradientUnits="userSpaceOnUse">
<stop stop-color="#2B99B2"/>
<stop offset="0.25" stop-color="#2F9DB7"/>
<stop offset="0.56" stop-color="#3CAAC7"/>
<stop offset="0.91" stop-color="#51BFE1"/>
<stop offset="1" stop-color="#58C6E9"/>
</linearGradient>
<linearGradient id="paint1_linear_2311_41772" x1="23.823" y1="31.2014" x2="23.823" y2="56.193" gradientUnits="userSpaceOnUse">
<stop stop-color="white"/>
<stop offset="0.17" stop-color="#FAFEFF"/>
<stop offset="0.37" stop-color="#EAFBFF"/>
<stop offset="0.61" stop-color="#D0F6FF"/>
<stop offset="0.86" stop-color="#ACF0FF"/>
<stop offset="1" stop-color="#94EBFF"/>
</linearGradient>
<linearGradient id="paint2_linear_2311_41772" x1="31.802" y1="0" x2="31.802" y2="42.4644" gradientUnits="userSpaceOnUse">
<stop stop-color="#FFF1DC"/>
<stop offset="0.14" stop-color="#FFEFD7"/>
<stop offset="0.32" stop-color="#FEEBC7"/>
<stop offset="0.51" stop-color="#FDE3AD"/>
<stop offset="0.72" stop-color="#FBD989"/>
<stop offset="0.94" stop-color="#FACC5B"/>
<stop offset="1" stop-color="#F9C84E"/>
</linearGradient>
<linearGradient id="paint3_linear_2311_41772" x1="46.7437" y1="37.7637" x2="46.7437" y2="58.1293" gradientUnits="userSpaceOnUse">
<stop stop-color="white"/>
<stop offset="0.17" stop-color="#FAFEFF"/>
<stop offset="0.37" stop-color="#EAFBFF"/>
<stop offset="0.61" stop-color="#D0F6FF"/>
<stop offset="0.86" stop-color="#ACF0FF"/>
<stop offset="1" stop-color="#94EBFF"/>
</linearGradient>
<clipPath id="clip0_2311_41772">
<rect width="59.9731" height="60" fill="white"/>
</clipPath>
</defs>
</svg>
