<svg width="89" height="88" viewBox="0 0 89 88" fill="none" xmlns="http://www.w3.org/2000/svg">
<path d="M0.944336 24C0.944336 10.7452 11.6895 0 24.9443 0H64.9441C78.199 0 88.9442 10.7452 88.9442 24V63.9998C88.9442 77.2546 78.199 87.9998 64.9442 87.9998H24.9444C11.6895 87.9998 0.944336 77.2547 0.944336 63.9998V24Z" fill="#FFCFE3"/>
<path d="M42.425 78.2113H30.387L27.694 61.5586L43.1406 70.1148L42.425 78.2113Z" fill="url(#paint0_linear_2778_68796)"/>
<path d="M41.1795 76.0186H29.6513C28.7589 76.0186 28.0355 76.7416 28.0355 77.6334C28.0355 78.5253 28.7589 79.2483 29.6513 79.2483H41.1795C42.0719 79.2483 42.7954 78.5253 42.7954 77.6334C42.7954 76.7416 42.0719 76.0186 41.1795 76.0186Z" fill="#F75992"/>
<path d="M52.0252 78.1651L63.0302 73.2849L58.7406 56.9707L47.4874 69.9686L52.0252 78.1651Z" fill="url(#paint1_linear_2778_68796)"/>
<path d="M53.5854 78.6017L64.1243 73.9293C64.9402 73.5676 65.3085 72.6135 64.947 71.7981C64.5855 70.9828 63.6311 70.615 62.8153 70.9767L52.2764 75.6491C51.4606 76.0108 51.0923 76.965 51.4537 77.7803C51.8152 78.5957 52.7696 78.9634 53.5854 78.6017Z" fill="#F75992"/>
<path d="M44.6959 71.6621C60.3055 71.6621 72.9596 59.0081 72.9596 43.3985C72.9596 27.7888 60.3055 15.1348 44.6959 15.1348C29.0863 15.1348 16.4323 27.7888 16.4323 43.3985C16.4323 59.0081 29.0863 71.6621 44.6959 71.6621Z" fill="url(#paint2_linear_2778_68796)"/>
<path opacity="0.8" d="M54.9147 57.3521C59.4235 57.3521 63.0786 53.697 63.0786 49.1882C63.0786 44.6795 59.4235 41.0244 54.9147 41.0244C50.406 41.0244 46.7509 44.6795 46.7509 49.1882C46.7509 53.697 50.406 57.3521 54.9147 57.3521Z" fill="url(#paint3_radial_2778_68796)"/>
<path opacity="0.8" d="M30.8287 52.2239C33.8461 50.7451 34.6836 46.2642 32.6994 42.2155C30.7151 38.1669 26.6604 36.0837 23.643 37.5625C20.6256 39.0414 19.7881 43.5223 21.7724 47.5709C23.7567 51.6196 27.8113 53.7028 30.8287 52.2239Z" fill="url(#paint4_radial_2778_68796)"/>
<path d="M37.6068 39.4047C37.6706 36.2266 35.3724 33.6032 32.4738 33.545C29.5751 33.4868 27.1736 36.0159 27.1098 39.1939C27.046 42.372 29.3441 44.9954 32.2428 45.0536C35.1414 45.1118 37.543 42.5827 37.6068 39.4047Z" fill="white"/>
<path d="M36.1194 37.8346C36.1513 36.2466 35.0026 34.9358 33.5538 34.9067C32.105 34.8776 30.9047 36.1413 30.8728 37.7293C30.841 39.3172 31.9896 40.6281 33.4384 40.6572C34.8872 40.6862 36.0875 39.4225 36.1194 37.8346Z" fill="#030001"/>
<path d="M47.316 46.8456C50.6934 46.8456 53.4312 44.1077 53.4312 40.7304C53.4312 37.3531 50.6934 34.6152 47.316 34.6152C43.9387 34.6152 41.2009 37.3531 41.2009 40.7304C41.2009 44.1077 43.9387 46.8456 47.316 46.8456Z" fill="white"/>
<path d="M45.8184 42.0537C47.5065 42.0537 48.875 40.6852 48.875 38.9971C48.875 37.3089 47.5065 35.9404 45.8184 35.9404C44.1303 35.9404 42.7618 37.3089 42.7618 38.9971C42.7618 40.6852 44.1303 42.0537 45.8184 42.0537Z" fill="#030001"/>
<path opacity="0.7" d="M27.3843 21.0548C27.3843 21.0548 28.3538 25.987 33.2264 26.3948C39.078 26.8853 40.3187 23.1669 42.7636 23.2554C45.2086 23.3439 46.0819 27.9433 52.8588 28.3376C56.529 28.5511 59.0759 26.8814 60.2628 24.5423C60.836 23.4093 60.7802 21.6473 60.2205 20.4777C59.1586 18.2521 39.0491 15.6514 39.0491 15.6514L29.0271 19.8449" fill="#DD4785"/>
<path d="M31.4679 12.5923C29.1114 12.4307 27.7937 13.7638 27.9169 16.1087L28.0842 17.5937C28.1958 18.5747 28.3901 19.5462 28.6998 20.481C29.5577 23.0683 30.9523 24.7168 33.9801 24.5552C36.5385 24.4187 38.8103 23.0067 40.0876 20.8696L40.0895 20.8658C40.1703 20.733 40.2492 20.5964 40.3126 20.4541C40.8897 19.5673 41.186 17.461 43.3462 17.6745C45.5083 17.888 45.3833 20.0117 45.7776 20.9946C45.8103 21.1466 45.8623 21.2947 45.9142 21.4428V21.4486H45.9161C46.7491 23.7935 48.7015 25.6229 51.1811 26.2576C54.7571 27.1733 58.4716 25.3824 59.9835 22.0142L61.1666 19.6385C62.2207 17.5244 60.8742 15.0026 58.5331 14.7006L31.4679 12.5923Z" fill="url(#paint5_linear_2778_68796)"/>
<mask id="mask0_2778_68796" style="mask-type:alpha" maskUnits="userSpaceOnUse" x="27" y="12" width="35" height="15">
<path d="M31.4679 12.5923C29.1114 12.4307 27.7937 13.7638 27.9169 16.1087L28.0842 17.5937C28.1958 18.5747 28.3901 19.5462 28.6998 20.481C29.5577 23.0683 30.9523 24.7168 33.9801 24.5552C36.5385 24.4187 38.8103 23.0067 40.0876 20.8696L40.0895 20.8658C40.1703 20.733 40.2492 20.5964 40.3126 20.4541C40.8897 19.5673 41.186 17.461 43.3462 17.6745C45.5083 17.888 45.3833 20.0117 45.7776 20.9946C45.8103 21.1466 45.8623 21.2947 45.9142 21.4428V21.4486H45.9161C46.7491 23.7935 48.7015 25.6229 51.1811 26.2576C54.7571 27.1733 58.4716 25.3824 59.9835 22.0142L61.1666 19.6385C62.2207 17.5244 60.8742 15.0026 58.5331 14.7006L31.4679 12.5923Z" fill="url(#paint6_linear_2778_68796)"/>
</mask>
<g mask="url(#mask0_2778_68796)">
<g opacity="0.5">
<path d="M65.1254 19.2193L25.6797 16.1684L25.7355 15.3701L65.1811 18.421L65.1254 19.2193Z" fill="#C5FFFF"/>
<path d="M65.2795 17.0669L25.8339 14.018L25.8896 13.2178L65.3353 16.2686L65.2795 17.0669Z" fill="#C5FFFF"/>
<path d="M64.9704 21.407L25.1188 18.3676L25.1765 17.5693L65.0262 20.6086L64.9704 21.407Z" fill="#C5FFFF"/>
<path d="M64.8144 23.5935L24.9628 20.5542L25.0205 19.7559L64.8702 22.7952L64.8144 23.5935Z" fill="#C5FFFF"/>
<path d="M64.712 24.9879L22.8374 22.001L22.7805 22.7992L64.6551 25.7861L64.712 24.9879Z" fill="#C5FFFF"/>
</g>
</g>
<path d="M40.2304 46.8929C40.0169 47.3392 39.5841 47.6816 39.0436 47.772C38.1799 47.9163 37.3662 47.3623 37.2277 46.5352" stroke="#231815" stroke-width="0.769446" stroke-miterlimit="10" stroke-linecap="round"/>
<path d="M68.254 20.7473C69.0119 21.1167 69.235 22.2189 68.7541 23.2076C68.5829 23.5616 68.2232 24.0964 67.8 24.6234C68.3232 24.4022 68.8195 24.2368 69.1504 24.1694C70.2295 23.9521 71.2394 24.4445 71.4068 25.2717C71.5741 26.0988 70.8335 26.9452 69.7544 27.1626C68.6752 27.38 65.5705 27.3107 65.4051 26.4836C65.3859 26.3855 65.4089 26.2797 65.4666 26.1719C64.8915 25.5698 65.5532 22.8095 66.0091 21.8727C66.4919 20.882 67.4961 20.3799 68.254 20.7493V20.7473Z" fill="#F75992"/>
<path d="M44.5402 31.4683L48.4432 30.4854" stroke="#EF2580" stroke-width="2.11598" stroke-miterlimit="10" stroke-linecap="round"/>
<path d="M31.4044 30.6465L35.417 31.3505" stroke="#EF2580" stroke-width="2.11598" stroke-miterlimit="10" stroke-linecap="round"/>
<defs>
<linearGradient id="paint0_linear_2778_68796" x1="31.5893" y1="69.3858" x2="37.9064" y2="75.2182" gradientUnits="userSpaceOnUse">
<stop stop-color="#FF78AF"/>
<stop offset="0.69" stop-color="#F75992"/>
</linearGradient>
<linearGradient id="paint1_linear_2778_68796" x1="54.6606" y1="63.3071" x2="55.4801" y2="74.7084" gradientUnits="userSpaceOnUse">
<stop stop-color="#FF78AF"/>
<stop offset="0.4" stop-color="#FA679F"/>
<stop offset="0.69" stop-color="#F75992"/>
</linearGradient>
<linearGradient id="paint2_linear_2778_68796" x1="44.7567" y1="71.0403" x2="44.6468" y2="18.7645" gradientUnits="userSpaceOnUse">
<stop stop-color="#F75992"/>
<stop offset="0.13" stop-color="#F75992"/>
</linearGradient>
<radialGradient id="paint3_radial_2778_68796" cx="0" cy="0" r="1" gradientUnits="userSpaceOnUse" gradientTransform="translate(54.9142 49.1889) rotate(12.22) scale(8.16383 8.16383)">
<stop offset="0.32" stop-color="#E54184"/>
<stop offset="1" stop-color="#F75992" stop-opacity="0"/>
</radialGradient>
<radialGradient id="paint4_radial_2778_68796" cx="0" cy="0" r="1" gradientUnits="userSpaceOnUse" gradientTransform="translate(23.9846 45.3907) rotate(-9.91) scale(6.20451 8.00055)">
<stop offset="0.32" stop-color="#E54184"/>
<stop offset="1" stop-color="#F75992" stop-opacity="0"/>
</radialGradient>
<linearGradient id="paint5_linear_2778_68796" x1="44.9385" y1="14.717" x2="43.977" y2="24.4357" gradientUnits="userSpaceOnUse">
<stop stop-color="#5AE2DE"/>
<stop offset="0.61" stop-color="#61F2F2"/>
</linearGradient>
<linearGradient id="paint6_linear_2778_68796" x1="44.9385" y1="14.717" x2="43.977" y2="24.4357" gradientUnits="userSpaceOnUse">
<stop stop-color="#5AE2DE"/>
<stop offset="0.61" stop-color="#61F2F2"/>
</linearGradient>
</defs>
</svg>
