<svg width="60" height="60" viewBox="0 0 60 60" fill="none" xmlns="http://www.w3.org/2000/svg">
<g clip-path="url(#clip0_2311_41801)">
<path d="M56.396 15.2214L30.2 30.4454L3.83374 15.224L30.0297 0L56.396 15.2214Z" fill="#94EBFF"/>
<path d="M56.396 15.2214L56.3122 44.776L30.1162 60L30.2 30.4454L56.396 15.2214Z" fill="#E54C78"/>
<path d="M30.2001 30.4454L30.1163 60L3.75 44.7786L3.83384 15.224L30.2001 30.4454Z" fill="url(#paint0_linear_2311_41801)"/>
<path d="M19.9879 43.7831L19.9564 54.1865L11.4419 49.125L11.4707 38.7215L19.9879 43.7831Z" fill="#952142"/>
<path d="M3.80762 24.3778L30.166 39.8009L30.2001 30.4454L3.83382 15.224L3.80762 24.3778Z" fill="#C2F6FF"/>
<path d="M56.3752 24.3804L30.1661 39.8009L30.0718 30.4454L56.3961 15.2214L56.3752 24.3804Z" fill="#2B99B2"/>
<path d="M30.1216 35.3943L30.1661 39.8009L56.3752 24.3804L56.383 19.9293L30.1216 35.3943Z" fill="#0E7C8E"/>
<path d="M3.8181 20.4061L3.80762 24.3778L30.166 39.8009L30.1215 35.3943L3.8181 20.4061Z" fill="#58C6E9"/>
<path d="M21.2507 24.5035L21.2061 39.4184L8.22998 31.9256L8.2719 17.0134L21.2507 24.5035Z" fill="url(#paint1_linear_2311_41801)"/>
<path d="M21.2506 24.5035L23.6687 23.0993L23.6242 38.0115L21.2061 39.4184L21.2506 24.5035Z" fill="#2B99B2"/>
<path d="M8.27197 17.0134L10.6927 15.6065L23.6689 23.0993L21.2508 24.5035L8.27197 17.0134Z" fill="#C2F6FF"/>
<path d="M11.8689 23.3403C13.2443 24.1263 14.1246 25.4624 14.1219 26.6964C14.1219 27.4823 13.7814 27.9356 12.4688 28.4438L11.8741 28.6822V28.7241L14.177 30.0524V31.4645L9.74415 28.9075V27.6395L11.9134 26.8038C12.3588 26.6256 12.6286 26.4658 12.6286 25.9838C12.6214 25.7219 12.5474 25.4662 12.4135 25.2411C12.2796 25.0159 12.0903 24.8287 11.8636 24.6974C11.4104 24.4354 11.1012 24.5874 11.1039 25.1611L9.64722 24.3202C9.64984 22.9238 10.5301 22.5675 11.8689 23.3403Z" fill="#2B99B2"/>
<path d="M19.0106 31.8103L19.6892 32.2033V33.5761L19.008 33.1831V34.2494L17.5435 33.4032V32.3369L14.7114 30.7021V29.3346L17.0693 26.437L19.008 27.5557L19.0106 31.8103ZM17.5776 30.9851V28.5643L17.5304 28.5381L16.2205 30.152V30.2044L17.5723 30.9903" fill="#2B99B2"/>
<path d="M49.9406 9.73278L41.9553 14.3752L33.9124 9.73278L41.9003 5.09039L49.9406 9.73278Z" fill="#94EBFF"/>
<path d="M49.9407 9.73279L49.925 15.913L41.937 20.5554L41.9554 14.3752L49.9407 9.73279Z" fill="#2B99B2"/>
<path d="M41.9553 14.3752L41.937 20.5554L33.894 15.913L33.9124 9.73279L41.9553 14.3752Z" fill="#C2F6FF"/>
<path d="M46.3227 9.73275L41.9685 12.2609L37.5881 9.73275L41.9423 7.20459L46.3227 9.73275Z" fill="#2B99B2"/>
<path d="M41.9424 7.20459L41.9686 12.2609L46.3228 9.73275L41.9424 7.20459Z" fill="#1D7A89"/>
<path opacity="0.3" d="M41.937 20.5554L44.8555 22.3526L53.0452 17.5897L49.925 15.913L41.937 20.5554Z" fill="#2B99B2"/>
<path d="M8.78268 37.8622L8.7722 41.3152L5.77246 39.5808L5.78294 36.1305L8.78268 37.8622Z" fill="#C12B56"/>
<path d="M5.77246 39.5808L8.78268 37.8622L8.7722 41.3152L5.77246 39.5808Z" fill="#EF597D"/>
<path d="M26.4406 47.1234L26.4328 50.5737L23.4304 48.842L23.4409 45.389L26.4406 47.1234Z" fill="#952142"/>
<path d="M23.4304 48.842L26.4406 47.1234L26.4328 50.5738L23.4304 48.842Z" fill="#EF597D"/>
<path d="M11.4419 49.125L19.9879 43.7831L19.9564 54.1865L11.4419 49.125Z" fill="#EF597D"/>
<path d="M15.7019 51.6584L15.1858 51.3492V40.9301L15.7019 41.2366V51.6584Z" fill="#F4B5D2"/>
</g>
<defs>
<linearGradient id="paint0_linear_2311_41801" x1="23.3832" y1="26.5104" x2="10.5643" y2="48.7137" gradientUnits="userSpaceOnUse">
<stop stop-color="white"/>
<stop offset="0.22" stop-color="#FFFAFB"/>
<stop offset="0.49" stop-color="#FDEAF1"/>
<stop offset="0.8" stop-color="#FBD0E1"/>
<stop offset="1" stop-color="#F9BBD3"/>
</linearGradient>
<linearGradient id="paint1_linear_2311_41801" x1="17.9732" y1="22.6146" x2="11.5048" y2="33.8171" gradientUnits="userSpaceOnUse">
<stop stop-color="white"/>
<stop offset="1" stop-color="#94EBFF"/>
</linearGradient>
<clipPath id="clip0_2311_41801">
<rect width="52.6461" height="60" fill="white" transform="translate(3.75)"/>
</clipPath>
</defs>
</svg>
