<svg width="21" height="20" viewBox="0 0 21 20" fill="none" xmlns="http://www.w3.org/2000/svg">
<path d="M11.7899 3.77686L3.36512 11.6948C3.1927 11.8568 3.06333 12.0573 2.99497 12.2684L1.93816 16.2626C1.72732 16.9144 2.27488 17.497 2.93886 17.3273L6.99085 16.52C7.20576 16.4649 7.41346 16.3486 7.5863 16.1862L16.0111 8.26824L11.7899 3.77686Z" fill="#999999"/>
<path d="M11.7395 3.13853L11.4847 3.37796L11.6222 3.69942L12.0819 3.50287C11.6222 3.69942 11.6222 3.69961 11.6223 3.69981L11.6225 3.70026L11.623 3.70131L11.6242 3.70409L11.6278 3.71226L11.6398 3.73885C11.6499 3.76104 11.6645 3.79208 11.6838 3.83128C11.7223 3.90966 11.7796 4.02072 11.858 4.159C12.0146 4.43552 12.2555 4.82126 12.5987 5.2724C13.2853 6.17495 14.3814 7.33937 16.0302 8.41322L16.3028 7.9947L16.6451 8.35895L16.6455 8.3586L17.1093 7.92268L18.1168 6.97584C19.2017 5.95619 19.2668 4.25251 18.2494 3.16994L17.0176 1.85926C16.0001 0.776632 14.2952 0.736532 13.2107 1.75577L11.7395 3.13853Z" fill="#999999" stroke="white" stroke-miterlimit="10"/>
</svg>
