<svg width="32" height="32" viewBox="0 0 32 32" fill="none" xmlns="http://www.w3.org/2000/svg">
<path d="M15.5104 7.89434L16.0369 8.35467L16.5635 7.89434L17.7224 6.88116L17.7412 6.86469L17.759 6.84708C19.8039 4.82037 22.5734 4.33642 25.0456 5.24683C27.1135 6.00833 28.7361 7.85154 29.4015 10.0101C30.1913 12.5724 29.4244 14.9575 27.5499 17.3534C24.3608 21.2617 20.394 24.6036 16.0003 27.0868C11.4402 24.5827 7.36599 21.2792 3.97258 17.3332L3.902 17.2511C1.33554 14.1079 0.93165 9.84129 3.74582 7.05209C6.66028 4.16349 11.4518 4.00946 14.3148 6.84704L14.3326 6.86465L14.3514 6.88112L15.5104 7.89434ZM15.6744 27.269C15.6746 27.2689 15.6748 27.2688 15.675 27.2687C15.6748 27.2688 15.6746 27.2689 15.6745 27.269L15.6744 27.269Z" stroke="black" stroke-width="1.6"/>
</svg>
