<svg width="89" height="88" viewBox="0 0 89 88" fill="none" xmlns="http://www.w3.org/2000/svg">
<path d="M0.88855 24C0.88855 10.7452 11.6337 0 24.8886 0H64.8884C78.1432 0 88.8884 10.7452 88.8884 24V63.9998C88.8884 77.2546 78.1432 87.9998 64.8884 87.9998H24.8886C11.6337 87.9998 0.88855 77.2547 0.88855 63.9998V24Z" fill="#FFD5B8"/>
<path d="M46.5801 72.1625C61.9865 72.1625 74.4758 59.6732 74.4758 44.2668C74.4758 28.8604 61.9865 16.3711 46.5801 16.3711C31.1737 16.3711 18.6844 28.8604 18.6844 44.2668C18.6844 59.6732 31.1737 72.1625 46.5801 72.1625Z" fill="#FF7610"/>
<path d="M35.5717 45.1725C35.3762 45.6205 34.9604 45.9718 34.4307 46.08C33.582 46.2528 32.7619 45.7345 32.5967 44.9219" stroke="#231815" stroke-width="0.759429" stroke-miterlimit="10" stroke-linecap="round"/>
<path opacity="0.4" d="M49.796 57.6063C54.2461 57.6063 57.8535 53.9988 57.8535 49.5488C57.8535 45.0987 54.2461 41.4912 49.796 41.4912C45.3459 41.4912 41.7385 45.0987 41.7385 49.5488C41.7385 53.9988 45.3459 57.6063 49.796 57.6063Z" fill="url(#paint0_radial_2778_68795)"/>
<path opacity="0.4" d="M22.8144 50.8298C25.1999 50.8298 27.1337 48.3172 27.1337 45.2176C27.1337 42.1181 25.1999 39.6055 22.8144 39.6055C20.429 39.6055 18.4952 42.1181 18.4952 45.2176C18.4952 48.3172 20.429 50.8298 22.8144 50.8298Z" fill="url(#paint1_radial_2778_68795)"/>
<path d="M31.9316 38.6643C31.5253 41.6793 29.4596 43.8911 27.318 43.6025C25.1764 43.3139 23.7696 40.6351 24.1759 37.6201" stroke="#231815" stroke-width="0.759429" stroke-miterlimit="10" stroke-linecap="round"/>
<path d="M48.1596 40.8494C47.7533 43.8643 44.9795 45.9812 41.9646 45.5749C38.9497 45.1686 36.8327 42.3948 37.239 39.3799" stroke="#231815" stroke-width="0.759429" stroke-miterlimit="10" stroke-linecap="round"/>
<path d="M20.7121 58.8584L22.1968 57.8256C22.6695 57.4971 23.2771 57.4402 23.803 57.6718C25.5041 58.4198 29.3506 60.7646 33.4515 67.6716C29.25 69.7031 23.5922 72.4085 23.5922 72.4085L20.7121 58.8584Z" fill="url(#paint2_linear_2778_68795)"/>
<path d="M21.4863 72.9635C18.3537 72.6237 15.8438 70.2182 15.371 67.1026L14.3211 60.171C14.0135 58.1471 15.7071 56.3814 17.7423 56.6016L18.0309 56.6339C20.9927 56.9548 23.3678 59.2312 23.814 62.1758L24.9075 69.3942C25.2151 71.4181 23.5216 73.1838 21.4863 72.9635Z" fill="url(#paint3_linear_2778_68795)"/>
<path d="M35.313 65.1354L37.0958 63.8957C37.3692 63.7058 37.692 63.5976 38.0261 63.5862C39.9266 63.5293 46.4558 63.945 51.1187 71.7994C46.9171 73.8309 38.1932 78.6856 38.1932 78.6856L35.313 65.1354Z" fill="url(#paint4_linear_2778_68795)"/>
<path d="M36.0879 79.2379C32.9552 78.8981 30.4453 76.4926 29.9726 73.377L28.9227 66.4454C28.6151 64.4215 30.3086 62.6558 32.3439 62.876L32.6325 62.9083C35.5942 63.2292 37.9694 65.5056 38.4155 68.4503L39.5091 75.6686C39.8167 77.6925 38.1231 79.4582 36.0879 79.2379Z" fill="url(#paint5_linear_2778_68795)"/>
<path opacity="0.5" d="M49.2537 30.4757C49.2537 30.4757 55.5873 29.8643 56.1474 34.9601C56.8385 41.2539 61.6855 44.6808 66.8344 39.5129C71.9834 34.345 61.8146 28.5809 61.8146 28.5809L52.6293 27.25L49.2537 30.4757Z" fill="#E85E00"/>
<path d="M66.6535 27.2157C64.548 30.3749 58.8998 31.5178 56.5626 29.9591C54.2255 28.4004 53.1053 22.7483 55.2108 19.5891C57.3164 16.4299 61.5862 15.5755 64.7455 17.6811C67.9047 19.7866 68.7591 24.0565 66.6535 27.2157Z" fill="url(#paint6_linear_2778_68795)"/>
<path d="M56.7784 30.0555L61.8173 28.5803L61.6293 27.9386L58.3562 28.8955L61.1528 26.8412L60.756 26.3021L57.91 28.3924L59.8712 25.4496L59.3149 25.0775L57.3537 28.0222L58.1891 24.5895L57.5379 24.432L56.6797 27.9576L56.2829 24.375L55.6165 24.449L56.2203 29.9055L56.4766 29.8771L56.5487 30.122L56.7158 30.0745L56.7291 30.0916L56.7784 30.0555Z" fill="#32BFC6"/>
<path d="M67.3177 30.0709C66.5279 29.545 65.6299 29.2925 64.7148 29.2792V29.2754C64.7148 29.2754 64.711 29.2754 64.7015 29.2792C64.0408 29.2716 63.3934 29.4558 62.7289 29.6285C60.836 30.1165 57.9046 30.2038 56.1484 29.6855C57.6958 31.1721 58.3755 34.28 58.6318 35.8539C58.6489 36.1729 58.6925 36.4862 58.7609 36.7918C58.7609 36.8032 58.7628 36.8108 58.7628 36.8108C59.04 38.0373 59.7291 39.129 60.8037 39.8428C63.2092 41.4452 66.6172 40.5586 68.4151 37.8588C70.2131 35.1591 69.7213 31.6733 67.3158 30.069L67.3177 30.0709Z" fill="#94E3FF"/>
<path d="M52.1841 19.9843C52.9739 20.5102 53.553 21.2431 53.9175 22.0823V22.0785C53.9175 22.0785 53.9213 22.0841 53.9232 22.0955C54.1852 22.7031 54.263 23.3714 54.3599 24.0492C54.6371 25.9838 55.6851 28.7235 56.8413 30.1455C54.8744 29.2892 51.7436 29.8569 50.1925 30.2271C49.8925 30.3353 49.585 30.4151 49.2755 30.4682C49.2641 30.472 49.2565 30.4739 49.2565 30.4739C48.0167 30.6885 46.7428 30.472 45.6701 29.7563C43.2646 28.1539 42.7729 24.6662 44.5708 21.9664C46.3688 19.2667 49.7786 18.38 52.1822 19.9824L52.1841 19.9843Z" fill="#94E3FF"/>
<path d="M43.2092 12.6062C42.3948 12.4315 41.5518 13.1529 41.324 14.2161C41.2423 14.5959 41.1949 15.23 41.2044 15.8964C40.9329 15.4065 40.6481 14.9756 40.4316 14.7231C39.7254 13.8972 38.6394 13.6656 38.0072 14.2066C37.3749 14.7477 37.4357 15.8546 38.142 16.6805C38.8482 17.5064 41.305 19.3385 41.9372 18.7974C42.0131 18.7328 42.0587 18.636 42.0796 18.5183C42.8941 18.4006 44.056 15.8527 44.2724 14.8465C44.5003 13.7833 44.0237 12.7808 43.2111 12.608L43.2092 12.6062Z" fill="#FF7610"/>
<defs>
<radialGradient id="paint0_radial_2778_68795" cx="0" cy="0" r="1" gradientUnits="userSpaceOnUse" gradientTransform="translate(49.7939 49.5484) rotate(12.22) scale(8.05754)">
<stop offset="0.32" stop-color="#E95513"/>
<stop offset="1" stop-color="#F29600" stop-opacity="0"/>
</radialGradient>
<radialGradient id="paint1_radial_2778_68795" cx="0" cy="0" r="1" gradientUnits="userSpaceOnUse" gradientTransform="translate(22.8133 45.2174) rotate(15.7167) scale(4.38534 5.5276)">
<stop offset="0.32" stop-color="#E95513"/>
<stop offset="1" stop-color="#F29600" stop-opacity="0"/>
</radialGradient>
<linearGradient id="paint2_linear_2778_68795" x1="20.7226" y1="61.0144" x2="27.9758" y2="68.8287" gradientUnits="userSpaceOnUse">
<stop offset="0.09" stop-color="#FF9D5A"/>
<stop offset="0.83" stop-color="#FF7610"/>
</linearGradient>
<linearGradient id="paint3_linear_2778_68795" x1="25.2867" y1="64.1757" x2="11.4481" y2="61.0306" gradientUnits="userSpaceOnUse">
<stop stop-color="#FF7610"/>
<stop offset="1" stop-color="#FF9546"/>
</linearGradient>
<linearGradient id="paint4_linear_2778_68795" x1="36.5793" y1="66.1974" x2="44.0782" y2="74.2767" gradientUnits="userSpaceOnUse">
<stop offset="0.09" stop-color="#FF9D5A"/>
<stop offset="0.83" stop-color="#FF7610"/>
</linearGradient>
<linearGradient id="paint5_linear_2778_68795" x1="39.8883" y1="70.4501" x2="26.0496" y2="67.305" gradientUnits="userSpaceOnUse">
<stop stop-color="#FF7610"/>
<stop offset="1" stop-color="#FF9546"/>
</linearGradient>
<linearGradient id="paint6_linear_2778_68795" x1="64.2159" y1="18.5481" x2="56.5142" y2="29.9407" gradientUnits="userSpaceOnUse">
<stop stop-color="#94E3FF"/>
<stop offset="1" stop-color="#6CCBE5"/>
</linearGradient>
</defs>
</svg>
