<svg width="99" height="17" viewBox="0 0 99 17" fill="none" xmlns="http://www.w3.org/2000/svg">
<path d="M7.61593 1.376V9.216C7.61593 10.304 7.30126 11.152 6.67193 11.76C6.04259 12.3573 5.19993 12.656 4.14393 12.656C3.07726 12.656 2.21326 12.3467 1.55193 11.728C0.901261 11.1093 0.575928 10.2453 0.575928 9.136H2.81593C2.82659 9.616 2.93859 9.98933 3.15193 10.256C3.37593 10.5227 3.69593 10.656 4.11193 10.656C4.51726 10.656 4.82659 10.528 5.03993 10.272C5.25326 10.016 5.35993 9.664 5.35993 9.216V1.376H7.61593Z" fill="#404040"/>
<path d="M14.1649 12.688C13.3116 12.688 12.5436 12.5013 11.8609 12.128C11.1783 11.744 10.6396 11.2053 10.2449 10.512C9.86093 9.81867 9.66893 9.01867 9.66893 8.112C9.66893 7.20533 9.86626 6.40533 10.2609 5.712C10.6663 5.01867 11.2156 4.48533 11.9089 4.112C12.6023 3.728 13.3756 3.536 14.2289 3.536C15.0823 3.536 15.8556 3.728 16.5489 4.112C17.2423 4.48533 17.7863 5.01867 18.1809 5.712C18.5863 6.40533 18.7889 7.20533 18.7889 8.112C18.7889 9.01867 18.5809 9.81867 18.1649 10.512C17.7596 11.2053 17.2049 11.744 16.5009 12.128C15.8076 12.5013 15.0289 12.688 14.1649 12.688ZM14.1649 10.736C14.5703 10.736 14.9489 10.64 15.3009 10.448C15.6636 10.2453 15.9516 9.94667 16.1649 9.552C16.3783 9.15733 16.4849 8.67733 16.4849 8.112C16.4849 7.26933 16.2609 6.624 15.8129 6.176C15.3756 5.71733 14.8369 5.488 14.1969 5.488C13.5569 5.488 13.0183 5.71733 12.5809 6.176C12.1543 6.624 11.9409 7.26933 11.9409 8.112C11.9409 8.95467 12.1489 9.60533 12.5649 10.064C12.9916 10.512 13.5249 10.736 14.1649 10.736Z" fill="#404040"/>
<path d="M28.8001 3.68V12.544H26.5441V11.424C26.2561 11.808 25.8774 12.112 25.4081 12.336C24.9494 12.5493 24.4481 12.656 23.9041 12.656C23.2107 12.656 22.5974 12.512 22.0641 12.224C21.5307 11.9253 21.1094 11.4933 20.8001 10.928C20.5014 10.352 20.3521 9.66933 20.3521 8.88V3.68H22.5921V8.56C22.5921 9.264 22.7681 9.808 23.1201 10.192C23.4721 10.5653 23.9521 10.752 24.5601 10.752C25.1787 10.752 25.6641 10.5653 26.0161 10.192C26.3681 9.808 26.5441 9.264 26.5441 8.56V3.68H28.8001Z" fill="#404040"/>
<path d="M33.2502 5.056C33.5382 4.58667 33.9115 4.21867 34.3702 3.952C34.8395 3.68533 35.3728 3.552 35.9702 3.552V5.904H35.3782C34.6742 5.904 34.1408 6.06933 33.7782 6.4C33.4262 6.73067 33.2502 7.30667 33.2502 8.128V12.544H31.0102V3.68H33.2502V5.056Z" fill="#404040"/>
<path d="M42.3909 3.552C43.4469 3.552 44.3003 3.888 44.9509 4.56C45.6016 5.22133 45.9269 6.14933 45.9269 7.344V12.544H43.6869V7.648C43.6869 6.944 43.5109 6.40533 43.1589 6.032C42.8069 5.648 42.3269 5.456 41.7189 5.456C41.1003 5.456 40.6096 5.648 40.2469 6.032C39.8949 6.40533 39.7189 6.944 39.7189 7.648V12.544H37.4789V3.68H39.7189V4.784C40.0176 4.4 40.3963 4.10133 40.8549 3.888C41.3243 3.664 41.8363 3.552 42.3909 3.552Z" fill="#404040"/>
<path d="M56.2971 7.92C56.2971 8.24 56.2757 8.528 56.2331 8.784H49.7531C49.8064 9.424 50.0304 9.92533 50.4251 10.288C50.8197 10.6507 51.3051 10.832 51.8811 10.832C52.7131 10.832 53.3051 10.4747 53.6571 9.76H56.0731C55.8171 10.6133 55.3264 11.3173 54.6011 11.872C53.8757 12.416 52.9851 12.688 51.9291 12.688C51.0757 12.688 50.3077 12.5013 49.6251 12.128C48.9531 11.744 48.4251 11.2053 48.0411 10.512C47.6677 9.81867 47.4811 9.01867 47.4811 8.112C47.4811 7.19467 47.6677 6.38933 48.0411 5.696C48.4144 5.00267 48.937 4.46933 49.6091 4.096C50.2811 3.72267 51.0544 3.536 51.9291 3.536C52.7717 3.536 53.5237 3.71733 54.1851 4.08C54.8571 4.44267 55.3744 4.96 55.7371 5.632C56.1104 6.29333 56.2971 7.056 56.2971 7.92ZM53.9771 7.28C53.9664 6.704 53.7584 6.24533 53.3531 5.904C52.9477 5.552 52.4517 5.376 51.8651 5.376C51.3104 5.376 50.8411 5.54667 50.4571 5.888C50.0837 6.21867 49.8544 6.68267 49.7691 7.28H53.9771Z" fill="#404040"/>
<path d="M66.4121 3.68L60.9241 16.736H58.5401L60.4601 12.32L56.9081 3.68H59.4201L61.7081 9.872L64.028 3.68H66.4121Z" fill="#404040"/>
<path d="M73.6721 4.96C73.9601 4.55467 74.3547 4.21867 74.8561 3.952C75.3681 3.67467 75.9494 3.536 76.6001 3.536C77.3574 3.536 78.0401 3.72267 78.6481 4.096C79.2667 4.46933 79.7521 5.00267 80.1041 5.696C80.4667 6.37867 80.6481 7.17333 80.6481 8.08C80.6481 8.98667 80.4667 9.792 80.1041 10.496C79.7521 11.1893 79.2667 11.728 78.6481 12.112C78.0401 12.496 77.3574 12.688 76.6001 12.688C75.9494 12.688 75.3734 12.5547 74.8721 12.288C74.3814 12.0213 73.9814 11.6853 73.6721 11.28V16.768H71.4321V3.68H73.6721V4.96ZM78.3601 8.08C78.3601 7.54667 78.2481 7.088 78.0241 6.704C77.8107 6.30933 77.5227 6.01067 77.1601 5.808C76.8081 5.60533 76.4241 5.504 76.0081 5.504C75.6027 5.504 75.2187 5.61067 74.8561 5.824C74.5041 6.02667 74.2161 6.32533 73.9921 6.72C73.7787 7.11467 73.6721 7.57867 73.6721 8.112C73.6721 8.64533 73.7787 9.10933 73.9921 9.504C74.2161 9.89867 74.5041 10.2027 74.8561 10.416C75.2187 10.6187 75.6027 10.72 76.0081 10.72C76.4241 10.72 76.8081 10.6133 77.1601 10.4C77.5227 10.1867 77.8107 9.88267 78.0241 9.488C78.2481 9.09333 78.3601 8.624 78.3601 8.08Z" fill="#404040"/>
<path d="M83.4118 2.624C83.0171 2.624 82.6865 2.50133 82.4198 2.256C82.1638 2 82.0358 1.68533 82.0358 1.312C82.0358 0.938667 82.1638 0.629333 82.4198 0.384C82.6865 0.128 83.0171 0 83.4118 0C83.8065 0 84.1318 0.128 84.3878 0.384C84.6545 0.629333 84.7878 0.938667 84.7878 1.312C84.7878 1.68533 84.6545 2 84.3878 2.256C84.1318 2.50133 83.8065 2.624 83.4118 2.624ZM84.5158 3.68V12.544H82.2758V3.68H84.5158Z" fill="#404040"/>
<path d="M91.9769 12.544L88.9689 8.768V12.544H86.7289V0.704H88.9689V7.44L91.9449 3.68H94.8569L90.9529 8.128L94.8889 12.544H91.9769Z" fill="#404040"/>
<path d="M97.2087 2.624C96.814 2.624 96.4834 2.50133 96.2167 2.256C95.9607 2 95.8327 1.68533 95.8327 1.312C95.8327 0.938667 95.9607 0.629333 96.2167 0.384C96.4834 0.128 96.814 0 97.2087 0C97.6033 0 97.9287 0.128 98.1847 0.384C98.4514 0.629333 98.5847 0.938667 98.5847 1.312C98.5847 1.68533 98.4514 2 98.1847 2.256C97.9287 2.50133 97.6033 2.624 97.2087 2.624ZM98.3127 3.68V12.544H96.0727V3.68H98.3127Z" fill="#404040"/>
</svg>
