<svg width="33" height="33" viewBox="0 0 33 33" fill="none" xmlns="http://www.w3.org/2000/svg">
<g filter="url(#filter0_d_1671_41438)">
<circle cx="15" cy="15" r="12" fill="#2C2C2C"/>
</g>
<path d="M12.174 10.0526C11.5882 9.46684 10.6385 9.46683 10.0527 10.0526C9.46688 10.6384 9.46687 11.5882 10.0527 12.1739L12.174 10.0526ZM17.8266 19.9479C18.4124 20.5337 19.3622 20.5337 19.9479 19.948C20.5337 19.3622 20.5337 18.4124 19.948 17.8266L17.8266 19.9479ZM10.0527 12.1739L17.8266 19.9479L19.948 17.8266L12.174 10.0526L10.0527 12.1739Z" fill="white"/>
<path d="M17.827 10.0526C18.4128 9.46684 19.3626 9.46683 19.9484 10.0526C20.5341 10.6384 20.5341 11.5882 19.9484 12.1739L17.827 10.0526ZM12.1744 19.9479C11.5886 20.5337 10.6389 20.5337 10.0531 19.948C9.46728 19.3622 9.46728 18.4124 10.0531 17.8266L12.1744 19.9479ZM19.9484 12.1739L12.1744 19.9479L10.0531 17.8266L17.827 10.0526L19.9484 12.1739Z" fill="white"/>
<defs>
<filter id="filter0_d_1671_41438" x="0.2" y="0.2" width="32" height="32" filterUnits="userSpaceOnUse" color-interpolation-filters="sRGB">
<feFlood flood-opacity="0" result="BackgroundImageFix"/>
<feColorMatrix in="SourceAlpha" type="matrix" values="0 0 0 0 0 0 0 0 0 0 0 0 0 0 0 0 0 0 127 0" result="hardAlpha"/>
<feOffset dx="1.2" dy="1.2"/>
<feGaussianBlur stdDeviation="2"/>
<feComposite in2="hardAlpha" operator="out"/>
<feColorMatrix type="matrix" values="0 0 0 0 0.3375 0 0 0 0 0.3375 0 0 0 0 0.3375 0 0 0 0.15 0"/>
<feBlend mode="normal" in2="BackgroundImageFix" result="effect1_dropShadow_1671_41438"/>
<feBlend mode="normal" in="SourceGraphic" in2="effect1_dropShadow_1671_41438" result="shape"/>
</filter>
</defs>
</svg>
