<svg width="60" height="60" viewBox="0 0 60 60" fill="none" xmlns="http://www.w3.org/2000/svg">
<g clip-path="url(#clip0_2311_41797)">
<path d="M3.79688 25.2101L24.7901 13.0101L32.5675 17.503L11.5743 29.7005L3.79688 25.2101Z" fill="#58C6E9"/>
<path d="M27.7307 39.0302L48.7239 26.8301L56.5039 31.3205L35.5107 43.5205L27.7307 39.0302Z" fill="#58C6E9"/>
<path d="M35.5108 43.5206L56.504 31.3206L56.4571 47.8026L35.4639 60.0026L35.5108 43.5206Z" fill="#1D7A89"/>
<path d="M27.762 27.3667L27.7307 39.0302L35.5107 43.5205L35.4638 60.0026L3.75 41.6921L3.79688 25.2101L11.5743 29.7004L11.6081 18.0396L27.762 27.3667Z" fill="url(#paint0_linear_2311_41797)"/>
<path d="M27.762 27.3667L48.7552 15.1667L48.7239 26.8302L27.7307 39.0302L27.762 27.3667Z" fill="#2B99B2"/>
<path d="M11.6082 18.0396L32.6014 5.83954L48.7552 15.1667L27.762 27.3667L11.6082 18.0396Z" fill="#94EBFF"/>
<path d="M23.2613 42.8251L23.2482 47.1749L7.09961 37.8503L7.11263 33.5006L23.2613 42.8251Z" fill="#0F4D5B"/>
<path opacity="0.3" d="M25.8997 20.4958L33.0337 24.3037L41.6081 19.3211L36.6333 16.4821L25.8997 20.4958Z" fill="#2B99B2"/>
<path d="M37.2636 14.8099V17.3572C37.2636 18.386 36.5838 19.4174 35.2294 20.2014C32.5102 21.7824 28.0797 21.7824 25.3318 20.2014C23.9514 19.407 23.2638 18.36 23.2664 17.3181V14.7682C23.2664 15.81 23.9514 16.8519 25.3292 17.6541C28.0693 19.2351 32.4971 19.2351 35.2268 17.6541C36.5942 16.8675 37.2584 15.8387 37.2636 14.8099Z" fill="#2B99B2"/>
<path d="M37.2637 14.8099V17.3572C37.265 17.378 37.265 17.3989 37.2637 17.4197V14.8698C37.2637 14.8489 37.2637 14.8307 37.2637 14.8099Z" fill="#2B99B2"/>
<path d="M37.2611 14.8698V17.4197C37.2578 17.5544 37.243 17.6886 37.2168 17.8208V15.2709C37.2433 15.1387 37.2581 15.0045 37.2611 14.8698Z" fill="#2B99B2"/>
<path d="M37.2167 15.2709V17.8208C37.1893 17.9548 37.151 18.0864 37.1021 18.2141V15.6668C37.1502 15.5379 37.1885 15.4055 37.2167 15.2709Z" fill="#2B99B2"/>
<path d="M37.1151 15.6668V18.2141C37.0632 18.3513 37.0014 18.4844 36.9302 18.6126V16.0627C37.0018 15.9356 37.0636 15.8033 37.1151 15.6668Z" fill="#2B99B2"/>
<path d="M36.9173 16.0627V18.6126C36.8338 18.7582 36.7398 18.8975 36.636 19.0293V16.482C36.7398 16.3493 36.8338 16.2091 36.9173 16.0627Z" fill="#2B99B2"/>
<path d="M36.6359 16.4794V19.0267C36.5035 19.1935 36.3581 19.3494 36.2009 19.493V16.9457C36.3574 16.8014 36.5028 16.6455 36.6359 16.4794Z" fill="#2B99B2"/>
<path d="M36.201 16.9482V19.4956C35.9297 19.7448 35.6329 19.9648 35.3154 20.1519V17.6046C35.6318 17.416 35.9285 17.1961 36.201 16.9482Z" fill="#2B99B2"/>
<path d="M35.3152 17.6046V20.1519L35.2293 20.2014C34.7443 20.4803 34.2309 20.7065 33.6978 20.876V18.3287C34.2304 18.158 34.7438 17.9319 35.2293 17.6541L35.3152 17.6046Z" fill="#2B99B2"/>
<path d="M33.6979 18.3287V20.876C33.265 21.0159 32.8229 21.1256 32.3748 21.2042V18.6569C32.8229 18.5782 33.265 18.4686 33.6979 18.3287Z" fill="#2B99B2"/>
<path d="M32.3747 18.6569V21.2042C32.0795 21.258 31.7825 21.2997 31.4839 21.3292V18.7819C31.786 18.7506 32.0829 18.7116 32.3773 18.6569" fill="#2B99B2"/>
<path d="M31.4813 18.7819V21.3292C31.2209 21.3553 30.9604 21.3735 30.7 21.3813V18.834C30.9604 18.834 31.2209 18.808 31.4813 18.7819Z" fill="#2B99B2"/>
<path d="M30.705 18.8236V21.3709C30.4654 21.3709 30.2258 21.3709 29.9888 21.3709V18.8236C30.2284 18.8236 30.468 18.8236 30.705 18.8236Z" fill="#2B99B2"/>
<path d="M29.9888 18.8366V21.3839C29.757 21.3839 29.5278 21.3657 29.2986 21.3474V18.8001C29.5278 18.8183 29.757 18.8314 29.9862 18.8366" fill="#2B99B2"/>
<path d="M29.3014 18.8001V21.3475C29.0722 21.3292 28.8456 21.3032 28.6216 21.2719V18.7246C28.8456 18.7559 29.0722 18.7819 29.3014 18.8001Z" fill="#2B99B2"/>
<path d="M28.6215 18.7246V21.2719C28.3871 21.238 28.1553 21.199 27.9287 21.1521V18.6022C28.1579 18.6517 28.3897 18.6907 28.6241 18.7246" fill="#2B99B2"/>
<path d="M27.9261 18.6022V21.1521C27.6656 21.1 27.4338 21.0401 27.1968 20.9724V18.425C27.4364 18.4928 27.6786 18.5527 27.9261 18.6022Z" fill="#2B99B2"/>
<path d="M27.1968 18.4251V20.9724C26.905 20.889 26.6211 20.7927 26.3477 20.6859V18.1385C26.6081 18.2453 26.905 18.3417 27.1968 18.4251Z" fill="#2B99B2"/>
<path d="M26.3476 18.1386V20.6859C26.0001 20.5497 25.6631 20.3877 25.3396 20.2014C23.9592 19.407 23.2716 18.36 23.2742 17.3181V14.7682C23.2742 15.81 23.9592 16.8519 25.337 17.6541C25.6608 17.8399 25.9977 18.0019 26.345 18.1386" fill="#2B99B2"/>
<path d="M35.1981 11.9265C37.9381 13.5075 37.9511 16.0731 35.2293 17.6567C32.5075 19.2403 28.0796 19.2377 25.3318 17.6567C22.5839 16.0757 22.5787 13.5101 25.2979 11.9265C28.0171 10.3429 32.458 10.3429 35.1981 11.9265Z" fill="#C2F6FF"/>
<path d="M30.2259 3.0578L30.1894 15.039L29.3247 14.591L29.3612 2.6098L30.2259 3.0578Z" fill="#F9BBD3"/>
<path d="M30.2259 3.0578L31.1453 2.57855L31.1063 14.5624L30.1895 15.0391L30.2259 3.0578Z" fill="#C12B56"/>
<path d="M29.3611 2.60982L30.2805 2.13318L31.1452 2.57857L30.2258 3.05782L29.3611 2.60982Z" fill="#CE4D6C"/>
<path d="M29.3717 2.30511L37.9669 15.1667L29.3508 10.1919L29.3717 2.30511Z" fill="#EF597D"/>
<path d="M29.3716 2.30509L33.341 0L41.9363 12.8616L37.9668 15.1667L29.3716 2.30509Z" fill="#C12B56"/>
<path d="M7.09961 37.8503L10.8477 35.6572L23.2613 42.8251L23.2482 47.1749L7.09961 37.8503Z" fill="#2B99B2"/>
<path d="M30.6452 46.818L30.6322 51.1703L26.8477 48.9851L26.8581 44.6328L30.6452 46.818Z" fill="#0F4D5B"/>
<path d="M26.8477 48.985L30.6452 46.818L30.6322 51.1703L26.8477 48.985Z" fill="#2B99B2"/>
<path d="M23.4565 29.9609L23.4434 34.3106L15.0149 29.4452L15.0279 25.0929L23.4565 29.9609Z" fill="#0F4D5B"/>
<path d="M15.0149 29.4452L18.8489 27.299L23.4565 29.9609L23.4434 34.3106L15.0149 29.4452Z" fill="#2B99B2"/>
</g>
<defs>
<linearGradient id="paint0_linear_2311_41797" x1="28.2621" y1="27.6558" x2="16.0568" y2="48.7975" gradientUnits="userSpaceOnUse">
<stop stop-color="white"/>
<stop offset="1" stop-color="#94EBFF"/>
</linearGradient>
<clipPath id="clip0_2311_41797">
<rect width="52.7539" height="60" fill="white" transform="translate(3.75)"/>
</clipPath>
</defs>
</svg>
