<svg width="103" height="100" viewBox="0 0 103 100" fill="none" xmlns="http://www.w3.org/2000/svg">
<circle cx="50" cy="50" r="50" fill="#58C6E9" fill-opacity="0.08"/>
<g filter="url(#filter0_d_2390_59020)">
<path d="M75.1425 25.1089H24.4748C20.3466 25.1089 17 28.4555 17 32.5836V70.2648C17 74.393 20.3466 77.7395 24.4748 77.7395H75.1425C79.2707 77.7395 82.6173 74.393 82.6173 70.2648V32.5836C82.6173 28.4555 79.2707 25.1089 75.1425 25.1089Z" fill="white"/>
</g>
<g filter="url(#filter1_d_2390_59020)">
<path d="M24.4351 25.1089H75.1326C77.11 25.122 79.0021 25.916 80.3966 27.3179C81.7911 28.7199 82.5751 30.6161 82.5777 32.5936V38.1749H49.7888H17V32.544C17 30.5721 17.7833 28.6809 19.1777 27.2866C20.572 25.8922 22.4632 25.1089 24.4351 25.1089Z" fill="url(#paint0_linear_2390_59020)"/>
</g>
<g filter="url(#filter2_d_2390_59020)">
<path d="M50.3634 49.3954L51.3933 48.495C53.5708 46.3368 56.5998 45.9446 59.1764 47.1443C60.8074 47.9036 62.0549 49.3552 62.7178 51.0277C63.8288 53.831 63.0346 56.375 61.1504 58.7809C58.1883 62.4125 54.4866 65.5036 50.3853 67.7712C50.3545 67.7882 50.317 67.7886 50.2861 67.772C46.0385 65.4868 42.2475 62.4396 39.1027 58.7825L39.0342 58.7028C36.5964 55.7229 36.0957 51.496 38.9397 48.6772C41.7838 45.8583 46.4894 45.6761 49.3334 48.4949L50.3634 49.3954Z" fill="#EF597D"/>
<mask id="mask0_2390_59020" style="mask-type:alpha" maskUnits="userSpaceOnUse" x="37" y="46" width="27" height="22">
<path d="M50.3634 49.3954L51.3933 48.495C53.5708 46.3368 56.5998 45.9446 59.1764 47.1443C60.8074 47.9036 62.0549 49.3552 62.7178 51.0277C63.8288 53.831 63.0346 56.375 61.1504 58.7809L60.9729 58.9985C58.1084 62.5103 54.5985 65.4417 50.6324 67.6346L50.497 67.7094C50.3964 67.765 50.2745 67.7657 50.1733 67.7113C46.0002 65.4662 42.2759 62.4725 39.1862 58.8796L39.0342 58.7028C36.5964 55.7229 36.0957 51.496 38.9397 48.6772C41.7838 45.8583 46.4894 45.6761 49.3334 48.4949L50.3634 49.3954Z" fill="#EF597D"/>
</mask>
<g mask="url(#mask0_2390_59020)">
<g filter="url(#filter3_d_2390_59020)">
<path d="M64.6452 62.1758L49.1469 48.2983L48.9005 45.6921L38.7212 43.1206L32.6631 54.5679L51.5775 71.2281L64.6452 62.1758Z" fill="#F47FA2"/>
</g>
</g>
</g>
<g filter="url(#filter4_d_2390_59020)">
<path d="M71.7977 59.0085L77.207 64.1391L70.0885 66.6306C69.2515 66.9236 68.4756 66.063 68.8534 65.2607L71.7977 59.0085Z" fill="#D9D9D9"/>
<path d="M69.7618 63.3317L72.3905 65.825L70.0884 66.6308C69.2514 66.9237 68.4755 66.0631 68.8533 65.2609L69.7618 63.3317Z" fill="#3F3F3F"/>
<rect x="70" y="59.3005" width="30.1236" height="9.15501" rx="2" transform="rotate(-45 70 59.3005)" fill="#3F3F3F"/>
</g>
<g filter="url(#filter5_d_2390_59020)">
<path d="M37.6018 20.2437H36.4503C35.097 20.2437 34 21.1997 34 22.379V27.1865C34 28.3659 35.097 29.3219 36.4503 29.3219H37.6018C38.9551 29.3219 40.0522 28.3659 40.0522 27.1865V22.379C40.0522 21.1997 38.9551 20.2437 37.6018 20.2437Z" fill="#444648"/>
</g>
<g filter="url(#filter6_d_2390_59020)">
<path d="M64.2444 20.2437H63.0929C61.7396 20.2437 60.6426 21.1997 60.6426 22.379V27.1865C60.6426 28.3659 61.7396 29.3219 63.0929 29.3219H64.2444C65.5977 29.3219 66.6948 28.3659 66.6948 27.1865V22.379C66.6948 21.1997 65.5977 20.2437 64.2444 20.2437Z" fill="#444648"/>
</g>
<defs>
<filter id="filter0_d_2390_59020" x="15" y="23.1089" width="77.6172" height="64.6306" filterUnits="userSpaceOnUse" color-interpolation-filters="sRGB">
<feFlood flood-opacity="0" result="BackgroundImageFix"/>
<feColorMatrix in="SourceAlpha" type="matrix" values="0 0 0 0 0 0 0 0 0 0 0 0 0 0 0 0 0 0 127 0" result="hardAlpha"/>
<feOffset dx="4" dy="4"/>
<feGaussianBlur stdDeviation="3"/>
<feComposite in2="hardAlpha" operator="out"/>
<feColorMatrix type="matrix" values="0 0 0 0 0.156863 0 0 0 0 0.52549 0 0 0 0 0.866667 0 0 0 0.24 0"/>
<feBlend mode="normal" in2="BackgroundImageFix" result="effect1_dropShadow_2390_59020"/>
<feBlend mode="normal" in="SourceGraphic" in2="effect1_dropShadow_2390_59020" result="shape"/>
</filter>
<filter id="filter1_d_2390_59020" x="16" y="24.1089" width="71.5776" height="19.0659" filterUnits="userSpaceOnUse" color-interpolation-filters="sRGB">
<feFlood flood-opacity="0" result="BackgroundImageFix"/>
<feColorMatrix in="SourceAlpha" type="matrix" values="0 0 0 0 0 0 0 0 0 0 0 0 0 0 0 0 0 0 127 0" result="hardAlpha"/>
<feOffset dx="2" dy="2"/>
<feGaussianBlur stdDeviation="1.5"/>
<feComposite in2="hardAlpha" operator="out"/>
<feColorMatrix type="matrix" values="0 0 0 0 0 0 0 0 0 0 0 0 0 0 0 0 0 0 0.08 0"/>
<feBlend mode="normal" in2="BackgroundImageFix" result="effect1_dropShadow_2390_59020"/>
<feBlend mode="normal" in="SourceGraphic" in2="effect1_dropShadow_2390_59020" result="shape"/>
</filter>
<filter id="filter2_d_2390_59020" x="33.5447" y="43.0144" width="36.2261" height="31.3145" filterUnits="userSpaceOnUse" color-interpolation-filters="sRGB">
<feFlood flood-opacity="0" result="BackgroundImageFix"/>
<feColorMatrix in="SourceAlpha" type="matrix" values="0 0 0 0 0 0 0 0 0 0 0 0 0 0 0 0 0 0 127 0" result="hardAlpha"/>
<feOffset dx="1.54467" dy="1.54467"/>
<feGaussianBlur stdDeviation="2.5"/>
<feComposite in2="hardAlpha" operator="out"/>
<feColorMatrix type="matrix" values="0 0 0 0 0.937255 0 0 0 0 0.34902 0 0 0 0 0.490196 0 0 0 0.35 0"/>
<feBlend mode="normal" in2="BackgroundImageFix" result="effect1_dropShadow_2390_59020"/>
<feBlend mode="normal" in="SourceGraphic" in2="effect1_dropShadow_2390_59020" result="shape"/>
</filter>
<filter id="filter3_d_2390_59020" x="32.6631" y="43.1206" width="39.2363" height="33.911" filterUnits="userSpaceOnUse" color-interpolation-filters="sRGB">
<feFlood flood-opacity="0" result="BackgroundImageFix"/>
<feColorMatrix in="SourceAlpha" type="matrix" values="0 0 0 0 0 0 0 0 0 0 0 0 0 0 0 0 0 0 127 0" result="hardAlpha"/>
<feOffset dx="4.35263" dy="2.90175"/>
<feGaussianBlur stdDeviation="1.45088"/>
<feComposite in2="hardAlpha" operator="out"/>
<feColorMatrix type="matrix" values="0 0 0 0 0.866667 0 0 0 0 0.156863 0 0 0 0 0.369804 0 0 0 1 0"/>
<feBlend mode="normal" in2="BackgroundImageFix" result="effect1_dropShadow_2390_59020"/>
<feBlend mode="normal" in="SourceGraphic" in2="effect1_dropShadow_2390_59020" result="shape"/>
</filter>
<filter id="filter4_d_2390_59020" x="66.7549" y="36.8284" width="36.1909" height="35.861" filterUnits="userSpaceOnUse" color-interpolation-filters="sRGB">
<feFlood flood-opacity="0" result="BackgroundImageFix"/>
<feColorMatrix in="SourceAlpha" type="matrix" values="0 0 0 0 0 0 0 0 0 0 0 0 0 0 0 0 0 0 127 0" result="hardAlpha"/>
<feOffset dx="2" dy="2"/>
<feGaussianBlur stdDeviation="2"/>
<feComposite in2="hardAlpha" operator="out"/>
<feColorMatrix type="matrix" values="0 0 0 0 0 0 0 0 0 0 0 0 0 0 0 0 0 0 0.25 0"/>
<feBlend mode="normal" in2="BackgroundImageFix" result="effect1_dropShadow_2390_59020"/>
<feBlend mode="normal" in="SourceGraphic" in2="effect1_dropShadow_2390_59020" result="shape"/>
</filter>
<filter id="filter5_d_2390_59020" x="33" y="19.2437" width="10.0522" height="13.0782" filterUnits="userSpaceOnUse" color-interpolation-filters="sRGB">
<feFlood flood-opacity="0" result="BackgroundImageFix"/>
<feColorMatrix in="SourceAlpha" type="matrix" values="0 0 0 0 0 0 0 0 0 0 0 0 0 0 0 0 0 0 127 0" result="hardAlpha"/>
<feOffset dx="1" dy="1"/>
<feGaussianBlur stdDeviation="1"/>
<feComposite in2="hardAlpha" operator="out"/>
<feColorMatrix type="matrix" values="0 0 0 0 0 0 0 0 0 0 0 0 0 0 0 0 0 0 0.1 0"/>
<feBlend mode="normal" in2="BackgroundImageFix" result="effect1_dropShadow_2390_59020"/>
<feBlend mode="normal" in="SourceGraphic" in2="effect1_dropShadow_2390_59020" result="shape"/>
</filter>
<filter id="filter6_d_2390_59020" x="59.6426" y="19.2437" width="10.0522" height="13.0782" filterUnits="userSpaceOnUse" color-interpolation-filters="sRGB">
<feFlood flood-opacity="0" result="BackgroundImageFix"/>
<feColorMatrix in="SourceAlpha" type="matrix" values="0 0 0 0 0 0 0 0 0 0 0 0 0 0 0 0 0 0 127 0" result="hardAlpha"/>
<feOffset dx="1" dy="1"/>
<feGaussianBlur stdDeviation="1"/>
<feComposite in2="hardAlpha" operator="out"/>
<feColorMatrix type="matrix" values="0 0 0 0 0 0 0 0 0 0 0 0 0 0 0 0 0 0 0.1 0"/>
<feBlend mode="normal" in2="BackgroundImageFix" result="effect1_dropShadow_2390_59020"/>
<feBlend mode="normal" in="SourceGraphic" in2="effect1_dropShadow_2390_59020" result="shape"/>
</filter>
<linearGradient id="paint0_linear_2390_59020" x1="17" y1="31.6419" x2="82.6173" y2="31.6419" gradientUnits="userSpaceOnUse">
<stop stop-color="#67CDED"/>
<stop offset="0.3" stop-color="#7FDDF0"/>
<stop offset="0.62" stop-color="#6FD9F0"/>
<stop offset="1" stop-color="#53ABEA"/>
</linearGradient>
</defs>
</svg>
