<svg width="60" height="60" viewBox="0 0 60 60" fill="none" xmlns="http://www.w3.org/2000/svg">
<g clip-path="url(#clip0_2311_41794)">
<path d="M56.8967 36.3868L20.7693 57.3818L4.28467 47.8632L40.4094 26.8682L56.8967 36.3868Z" fill="#A80B1E"/>
<path d="M56.8968 36.3868L56.8889 39.005L20.7642 60L20.7694 57.3819L56.8968 36.3868Z" fill="#E54C78"/>
<path d="M20.7694 57.3818L20.7641 60L4.27686 50.4813L4.28472 47.8632L20.7694 57.3818Z" fill="#F9BBD3"/>
<path d="M8.64552 1.80572L8.53807 39.3195L6.89746 38.3734L7.00491 0.859619L8.64552 1.80572Z" fill="#ED9DC5"/>
<path d="M8.64554 1.80572L10.1237 0.94873L10.0162 38.4625L8.53809 39.3195L8.64554 1.80572Z" fill="#E54C78"/>
<path d="M7.00488 0.859614L8.48038 0L10.1236 0.94872L8.64549 1.80571L7.00488 0.859614Z" fill="#EF597D"/>
<path d="M6.55161 31.6354L6.5385 36.1274L3.75 34.5183L3.7631 30.0262L6.55161 31.6354Z" fill="#94EBFF"/>
<path d="M6.55168 31.6354L7.68385 30.9775L7.67075 35.4695L6.53857 36.1274L6.55168 31.6354Z" fill="#B77998"/>
<path d="M3.76318 30.0262L4.89536 29.3684L7.68386 30.9776L6.55169 31.6354L3.76318 30.0262Z" fill="#C2F6FF"/>
<path d="M8.02962 32.4924L8.02438 34.1015L4.53613 32.0888L4.54137 30.477L8.02962 32.4924Z" fill="#94EBFF"/>
<path d="M8.02966 32.4923L9.16183 31.8345L9.15659 33.4437L8.02441 34.1015L8.02966 32.4923Z" fill="#B77998"/>
<path d="M4.54126 30.477L5.67343 29.8192L9.16168 31.8345L8.02951 32.4923L4.54126 30.477Z" fill="#C2F6FF"/>
<path d="M56.8363 15.0616L56.8966 36.3947L20.7614 57.4002L20.6094 47.4308L24.1133 33.7084L56.8363 15.0616Z" fill="#2B99B2"/>
<path d="M21.2069 47.3285L4.23218 37.4639L9.44752 22.882L26.4223 32.7466L21.2069 47.3285Z" fill="url(#paint0_linear_2311_41794)"/>
<path d="M26.4223 32.7465L9.44751 22.8819L39.8616 5.19958L56.8363 15.0616L26.4223 32.7465Z" fill="#C2F6FF"/>
<path d="M22.6799 34.0176L19.6949 42.4041L8.02979 35.6975L11.0044 27.2849L22.6799 34.0176Z" fill="#0F4D5B"/>
<path d="M19.4485 8.02482L19.4328 15.9107L8.62207 9.67067L8.64566 1.80573L19.4485 8.02482Z" fill="#F4B5D2"/>
<path d="M19.4486 8.02481L20.9215 7.18878L20.8979 15.0511L19.4329 15.9107L19.4486 8.02481Z" fill="#C12B56"/>
<path d="M8.64575 1.80572L10.1108 0.94873L20.9215 7.18879L19.4486 8.02482L8.64575 1.80572Z" fill="#EF597D"/>
<path d="M7.22003 43.0724L9.58921 44.4719L8.98381 47.9549L6.53076 46.5319L7.22003 43.0724Z" fill="#1D7A89"/>
<path d="M54.3414 20.408L54.3571 28.1052L26.2598 43.8822L29.3025 34.9454L54.3414 20.408Z" fill="#1D7A89"/>
<path d="M27.1327 43.6045L27.1274 45.2136L23.6392 43.2009L23.6418 41.5891L27.1327 43.6045Z" fill="#94EBFF"/>
<path d="M27.1327 43.6045L28.2649 42.9467L28.2596 44.5558L27.1274 45.2136L27.1327 43.6045Z" fill="#B77998"/>
<path d="M23.6418 41.5891L24.774 40.9313L28.2649 42.9467L27.1327 43.6045L23.6418 41.5891Z" fill="#C2F6FF"/>
<path d="M27.3842 43.7512L27.3711 48.2433L24.5852 46.6341L24.5957 42.1421L27.3842 43.7512Z" fill="#94EBFF"/>
<path d="M27.3842 43.7512L28.5164 43.0934L28.5033 47.5854L27.3711 48.2432L27.3842 43.7512Z" fill="#006466"/>
<path d="M24.5957 42.1421L25.7279 41.4843L28.5164 43.0934L27.3842 43.7512L24.5957 42.1421Z" fill="#C2F6FF"/>
<path d="M4.23218 37.464L4.28459 47.8632L20.7614 57.4002L21.2069 47.3286L4.23218 37.464Z" fill="url(#paint1_linear_2311_41794)"/>
<path d="M5.84131 43.8665L8.30484 45.4573V48.542L5.85179 47.1189L5.84131 43.8665Z" fill="#2B99B2"/>
<path d="M15.8738 49.2863L18.3373 50.6569V53.7416L15.8843 52.3185L15.8738 49.2863Z" fill="#2B99B2"/>
<path d="M48.83 9.97989L24.5564 24.0849L22.3733 22.8243L46.6469 8.7193L48.83 9.97989Z" fill="#58C6E9"/>
<path d="M48.8299 9.97992L48.8273 10.415L24.5537 24.52L24.5563 24.0849L48.8299 9.97992Z" fill="#2B99B2"/>
<path d="M24.5563 24.0849L24.5537 24.5199L22.3706 23.2593L22.3732 22.8243L24.5563 24.0849Z" fill="#58C6E9"/>
<path opacity="0.3" d="M24.5537 24.52L48.8299 10.4097L49.7158 10.9234L25.7593 25.1332L24.5537 24.52Z" fill="#2B99B2"/>
<path d="M8.02979 35.6976L16.1647 30.2621L22.6799 34.0177L19.6949 42.4041L8.02979 35.6976Z" fill="#2B99B2"/>
<path d="M54.3573 28.1052L48.5916 23.7494L54.3415 20.408L54.3573 28.1052Z" fill="#0F4D5B"/>
<path d="M8.62207 9.67067L8.64566 5.9151L19.4328 11.9848V15.9107L8.62207 9.67067Z" fill="#FFCADC"/>
<path d="M35.2359 46.5555L33.3018 45.4311C33.4632 45.3323 33.6314 45.2447 33.8049 45.1691L35.7391 46.2934C35.5655 46.369 35.3974 46.4566 35.2359 46.5555Z" fill="#EF597D"/>
<path d="M35.7391 46.3039L33.8049 45.1795C33.943 45.1218 34.0848 45.0736 34.2295 45.0354L36.161 46.1571C36.0176 46.1978 35.8768 46.2468 35.7391 46.3039Z" fill="#EF597D"/>
<path d="M36.1611 46.1571L34.2427 45.0354C34.3467 45.0054 34.4526 44.9826 34.5598 44.9672L36.4913 46.0889C36.3891 46.1073 36.2816 46.1282 36.1742 46.1571" fill="#EF597D"/>
<path d="M36.4781 46.0889L34.5466 44.9672C34.6332 44.9522 34.7208 44.9435 34.8087 44.941L36.7402 46.0627C36.6537 46.0627 36.5646 46.0627 36.4781 46.0889Z" fill="#EF597D"/>
<path d="M36.7455 46.0627L34.814 44.9515C34.8934 44.9463 34.973 44.9463 35.0525 44.9515L36.984 46.0758C36.908 46.0758 36.8267 46.0758 36.7455 46.0758" fill="#EF597D"/>
<path d="M36.984 46.0654L35.0525 44.9515C35.1246 44.9562 35.1963 44.965 35.2674 44.9777L37.2015 46.1021C37.1296 46.0893 37.0569 46.0805 36.984 46.0758" fill="#EF597D"/>
<path d="M37.2015 46.0915L35.2673 44.9672C35.3355 44.9786 35.4029 44.9944 35.4691 45.0144L37.4033 46.1361C37.3369 46.1172 37.2696 46.1024 37.2015 46.0915Z" fill="#EF597D"/>
<path d="M37.4034 46.1361L35.4692 45.0144C35.5343 45.0323 35.5982 45.0542 35.6606 45.0799L37.5947 46.2042C37.5318 46.178 37.4689 46.1571 37.4034 46.1361Z" fill="#9C6882"/>
<path d="M37.5945 46.2043L35.6604 45.08C35.7227 45.1054 35.7831 45.1352 35.8412 45.1691L37.7727 46.2934C37.7152 46.26 37.6557 46.2303 37.5945 46.2043Z" fill="#98647E"/>
<path d="M37.7728 46.2934L35.8413 45.1691H35.8597L37.7938 46.2934H37.7728Z" fill="#EF597D"/>
<path d="M32.7017 55.0677L30.7675 53.9434C30.1228 53.5687 29.7192 52.7719 29.7192 51.6371C29.7192 49.3544 31.3179 46.5764 33.3018 45.4312L35.236 46.5555C33.2494 47.7007 31.6455 50.4866 31.6534 52.7615C31.656 53.8936 32.057 54.693 32.7017 55.0677Z" fill="#EF597D"/>
<path d="M32.7017 55.0677L30.7675 53.9434C30.1228 53.5686 29.7192 52.7719 29.7192 51.6371C29.7195 51.4022 29.7352 51.1676 29.7664 50.9348L31.6979 52.0564C31.6664 52.2901 31.6515 52.5257 31.6534 52.7614C31.6534 53.8936 32.057 54.6929 32.7017 55.0677Z" fill="#EF597D"/>
<path d="M31.6979 52.0565L29.7664 50.9348C29.7873 50.7697 29.8162 50.6019 29.8502 50.4342L31.7844 51.5585C31.7477 51.7262 31.7188 51.8914 31.6979 52.0565Z" fill="#EF597D"/>
<path d="M31.7845 51.5585L29.8503 50.4342C29.8792 50.2979 29.9132 50.1722 29.9526 50.0228L31.8867 51.1445C31.8474 51.2834 31.8133 51.4223 31.7845 51.5585Z" fill="#EF597D"/>
<path d="M31.8841 51.1444L29.95 50.0227C29.984 49.8996 30.0207 49.779 30.0626 49.6558L31.9942 50.7801C31.9548 50.9007 31.9155 51.0239 31.8841 51.1444Z" fill="#EF597D"/>
<path d="M31.9967 50.7802L30.0652 49.6689C30.1019 49.5563 30.1438 49.4409 30.1857 49.3282L32.1199 50.4526C32.0753 50.5653 32.036 50.6779 31.9967 50.7933" fill="#EF597D"/>
<path d="M32.1199 50.4395L30.1858 49.3152C30.2277 49.2077 30.2723 49.1002 30.3168 48.9928L32.251 50.1171C32.2038 50.2246 32.1619 50.332 32.1199 50.4395Z" fill="#EF597D"/>
<path d="M32.2509 50.1171L30.3115 48.9928C30.3587 48.8879 30.4059 48.7857 30.4557 48.6809L32.3898 49.8052C32.3374 49.9074 32.2902 50.0123 32.2457 50.1171" fill="#EF597D"/>
<path d="M32.4083 49.8052L30.4741 48.6809C30.5239 48.5787 30.5763 48.4765 30.6287 48.3769L32.5629 49.4986C32.5078 49.6008 32.4554 49.703 32.4083 49.8052Z" fill="#EF597D"/>
<path d="M32.5496 49.4986L30.6155 48.3769C30.6705 48.2747 30.7256 48.1725 30.7832 48.0729L32.7173 49.1972C32.6597 49.2968 32.602 49.3964 32.5496 49.4986Z" fill="#EF597D"/>
<path d="M32.7173 49.1972L30.7832 48.0729C30.8435 47.9707 30.9064 47.8684 30.9693 47.7689L32.9034 48.8932C32.8405 48.9928 32.7776 49.095 32.7173 49.1972Z" fill="#EF597D"/>
<path d="M32.9034 48.8827L30.9692 47.7584C31.0374 47.6536 31.1055 47.5487 31.1789 47.4492L33.1104 48.5708C33.0396 48.6731 32.9715 48.7779 32.9034 48.8827Z" fill="#EF597D"/>
<path d="M33.1105 48.5813L31.179 47.4596C31.255 47.3469 31.3362 47.2395 31.4174 47.1346L33.3516 48.2563C33.2677 48.3638 33.1891 48.4712 33.1105 48.5813Z" fill="#EF597D"/>
<path d="M33.3516 48.2564L31.4175 47.1347C31.5118 47.0115 31.6088 46.8936 31.7084 46.7783L33.6425 47.9026C33.5429 48.0179 33.446 48.1358 33.3516 48.2564Z" fill="#EF597D"/>
<path d="M33.6426 47.9025L31.7085 46.7861C31.8369 46.6419 31.9706 46.5004 32.1016 46.3694L34.0357 47.4911C33.8995 47.6247 33.7737 47.7532 33.6426 47.9104" fill="#EF597D"/>
<path d="M34.0357 47.4832L32.1016 46.3615C32.4607 46.0019 32.8641 45.6893 33.3019 45.4312L35.236 46.5555C34.7977 46.8118 34.3942 47.1236 34.0357 47.4832Z" fill="#EF597D"/>
<path d="M35.2359 46.5555C37.2199 45.4076 38.8369 46.3275 38.8421 48.6102C38.8474 50.8928 37.2434 53.6709 35.2595 54.8188C33.2756 55.9667 31.6586 55.0442 31.6533 52.7615C31.6481 50.4788 33.2494 47.7007 35.2359 46.5555Z" fill="#FFCADC"/>
<path d="M35.4143 48.8564C36.4442 48.2615 37.2803 48.7385 37.2855 49.9205C37.2513 50.5657 37.0649 51.1937 36.7415 51.753C36.4181 52.3124 35.9669 52.7873 35.4248 53.1388C34.3974 53.7337 33.5588 53.2567 33.5562 52.0721C33.59 51.4275 33.776 50.8 34.099 50.2411C34.422 49.6822 34.8727 49.2077 35.4143 48.8564Z" fill="#E54C78"/>
<path d="M50.6697 37.9148L48.7356 36.7905C48.8988 36.6931 49.0677 36.6056 49.2414 36.5284L51.1729 37.6527C50.9993 37.7283 50.8312 37.8159 50.6697 37.9148Z" fill="#EF597D"/>
<path d="M51.173 37.6632L49.2415 36.5389C49.3789 36.4819 49.5198 36.4337 49.6634 36.3947L51.5975 37.5164C51.4532 37.5567 51.3114 37.6057 51.173 37.6632Z" fill="#EF597D"/>
<path d="M51.5975 37.5164L49.6633 36.3947C49.7677 36.366 49.8735 36.3432 49.9804 36.3265L51.912 37.4509C51.806 37.4669 51.701 37.4888 51.5975 37.5164Z" fill="#EF597D"/>
<path d="M51.912 37.4509L49.9805 36.3266C50.0673 36.3131 50.1548 36.3043 50.2425 36.3004L52.1767 37.422C52.0889 37.4269 52.0014 37.4365 51.9146 37.4509" fill="#EF597D"/>
<path d="M52.1819 37.4221L50.2478 36.303C50.329 36.303 50.4077 36.303 50.4863 36.303L52.4178 37.4273C52.3392 37.4233 52.2605 37.4233 52.1819 37.4273" fill="#EF597D"/>
<path d="M52.4177 37.4247L50.4915 36.303C50.5644 36.3077 50.637 36.3164 50.709 36.3292L52.6405 37.4535C52.5685 37.4406 52.4959 37.4318 52.423 37.4273" fill="#EF597D"/>
<path d="M52.6354 37.4509L50.7039 36.3265C50.772 36.3265 50.8401 36.3554 50.9057 36.3737L52.8372 37.4954C52.7709 37.4763 52.7035 37.4614 52.6354 37.4509Z" fill="#EF597D"/>
<path d="M52.8502 37.4954L50.9187 36.3737C50.9827 36.3924 51.0456 36.4143 51.1074 36.4392L53.0415 37.5635C52.9786 37.5373 52.9157 37.5164 52.8502 37.4954Z" fill="#9C6882"/>
<path d="M53.0284 37.5636L51.0942 36.4393C51.156 36.4658 51.2164 36.4955 51.2751 36.5284L53.2092 37.6527C53.1505 37.6198 53.0902 37.5901 53.0284 37.5636Z" fill="#98647E"/>
<path d="M53.2093 37.6527L51.2778 36.5284H51.2988L53.2303 37.6527H53.212" fill="#EF597D"/>
<path d="M48.1329 46.427L46.2014 45.3027C45.5541 44.9279 45.1531 44.1312 45.1531 42.9964C45.1531 40.7163 46.7517 37.9357 48.7357 36.7904L50.6698 37.9147C48.6859 39.06 47.082 41.8459 47.0872 44.1207C47.0846 45.2555 47.4908 46.0522 48.1329 46.427Z" fill="#EF597D"/>
<path d="M48.1329 46.427L46.2014 45.3027C45.5541 44.9279 45.1531 44.1312 45.1531 42.9964C45.1534 42.7615 45.1691 42.5268 45.2002 42.294L47.1344 43.4157C47.1033 43.6494 47.0875 43.8849 47.0872 44.1207C47.0872 45.2555 47.4908 46.0522 48.1355 46.427" fill="#EF597D"/>
<path d="M47.1343 43.4157L45.2002 42.294C45.2212 42.1289 45.25 41.9612 45.2867 41.7935L47.2182 42.9178C47.1841 43.0855 47.1553 43.2506 47.1343 43.4157Z" fill="#EF597D"/>
<path d="M47.2181 42.9178L45.2866 41.8065C45.3154 41.6703 45.3495 41.5445 45.3862 41.3951L47.3203 42.5194C47.281 42.6557 47.247 42.7946 47.2181 42.9309" fill="#EF597D"/>
<path d="M47.3204 42.5063L45.3862 41.382C45.4203 41.2588 45.457 41.1383 45.4989 41.0151L47.4331 42.1394C47.3911 42.2599 47.3544 42.3831 47.3204 42.5063Z" fill="#EF597D"/>
<path d="M47.4332 42.1394L45.5122 41.0203C45.5489 40.9076 45.5908 40.7949 45.6328 40.6823L47.5669 41.8039C47.5223 41.9166 47.483 42.0293 47.4463 42.1446" fill="#EF597D"/>
<path d="M47.5538 41.8066L45.6196 40.6849C45.6616 40.5748 45.7061 40.4674 45.7533 40.3625L47.6848 41.4842C47.6402 41.5917 47.5957 41.6991 47.5538 41.8066Z" fill="#EF597D"/>
<path d="M47.6847 41.4763L45.7532 40.3547C45.7986 40.2498 45.8458 40.145 45.8947 40.0402L47.8288 41.1645C47.779 41.2667 47.7319 41.3715 47.6847 41.4763Z" fill="#EF597D"/>
<path d="M47.8289 41.1645L45.8948 40.0402C45.9446 39.9379 45.997 39.8357 46.0494 39.7361L47.9835 40.8578C47.9285 40.96 47.8787 41.0623 47.8289 41.1645Z" fill="#EF597D"/>
<path d="M47.9834 40.8578L46.0493 39.7361C46.1044 39.6339 46.162 39.5317 46.2197 39.4321L48.1512 40.5564C48.0935 40.656 48.0385 40.7556 47.9834 40.8578Z" fill="#EF597D"/>
<path d="M48.1512 40.5564L46.2197 39.4321C46.28 39.3299 46.3403 39.2277 46.4058 39.1281L48.3373 40.2524C48.2744 40.352 48.2115 40.4542 48.1512 40.5564Z" fill="#EF597D"/>
<path d="M48.3373 40.2525L46.4058 39.1282C46.4713 39.0233 46.542 38.9211 46.6128 38.8189L48.5469 39.9406C48.4736 40.0428 48.4054 40.1476 48.3373 40.2525Z" fill="#EF597D"/>
<path d="M48.5469 39.9406L46.6128 38.8189C46.6914 38.7088 46.77 38.5987 46.8513 38.4939L48.7854 39.6182C48.7042 39.723 48.6229 39.8305 48.5469 39.9406Z" fill="#EF597D"/>
<path d="M48.7855 39.6182L46.8513 38.4939C46.9457 38.3708 47.0426 38.2528 47.1448 38.1375L49.0764 39.2618C48.9768 39.3771 48.8798 39.4951 48.7855 39.6182Z" fill="#EF597D"/>
<path d="M49.0763 39.2618L47.1448 38.1375C47.2706 37.9933 47.4069 37.8518 47.5353 37.7208L49.4694 38.8425C49.3357 38.9761 49.2073 39.1045 49.0763 39.2618Z" fill="#EF597D"/>
<path d="M49.4695 38.8425L47.5354 37.7208C47.8951 37.3618 48.2983 37.0492 48.7357 36.7904L50.6698 37.9147C50.2315 38.171 49.8281 38.4829 49.4695 38.8425Z" fill="#EF597D"/>
<path d="M50.6698 37.9147C52.6563 36.7668 54.2707 37.6867 54.276 39.9694C54.2812 42.2521 52.6799 45.0301 50.6934 46.178C48.7068 47.3259 47.0924 46.4034 47.0872 44.1207C47.0819 41.838 48.6858 39.06 50.6698 37.9147Z" fill="#FFCADC"/>
<path d="M50.8479 40.2158C51.8778 39.6208 52.7165 40.0978 52.7191 41.2798C52.6852 41.9248 52.4992 42.5526 52.1763 43.1119C51.8533 43.6713 51.4026 44.1463 50.861 44.4981C49.831 45.093 48.995 44.616 48.9897 43.4314C49.0242 42.787 49.2105 42.1597 49.5334 41.6009C49.8563 41.0421 50.3067 40.5675 50.8479 40.2158Z" fill="#E54C78"/>
</g>
<defs>
<linearGradient id="paint0_linear_2311_41794" x1="19.1496" y1="28.4852" x2="11.5048" y2="41.7253" gradientUnits="userSpaceOnUse">
<stop stop-color="white"/>
<stop offset="1" stop-color="#94EBFF"/>
</linearGradient>
<linearGradient id="paint1_linear_2311_41794" x1="12.7209" y1="37.464" x2="12.7209" y2="57.4002" gradientUnits="userSpaceOnUse">
<stop stop-color="white"/>
<stop offset="1" stop-color="#94EBFF"/>
</linearGradient>
<clipPath id="clip0_2311_41794">
<rect width="53.1467" height="60" fill="white" transform="translate(3.75)"/>
</clipPath>
</defs>
</svg>
