<svg width="89" height="88" viewBox="0 0 89 88" fill="none" xmlns="http://www.w3.org/2000/svg">
<path d="M0.679993 24C0.679993 10.7452 11.4252 0 24.68 0H64.6798C77.9346 0 88.6798 10.7452 88.6798 24V63.9998C88.6798 77.2546 77.9347 87.9998 64.6798 87.9998H24.68C11.4252 87.9998 0.679993 77.2547 0.679993 63.9998V24Z" fill="#C5FFFF"/>
<path d="M65.7159 56.0292C61.5111 57.0244 58.6092 60.3217 58.6443 64.0591L58.7222 72.3752C58.7456 74.8038 61.443 76.5489 64.1735 75.9023L64.561 75.8107C68.536 74.8701 71.2821 71.752 71.249 68.2171L71.1672 59.5563C71.1438 57.1277 68.4464 55.3826 65.7159 56.0292Z" fill="#30DDEF"/>
<path d="M52.0564 71.5L54.522 54.2405L69.9614 56.4461L68.6157 65.8663C67.9977 70.1928 63.983 73.2038 59.6566 72.5857L52.0564 71.5Z" fill="url(#paint0_linear_2778_68794)"/>
<path d="M45.1799 72.4551C60.984 72.4551 73.7957 59.6434 73.7957 43.8394C73.7957 28.0353 60.984 15.2236 45.1799 15.2236C29.3759 15.2236 16.5642 28.0353 16.5642 43.8394C16.5642 59.6434 29.3759 72.4551 45.1799 72.4551Z" fill="#30DDEF"/>
<path d="M34.7751 40.5456C34.9636 37.1315 32.7405 34.2325 29.8096 34.0707C26.8787 33.9089 24.3499 36.5455 24.1614 39.9597C23.9729 43.3739 26.1961 46.2728 29.127 46.4346C32.0579 46.5964 34.5866 43.9598 34.7751 40.5456Z" fill="white"/>
<path d="M44.5701 47.2792C47.9895 47.2792 50.7614 44.5072 50.7614 41.0878C50.7614 37.6684 47.9895 34.8965 44.5701 34.8965C41.1507 34.8965 38.3787 37.6684 38.3787 41.0878C38.3787 44.5072 41.1507 47.2792 44.5701 47.2792Z" fill="white"/>
<path d="M33.9359 41.6082C34.0302 39.9016 32.919 38.4526 31.4541 38.3717C29.9892 38.2909 28.7253 39.6087 28.631 41.3153C28.5368 43.0218 29.648 44.4708 31.1129 44.5517C32.5778 44.6326 33.8417 43.3147 33.9359 41.6082Z" fill="#030001"/>
<path d="M42.3223 45.166C44.0315 45.166 45.417 43.7804 45.417 42.0713C45.417 40.3621 44.0315 38.9766 42.3223 38.9766C40.6131 38.9766 39.2276 40.3621 39.2276 42.0713C39.2276 43.7804 40.6131 45.166 42.3223 45.166Z" fill="#030001"/>
<path d="M27.9997 47.1838C29.1757 45.2351 28.3717 42.5949 26.2038 41.2867C24.036 39.9784 21.3253 40.4976 20.1493 42.4462C18.9733 44.3949 19.7774 47.0351 21.9452 48.3434C24.1131 49.6516 26.8238 49.1325 27.9997 47.1838Z" fill="#30DDEF"/>
<path d="M50.9879 49.9894C53.4654 48.8457 54.7006 46.2433 53.7466 44.1769C52.7927 42.1104 50.0109 41.3625 47.5333 42.5062C45.0557 43.65 43.8206 46.2523 44.7745 48.3188C45.7285 50.3852 48.5103 51.1332 50.9879 49.9894Z" fill="#30DDEF"/>
<path d="M37.4592 47.6579C37.5043 46.8406 36.8783 46.1415 36.061 46.0963C35.2437 46.0512 34.5446 46.6772 34.4995 47.4945L34.394 49.4041C34.3489 50.2214 34.9749 50.9205 35.7922 50.9657C36.6095 51.0108 37.3086 50.3848 37.3538 49.5675L37.4592 47.6579Z" fill="#E84B76"/>
<path d="M20.933 63.8296L22.8922 61.9463C22.8922 61.9463 28.178 62.1839 35.2613 70.7006C31.333 73.437 26.0376 77.0926 26.0376 77.0926L20.933 63.8315V63.8296Z" fill="url(#paint1_linear_2778_68794)"/>
<path d="M23.9964 77.9904C20.7693 78.1521 17.8362 76.1188 16.8546 73.0397L14.6714 66.1881C14.0345 64.1879 15.4641 62.1255 17.5597 62.0203L17.8576 62.0047C20.9095 61.8508 23.6828 63.7731 24.6099 66.6847L26.8846 73.8206C27.5215 75.8208 26.092 77.8833 23.9964 77.9885V77.9904Z" fill="#30DDEF"/>
<path d="M23.9964 77.9904C20.7693 78.1521 17.8362 76.1188 16.8546 73.0397L14.6714 66.1881C14.0345 64.1879 15.4641 62.1255 17.5597 62.0203L17.8576 62.0047C20.9095 61.8508 23.6828 63.7731 24.6099 66.6847L26.8846 73.8206C27.5215 75.8208 26.092 77.8833 23.9964 77.9885V77.9904Z" fill="url(#paint2_linear_2778_68794)"/>
<path d="M34.4264 22.1033C34.4264 22.1033 42.0827 28.7226 49.7216 24.1393C55.8327 20.0143 53.2355 16.3477 53.2355 16.3477L34.4264 22.1033Z" fill="#20CECE"/>
<path d="M55.0967 14.1168C55.0967 14.1168 52.4485 21.7717 45.6674 23.7694C38.8862 25.7671 32.8109 20.6799 32.8109 20.6799C32.8109 20.6799 35.4679 13.0214 41.9418 11.1148C48.4156 9.20823 55.0985 14.115 55.0985 14.115L55.0967 14.1168Z" fill="#FFB8D2"/>
<path d="M45.618 16.5969C45.618 16.5969 50.414 18.3462 58.7354 11.2988" stroke="#E74B76" stroke-width="0.714747" stroke-miterlimit="10" stroke-linecap="round"/>
<path d="M55.0967 14.117C55.0967 14.117 52.4485 21.772 45.6674 23.7697C38.8862 25.7674 32.8109 20.6802 32.8109 20.6802C32.8109 20.6802 45.5977 14.1152 55.0985 14.1152L55.0967 14.117Z" fill="#E74B76"/>
<path opacity="0.7" d="M51.3204 54.7188C54.5718 54.7188 57.2076 52.083 57.2076 48.8316C57.2076 45.5801 54.5718 42.9443 51.3204 42.9443C48.069 42.9443 45.4332 45.5801 45.4332 48.8316C45.4332 52.083 48.069 54.7188 51.3204 54.7188Z" fill="url(#paint3_radial_2778_68794)"/>
<path opacity="0.7" d="M22.7416 51.0277C25.4918 51.0277 27.7213 48.7983 27.7213 46.048C27.7213 43.2978 25.4918 41.0684 22.7416 41.0684C19.9914 41.0684 17.7619 43.2978 17.7619 46.048C17.7619 48.7983 19.9914 51.0277 22.7416 51.0277Z" fill="url(#paint4_radial_2778_68794)"/>
<path d="M70.732 23.1484C70.4087 22.3577 69.3122 22.0578 68.28 22.4804C67.9119 22.6304 67.3471 22.9575 66.7862 23.349C67.0452 22.8348 67.2458 22.346 67.3354 22.0149C67.6276 20.9399 67.1971 19.8862 66.3733 19.6622C65.5495 19.4383 64.6458 20.1297 64.3537 21.2047C64.0615 22.2798 63.9252 25.4212 64.749 25.6452C64.8464 25.6725 64.9555 25.6549 65.0684 25.6043C65.6391 26.2256 68.4709 25.7406 69.4485 25.3433C70.4808 24.9226 71.0572 23.9411 70.7339 23.1504L70.732 23.1484Z" fill="#30DDEF"/>
<defs>
<linearGradient id="paint0_linear_2778_68794" x1="58.0098" y1="69.7496" x2="62.6235" y2="57.5324" gradientUnits="userSpaceOnUse">
<stop offset="0.09" stop-color="#4AF6FF"/>
<stop offset="0.83" stop-color="#30DDEF"/>
</linearGradient>
<linearGradient id="paint1_linear_2778_68794" x1="21.2968" y1="66.0083" x2="29.9067" y2="72.7527" gradientUnits="userSpaceOnUse">
<stop offset="0.09" stop-color="#4AF6FF"/>
<stop offset="0.83" stop-color="#30DDEF"/>
</linearGradient>
<linearGradient id="paint2_linear_2778_68794" x1="14.2716" y1="69.6327" x2="27.2908" y2="70.3515" gradientUnits="userSpaceOnUse">
<stop offset="0.13" stop-color="white" stop-opacity="0.2"/>
<stop offset="0.58" stop-color="#27BADB" stop-opacity="0"/>
</linearGradient>
<radialGradient id="paint3_radial_2778_68794" cx="0" cy="0" r="1" gradientUnits="userSpaceOnUse" gradientTransform="translate(51.3221 48.8301) rotate(3.16) scale(5.88723)">
<stop offset="0.09" stop-color="#4AF6FF"/>
<stop offset="1" stop-color="#30DDEF"/>
</radialGradient>
<radialGradient id="paint4_radial_2778_68794" cx="0" cy="0" r="1" gradientUnits="userSpaceOnUse" gradientTransform="translate(22.743 46.0468) rotate(3.16) scale(4.97968)">
<stop offset="0.09" stop-color="#4AF6FF"/>
<stop offset="1" stop-color="#30DDEF"/>
</radialGradient>
</defs>
</svg>
