<svg width="20" height="20" viewBox="0 0 20 20" fill="none" xmlns="http://www.w3.org/2000/svg">
<path fill-rule="evenodd" clip-rule="evenodd" d="M1.0415 8.74984C1.0415 4.49266 4.49266 1.0415 8.74984 1.0415C13.007 1.0415 16.4582 4.49266 16.4582 8.74984C16.4582 13.007 13.007 16.4582 8.74984 16.4582C4.49266 16.4582 1.0415 13.007 1.0415 8.74984ZM8.74984 2.2915C5.18302 2.2915 2.2915 5.18302 2.2915 8.74984C2.2915 12.3167 5.18302 15.2082 8.74984 15.2082C12.3167 15.2082 15.2082 12.3167 15.2082 8.74984C15.2082 5.18302 12.3167 2.2915 8.74984 2.2915Z" fill="#1A1A1A" stroke="#1A1A1A" stroke-linejoin="round"/>
<path fill-rule="evenodd" clip-rule="evenodd" d="M13.4003 13.4003C13.6444 13.1563 14.0401 13.1563 14.2842 13.4003L17.8198 16.9359C18.0638 17.18 18.0638 17.5757 17.8198 17.8198C17.5757 18.0638 17.18 18.0638 16.9359 17.8198L13.4003 14.2842C13.1563 14.0401 13.1563 13.6444 13.4003 13.4003Z" fill="#1A1A1A" stroke="#1A1A1A" stroke-linecap="round" stroke-linejoin="round"/>
</svg>
