<svg width="60" height="60" viewBox="0 0 60 60" fill="none" xmlns="http://www.w3.org/2000/svg">
<g clip-path="url(#clip0_2311_41790)">
<path d="M55.484 39.9455L29.7078 54.9241L3.76562 39.9455L29.5392 24.9669L55.484 39.9455Z" fill="#FFCADC"/>
<path d="M55.484 39.9456L55.471 45.0188L29.6948 59.9974L29.7078 54.9242L55.484 39.9456Z" fill="#E54C78"/>
<path d="M29.7077 54.9242L29.6948 59.9974L3.75 45.0188L3.76556 39.9456L29.7077 54.9242Z" fill="url(#paint0_linear_2311_41790)"/>
<path d="M52.4414 16.1147L48.4704 18.4231L44.4709 16.1147L48.4445 13.8063L52.4414 16.1147Z" fill="#FFCADC"/>
<path d="M52.4414 16.1146L52.3739 40.332L48.4004 42.6404L48.4704 18.423L52.4414 16.1146Z" fill="#EF597D"/>
<path d="M48.4705 18.423L48.4004 42.6404L44.4036 40.332L44.471 16.1146L48.4705 18.423Z" fill="#F9BBD3"/>
<path d="M33.7021 26.7332L29.7286 29.0416L25.7317 26.7332L29.7026 24.4248L33.7021 26.7332Z" fill="#FFCADC"/>
<path d="M33.7021 26.7332L33.6321 50.9505L29.6611 53.2589L29.7286 29.0415L33.7021 26.7332Z" fill="#EF597D"/>
<path d="M29.7285 29.0415L29.6611 53.2589L25.6616 50.9505L25.7317 26.7332L29.7285 29.0415Z" fill="url(#paint1_linear_2311_41790)"/>
<path d="M43.3764 21.3487L39.4055 23.6571L35.406 21.3487L39.3795 19.0403L43.3764 21.3487Z" fill="#FFCADC"/>
<path d="M43.3764 21.3486L43.309 45.566L39.3354 47.8718L39.4055 23.657L43.3764 21.3486Z" fill="#EF597D"/>
<path d="M39.4055 23.657L39.3355 47.8718L35.3386 45.566L35.4061 21.3486L39.4055 23.657Z" fill="#F9BBD3"/>
<path d="M29.7156 37.6968V29.6901L33.7021 30.3437V38.685L29.7156 41.0686V37.6968Z" fill="#C12B56"/>
<path d="M39.364 32.6158V24.609L43.3505 25.26V33.6014L39.364 35.985V32.6158Z" fill="#C12B56"/>
<path d="M48.429 28.1935V20.1868L52.4155 20.8404V29.1791L48.429 31.5627V28.1935Z" fill="#C12B56"/>
<path d="M33.331 5.17448L29.3575 7.48287L25.3606 5.17448L29.3341 2.86609L33.331 5.17448Z" fill="#FFCADC"/>
<path d="M33.331 5.17444L33.2636 29.3918L29.29 31.7002L29.3575 7.48283L33.331 5.17444Z" fill="#EF597D"/>
<path d="M29.3575 7.48283L29.2901 31.7002L25.2932 29.3918L25.3606 5.17444L29.3575 7.48283Z" fill="#F9BBD3"/>
<path d="M14.5918 15.793L10.6182 18.104L6.62134 15.793L10.5923 13.4846L14.5918 15.793Z" fill="#FFCADC"/>
<path d="M14.5918 15.793L14.5217 40.0103L10.5508 42.3187L10.6182 18.104L14.5918 15.793Z" fill="#EF597D"/>
<path d="M10.6182 18.104L10.5508 42.3187L6.55127 40.0103L6.6213 15.793L10.6182 18.104Z" fill="url(#paint2_linear_2311_41790)"/>
<path d="M24.2661 10.4085L20.2925 12.7169L16.2957 10.4085L20.2692 8.1001L24.2661 10.4085Z" fill="#FFCADC"/>
<path d="M24.2661 10.4084L24.196 34.6258L20.2251 36.9342L20.2925 12.7168L24.2661 10.4084Z" fill="#EF597D"/>
<path d="M20.2925 12.7168L20.2251 36.9342L16.2256 34.6258L16.2956 10.4084L20.2925 12.7168Z" fill="#F9BBD3"/>
<path d="M10.6052 26.7592V18.7524L14.5917 19.4035V27.7448L10.6052 30.1284V26.7592Z" fill="#C12B56"/>
<path d="M20.2537 21.6756V13.6688L24.2402 14.3224V22.6612L20.2537 25.0448V21.6756Z" fill="#C12B56"/>
<path d="M29.3186 17.2559V9.24915L33.3051 9.90016V18.2415L29.3186 20.6251V17.2559Z" fill="#C12B56"/>
<path d="M3.8667 13.8114L27.6302 0L42.1497 0.902607L18.3862 14.7115L3.8667 13.8114Z" fill="#8DE7FC"/>
<path d="M18.3862 14.7114L31.8138 29.9468L31.8034 34.2134L3.85376 18.078L3.86673 13.8114L18.3862 14.7114Z" fill="#C2F6FF"/>
<path d="M18.3862 14.7114L42.1497 0.902588L55.5773 16.1354L31.8138 29.9468L18.3862 14.7114Z" fill="#58C6E9"/>
<path d="M31.8138 29.9468L55.5773 16.1354L55.5669 20.4046L31.8035 34.2134L31.8138 29.9468Z" fill="#2B99B2"/>
<path d="M11.1108 13.2901L13.8524 11.6924C15.2841 10.8598 17.2683 10.9765 19.4574 12.2423L16.7054 13.84C14.5241 12.5769 12.5555 12.4575 11.1108 13.2901Z" fill="#2B99B2"/>
<path d="M11.1108 13.2901L13.8524 11.6924C14.0559 11.5751 14.2694 11.4762 14.4904 11.3967L11.7463 12.997C11.5255 13.074 11.3127 13.1722 11.1108 13.2901Z" fill="#2B99B2"/>
<path d="M11.7462 12.997L14.4982 11.3967C14.6778 11.3341 14.8615 11.2838 15.048 11.2462L12.2961 12.8439C12.1085 12.8815 11.9239 12.9326 11.7437 12.997" fill="#2B99B2"/>
<path d="M12.2961 12.844L15.0455 11.2462C15.1955 11.2165 15.347 11.1948 15.4994 11.1814L12.7526 12.7791C12.6003 12.7925 12.4488 12.8142 12.2987 12.844" fill="#2B99B2"/>
<path d="M12.7527 12.7791L15.502 11.1814C15.6369 11.1814 15.7614 11.1606 15.9118 11.1606L13.1599 12.7584C13.0224 12.7584 12.885 12.7584 12.7527 12.7791Z" fill="#2B99B2"/>
<path d="M13.1599 12.7584L15.9118 11.1606C16.0311 11.1606 16.1556 11.1606 16.2801 11.1606L13.5308 12.7584C13.4037 12.7584 13.2714 12.7584 13.1599 12.7584Z" fill="#2B99B2"/>
<path d="M13.5308 12.7713L16.2801 11.1736C16.3968 11.1736 16.5135 11.1917 16.6302 11.2099L13.8809 12.8076C13.7616 12.7921 13.6449 12.7791 13.5308 12.7713Z" fill="#2B99B2"/>
<path d="M13.8809 12.8077L16.6302 11.21C16.7443 11.2229 16.8584 11.2437 16.9751 11.267L14.2258 12.8647C14.1091 12.8414 13.995 12.8232 13.8809 12.8077Z" fill="#2B99B2"/>
<path d="M14.2258 12.8647L16.9648 11.267L17.289 11.337L14.5474 12.9347L14.2258 12.8647Z" fill="#2B99B2"/>
<path d="M14.5476 12.9348L17.2995 11.3267C17.4059 11.3552 17.5148 11.3837 17.6237 11.4174L14.8744 13.0152C14.7655 12.9814 14.6565 12.9529 14.5476 12.9244" fill="#2B99B2"/>
<path d="M14.8743 13.0255L17.6236 11.4277C17.7273 11.4589 17.8337 11.4926 17.94 11.5315L15.1881 13.1422C15.0844 13.1059 14.978 13.0695 14.8743 13.0384" fill="#2B99B2"/>
<path d="M15.1882 13.1423L17.9401 11.5446C18.0439 11.5809 18.1502 11.6198 18.2566 11.6639L15.5073 13.2616C15.4009 13.2201 15.2946 13.1786 15.1882 13.1423Z" fill="#2B99B2"/>
<path d="M15.5071 13.2486L18.2616 11.6509C18.3679 11.6924 18.4717 11.7365 18.578 11.7832L15.8209 13.3835C15.7172 13.3342 15.6108 13.2901 15.5071 13.2486Z" fill="#2B99B2"/>
<path d="M15.821 13.3834L18.573 11.7831C18.6793 11.8298 18.7856 11.8816 18.892 11.9335L16.1401 13.5338C16.0337 13.4794 15.9274 13.4301 15.821 13.3834Z" fill="#2B99B2"/>
<path d="M16.1401 13.5339L18.892 11.9336C18.9984 11.9881 19.1073 12.0425 19.2137 12.1022L16.4643 13.6999C16.3554 13.6402 16.2491 13.5858 16.1401 13.5339Z" fill="#2B99B2"/>
<path d="M16.4642 13.6999L19.2135 12.1047C19.2991 12.1488 19.3821 12.1955 19.4729 12.2448L16.7054 13.8399L16.446 13.6999" fill="#2B99B2"/>
<path d="M25.0181 30.8936L22.2662 32.4913C23.6798 31.6691 24.5564 29.9235 24.5642 27.4388C24.5798 22.4407 21.0653 16.3507 16.7053 13.84L19.4546 12.2423C23.8146 14.753 27.3395 20.843 27.3161 25.8514C27.3084 28.3232 26.4317 30.0714 25.0181 30.8936Z" fill="#2B99B2"/>
<path d="M16.7053 13.84L19.4546 12.2423L19.5325 12.2864L16.7909 13.8841L16.7053 13.84Z" fill="#2B99B2"/>
<path d="M16.791 13.8841L19.5429 12.2864C19.6545 12.3512 19.766 12.4212 19.8749 12.4913L17.1256 14.089L16.791 13.8841Z" fill="#2B99B2"/>
<path d="M17.1255 14.0891L19.8748 12.4913C19.9889 12.5614 20.1005 12.6366 20.2094 12.7118L17.4601 14.3095L17.1255 14.0891Z" fill="#2B99B2"/>
<path d="M17.4602 14.3095L20.2095 12.7118C20.3262 12.7896 20.4404 12.8726 20.5519 12.9556L17.8026 14.5533L17.4602 14.3095Z" fill="#2B99B2"/>
<path d="M17.8025 14.5533L20.5518 12.9556C20.6685 13.0412 20.7826 13.1293 20.8968 13.2149L18.1475 14.8152C18.0333 14.7245 17.9166 14.6363 17.8025 14.5559" fill="#2B99B2"/>
<path d="M18.1475 14.8178L20.8968 13.2175C21.0161 13.3109 21.1328 13.4069 21.2495 13.5054L18.4976 15.1031C18.3809 15.0046 18.2642 14.9112 18.1475 14.8178Z" fill="#2B99B2"/>
<path d="M18.4976 15.1032L21.2495 13.5055C21.3662 13.6041 21.4829 13.7052 21.597 13.809L18.8477 15.4093C18.731 15.3055 18.6143 15.2018 18.4976 15.1032Z" fill="#2B99B2"/>
<path d="M18.8477 15.4093L21.597 13.809C21.7137 13.9153 21.8304 14.0216 21.9445 14.1332L19.1926 15.7361C19.0785 15.6271 18.9644 15.5182 18.8477 15.4145" fill="#2B99B2"/>
<path d="M19.1926 15.736L21.9445 14.1331C22.0561 14.2394 22.1676 14.3483 22.2765 14.4599L19.5246 16.0576C19.4157 15.9461 19.3067 15.8371 19.1926 15.7308" fill="#2B99B2"/>
<path d="M19.5247 16.0577L22.2766 14.46C22.3855 14.5715 22.4918 14.683 22.5982 14.7971L19.8489 16.3975C19.7425 16.2833 19.6336 16.1692 19.5247 16.0577Z" fill="#2B99B2"/>
<path d="M19.8489 16.3974L22.5982 14.7971C22.7019 14.9086 22.8031 15.0228 22.9043 15.1369L20.1549 16.7372C20.0538 16.6205 19.9526 16.509 19.8489 16.3974Z" fill="#2B99B2"/>
<path d="M20.155 16.7372L22.9043 15.1368C23.0081 15.2536 23.1093 15.3729 23.2104 15.4948L20.4585 17.0925C20.3599 16.9732 20.2562 16.8539 20.155 16.7372Z" fill="#2B99B2"/>
<path d="M20.4585 17.0925L23.2104 15.4948L23.5139 15.8682L20.762 17.4686C20.6634 17.3415 20.5622 17.2092 20.4585 17.0925Z" fill="#2B99B2"/>
<path d="M20.762 17.4686L23.5139 15.8683C23.6332 16.0213 23.7499 16.1743 23.864 16.33L21.1147 17.9277C21.0006 17.7721 20.8839 17.619 20.7646 17.4686" fill="#2B99B2"/>
<path d="M21.1145 17.9277L23.8664 16.33C24.0376 16.5608 24.2036 16.7994 24.3644 17.0406L21.6151 18.6383C21.4517 18.3971 21.2857 18.1611 21.1145 17.9277Z" fill="#2B99B2"/>
<path d="M21.6125 18.6383L24.3619 17.0328C24.5642 17.3363 24.7587 17.6449 24.9454 17.9614L22.1961 19.5591C22.0094 19.2453 21.8149 18.934 21.6125 18.6306" fill="#2B99B2"/>
<path d="M22.1963 19.567L24.9456 17.9692C25.0805 18.1975 25.2102 18.4283 25.3347 18.6618L22.5828 20.2621C22.4583 20.0286 22.3234 19.7952 22.1963 19.567Z" fill="#2B99B2"/>
<path d="M22.5825 20.2621L25.3344 18.6617C25.4174 18.8174 25.4978 18.9756 25.5782 19.1338L22.8263 20.7315C22.7485 20.5733 22.6681 20.4177 22.5825 20.2621Z" fill="#2B99B2"/>
<path d="M22.8264 20.7315L25.5783 19.1338C25.6458 19.2713 25.7132 19.4087 25.778 19.5462L23.0261 21.1465C22.9613 21.0064 22.8964 20.869 22.8264 20.7315Z" fill="#2B99B2"/>
<path d="M23.0262 21.1465L25.7833 19.5461C25.843 19.6732 25.9001 19.8055 25.9571 19.93L23.1896 21.5277C23.1352 21.4006 23.0755 21.2684 23.0159 21.1465" fill="#2B99B2"/>
<path d="M23.1895 21.5278L25.9414 19.9301C25.9958 20.0546 26.0503 20.1894 26.1022 20.3061L23.3529 21.9039C23.301 21.7794 23.2465 21.6445 23.1895 21.5278Z" fill="#2B99B2"/>
<path d="M23.3633 21.9039L26.1126 20.3062C26.1671 20.4332 26.2189 20.5655 26.2682 20.69L23.5163 22.2877C23.467 22.1606 23.4152 22.0284 23.3633 21.9039Z" fill="#2B99B2"/>
<path d="M23.5164 22.2877L26.2683 20.6899C26.3176 20.817 26.3668 20.9493 26.4135 21.0738L23.6616 22.6741C23.6149 22.5444 23.5656 22.4148 23.5164 22.2877Z" fill="#2B99B2"/>
<path d="M23.6616 22.6742L26.4135 21.0739L26.5536 21.4759L23.8017 23.0736C23.7576 22.9413 23.7109 22.8142 23.6616 22.6742Z" fill="#2B99B2"/>
<path d="M23.8018 23.0735L26.5615 21.4758C26.6055 21.6107 26.6496 21.7482 26.6911 21.883L23.9392 23.4808C23.8977 23.3459 23.8536 23.2214 23.8095 23.0735" fill="#2B99B2"/>
<path d="M23.9314 23.4808L26.6833 21.8831C26.7248 22.0231 26.7663 22.1606 26.8052 22.3006L24.0533 23.8984C24.0144 23.7583 23.9755 23.6208 23.9314 23.4808Z" fill="#2B99B2"/>
<path d="M24.0532 23.8984L26.8051 22.3007C26.844 22.4381 26.8804 22.5782 26.9141 22.7182L24.1648 24.316C24.1284 24.1759 24.0921 24.0384 24.0532 23.8984Z" fill="#2B99B2"/>
<path d="M24.1648 24.316L26.9141 22.7183C26.9478 22.8557 26.9816 22.9932 27.0101 23.1307L24.2608 24.7284C24.2296 24.5909 24.1985 24.4534 24.1648 24.316Z" fill="#2B99B2"/>
<path d="M24.2607 24.7283L27.0101 23.1306C27.0412 23.2681 27.0671 23.39 27.0931 23.5404L24.3437 25.1407C24.3178 25.0033 24.2893 24.8658 24.2607 24.7283Z" fill="#2B99B2"/>
<path d="M24.3438 25.1407L27.0931 23.5404C27.119 23.6727 27.1424 23.7998 27.1631 23.9398L24.4112 25.5376C24.3904 25.4053 24.3671 25.2782 24.3438 25.1407Z" fill="#2B99B2"/>
<path d="M24.4111 25.5377L27.163 23.9399C27.1838 24.0722 27.202 24.1993 27.2201 24.3342L24.4682 25.9345C24.4526 25.8022 24.4319 25.6751 24.4111 25.5377Z" fill="#2B99B2"/>
<path d="M24.4683 25.9344L27.2202 24.3341C27.2357 24.4638 27.2487 24.5935 27.2617 24.7206L24.5124 26.3183C24.5124 26.1912 24.4838 26.0589 24.4683 25.9344Z" fill="#2B99B2"/>
<path d="M24.5125 26.3183L27.2618 24.7206C27.2618 24.8477 27.2851 24.98 27.2929 25.1044L24.541 26.7022C24.541 26.5751 24.5228 26.4428 24.5125 26.3183Z" fill="#2B99B2"/>
<path d="M24.5408 26.7022L27.2927 25.1045C27.2927 25.2316 27.3057 25.3639 27.3108 25.4858L24.5589 27.0835C24.5589 26.9564 24.5589 26.8241 24.5408 26.7022Z" fill="#2B99B2"/>
<path d="M24.5591 27.0834L27.311 25.4857C27.311 25.6024 27.311 25.7217 27.311 25.8411V25.8514L24.5591 27.4517V27.4284C24.5591 27.3091 24.5591 27.1924 24.5591 27.0731" fill="#2B99B2"/>
<path d="M24.5642 27.4621L27.3161 25.8514C27.3161 25.9811 27.3161 26.1108 27.3161 26.2327L24.5668 27.833C24.5668 27.7051 24.5668 27.578 24.5668 27.4518" fill="#2B99B2"/>
<path d="M24.5565 27.8434L27.3059 26.243C27.3059 26.3693 27.2981 26.4938 27.2825 26.6165L24.5332 28.2143C24.5332 28.0923 24.5514 27.9549 24.5565 27.8434Z" fill="#2B99B2"/>
<path d="M24.533 28.2143L27.2823 26.6166C27.2823 26.7437 27.259 26.8759 27.2434 26.9953L24.4863 28.593C24.5019 28.4685 24.5149 28.3336 24.5252 28.2143" fill="#2B99B2"/>
<path d="M24.4863 28.593L27.2356 26.9952C27.22 27.1223 27.2019 27.2546 27.1785 27.3713L24.437 28.9639C24.4578 28.842 24.4759 28.7045 24.4941 28.5878" fill="#2B99B2"/>
<path d="M24.4372 28.9639L27.1865 27.3662C27.1658 27.4985 27.1398 27.6256 27.1113 27.7527L24.3594 29.3504C24.3879 29.2259 24.4138 29.091 24.4372 28.9639Z" fill="#2B99B2"/>
<path d="M24.3594 29.3555L27.1113 27.7578C27.0776 27.8953 27.0438 28.0172 27.0049 28.1598L24.2556 29.7576C24.2919 29.6279 24.3282 29.4982 24.3594 29.3555Z" fill="#2B99B2"/>
<path d="M24.2556 29.7575L27.0049 28.1598C26.9634 28.3024 26.9168 28.4399 26.8675 28.5748L24.1182 30.1725C24.1674 30.0376 24.2115 29.9131 24.2556 29.7575Z" fill="#2B99B2"/>
<path d="M24.1181 30.1725L26.8674 28.5748C26.8103 28.7305 26.7455 28.8783 26.678 29.0209L23.9287 30.6213C23.9961 30.476 24.0584 30.3282 24.1181 30.1725Z" fill="#2B99B2"/>
<path d="M23.9286 30.6213L26.678 29.021C26.5904 29.2066 26.4917 29.3868 26.3823 29.5605L23.6304 31.1582C23.741 30.9857 23.8407 30.8064 23.9286 30.6213Z" fill="#2B99B2"/>
<path d="M23.6304 31.1581L26.3823 29.5604C26.0408 30.1076 25.5729 30.5648 25.018 30.8936L22.2661 32.4913C22.8221 32.1639 23.2903 31.7065 23.6304 31.1581Z" fill="#2B99B2"/>
<path d="M16.7054 13.84C21.055 16.3507 24.5695 22.4407 24.5539 27.4387C24.5384 32.4368 21.0032 34.4417 16.6535 31.944C12.3039 29.4463 8.79723 23.3433 8.8128 18.3426C8.82836 13.342 12.3636 11.3267 16.7054 13.84Z" fill="url(#paint3_linear_2311_41790)"/>
<path d="M17.5459 22.5159C19.0087 23.7375 20.0929 25.2211 20.0929 26.8655C20.0929 28.4632 19.1021 28.9819 17.4032 28.2142V29.3373L17.1179 29.1713L16.4332 28.7796L16.0363 28.5462V27.4076C14.4101 26.2274 13.4011 24.5753 13.3674 22.7208L15.0845 23.7116C15.1437 24.4487 15.4868 25.134 16.0415 25.6231V23.0476L15.9118 22.936C14.4749 21.7014 13.5931 20.3683 13.5931 18.9236C13.5931 17.3959 14.5943 16.8927 16.0545 17.4504V16.2936L16.4539 16.5244L17.1361 16.9109L17.424 17.0847V18.2103C18.9802 19.3334 19.9632 21.0297 19.9788 22.5911L18.2877 21.6107C18.2203 20.9737 17.9123 20.3864 17.4266 19.9688V22.4069L17.5459 22.5159ZM17.4084 26.4453C17.9609 26.588 18.2981 26.3649 18.3032 25.8202C18.3084 25.2756 17.9842 24.8217 17.4136 24.264V26.4505M16.0519 21.1645V19.2348C15.6395 19.1856 15.4139 19.406 15.4113 19.8366C15.4087 20.2671 15.6706 20.7392 16.0467 21.1645" fill="#1D7A89"/>
</g>
<defs>
<linearGradient id="paint0_linear_2311_41790" x1="17.8286" y1="48.0664" x2="15.6291" y2="51.8792" gradientUnits="userSpaceOnUse">
<stop stop-color="#FEF0F5"/>
<stop offset="0.53" stop-color="#FBD1E1"/>
<stop offset="1" stop-color="#F9BBD3"/>
</linearGradient>
<linearGradient id="paint1_linear_2311_41790" x1="27.6951" y1="26.7332" x2="27.6951" y2="53.2589" gradientUnits="userSpaceOnUse">
<stop stop-color="white"/>
<stop offset="0.22" stop-color="#FEF7FA"/>
<stop offset="0.54" stop-color="#FDE3ED"/>
<stop offset="0.94" stop-color="#FAC1D7"/>
<stop offset="1" stop-color="#F9BBD3"/>
</linearGradient>
<linearGradient id="paint2_linear_2311_41790" x1="8.58473" y1="15.793" x2="8.58473" y2="42.3187" gradientUnits="userSpaceOnUse">
<stop stop-color="white"/>
<stop offset="0.22" stop-color="#FEF7FA"/>
<stop offset="0.54" stop-color="#FDE3ED"/>
<stop offset="0.94" stop-color="#FAC1D7"/>
<stop offset="1" stop-color="#F9BBD3"/>
</linearGradient>
<linearGradient id="paint3_linear_2311_41790" x1="16.6873" y1="12.7584" x2="16.6873" y2="33.023" gradientUnits="userSpaceOnUse">
<stop stop-color="white"/>
<stop offset="1" stop-color="#94EBFF"/>
</linearGradient>
<clipPath id="clip0_2311_41790">
<rect width="51.8299" height="60" fill="white" transform="translate(3.75)"/>
</clipPath>
</defs>
</svg>
