<svg width="88" height="88" viewBox="0 0 88 88" fill="none" xmlns="http://www.w3.org/2000/svg">
<path d="M0 24C0 10.7452 10.7452 0 24 0H63.9998C77.2546 0 87.9998 10.7452 87.9998 24V63.9998C87.9998 77.2546 77.2547 87.9998 63.9998 87.9998H24C10.7452 87.9998 0 77.2547 0 63.9998V24Z" fill="#C0EFFF"/>
<path d="M46.6879 72.2331C62.2027 72.2331 74.78 59.6558 74.78 44.141C74.78 28.6261 62.2027 16.0488 46.6879 16.0488C31.173 16.0488 18.5957 28.6261 18.5957 44.141C18.5957 59.6558 31.173 72.2331 46.6879 72.2331Z" fill="#48C7FF"/>
<path opacity="0.4" d="M53.7975 58.3633C58.2789 58.3633 61.9118 54.7304 61.9118 50.249C61.9118 45.7677 58.2789 42.1348 53.7975 42.1348C49.3161 42.1348 45.6832 45.7677 45.6832 50.249C45.6832 54.7304 49.3161 58.3633 53.7975 58.3633Z" fill="url(#paint0_radial_2778_68797)"/>
<path d="M16.176 54.849L20.1777 53.4572C21.0209 53.1665 22.0571 53.5298 22.7569 54.0843C24.5924 55.5393 26.4775 59.8354 30.3549 66.9975C24.9958 67.6514 16.3251 69.5404 16.3251 69.5404L15.4973 56.2581L16.176 54.849Z" fill="url(#paint1_linear_2778_68797)"/>
<path d="M59.2841 75.7703L55.4373 71.9273C54.8389 71.4015 54.4622 70.6788 54.3762 69.8988C54.0664 67.0997 54.1888 60.5895 61.7505 59.4672C64.955 58.9911 68.2282 60.5283 67.9471 62.9775C67.3793 67.9333 59.2822 75.7703 59.2822 75.7703H59.2841Z" fill="url(#paint2_linear_2778_68797)"/>
<path d="M61.8937 76.7262L62.0543 76.7358C66.7902 76.8907 70.0118 73.669 70.985 69.5985L73.3424 61.6773C73.872 59.8973 72.5738 58.0982 70.7173 58.0408C66.3543 57.9051 62.4482 60.7252 61.2035 64.9085L58.6836 73.3708C58.2362 74.8774 59.2399 76.7262 61.8899 76.7262H61.8937Z" fill="#48C7FF"/>
<path d="M61.8937 76.7223L62.0543 76.7319C66.7902 76.8867 70.0118 73.6651 70.985 69.5946L73.3424 61.6734C73.872 59.8934 72.5738 58.0943 70.7173 58.0369C66.3543 57.9012 62.4482 60.7213 61.2035 64.9046L58.6836 73.3669C58.2362 74.8735 59.2399 76.7223 61.8899 76.7223H61.8937Z" fill="url(#paint3_linear_2778_68797)"/>
<path opacity="0.4" d="M26.6299 51.5397C29.0321 51.5397 30.9795 49.0094 30.9795 45.888C30.9795 42.7667 29.0321 40.2363 26.6299 40.2363C24.2276 40.2363 22.2802 42.7667 22.2802 45.888C22.2802 49.0094 24.2276 51.5397 26.6299 51.5397Z" fill="url(#paint4_radial_2778_68797)"/>
<path d="M56.8817 32.7969H52.4441L52.3524 32.9728C51.3237 32.6268 50.2225 32.4375 49.0772 32.4375C43.4064 32.4375 38.8082 37.0357 38.8082 42.7065C38.8082 48.3774 43.4064 52.9756 49.0772 52.9756C54.748 52.9756 59.3462 48.3774 59.3462 42.7065V35.2614C59.3462 33.9001 58.243 32.7969 56.8817 32.7969Z" fill="#39BCEA"/>
<path d="M23.6851 28.2446L27.314 29.0285L27.3522 29.2178C28.2681 29.0572 29.2087 29.0649 30.1456 29.2675C34.784 30.2694 37.5639 35.6266 36.3537 41.2325C35.1434 46.8383 30.3999 50.5704 25.7615 49.5685C21.1231 48.5667 18.3432 43.2094 19.5534 37.6036L21.1423 30.2445C21.4329 28.8985 22.5705 28.0037 23.6851 28.2427V28.2446Z" fill="#39BCEA"/>
<path d="M36.0342 46.4164C35.8372 46.8677 35.4185 47.2214 34.8851 47.3303C34.0304 47.5043 33.2045 46.9824 33.0381 46.1641" stroke="#231815" stroke-width="0.764776" stroke-miterlimit="10" stroke-linecap="round"/>
<path d="M47.8381 30.9941H53.3636C55.2565 30.9941 56.7918 32.5294 56.7918 34.4223V40.4353L47.8381 30.9941Z" fill="#FF69A6" stroke="#FF69A6" stroke-width="0.95597" stroke-miterlimit="10"/>
<path d="M26.9557 28.9429C27.0723 28.8454 27.0131 28.6561 26.862 28.6427L23.0133 28.5127C22.0478 28.4114 21.1358 28.9754 20.7916 29.8836L18.8931 35.2638C18.7956 35.5257 19.3328 35.258 19.5393 35.0687L26.9538 28.9429H26.9557Z" fill="#FF69A6" stroke="#FF69A6" stroke-width="0.95597" stroke-miterlimit="10"/>
<path d="M34.3083 39.5684C35.0973 34.2316 32.1837 29.38 27.8007 28.732C23.4176 28.0839 19.2248 31.8849 18.4358 37.2217C17.6468 42.5585 20.5603 47.4101 24.9434 48.0581C29.3264 48.7061 33.5192 44.9051 34.3083 39.5684Z" fill="#48C7FF" stroke="#FF69A6" stroke-width="1.14716" stroke-miterlimit="10"/>
<path d="M33.7317 39.8498C33.9631 36.6051 31.8206 33.8085 28.9463 33.6035C26.0719 33.3985 23.5542 35.8626 23.3228 39.1074C23.0913 42.3521 25.2338 45.1486 28.1082 45.3537C30.9825 45.5587 33.5002 43.0945 33.7317 39.8498Z" fill="white"/>
<path d="M46.6149 51.3506C52.2356 51.3506 56.7921 46.7941 56.7921 41.1734C56.7921 35.5526 52.2356 30.9961 46.6149 30.9961C40.9941 30.9961 36.4376 35.5526 36.4376 41.1734C36.4376 46.7941 40.9941 51.3506 46.6149 51.3506Z" fill="#48C7FF" stroke="#FF69A6" stroke-width="1.14716" stroke-miterlimit="10"/>
<path d="M43.3499 46.4217C46.7067 46.4217 49.428 43.7005 49.428 40.3437C49.428 36.9869 46.7067 34.2656 43.3499 34.2656C39.9931 34.2656 37.2719 36.9869 37.2719 40.3437C37.2719 43.7005 39.9931 46.4217 43.3499 46.4217Z" fill="white"/>
<path d="M29.4211 39.7622C29.5327 38.1978 28.4586 36.8465 27.0219 36.744C25.5853 36.6416 24.3302 37.8267 24.2186 39.3911C24.107 40.9554 25.1812 42.3067 26.6178 42.4092C28.0545 42.5117 29.3096 41.3265 29.4211 39.7622Z" fill="#030001"/>
<path d="M41.1699 43.4736C42.8478 43.4736 44.208 42.1134 44.208 40.4355C44.208 38.7577 42.8478 37.3975 41.1699 37.3975C39.492 37.3975 38.1318 38.7577 38.1318 40.4355C38.1318 42.1134 39.492 43.4736 41.1699 43.4736Z" fill="#030001"/>
<path d="M34.3061 39.5717C34.3061 39.5717 35.5374 38.3958 36.4341 39.8107" stroke="#FF69A6" stroke-width="0.95597" stroke-miterlimit="10"/>
<path d="M58.1931 13.9378C57.5832 13.3623 56.48 13.5421 55.7305 14.3374C55.4628 14.6223 55.09 15.1424 54.7497 15.7217C54.7707 15.1577 54.7516 14.6376 54.698 14.3068C54.5221 13.2266 53.7077 12.4599 52.8817 12.5957C52.0538 12.7314 51.528 13.7161 51.7039 14.7963C51.8798 15.8765 53.0366 18.7368 53.8625 18.603C53.962 18.5877 54.0499 18.5284 54.1302 18.4366C54.8931 18.7598 57.2256 17.1748 57.9369 16.4214C58.6883 15.6261 58.803 14.5133 58.1931 13.9397V13.9378Z" fill="#48C7FF"/>
<path d="M17.8035 66.0707C17.7385 65.7227 17.618 65.1931 17.4708 64.5468C17.4498 64.3996 17.4077 64.2142 17.3408 63.9828C17.2949 63.7878 17.249 63.5851 17.2012 63.3748C16.9661 61.9734 17.3714 60.8511 17.6716 59.9314C17.9182 59.1762 18.0406 57.8971 17.9354 57.1094C17.8704 56.6238 17.7442 56.2414 17.5894 55.9412C16.8972 54.4862 14.6947 53.6775 13.3238 53.3046C13.104 53.2339 12.8975 53.1803 12.7044 53.1402C12.5342 53.0924 12.3583 53.0599 12.1805 53.0427C11.8096 53.0025 11.4253 53.0274 11.0429 53.1287C11.0085 53.1383 10.976 53.1498 10.9415 53.1612C10.9148 53.1689 10.8899 53.1765 10.8651 53.1861C10.8555 53.1899 10.8459 53.1918 10.8364 53.1956C10.7006 53.2454 10.6318 53.2855 10.6318 53.2855C9.78673 53.7176 9.32595 54.6908 9.58024 55.6448L12.6546 67.2388C12.7005 67.4128 12.7636 67.5773 12.8344 67.736H12.8325C12.8325 67.736 12.842 67.757 12.8592 67.7914C13.0714 68.2369 13.3793 68.6135 13.7502 68.908C14.6603 69.6976 16.3045 70.3706 18.9335 68.994C18.2528 67.8602 17.8016 66.0707 17.8016 66.0707H17.8035Z" fill="#48C7FF"/>
<defs>
<radialGradient id="paint0_radial_2778_68797" cx="0" cy="0" r="1" gradientUnits="userSpaceOnUse" gradientTransform="translate(53.7995 50.2498) rotate(12.22) scale(8.11428)">
<stop offset="0.32" stop-color="#8AE9FF"/>
<stop offset="1" stop-color="#48C7FF" stop-opacity="0"/>
</radialGradient>
<linearGradient id="paint1_linear_2778_68797" x1="16.3921" y1="56.9986" x2="23.5819" y2="67.4846" gradientUnits="userSpaceOnUse">
<stop offset="0.11" stop-color="#64E2FF"/>
<stop offset="0.83" stop-color="#48C7FF"/>
</linearGradient>
<linearGradient id="paint2_linear_2778_68797" x1="61.6831" y1="61.0332" x2="60.4538" y2="71.588" gradientUnits="userSpaceOnUse">
<stop offset="0.11" stop-color="#64E2FF"/>
<stop offset="0.83" stop-color="#48C7FF"/>
</linearGradient>
<linearGradient id="paint3_linear_2778_68797" x1="71.7727" y1="66.9389" x2="56.9437" y2="68.1664" gradientUnits="userSpaceOnUse">
<stop offset="0.07" stop-color="white" stop-opacity="0.2"/>
<stop offset="1" stop-color="#27BADB" stop-opacity="0"/>
</linearGradient>
<radialGradient id="paint4_radial_2778_68797" cx="0" cy="0" r="1" gradientUnits="userSpaceOnUse" gradientTransform="translate(28.2915 46.4421) rotate(15.71) scale(4.40832 5.53866)">
<stop offset="0.32" stop-color="#8AE9FF"/>
<stop offset="1" stop-color="#48C7FF" stop-opacity="0"/>
</radialGradient>
</defs>
</svg>
