<svg width="60" height="60" viewBox="0 0 60 60" fill="none" xmlns="http://www.w3.org/2000/svg">
<g clip-path="url(#clip0_2311_41806)">
<path d="M35.1152 9.77551L39.6123 5.49089L37.963 4.83527L33.3711 9.12244L35.1152 9.77551Z" fill="#EF597D"/>
<path d="M32.3313 8.14411L37.0974 3.65973L38.9977 4.69183L34.2572 9.27096L32.3313 8.14411Z" fill="#FFCADC"/>
<path d="M44.3248 14.7311L48.8219 10.4439L47.1726 9.79083L42.5781 14.078L44.3248 14.7311Z" fill="#EF597D"/>
<path d="M41.5408 13.0997L46.3043 8.61536L48.2072 9.64745L43.4641 14.2266L41.5408 13.0997Z" fill="#FFCADC"/>
<path d="M8.21149 42.9512L9.32042 43.5966C8.94395 43.3764 8.42662 43.4071 7.85295 43.74L6.74146 43.0946C7.31513 42.7643 7.83502 42.7335 8.21149 42.9512Z" fill="#2B99B2"/>
<path d="M7.85295 43.74L6.74146 43.0946C6.83476 43.0407 6.93142 42.9927 7.03085 42.9512L8.13978 43.5966C8.04119 43.6382 7.94538 43.6861 7.85295 43.74Z" fill="#2B99B2"/>
<path d="M8.13969 43.5966L7.03076 42.9512C7.11008 42.9181 7.19133 42.8899 7.27406 42.8667L8.38299 43.5121C8.2999 43.5341 8.21857 43.5624 8.13969 43.5966Z" fill="#2B99B2"/>
<path d="M8.3831 43.512L7.27417 42.8641L7.456 42.8257L8.56493 43.4711C8.50343 43.4792 8.44264 43.492 8.3831 43.5095" fill="#2B99B2"/>
<path d="M8.56498 43.4737L7.45605 42.8283L7.60972 42.8129L8.71865 43.4583L8.56498 43.4737Z" fill="#2B99B2"/>
<path d="M8.71855 43.4583L7.60962 42.8129C7.65483 42.8103 7.70015 42.8103 7.74535 42.8129L8.85684 43.4583H8.71855Z" fill="#2B99B2"/>
<path d="M8.85685 43.4583L7.74536 42.8129C7.7889 42.8129 7.82988 42.8129 7.87085 42.8283L8.97978 43.4737L8.85685 43.4583Z" fill="#2B99B2"/>
<path d="M8.97978 43.4736L7.87085 42.8282C7.90993 42.8347 7.94846 42.8441 7.9861 42.8564L9.09503 43.4992L8.97978 43.4736Z" fill="#2B99B2"/>
<path d="M9.09501 43.4993L7.98608 42.8641C8.02368 42.8742 8.06049 42.8871 8.09621 42.9025L9.20514 43.5454L9.09501 43.507" fill="#2B99B2"/>
<path d="M9.20512 43.5377L8.09619 42.8948C8.13152 42.9084 8.16576 42.9247 8.19863 42.9435L9.30244 43.5889L9.2 43.5377" fill="#2B99B2"/>
<path d="M9.30253 43.5889L8.1936 42.9435H8.20641L9.31534 43.5889" fill="#2B99B2"/>
<path d="M6.39827 48.6239L5.28934 47.9862C4.91799 47.7711 4.6875 47.3126 4.6875 46.6621C4.6875 45.3509 5.60435 43.7579 6.73633 43.0997L7.84782 43.7451C6.70816 44.4033 5.78619 45.9963 5.79899 47.3075C5.79899 47.9529 6.02692 48.4088 6.39827 48.6239Z" fill="#2B99B2"/>
<path d="M6.39828 48.6239L5.28935 47.9862C4.918 47.7711 4.6875 47.3127 4.6875 46.6622C4.68726 46.5269 4.69582 46.3917 4.71312 46.2575L5.82204 46.9029C5.80467 47.0371 5.79611 47.1722 5.79643 47.3075C5.79643 47.958 6.02693 48.4139 6.39828 48.629" fill="#2B99B2"/>
<path d="M5.82206 46.8977L4.71313 46.2524C4.72594 46.1576 4.74131 46.0628 4.76179 45.9655L5.87072 46.6109C5.85024 46.7082 5.83487 46.803 5.82206 46.8977Z" fill="#2B99B2"/>
<path d="M5.87065 46.6109L4.76172 45.9655C4.77965 45.8887 4.79757 45.8093 4.82062 45.7299L5.92955 46.3753C5.9065 46.4521 5.88858 46.5315 5.87065 46.6109Z" fill="#2B99B2"/>
<path d="M5.92973 46.3753L4.8208 45.7299C4.83873 45.6582 4.86178 45.589 4.88483 45.5199L5.99376 46.1627C5.97071 46.2344 5.95022 46.3036 5.92973 46.3753Z" fill="#2B99B2"/>
<path d="M5.9937 46.1627L4.88477 45.5199C4.90525 45.4533 4.9283 45.3893 4.95391 45.3253L6.06284 45.9681L5.9937 46.1627Z" fill="#2B99B2"/>
<path d="M6.06278 45.9681L4.94873 45.3253C4.97178 45.2638 4.99739 45.1998 5.02556 45.1383L6.13449 45.7837C6.10632 45.8451 6.08327 45.9066 6.05766 45.9681" fill="#2B99B2"/>
<path d="M6.13969 45.7837L5.03076 45.1383C5.05637 45.0794 5.08454 45.0205 5.11271 44.959L6.22933 45.6044C6.20116 45.6633 6.17298 45.7248 6.14737 45.7837" fill="#2B99B2"/>
<path d="M6.22929 45.6044L5.12036 44.9591C5.14853 44.9002 5.1767 44.8438 5.20744 44.7849L6.31124 45.4252C6.28051 45.4815 6.24978 45.5404 6.22161 45.5993" fill="#2B99B2"/>
<path d="M6.3112 45.4251L5.20483 44.7849C5.23813 44.726 5.26886 44.6671 5.30215 44.6107L6.41108 45.2561C6.37779 45.3124 6.34706 45.3713 6.31632 45.4302" fill="#2B99B2"/>
<path d="M6.40605 45.2561L5.29712 44.6107L5.40468 44.4366L6.51361 45.082L6.40605 45.2561Z" fill="#2B99B2"/>
<path d="M6.51347 45.082L5.40454 44.4366C5.44296 44.3751 5.48393 44.3162 5.52491 44.2573L6.63384 44.9129C6.59286 44.9719 6.55189 45.0308 6.51347 45.0922" fill="#2B99B2"/>
<path d="M6.63383 44.913L5.5249 44.2676C5.56844 44.2061 5.61454 44.1421 5.66064 44.0832L6.76957 44.726C6.72347 44.7875 6.67737 44.8489 6.63383 44.913Z" fill="#2B99B2"/>
<path d="M6.76957 44.7157L5.66064 44.0729C5.71443 44.0012 5.77077 43.9346 5.82711 43.868L6.9386 44.5134C6.8797 44.58 6.82336 44.6466 6.76957 44.7157Z" fill="#2B99B2"/>
<path d="M6.93864 44.5134L5.82715 43.8681C5.90142 43.7835 5.97569 43.7042 6.05252 43.6273L7.16401 44.2727C7.08462 44.3495 7.01035 44.4289 6.93864 44.5134Z" fill="#2B99B2"/>
<path d="M7.16398 44.2727L6.05249 43.6324C6.25998 43.4265 6.49125 43.2459 6.74141 43.0946L7.8529 43.74C7.60093 43.8866 7.36931 44.0657 7.16398 44.2727Z" fill="#2B99B2"/>
<path d="M7.85304 43.74C8.9927 43.0818 9.91723 43.6094 9.92235 44.9181C9.92748 46.2268 9.0055 47.8223 7.87352 48.4805C6.74154 49.1387 5.80677 48.6111 5.8042 47.3024C5.80164 45.9937 6.71337 44.4008 7.85304 43.74Z" fill="#94EBFF"/>
<path d="M7.9554 45.0589C8.54444 44.7183 9.02592 44.9923 9.02848 45.671C9.00906 46.0413 8.90215 46.4017 8.71651 46.7227C8.53088 47.0436 8.2718 47.316 7.96053 47.5175C7.37149 47.8581 6.89001 47.5867 6.88745 46.9054C6.90748 46.5353 7.01465 46.1751 7.20023 45.8542C7.38581 45.5334 7.64456 45.2609 7.9554 45.0589Z" fill="#2B99B2"/>
<path d="M45.7052 42.4262L45.7001 44.1523L30.4465 35.3449L30.4517 33.6213L45.7052 42.4262Z" fill="#896C76"/>
<path d="M30.4515 33.6213L30.4464 35.3449L9.63281 47.4433L9.63793 45.7171L30.4515 33.6213Z" fill="#2B99B2"/>
<path d="M30.4413 31.8849L48.6964 42.4236L24.8967 56.2532L6.6416 45.7171L30.4413 31.8849ZM24.889 54.522L45.7026 42.4262L30.4516 33.6188L9.63545 45.7171L24.889 54.522Z" fill="#58C6E9"/>
<path d="M48.6965 42.4262L48.6913 44.1523L24.8916 57.982L24.8967 56.2558L48.6965 42.4262Z" fill="#2B99B2"/>
<path d="M24.8967 56.2558L24.8916 57.9819L6.63647 47.4432L6.6416 45.7171L24.8967 56.2558Z" fill="#94EBFF"/>
<path d="M49.0728 42.3519L50.1817 42.9972C49.8053 42.7796 49.2854 42.8103 48.7117 43.1407L47.6028 42.4953C48.1765 42.1726 48.6963 42.1419 49.0728 42.3519Z" fill="#2B99B2"/>
<path d="M48.7117 43.1484L47.6028 42.503C47.6964 42.4495 47.793 42.4017 47.8922 42.3596L49.0011 43.0049C48.9017 43.0465 48.805 43.0944 48.7117 43.1484Z" fill="#2B99B2"/>
<path d="M48.9985 43.0049L47.8921 42.3519C47.9713 42.3192 48.0526 42.2918 48.1354 42.2699L49.2443 42.9127C49.1575 42.9363 49.072 42.9645 48.9882 42.9972" fill="#2B99B2"/>
<path d="M49.2547 42.9204L48.1458 42.2776C48.2056 42.2606 48.2663 42.2469 48.3276 42.2366L49.4365 42.882L49.2547 42.9204Z" fill="#2B99B2"/>
<path d="M49.4263 42.882L48.3174 42.2366C48.3686 42.2366 48.4198 42.2315 48.471 42.2213L49.58 42.8666L49.4263 42.882Z" fill="#2B99B2"/>
<path d="M49.5799 42.8641L48.4709 42.2187H48.6067L49.7156 42.8641C49.6704 42.8615 49.6251 42.8615 49.5799 42.8641Z" fill="#2B99B2"/>
<path d="M49.7156 42.8641L48.6067 42.2187C48.6488 42.2211 48.6907 42.2263 48.7322 42.2341L49.8411 42.8769H49.7156" fill="#2B99B2"/>
<path d="M49.8411 42.882L48.7424 42.2392C48.7814 42.2453 48.8198 42.2538 48.8577 42.2648L49.9666 42.9102C49.9289 42.8981 49.8904 42.8887 49.8514 42.882" fill="#2B99B2"/>
<path d="M49.9563 42.9101L48.8474 42.2648C48.885 42.2749 48.9218 42.2877 48.9575 42.3032L50.0665 42.9486C50.0307 42.9331 49.9939 42.9203 49.9563 42.9101Z" fill="#2B99B2"/>
<path d="M50.0664 42.9486L48.9575 42.3032C48.9929 42.3177 49.0271 42.3348 49.06 42.3544L50.1689 42.9998C50.1361 42.9802 50.1018 42.9631 50.0664 42.9486Z" fill="#2B99B2"/>
<path d="M50.169 42.9998L49.0601 42.3519L50.169 42.9973H50.1562" fill="#2B99B2"/>
<path d="M47.2597 48.0348L46.1482 47.3895C45.7794 47.1743 45.5489 46.7159 45.5464 46.0654C45.5464 44.7567 46.4632 43.1612 47.5952 42.503L48.7041 43.1484C47.567 43.8066 46.6553 45.4021 46.6553 46.7108C46.6579 47.3613 46.8884 47.8197 47.2597 48.0348Z" fill="#2B99B2"/>
<path d="M47.2597 48.0349L46.1482 47.3895C45.7794 47.1743 45.5489 46.7159 45.5464 46.0654C45.547 45.9309 45.5564 45.7966 45.5746 45.6633L46.6835 46.3062C46.6649 46.4402 46.6564 46.5755 46.6579 46.7108C46.6579 47.3613 46.8884 47.8197 47.2597 48.0349Z" fill="#2B99B2"/>
<path d="M46.6936 46.3061L45.5847 45.6633C45.5975 45.5685 45.6129 45.4712 45.6334 45.3765L46.7423 46.0218C46.7218 46.1166 46.7065 46.2114 46.6936 46.3061Z" fill="#2B99B2"/>
<path d="M46.7322 46.0219L45.6233 45.3765C45.6387 45.2971 45.6591 45.2177 45.6822 45.1383L46.7911 45.7837C46.7681 45.8631 46.7501 45.9425 46.7322 46.0219Z" fill="#2B99B2"/>
<path d="M46.7911 45.7837L45.6821 45.1383C45.7001 45.0691 45.7231 45 45.7462 44.9283L46.8551 45.5737C46.832 45.6428 46.809 45.7145 46.7911 45.7837Z" fill="#2B99B2"/>
<path d="M46.855 45.5737L45.7461 44.9283C45.7666 44.8643 45.7896 44.7977 45.8152 44.7336L46.9242 45.379C46.8986 45.4431 46.8755 45.5071 46.855 45.5737Z" fill="#2B99B2"/>
<path d="M46.9241 45.379L45.8152 44.7337C45.8374 44.6722 45.863 44.6107 45.892 44.5493L47.0009 45.1946C46.9736 45.2561 46.948 45.3176 46.9241 45.379Z" fill="#2B99B2"/>
<path d="M47.001 45.1946L45.8921 44.5493C45.9177 44.4878 45.9433 44.4289 45.974 44.37L47.083 45.0154C47.0548 45.0743 47.0266 45.1332 47.001 45.1946Z" fill="#2B99B2"/>
<path d="M47.0831 45.0154L45.9741 44.37C46.0023 44.3111 46.0305 44.2522 46.0612 44.1933L47.1701 44.8387C47.1394 44.8976 47.1112 44.9565 47.0831 45.0154Z" fill="#2B99B2"/>
<path d="M47.17 44.8386L46.061 44.1933L46.1584 44.0217L47.2673 44.6645L47.17 44.8386Z" fill="#2B99B2"/>
<path d="M47.2674 44.6568L46.1584 44.014C46.1909 43.9542 46.2267 43.8953 46.266 43.8373L47.3749 44.4827L47.2674 44.6568Z" fill="#2B99B2"/>
<path d="M47.375 44.4904L46.2661 43.845L46.3839 43.6683L47.4928 44.3137C47.4519 44.37 47.4135 44.4315 47.375 44.4904Z" fill="#2B99B2"/>
<path d="M47.4927 44.3137L46.3838 43.6683L46.5221 43.4813L47.631 44.1267L47.4927 44.3137Z" fill="#2B99B2"/>
<path d="M47.6311 44.1267L46.5222 43.4813C46.576 43.4122 46.6323 43.343 46.6887 43.279L47.7976 43.9218C47.7413 43.9884 47.6849 44.0575 47.6311 44.1267Z" fill="#2B99B2"/>
<path d="M47.7977 43.9218L46.6938 43.279C46.7681 43.1945 46.8424 43.1151 46.9192 43.0383L48.0282 43.6837C47.9513 43.7579 47.877 43.8399 47.8028 43.9218" fill="#2B99B2"/>
<path d="M48.023 43.6836L46.9141 43.0382C47.1206 42.8319 47.352 42.6521 47.603 42.503L48.7119 43.1484C48.461 43.2975 48.2295 43.4773 48.023 43.6836Z" fill="#2B99B2"/>
<path d="M48.7118 43.1483C49.8515 42.4901 50.7786 43.0177 50.7837 44.329C50.7888 45.6402 49.8668 47.2332 48.7349 47.8914C47.6029 48.5496 46.6681 48.0194 46.6655 46.7107C46.663 45.402 47.5747 43.8065 48.7118 43.1483Z" fill="#94EBFF"/>
<path d="M48.8142 44.4699C49.4058 44.1292 49.8872 44.4007 49.8898 45.0794C49.8702 45.45 49.7632 45.8106 49.5776 46.132C49.392 46.4533 49.133 46.7263 48.8219 46.9284C48.2328 47.2691 47.7513 46.995 47.7488 46.3164C47.7683 45.9464 47.875 45.5863 48.0602 45.2654C48.2453 44.9445 48.5037 44.6719 48.8142 44.4699Z" fill="#1D7A89"/>
<path d="M27.7906 54.1839L28.8995 54.8293C28.523 54.6116 28.0032 54.6423 27.4295 54.9727L26.3206 54.3273C26.8942 53.9969 27.4141 53.9662 27.7906 54.1839Z" fill="#2B99B2"/>
<path d="M27.4295 54.9727L26.3206 54.3273C26.4144 54.2744 26.511 54.2265 26.61 54.1839L27.7189 54.8293C27.6195 54.8709 27.5228 54.9188 27.4295 54.9727Z" fill="#2B99B2"/>
<path d="M27.7188 54.8293L26.6099 54.1839C26.6932 54.1507 26.7788 54.1233 26.866 54.1019L27.9749 54.7447C27.8955 54.7678 27.8161 54.796 27.7188 54.8293Z" fill="#2B99B2"/>
<path d="M27.9622 54.7448L26.8533 54.102C26.9131 54.0849 26.9738 54.0712 27.0351 54.061L28.144 54.7064L27.9622 54.7448Z" fill="#2B99B2"/>
<path d="M28.1441 54.7063L27.0352 54.061C27.0864 54.061 27.1376 54.0558 27.1888 54.0456L28.2977 54.691L28.1441 54.7063Z" fill="#2B99B2"/>
<path d="M28.2977 54.691L27.1887 54.0456H27.3245L28.4334 54.691C28.3882 54.6871 28.3428 54.6871 28.2977 54.691Z" fill="#2B99B2"/>
<path d="M28.4334 54.6935L27.3245 54.0482C27.3666 54.0506 27.4085 54.0557 27.45 54.0635L28.5589 54.7063C28.5174 54.6994 28.4755 54.6951 28.4334 54.6935Z" fill="#2B99B2"/>
<path d="M28.5589 54.7064L27.45 54.0635C27.4889 54.0694 27.5274 54.0779 27.5652 54.0891L28.6741 54.7345C28.6365 54.7222 28.598 54.7128 28.5589 54.7064Z" fill="#2B99B2"/>
<path d="M28.6741 54.7345L27.5652 54.0891C27.6028 54.0992 27.6396 54.1121 27.6753 54.1275L28.7842 54.7729C28.7485 54.7574 28.7117 54.7446 28.6741 54.7345Z" fill="#2B99B2"/>
<path d="M28.7842 54.7729L27.6753 54.1327C27.7107 54.1472 27.7449 54.1643 27.7777 54.1839L28.8867 54.8267C28.8538 54.808 28.8195 54.7917 28.7842 54.7781" fill="#2B99B2"/>
<path d="M28.8868 54.8216L27.7778 54.1788L28.8868 54.8242" fill="#2B99B2"/>
<path d="M25.9774 59.8592L24.8684 59.2138C24.4971 58.9987 24.2666 58.5402 24.2666 57.8897C24.2666 56.581 25.1835 54.9855 26.3154 54.3273L27.4244 54.9727C26.2873 55.6309 25.3755 57.2264 25.3755 58.5351C25.3755 59.1856 25.606 59.644 25.9774 59.8592Z" fill="#2B99B2"/>
<path d="M25.9773 59.8592L24.8684 59.2138C24.497 58.9987 24.2665 58.5403 24.2665 57.8898C24.2651 57.7544 24.2736 57.6192 24.2921 57.4851L25.4011 58.1305C25.3838 58.2647 25.3752 58.3998 25.3754 58.5351C25.3754 59.1856 25.6059 59.6441 25.9773 59.8592Z" fill="#2B99B2"/>
<path d="M25.4012 58.1305L24.2922 57.4851C24.2922 57.3903 24.3204 57.2956 24.3409 57.2008L25.4498 57.8436C25.4293 57.9409 25.414 58.0357 25.4012 58.1305Z" fill="#2B99B2"/>
<path d="M25.4498 57.8436L24.3408 57.2059C24.3587 57.1266 24.3767 57.0472 24.3997 56.9678L25.5087 57.6132C25.4856 57.6925 25.4677 57.7719 25.4498 57.8488" fill="#2B99B2"/>
<path d="M25.5087 57.608L24.4126 56.9626C24.4305 56.8935 24.4536 56.8218 24.4766 56.7526L25.5856 57.398C25.5625 57.4672 25.5395 57.5389 25.5215 57.608" fill="#2B99B2"/>
<path d="M25.5726 57.398L24.4636 56.7526C24.4841 56.6886 24.5072 56.622 24.5328 56.558L25.6417 57.2059C25.6187 57.27 25.593 57.334 25.5726 57.4006" fill="#2B99B2"/>
<path d="M25.6419 57.2059L24.533 56.5606C24.5569 56.4991 24.5825 56.4376 24.6098 56.3762L25.7187 57.019C25.6905 57.0804 25.6675 57.1445 25.6419 57.2059Z" fill="#2B99B2"/>
<path d="M25.7185 57.0164L24.6096 56.3736C24.6352 56.3121 24.6608 56.2532 24.6916 56.1943L25.8005 56.8397C25.7723 56.8986 25.7442 56.9575 25.7185 57.0164Z" fill="#2B99B2"/>
<path d="M25.8006 56.8397L24.6917 56.1944C24.7198 56.1354 24.748 56.0765 24.7787 56.0176L25.8902 56.663C25.8569 56.7219 25.8288 56.7808 25.8006 56.8397Z" fill="#2B99B2"/>
<path d="M25.8903 56.663L24.7788 56.0176L24.8761 55.8434L25.9851 56.4888L25.8903 56.663Z" fill="#2B99B2"/>
<path d="M25.9849 56.4888L24.876 55.8435C24.9118 55.7846 24.9451 55.7282 24.9835 55.6693L26.0925 56.3147L25.9849 56.4888Z" fill="#2B99B2"/>
<path d="M26.0926 56.3147L24.9836 55.6693C25.0221 55.6104 25.0605 55.5515 25.1015 55.4926L26.2129 56.1354C26.172 56.1943 26.131 56.2532 26.0926 56.3147Z" fill="#2B99B2"/>
<path d="M26.2052 56.1354L25.0938 55.4926L25.232 55.3057L26.341 55.951C26.2949 56.01 26.2488 56.074 26.2052 56.1354Z" fill="#2B99B2"/>
<path d="M26.3487 55.951L25.2397 55.3057C25.2935 55.2365 25.3499 55.1674 25.4062 55.1008L26.5177 55.7462C26.4588 55.8127 26.4025 55.8793 26.3487 55.951Z" fill="#2B99B2"/>
<path d="M26.5177 55.7462L25.4062 55.1008C25.4805 55.0188 25.5548 54.9394 25.6316 54.8626L26.7406 55.5054C26.6637 55.5823 26.5895 55.6642 26.5177 55.7462Z" fill="#2B99B2"/>
<path d="M26.7405 55.5054L25.6316 54.8626C25.8381 54.6563 26.0696 54.4765 26.3205 54.3273L27.4294 54.9727C27.1796 55.1224 26.9483 55.3012 26.7405 55.5054Z" fill="#2B99B2"/>
<path d="M27.4293 54.9727C28.569 54.3145 29.4961 54.8421 29.5012 56.1533C29.5063 57.4646 28.5844 59.0575 27.4524 59.7157C26.3204 60.3739 25.3856 59.8438 25.3831 58.5351C25.3805 57.2264 26.2922 55.6309 27.4293 54.9727Z" fill="#94EBFF"/>
<path d="M27.5319 56.2942C28.1235 55.951 28.605 56.225 28.6076 56.9037C28.5875 57.2742 28.4804 57.6347 28.2948 57.956C28.1093 58.2773 27.8505 58.5503 27.5396 58.7528C26.9506 59.0934 26.4691 58.8193 26.4666 58.1407C26.4867 57.7709 26.5936 57.411 26.7787 57.0902C26.9638 56.7694 27.2219 56.4967 27.5319 56.2942Z" fill="#1D7A89"/>
<path d="M49.6696 17.0104L25.0324 35.8391L5.22021 24.2581L29.632 5.2962L49.6696 17.0104Z" fill="#F9BBD3"/>
<path d="M49.6695 17.0104L48.9934 41.4581L24.9939 48.2295L25.0323 35.8392L49.6695 17.0104Z" fill="#EF597D"/>
<path d="M25.0324 35.8392L24.994 48.2295L5.22021 36.6869V24.2582L25.0324 35.8392Z" fill="url(#paint0_linear_2311_41806)"/>
<path d="M31.9703 33.6444C32.3417 33.4318 32.6439 33.6034 32.6439 34.0285L32.6695 42.5363C32.6566 42.7688 32.5891 42.9949 32.4725 43.1965C32.356 43.398 32.1936 43.5693 31.9985 43.6964L30.718 44.4314C30.3466 44.6466 30.0444 44.475 30.0444 44.0473L30.0188 35.5421C30.0311 35.3095 30.0983 35.0831 30.2149 34.8814C30.3316 34.6798 30.4943 34.5086 30.6898 34.3819L31.9703 33.6444Z" fill="#952143"/>
<path d="M38.7083 29.8309C39.0797 29.6158 39.3793 29.7874 39.3819 30.2151L39.4049 38.7203C39.3929 38.9527 39.3261 39.179 39.2099 39.3806C39.0938 39.5822 38.9315 39.7535 38.7365 39.8805L37.456 40.6155C37.0846 40.8306 36.7824 40.659 36.7799 40.2313L36.7568 31.7261C36.7697 31.4936 36.8372 31.2675 36.9538 31.0659C37.0704 30.8644 37.2328 30.6931 37.4278 30.566L38.7083 29.8309Z" fill="#952143"/>
<path d="M44.7064 26.2814C45.0778 26.0663 45.38 26.2378 45.3825 26.6655L45.4132 35.181C45.4003 35.4135 45.3329 35.6396 45.2163 35.8412C45.0997 36.0427 44.9373 36.214 44.7423 36.3411L43.4617 37.0762C43.0929 37.2913 42.7907 37.1197 42.7882 36.692L42.7651 28.1868C42.7772 27.9544 42.844 27.7281 42.9601 27.5265C43.0763 27.3249 43.2385 27.1536 43.4336 27.0266L44.7064 26.2814Z" fill="#952143"/>
<path d="M45.1802 17.223L25.0734 33.0015L9.38965 23.8765L29.6526 8.31311L45.1802 17.223Z" fill="#EF597D"/>
<path d="M29.6423 8.31311V20.688L36.109 24.3939L45.1802 17.223L29.6423 8.31311Z" fill="#C12B56"/>
<path d="M29.6423 20.6932L18.5376 29.2009L25.0734 33.0015L36.1089 24.3939L29.6423 20.6932Z" fill="#952142"/>
<path d="M35.1459 0.163907L54.5586 10.7C54.291 10.5579 53.9848 10.5058 53.6852 10.5515L34.27 0.0153672C34.5704 -0.0305241 34.8775 0.021562 35.1459 0.163907Z" fill="#EF597D"/>
<path d="M53.6852 10.5515L34.27 0.0153588C34.4587 -0.0130576 34.6511 -0.00347943 34.836 0.0435303L54.2512 10.5796C54.0663 10.5328 53.8739 10.5232 53.6852 10.5515Z" fill="#EF597D"/>
<path d="M54.2512 10.5796L34.8359 0.0435181C34.9244 0.0658855 35.0103 0.0976522 35.092 0.138276L54.5047 10.6744C54.4224 10.635 54.3367 10.6033 54.2486 10.5796" fill="#EF597D"/>
<path d="M54.5098 10.6744L35.0972 0.138306L35.1458 0.163916L54.5585 10.7L54.5098 10.6744Z" fill="#EF597D"/>
<path d="M53.6853 10.5515C54.5894 10.4234 55.3218 11.1123 55.3193 12.0881C55.3208 12.56 55.1577 13.0177 54.858 13.3824C54.5584 13.747 54.1409 13.9957 53.6776 14.0857C52.771 14.2137 52.0386 13.5248 52.0386 12.5491C52.0378 12.0765 52.2018 11.6185 52.5024 11.2539C52.803 10.8892 53.2213 10.6408 53.6853 10.5515Z" fill="#952142"/>
<path d="M52.7991 13.9244L33.3762 3.39595C33.1344 3.25656 32.9351 3.05394 32.7997 2.80984C32.6644 2.56574 32.598 2.28938 32.6079 2.01043C32.6076 1.53868 32.7715 1.08155 33.0715 0.717502C33.3716 0.353455 33.789 0.105209 34.2521 0.0153809L53.6852 10.5515C53.2216 10.6408 52.8037 10.8888 52.5031 11.2529C52.2026 11.617 52.0383 12.0744 52.0385 12.5465C52.0293 12.8234 52.0951 13.0977 52.229 13.3402C52.3629 13.5828 52.5599 13.7846 52.7991 13.9244Z" fill="#F9BBD3"/>
<path d="M52.7991 13.9244L33.3762 3.39597C33.1344 3.25658 32.9351 3.05396 32.7997 2.80986C32.6644 2.56576 32.598 2.28939 32.6079 2.01045C32.6089 1.77355 32.6514 1.53866 32.7334 1.31641L52.1486 11.8525C52.0648 12.0744 52.0214 12.3094 52.0206 12.5466C52.0102 12.8259 52.0763 13.1028 52.2117 13.3474C52.3471 13.592 52.5467 13.795 52.7889 13.9346" fill="#EF597D"/>
<path d="M52.1665 11.8525L32.7512 1.31639C32.7867 1.22145 32.8287 1.12904 32.8767 1.03979L52.2894 11.5759C52.2411 11.6647 52.2 11.7572 52.1665 11.8525Z" fill="#EF597D"/>
<path d="M52.2894 11.5759L32.8767 1.03977C32.9171 0.96568 32.9616 0.893863 33.0099 0.824646L52.4226 11.3633C52.3743 11.4325 52.3298 11.5044 52.2894 11.5784" fill="#EF597D"/>
<path d="M52.4227 11.3633L33.01 0.824651C33.0552 0.759045 33.1049 0.696583 33.1585 0.637695L52.584 11.1738C52.5309 11.2332 52.4813 11.2956 52.4355 11.3608" fill="#EF597D"/>
<path d="M52.5839 11.1738L33.1584 0.637717C33.2107 0.578238 33.2662 0.521802 33.3249 0.468689L52.7376 11.0048C52.6789 11.0579 52.6233 11.1143 52.5711 11.1738" fill="#EF597D"/>
<path d="M52.7376 11.0048L33.325 0.468662C33.388 0.412221 33.4547 0.360032 33.5247 0.312439L52.9374 10.8511C52.868 10.8995 52.8013 10.9517 52.7376 11.0073" fill="#EF597D"/>
<path d="M52.9373 10.8511L33.5247 0.312476C33.6057 0.254405 33.6914 0.203015 33.7808 0.158813L53.1934 10.6949C53.104 10.7391 53.0184 10.7905 52.9373 10.8486" fill="#EF597D"/>
<path d="M53.2037 10.6949L33.791 0.158799C33.9424 0.0868233 34.1039 0.0384566 34.2699 0.0153809L53.6852 10.5515C53.5182 10.5742 53.3558 10.6226 53.2037 10.6949Z" fill="#EF597D"/>
</g>
<defs>
<linearGradient id="paint0_linear_2311_41806" x1="17.8256" y1="31.5366" x2="12.3886" y2="40.9536" gradientUnits="userSpaceOnUse">
<stop stop-color="#FEF0F5"/>
<stop offset="0.53" stop-color="#FBD1E1"/>
<stop offset="1" stop-color="#F9BBD3"/>
</linearGradient>
<clipPath id="clip0_2311_41806">
<rect width="50.6343" height="60" fill="white" transform="translate(4.6875)"/>
</clipPath>
</defs>
</svg>
